<svg width="20" height="20" viewBox="0 0 20 20" fill="none" xmlns="http://www.w3.org/2000/svg">
<path fill-rule="evenodd" clip-rule="evenodd" d="M1.24888 10.0002C1.24888 10.1659 1.31473 10.3249 1.43194 10.4421C1.54915 10.5593 1.70812 10.6252 1.87388 10.6252L16.6151 10.6252L12.6814 14.5577C12.6233 14.6158 12.5772 14.6848 12.5457 14.7607C12.5143 14.8366 12.4981 14.918 12.4981 15.0002C12.4981 15.0824 12.5143 15.1637 12.5457 15.2397C12.5772 15.3156 12.6233 15.3846 12.6814 15.4427C12.7395 15.5008 12.8085 15.5469 12.8844 15.5783C12.9603 15.6098 13.0417 15.626 13.1239 15.626C13.2061 15.626 13.2874 15.6098 13.3634 15.5783C13.4393 15.5469 13.5083 15.5008 13.5664 15.4427L18.5664 10.4427C18.6246 10.3846 18.6708 10.3157 18.7023 10.2397C18.7338 10.1638 18.75 10.0824 18.75 10.0002C18.75 9.91798 18.7338 9.83658 18.7023 9.76065C18.6708 9.68471 18.6246 9.61574 18.5664 9.55769L13.5664 4.55769C13.5083 4.49958 13.4393 4.45348 13.3634 4.42203C13.2874 4.39058 13.2061 4.3744 13.1239 4.3744C13.0417 4.3744 12.9603 4.39058 12.8844 4.42203C12.8085 4.45348 12.7395 4.49958 12.6814 4.55769C12.6233 4.6158 12.5772 4.68478 12.5457 4.76071C12.5143 4.83663 12.4981 4.91801 12.4981 5.00019C12.4981 5.08237 12.5143 5.16374 12.5457 5.23967C12.5772 5.31559 12.6233 5.38458 12.6814 5.44269L16.6151 9.37519L1.87388 9.37519C1.70812 9.37519 1.54915 9.44104 1.43194 9.55825C1.31473 9.67546 1.24888 9.83443 1.24888 10.0002Z" fill="#fff"/>
</svg>
