<svg width="16" height="11" viewBox="0 0 16 11" fill="none" xmlns="http://www.w3.org/2000/svg">
<path fill-rule="evenodd" clip-rule="evenodd" d="M16 5.49998C16 5.65024 15.9398 5.79436 15.8326 5.90061C15.7255 6.00687 15.5802 6.06656 15.4286 6.06656L1.95175 6.06656L5.5481 9.63153C5.60122 9.68421 5.64336 9.74675 5.67211 9.81558C5.70087 9.8844 5.71566 9.95817 5.71566 10.0327C5.71566 10.1072 5.70087 10.1809 5.67211 10.2498C5.64336 10.3186 5.60122 10.3811 5.5481 10.4338C5.49497 10.4865 5.4319 10.5283 5.36249 10.5568C5.29308 10.5853 5.21868 10.6 5.14355 10.6C5.06842 10.6 4.99402 10.5853 4.92461 10.5568C4.8552 10.5283 4.79213 10.4865 4.739 10.4338L0.167868 5.90112C0.114656 5.84849 0.0724385 5.78596 0.0436329 5.71713C0.0148274 5.64829 0 5.5745 0 5.49998C0 5.42545 0.0148274 5.35166 0.0436329 5.28282C0.0724385 5.21399 0.114656 5.15146 0.167868 5.09883L4.739 0.566135C4.79213 0.513456 4.8552 0.471669 4.92461 0.443159C4.99402 0.41465 5.06842 0.399976 5.14355 0.399976C5.21868 0.399976 5.29308 0.41465 5.36249 0.443159C5.4319 0.471669 5.49497 0.513456 5.5481 0.566135C5.60122 0.618814 5.64336 0.681353 5.67211 0.750181C5.70087 0.81901 5.71566 0.892779 5.71566 0.967278C5.71566 1.04178 5.70087 1.11555 5.67211 1.18438C5.64336 1.2532 5.60122 1.31574 5.5481 1.36842L1.95175 4.93339L15.4286 4.93339C15.5802 4.93339 15.7255 4.99308 15.8326 5.09934C15.9398 5.20559 16 5.34971 16 5.49998Z" fill="#041E42"/>
</svg>
