<svg width="24" height="20" viewBox="0 0 24 20" fill="none" xmlns="http://www.w3.org/2000/svg">
<path fill-rule="evenodd" clip-rule="evenodd" d="M24 10C24 10.3788 23.842 10.7421 23.5607 11.01C23.2794 11.2778 22.8979 11.4283 22.5002 11.4283L5.12311 11.4283L11.5634 17.5586C11.7028 17.6914 11.8135 17.8491 11.8889 18.0226C11.9644 18.1961 12.0032 18.3821 12.0032 18.5699C12.0032 18.7577 11.9644 18.9437 11.8889 19.1172C11.8135 19.2907 11.7028 19.4483 11.5634 19.5811C11.4239 19.7139 11.2584 19.8193 11.0762 19.8911C10.894 19.963 10.6987 20 10.5015 20C10.3043 20 10.109 19.963 9.92682 19.8911C9.74462 19.8193 9.57908 19.7139 9.43963 19.5811L0.440632 11.0112C0.300958 10.8786 0.190142 10.721 0.114531 10.5474C0.0389199 10.3739 4.11452e-07 10.1879 4.03865e-07 10C3.96277e-07 9.81213 0.0389199 9.6261 0.114531 9.45258C0.190142 9.27905 0.300958 9.12143 0.440632 8.98876L9.43963 0.418872C9.72126 0.150673 10.1032 -4.77984e-07 10.5015 -4.96827e-07C10.8998 -5.15669e-07 11.2818 0.150673 11.5634 0.418872C11.845 0.687071 12.0032 1.05083 12.0032 1.43012C12.0032 1.80941 11.845 2.17317 11.5634 2.44136L5.12311 8.57169L22.5002 8.57169C22.8979 8.57169 23.2794 8.72217 23.5607 8.99003C23.842 9.25789 24 9.62119 24 10Z" fill="white"/>
</svg>
