<svg width="24" height="24" viewBox="0 0 24 24" fill="none" xmlns="http://www.w3.org/2000/svg">
<path d="M18.1844 17.4468C21.617 17.4468 24 14.6667 24 9.70213C24 3.80142 19.4043 0 12.3121 0C5.53191 0 0 4.4539 0 11.9433C0 19.9149 5.16312 24 12.0284 24C13.7305 24 15.8582 23.7731 17.617 23.2908C17.5319 22.695 17.5035 22.1277 17.4184 21.5319C15.8298 21.9858 13.9291 22.1844 12.4539 22.1844C5.64539 22.1844 1.84397 18.3262 1.84397 11.9433C1.84397 6.32624 5.8156 1.75886 12.2553 1.75886C17.5035 1.75886 22.1277 4.56738 22.1277 9.7305C22.1277 13.5887 20.9362 15.773 18.1844 15.773C16.0284 15.773 15.8582 14.383 16.0567 12.7092L16.7092 7.51773C15.4894 6.83688 14.0142 6.41135 12.7376 6.41135C9.8156 6.41135 7.14894 8.31206 7.14894 12.3404C7.14894 14.9504 8.59574 16.3121 10.6383 16.3121C11.9149 16.3121 13.2482 15.773 14.3262 14.5816C14.4965 16.5674 16.1986 17.4468 18.1844 17.4468ZM14.2411 13.1631C13.3333 14.2411 12.1702 14.8085 11.0922 14.8085C9.78723 14.8085 8.99291 14.0426 8.99291 11.9149C8.99291 9.33333 10.5816 7.88652 12.6241 7.88652C13.3333 7.88652 14.0993 8.05674 14.8652 8.42553L14.2411 13.1631Z" fill="#D3D5DF"/>
</svg>
