<?xml version="1.0" encoding="iso-8859-1"?>
<!-- Generator: Adobe Illustrator 19.0.0, SVG Export Plug-In . SVG Version: 6.00 Build 0)  -->
<svg fill="#041E42" version="1.1" id="Capa_1" xmlns="http://www.w3.org/2000/svg" xmlns:xlink="http://www.w3.org/1999/xlink" x="0px" y="0px"
	 viewBox="0 0 512 512" style="enable-background:new 0 0 512 512;" xml:space="preserve">
<g>
	<g>
		<g>
			<path d="M123.583,282.227c0,0.001,0.001,0.004,0.001,0.004C123.901,281.911,123.88,281.93,123.583,282.227z"/>
			<path d="M500.65,211.459l-25.46-6.122c-5.536-24.167-15.071-47.133-28.399-68.487l12.903-21.662
				c3.516-5.902,2.563-13.431-2.285-18.279l-42.285-42.285c-4.848-4.833-12.361-5.8-18.279-2.285l-21.662,12.903
				c-21.354-13.328-44.32-22.863-68.487-28.399l-6.122-25.46c-1.67-6.664-7.66-11.352-14.544-11.352h-59.992
				c-6.884,0-12.874,4.687-14.544,11.352l-6.122,25.46c-24.167,5.536-47.133,15.071-68.487,28.399l-21.662-12.903
				c-5.902-3.516-13.431-2.563-18.279,2.285L54.657,96.908c-4.848,4.848-5.8,12.376-2.285,18.279l12.903,21.662
				c-13.328,21.354-22.863,44.32-28.399,68.487l-25.46,6.122c-6.664,1.67-11.352,7.66-11.352,14.544v59.992
				c0,6.884,4.687,12.889,11.366,14.544l25.46,6.122c3.691,16.014,9.246,31.399,16.38,46.155
				c11.015-11.06,66.337-66.619,70.313-70.59c-0.196-1.01-2.339-20.221-2.396-23.963c-1.276-76.427,60.283-137.233,134.904-137.233
				c75.132,0,135.043,60.582,134.76,135.437c-0.322,69.227-51.991,128.161-124.155,133.551c-3.122,0.24-17.236,2.322-36.909-1.556
				l-70.391,70.391c14.7,7.091,30.027,12.61,45.975,16.287l6.122,25.475c1.67,6.664,7.66,11.352,14.544,11.352h59.992
				c6.884,0,12.874-4.687,14.544-11.352l6.122-25.46c24.167-5.536,47.133-15.071,68.487-28.399l21.662,12.903
				c5.873,3.516,13.416,2.549,18.279-2.285l42.285-42.285c4.848-4.848,5.8-12.376,2.285-18.279l-12.903-21.662
				c13.343-21.354,22.863-44.32,28.399-68.502l25.445-6.107c6.679-1.655,11.366-7.66,11.366-14.544v-59.992
				C512,219.119,507.314,213.128,500.65,211.459z"/>
		</g>
	</g>
</g>
<g>
	<g>
		<path d="M357.518,228.58c-1.317-5.164-5.304-9.226-10.445-10.634c-5.139-1.41-10.63,0.059-14.399,3.827L298.449,256
			c-11.699,11.699-30.717,11.699-42.417,0c-11.688-11.688-11.688-30.728,0-42.417l34.24-34.24c3.768-3.768,5.223-9.268,3.814-14.405
			c-1.41-5.137-5.467-9.13-10.63-10.442c-63.286-16.083-120.238,25.14-130.683,82.067c-3.354,18.748-1.86,37.422,4.276,54.617
			c-8.534,8.535-140.348,140.347-143.891,143.892c-17.591,17.591-17.591,46.21,0.278,64.079
			c17.702,16.78,44.813,17.486,63.522-0.278l143.892-143.892c23.043,8.224,48.742,8.057,73.891-0.817
			C340.056,338.174,371.771,284.511,357.518,228.58z"/>
	</g>
</g>
<g>
</g>
<g>
</g>
<g>
</g>
<g>
</g>
<g>
</g>
<g>
</g>
<g>
</g>
<g>
</g>
<g>
</g>
<g>
</g>
<g>
</g>
<g>
</g>
<g>
</g>
<g>
</g>
<g>
</g>
</svg>
