<svg xmlns="http://www.w3.org/2000/svg" width="300.25" height="201.831" viewBox="0 0 300.25 201.831">
  <path id="bike-svgrepo-com" d="M238.7,127.946a61.414,61.414,0,0,0-14.847,1.67L204.9,78.661h6.176a36.838,36.838,0,0,0,25.887-10.345l6.541-6.273a7.48,7.48,0,1,0-10.447-10.707l-6.541,6.206a21.92,21.92,0,0,1-15.439,6.118H194.1a7.71,7.71,0,0,0-7.026,10.35l7.214,19.372c-.046,0-.093.141-.139.141-.016,0-.032.137-.049.137H98.126L85.165,71.823l14.078-4.895a7.312,7.312,0,0,0-2.436-14.267H55.6A10.324,10.324,0,0,0,45.122,62.942,16.073,16.073,0,0,0,66.6,78.128L70.7,76.7l13.146,22-10.1,30.285A61.541,61.541,0,1,0,59.541,250.8c.673.021,1.34.032,2.008.032a61.116,61.116,0,0,0,44.212-18.794,61.909,61.909,0,0,0,16.885-35.38H134.7a16.119,16.119,0,0,0,9.639,3.634A14.854,14.854,0,0,0,159.2,185.461a14.7,14.7,0,0,0-1.942-7.3L199.3,106.853l10.553,28.289a61.524,61.524,0,1,0,28.85-7.2Zm-57.724-19.285-36.606,62.091c-.013,0-.025-.062-.037-.062-.043,0-.084.1-.127.1l-37.131-62.125h73.9Zm-86.987,7.008,37.378,62.514a19.968,19.968,0,0,0-1.412,3.478h-7.326a61.98,61.98,0,0,0-34.658-48ZM74.447,181.661a9.106,9.106,0,0,0-1.728-2.233L81.584,152.8a42.535,42.535,0,0,1,20.834,28.859Zm16.948,36.465a41.527,41.527,0,1,1-29.848-70.39c.455,0,.91.01,1.369.024a41.59,41.59,0,0,1,4.439.389l-8.966,26.9a14.822,14.822,0,0,0,3.382,29.262,14.021,14.021,0,0,0,12.947-7.65h27.7A41.428,41.428,0,0,1,91.395,218.126ZM238.7,231.042a41.535,41.535,0,0,1-21.769-76.917l14.1,37.785a7.5,7.5,0,0,0,14.052-5.244l-14.169-37.977a41.545,41.545,0,1,1,7.788,82.353Z" transform="translate(0 -49.208)" fill="#232f5d"/>
</svg>
