<svg xmlns="http://www.w3.org/2000/svg" width="27" height="28" viewBox="0 0 27 28">
  <g id="Group_3" data-name="Group 3" transform="translate(-634 -349)">
    <g id="Group_2" data-name="Group 2" transform="translate(2 1.5)">
      <g id="Group_1" data-name="Group 1">
        <path id="angle-down" d="M21.8,10.75a.539.539,0,0,1-.156.359L14.36,18.39a.491.491,0,0,1-.718,0L6.361,11.109a.491.491,0,0,1,0-.718l.781-.781A.508.508,0,0,1,7.5,9.454a.539.539,0,0,1,.359.156L14,15.751,20.142,9.61a.491.491,0,0,1,.718,0l.781.781a.536.536,0,0,1,.156.359Z" transform="translate(631.795 349.546)" fill="#041e42"/>
        <line id="Line_1" data-name="Line 1" y2="14" transform="translate(645.8 352.5)" fill="none" stroke="#041e42" stroke-width="2"/>
      </g>
      <path id="Path_1" data-name="Path 1" d="M638,370.625h15.592" transform="translate(0 -1)" fill="none" stroke="#041e42" stroke-width="2"/>
    </g>
    <g id="Rectangle_1" data-name="Rectangle 1" transform="translate(634 349)" fill="none" stroke="#041e42" stroke-width="2">
      <rect width="27" height="28" stroke="none"/>
      <rect x="1" y="1" width="25" height="26" fill="none"/>
    </g>
  </g>
</svg>
