<?xml version="1.0" encoding="utf-8"?>
<!-- Generator: Adobe Illustrator 26.0.1, SVG Export Plug-In . SVG Version: 6.00 Build 0)  -->
<svg version="1.1" id="Layer_1" xmlns="http://www.w3.org/2000/svg" xmlns:xlink="http://www.w3.org/1999/xlink" x="0px" y="0px"
	 viewBox="0 0 490.9 490.8" style="enable-background:new 0 0 490.9 490.8;" xml:space="preserve">
<style type="text/css">
	.st0{fill:#fff;}
</style>
<g>
	<path class="st0" d="M7.6,490.8c-7.7-4.9-8.8-7.6-6.5-16.7c9.5-38.2,19-76.5,28.7-114.7c0.7-2.9,2.4-6,4.6-8.1
		C122.8,262.6,211.4,174,300,85.4c1-1,2.1-1.9,2.8-2.5c35.1,35.1,70,70,105.9,105.9c-1.2,0.8-2.9,1.5-4.1,2.7
		c-88,87.9-175.9,175.8-263.9,263.6c-2.8,2.8-6.7,5-10.5,6c-38,9.7-76.1,19.2-114.2,28.7c-0.9,0.2-1.8,0.7-2.6,1
		C11.4,490.8,9.5,490.8,7.6,490.8z"/>
	<path class="st0" d="M490.9,89.9c-0.7,2.6-1,5.4-2.1,7.7c-3.2,6.5-5.6,14-10.4,19.1c-12.8,13.8-26.8,26.5-40,39.4
		C404,121.7,369,86.7,334.5,52.2c12.9-13.2,25.3-27.4,39.3-40c18.6-16.6,49.7-16.2,68.3,0.5c12.7,11.4,24.4,23.9,36.3,36.2
		c7.3,7.6,10.2,17.5,12.5,27.5C490.9,81,490.9,85.4,490.9,89.9z"/>
</g>
</svg>
