<svg width="16" height="17" viewBox="0 0 16 17" fill="none" xmlns="http://www.w3.org/2000/svg">
<g clip-path="url(#clip0_705_893)">
<path d="M11.2552 2.59726L12.1376 1.71487C12.3114 1.54102 12.5178 1.40311 12.7449 1.30902C12.972 1.21493 13.2154 1.1665 13.4612 1.1665C13.707 1.1665 13.9505 1.21493 14.1776 1.30902C14.4047 1.40311 14.611 1.54102 14.7848 1.71487C14.9587 1.88867 15.0966 2.09501 15.1907 2.32212C15.2847 2.54922 15.3332 2.79264 15.3332 3.03846C15.3332 3.28429 15.2847 3.5277 15.1907 3.75481C15.0966 3.98191 14.9587 4.18825 14.7848 4.36205L13.9024 5.24445M11.2552 2.59726L1.72185 12.1306C1.60871 12.2438 1.52849 12.3857 1.48978 12.541L0.666504 15.8332L3.95872 15.0099C4.114 14.9712 4.25583 14.891 4.36903 14.7778L13.9024 5.24445M11.2552 2.59726L13.9024 5.24445" stroke="#232F5D" stroke-linecap="round" stroke-linejoin="round"/>
</g>
<defs>
<clipPath id="clip0_705_893">
<rect width="16" height="16" fill="white" transform="translate(0 0.5)"/>
</clipPath>
</defs>
</svg>
