<svg xmlns="http://www.w3.org/2000/svg" width="21.739" height="12.934" viewBox="0 0 21.739 12.934">
  <g id="View" transform="translate(-0.05 -0.037)">
    <path id="Path_1" data-name="Path 1" d="M21.789,6.673c-.228.329-.429.679-.679.986a15.288,15.288,0,0,1-4.9,4.026,11.59,11.59,0,0,1-4.182,1.231A11.76,11.76,0,0,1,4.2,10.845,16.541,16.541,0,0,1,.259,7.058a.847.847,0,0,1,0-1.114A16.171,16.171,0,0,1,4.9,1.717,11.891,11.891,0,0,1,9.826.091a11.6,11.6,0,0,1,7.162,1.665,16.059,16.059,0,0,1,4.6,4.216,2.322,2.322,0,0,1,.195.368C21.789,6.451,21.789,6.562,21.789,6.673Zm-10.826,4.4A4.567,4.567,0,1,0,6.351,6.629,4.577,4.577,0,0,0,10.963,11.073Z" transform="translate(0)" fill="#fff"/>
    <path id="Path_2" data-name="Path 2" d="M155.923,74.46A2.462,2.462,0,1,1,153.517,72,2.455,2.455,0,0,1,155.923,74.46Z" transform="translate(-142.543 -67.954)" fill="#fff"/>
  </g>
</svg>
