<?xml version="1.0" encoding="UTF-8" standalone="no"?>
<svg
   xmlns="http://www.w3.org/2000/svg"
   version="1.2"
   viewBox="0 0 38 9">
  <g transform="translate(0,-1043.5321)" style="fill:#999">
    <g transform="translate(-92.273489,1007.5501)">
      <path
         d="m 128.55452,42.315106 0.97899,2.35397 1.02299,0 -3.72896,-8.689888 -3.82795,8.689888 1.01199,0 1.00099,-2.35397 z m -0.36299,-0.857989 -2.80497,0 1.41898,-3.321957 z m -9.47062,-4.223946 0.275,0 c 0.57405,-0.02291 1.06492,0.05592 1.47261,0.236497 0.40768,0.180588 0.6208,0.600416 0.63936,1.259484 -0.0222,0.624935 -0.24177,1.033304 -0.65861,1.225109 -0.41685,0.191815 -0.89764,0.278439 -1.44236,0.259872 l -0.286,0 z m 0,3.794952 0.231,0 2.50797,3.640953 1.13298,0 -2.63996,-3.717952 c 0.64486,-0.0637 1.15086,-0.299284 1.51798,-0.706742 0.36711,-0.407448 0.55411,-0.934524 0.56099,-1.581229 -0.0282,-0.91344 -0.33756,-1.528514 -0.92811,-1.845226 -0.59056,-0.316697 -1.29317,-0.464278 -2.10785,-0.442744 l -1.19898,0 0,8.293893 0.92398,0 z m -7.56301,-4.65294 -0.92399,0 0,5.191933 c -0.0115,0.470475 0.0335,0.901761 0.13475,1.293858 0.10129,0.3921 0.3277,0.760137 0.67924,1.104111 0.286,0.275913 0.61599,0.485827 0.98999,0.629742 0.37399,0.143914 0.75899,0.21633 1.15498,0.217247 0.42304,-9.17e-4 0.8282,-0.08158 1.21549,-0.241997 0.38728,-0.160414 0.72644,-0.395078 1.01748,-0.703991 0.31899,-0.337786 0.52249,-0.693448 0.6105,-1.066986 0.088,-0.373535 0.12649,-0.784196 0.1155,-1.231984 l 0,-5.191933 -0.92399,0 0,4.938936 c 0.0105,0.330228 -0.002,0.662515 -0.0385,0.996862 -0.0362,0.334352 -0.15905,0.636389 -0.3685,0.906113 -0.19915,0.232832 -0.44435,0.413413 -0.73561,0.541743 -0.29127,0.128333 -0.58873,0.193415 -0.89237,0.195248 -0.31166,-0.0014 -0.62058,-0.07012 -0.92674,-0.206247 -0.30616,-0.136123 -0.55457,-0.33137 -0.74524,-0.585743 -0.18356,-0.269495 -0.29218,-0.56649 -0.32587,-0.890988 -0.0337,-0.324494 -0.0461,-0.643489 -0.0371,-0.956988 z m -3.87975,0.857988 2.02397,0 0,-0.857988 -4.94993,0 0,0.857988 2.00197,0 0,7.435905 0.92399,0 z m -8.839001,-0.857988 -0.923988,0 0,5.191933 c -0.01146,0.470475 0.03346,0.901761 0.134749,1.293858 0.101289,0.3921 0.327702,0.760137 0.679241,1.104111 0.285994,0.275913 0.61599,0.485827 0.989987,0.629742 0.373992,0.143914 0.758992,0.21633 1.154982,0.217247 0.42304,-9.17e-4 0.8282,-0.08158 1.21549,-0.241997 0.38728,-0.160414 0.72644,-0.395078 1.01748,-0.703991 0.31899,-0.337786 0.52249,-0.693448 0.6105,-1.066986 0.088,-0.373535 0.12649,-0.784196 0.1155,-1.231984 l 0,-5.191933 -0.92399,0 0,4.938936 c 0.0105,0.330228 -0.002,0.662515 -0.0385,0.996862 -0.0362,0.334352 -0.15905,0.636389 -0.3685,0.906113 -0.19915,0.232832 -0.44435,0.413413 -0.73561,0.541743 -0.29127,0.128333 -0.58873,0.193415 -0.89237,0.195248 -0.31166,-0.0014 -0.620576,-0.07012 -0.926735,-0.206247 -0.306165,-0.136123 -0.554578,-0.33137 -0.74524,-0.585743 -0.183562,-0.269495 -0.292186,-0.56649 -0.325871,-0.890988 -0.03369,-0.324494 -0.04606,-0.643489 -0.03713,-0.956988 z m -2.392708,0.857988 0,-0.857988 -3.772952,0 0,8.293893 0.923988,0 0,-4.113947 2.760965,0 0,-0.857989 -2.760965,0 0,-2.463969 z" />
    </g>
  </g>
</svg>
