<?xml version="1.0" encoding="UTF-8" standalone="no"?>
<svg
   xmlns="http://www.w3.org/2000/svg"
   version="1.1"
   viewBox="0 0 73 7.7">
  <g transform="translate(0,-1044.6922)">
    <g style="fill:#999">
      <path
         d="m 72.304321,1044.7174 0.121186,2.2549 -0.362885,0.033 c -0.139431,-0.6233 -0.364961,-1.1036 -0.67659,-1.441 -0.311641,-0.3373 -0.683868,-0.506 -1.116684,-0.506 -0.645207,0 -1.184162,0.2878 -1.616867,0.8635 -0.432711,0.5758 -0.755368,1.212 -0.967972,1.9086 -0.110109,0.3373 -0.190787,0.6673 -0.242035,0.99 -0.05125,0.3227 -0.07688,0.6124 -0.07687,0.8691 -2e-6,0.7038 0.166837,1.2501 0.500518,1.6388 0.333677,0.3888 0.801185,0.5831 1.402527,0.5831 0.337256,0 0.559037,-0.053 0.665344,-0.1594 0.106299,-0.1063 0.19246,-0.2659 0.258484,-0.4787 0.01477,-0.051 0.03127,-0.1099 0.04951,-0.1759 0.01823,-0.066 0.03843,-0.1357 0.06059,-0.2091 l 0.341064,-1.232 -0.649231,-0.044 0.08795,-0.33 2.12326,0 -0.08829,0.33 -0.538788,0.044 -0.48407,1.7049 c -0.02932,0.1102 -0.05316,0.2092 -0.0715,0.2971 -0.01836,0.088 -0.02753,0.1577 -0.02753,0.2092 -6e-6,0.01 -6e-6,0.014 0,0.022 -6e-6,0.01 -6e-6,0.015 0,0.022 -6e-6,0.015 0.0018,0.031 0.0055,0.049 0.0037,0.018 0.01281,0.046 0.02736,0.083 -0.175909,0 -0.348175,0.016 -0.5168,0.049 -0.168635,0.033 -0.337321,0.068 -0.506058,0.1046 -0.175907,0.044 -0.34823,0.082 -0.516968,0.1153 -0.168745,0.033 -0.341068,0.05 -0.516967,0.05 -0.78463,0 -1.424461,-0.2548 -1.919495,-0.7644 -0.495037,-0.5096 -0.742554,-1.175 -0.742554,-1.9964 0,-1.2541 0.403335,-2.3853 1.210007,-3.3937 0.806668,-1.0083 1.70862,-1.5124 2.705856,-1.5124 0.12465,0 0.247513,0.013 0.368592,0.038 0.121068,0.026 0.240239,0.053 0.357513,0.082 0.02931,0.015 0.05863,0.026 0.08795,0.033 0.02931,0.01 0.05863,0.015 0.08795,0.022 0.08817,0.022 0.17808,0.041 0.26973,0.055 0.09164,0.015 0.181436,0.022 0.269394,0.022 0.0074,0 0.01286,0 0.01645,0 0.0036,0 0.0054,0 0.0054,0 0.0734,0 0.154133,-0.016 0.242203,-0.05 0.08806,-0.033 0.212655,-0.09 0.373794,-0.1707 z m -5.724243,0.132 -0.09903,0.33 c -0.256478,0.059 -0.448886,0.1319 -0.577225,0.2198 -0.128354,0.088 -0.243889,0.264 -0.346604,0.5281 -0.03671,0.088 -0.07341,0.1906 -0.110107,0.308 -0.03671,0.1174 -0.07699,0.253 -0.12085,0.407 l -1.617034,5.6319 -0.341065,0 -2.277008,-6.3358 -1.298126,4.5207 c -0.0658,0.2641 -0.11341,0.4548 -0.142838,0.5722 -0.02943,0.1174 -0.04415,0.2201 -0.04414,0.308 -2e-6,0.01 -2e-6,0.013 0,0.016 -2e-6,0 -2e-6,0.01 0,0.01 -2e-6,0.1614 0.06602,0.2806 0.198059,0.3576 0.132038,0.077 0.344755,0.1265 0.638153,0.1487 l -0.08795,0.3189 -2.34314,0 0.09903,-0.33 c 0.359416,-0.029 0.628921,-0.1393 0.808517,-0.33 0.179596,-0.1907 0.339106,-0.5427 0.478531,-1.0561 l 1.199097,-4.169 c 0.05863,-0.1832 0.100762,-0.3391 0.126389,-0.4674 0.02562,-0.1284 0.03843,-0.2182 0.03844,-0.2694 -2e-6,-0.132 -0.04767,-0.2183 -0.143005,-0.2587 -0.09534,-0.04 -0.197949,-0.068 -0.307831,-0.082 -0.01477,0 -0.03133,0 -0.04968,-0.01 -0.01835,0 -0.0348,-0.01 -0.04935,-0.01 -0.02932,10e-5 -0.06048,0 -0.09349,-0.01 -0.03301,0 -0.06417,-0.01 -0.09349,-0.016 l 0.08795,-0.341 1.649933,0 2.023895,5.7638 1.176941,-4.1028 c 0.05147,-0.1614 0.09001,-0.2897 0.115647,-0.3851 0.02562,-0.095 0.04212,-0.1576 0.04951,-0.1869 0.0074,-0.029 0.01286,-0.059 0.01645,-0.088 0.0036,-0.029 0.0054,-0.059 0.0054,-0.088 -6e-6,-0.1833 -0.05679,-0.317 -0.170364,-0.4013 -0.113583,-0.084 -0.317069,-0.141 -0.610458,-0.1704 l 0.08795,-0.341 2.122925,0 z m -7.385925,0 -0.09903,0.33 -0.825134,0.033 -1.891968,6.6001 0.934906,0.044 -0.08795,0.33 -2.805054,0 0.09903,-0.33 0.825135,-0.044 1.891967,-6.6001 -0.934906,-0.033 0.08795,-0.33 2.805054,0 z m -3.895386,-0.1212 -0.08795,2.332 -0.318908,0.033 c -0.05148,-0.4912 -0.174343,-0.9183 -0.368592,-1.2813 -0.19426,-0.363 -0.573705,-0.5591 -1.138336,-0.5885 l -1.892303,6.589 0.759002,0.044 -0.09869,0.33 -2.486145,0 0.08795,-0.33 0.703949,-0.033 1.903046,-6.6112 c -0.608727,0.029 -1.116575,0.231 -1.523544,0.605 -0.406974,0.3739 -0.760739,0.803 -1.061295,1.287 l -0.319244,-0.1208 1.001037,-2.2552 c 0.0734,0.029 0.144962,0.051 0.214676,0.066 0.06971,0.015 0.141157,0.029 0.21434,0.044 0.10272,0.01 0.209079,0.013 0.319077,0.017 0.109993,0 0.220044,0.01 0.330154,0.01 l 2.595917,-0.011 c 0.175898,0.01 0.318847,0.01 0.428848,0.01 0.10999,0 0.212656,-0.013 0.307999,-0.028 0.06601,-0.01 0.132033,-0.018 0.198059,-0.033 0.06601,-0.015 0.142999,-0.033 0.230957,-0.055 z m -5.922974,0.1212 -0.09903,0.33 -0.825134,0.033 -1.891968,6.6001 0.934906,0.044 -0.08795,0.33 -2.805054,0 0.09903,-0.33 0.825134,-0.044 1.891968,-6.6001 -0.934906,-0.033 0.08795,-0.33 2.805053,0 z m -9.723022,0 1.726807,0 c 0.645422,0.01 1.098272,0.018 1.358551,0.033 0.260269,0.015 0.482162,0.051 0.66568,0.11 0.04386,0.014 0.08962,0.031 0.137298,0.049 0.04766,0.018 0.100814,0.039 0.159455,0.06 0.322707,0.1321 0.568434,0.3301 0.737182,0.5942 0.168735,0.2641 0.253106,0.5867 0.253113,0.9678 -7e-6,0.5134 -0.207186,0.9424 -0.621536,1.2871 -0.414364,0.3446 -0.966187,0.5427 -1.655472,0.5941 l 0.91275,3.2781 0.583099,0.033 -0.08795,0.33 -1.407898,0 -0.990296,-3.597 -1.121887,0 -0.923828,3.2341 0.692871,0.033 -0.09903,0.33 -2.288086,0 0.09903,-0.33 0.572022,-0.033 1.891968,-6.6001 -0.681794,-0.044 0.08795,-0.33 z m 1.627777,0.3628 -0.857696,2.9699 c 0.168515,0.015 0.309618,0.024 0.423309,0.028 0.113685,0 0.218197,0.01 0.313537,0.017 0.04409,0 0.08812,0 0.132096,0 0.04397,0 0.08789,0 0.131759,0 0.432817,0 0.757376,-0.024 0.973679,-0.072 0.216294,-0.048 0.416087,-0.1339 0.599381,-0.2588 0.0074,-0.014 0.0184,-0.027 0.03306,-0.038 0.01465,-0.011 0.02937,-0.02 0.04414,-0.027 0.19783,-0.1613 0.349955,-0.3575 0.456375,-0.5884 0.106409,-0.231 0.159616,-0.4859 0.159622,-0.7648 -6e-6,-0.5498 -0.176021,-0.8999 -0.528045,-1.0503 -0.352036,-0.1504 -0.755427,-0.2256 -1.210175,-0.2256 -0.0072,0 -0.01629,0 -0.02736,0 -0.01108,0 -0.02031,0 -0.02769,0 -0.08057,0 -0.164829,0 -0.252777,0.01 -0.08796,0 -0.209028,0.01 -0.36322,0.017 z m -2.190063,-0.3628 -0.09903,0.33 c -0.322723,0.073 -0.56845,0.2033 -0.737183,0.3904 -0.168751,0.1871 -0.322722,0.4053 -0.461914,0.6546 -0.03671,0.066 -0.0752,0.1338 -0.115478,0.2034 -0.04029,0.07 -0.07878,0.1411 -0.115479,0.2145 l -2.793975,4.983 0.05505,0.6379 -1.012115,0.055 0.208801,-5.6648 -2.782898,5.0048 0.04398,0.605 -1.022858,0.055 0.208802,-7.106 -0.50589,-0.033 0.09903,-0.33 2.023895,0 -0.09903,0.33 -0.549866,0.033 -0.219879,5.7861 2.760742,-5.016 -0.0329,-0.8909 1.045014,-0.2753 -0.230957,6.1053 2.475067,-4.455 c 0.153962,-0.2641 0.254782,-0.4475 0.30246,-0.5502 0.04766,-0.1027 0.07519,-0.1907 0.08258,-0.2639 -9e-6,10e-5 -9e-6,0 0,-0.011 -9e-6,-0.01 -9e-6,-0.015 0,-0.022 -9e-6,-0.1468 -0.05137,-0.2458 -0.154083,-0.2972 -0.102731,-0.051 -0.212726,-0.088 -0.329987,-0.11 -0.02933,10e-5 -0.05864,0 -0.08795,-0.01 -0.02933,0 -0.05864,-0.01 -0.08795,-0.016 -8e-6,0 -0.0019,0 -0.0055,0 -0.0037,0 -0.0092,0 -0.01662,0 l 0.09903,-0.341 2.057129,0 z m -15.873261,0 1.418976,0 1.287048,-0.055 c 0.792007,0.01 1.431838,0.2824 1.919495,0.825 0.487644,0.5426 0.731469,1.2575 0.731476,2.1449 -7e-6,0.1833 -0.01467,0.3703 -0.04398,0.5609 -0.02932,0.1907 -0.06972,0.3851 -0.121185,0.5831 -0.08796,0.308 -0.199745,0.6086 -0.335358,0.902 -0.135627,0.2934 -0.295193,0.5648 -0.478699,0.8141 -0.469305,0.6526 -0.97346,1.0779 -1.512466,1.276 -0.539016,0.198 -1.19345,0.2971 -1.963303,0.2971 l -1.188019,-0.011 -1.683166,0 0.09903,-0.33 0.572022,-0.033 1.891968,-6.6001 -0.681794,-0.044 0.08795,-0.33 z m 1.627777,0.33 -1.88089,6.5779 c 0.02193,0.015 0.04576,0.024 0.0715,0.027 0.02574,0 0.05326,0.01 0.08258,0.01 0.146584,0.022 0.298709,0.037 0.456375,0.044 0.157661,0.01 0.335523,0.011 0.533584,0.011 0.37396,0 0.672782,-0.024 0.896469,-0.072 0.22368,-0.048 0.427166,-0.1301 0.610459,-0.2474 0.432816,-0.2712 0.792175,-0.6617 1.078079,-1.1714 0.285893,-0.5097 0.498555,-1.0396 0.637985,-1.5897 0.0734,-0.2786 0.126606,-0.5499 0.159622,-0.8139 0.033,-0.2639 0.04951,-0.517 0.04951,-0.7591 -6e-6,-0.3666 -0.07705,-0.713 -0.231125,-1.0393 -0.154089,-0.3263 -0.352092,-0.5666 -0.594009,-0.7208 -0.146591,-0.095 -0.32076,-0.165 -0.522507,-0.2089 -0.201756,-0.044 -0.441944,-0.066 -0.720566,-0.066 -0.01455,0 -0.031,0 -0.04935,0 -0.01835,0 -0.03492,0 -0.04968,0 -0.06602,0 -0.137526,0 -0.214508,0.011 -0.07699,0.01 -0.181502,0.015 -0.313538,0.022 z m -2.501251,-0.33 -0.09903,0.33 c -0.256477,0.059 -0.448885,0.1319 -0.577224,0.2198 -0.128354,0.088 -0.243889,0.264 -0.346604,0.5281 -0.03671,0.088 -0.07341,0.1906 -0.110107,0.308 -0.03671,0.1174 -0.07699,0.253 -0.12085,0.407 l -1.617035,5.6319 -0.341064,0 -2.277008,-6.3358 -1.298126,4.5207 c -0.0658,0.2641 -0.11341,0.4548 -0.142838,0.5722 -0.02943,0.1174 -0.04415,0.2201 -0.04414,0.308 -10e-7,0.01 -10e-7,0.013 0,0.016 -10e-7,0 -10e-7,0.01 0,0.01 -10e-7,0.1614 0.06602,0.2806 0.19806,0.3576 0.132037,0.077 0.344755,0.1265 0.638153,0.1487 l -0.08795,0.3189 -2.34314,0 0.09903,-0.33 c 0.359416,-0.029 0.628921,-0.1393 0.808517,-0.33 0.179596,-0.1907 0.339106,-0.5427 0.478531,-1.0561 l 1.199097,-4.169 c 0.05863,-0.1832 0.100762,-0.3391 0.126388,-0.4674 0.02562,-0.1284 0.03843,-0.2182 0.03844,-0.2694 -2e-6,-0.132 -0.04767,-0.2183 -0.143005,-0.2587 -0.09534,-0.04 -0.197949,-0.068 -0.307831,-0.082 -0.01477,0 -0.03133,0 -0.04968,-0.01 -0.01835,0 -0.0348,-0.01 -0.04935,-0.01 -0.02932,10e-5 -0.06048,0 -0.09349,-0.01 -0.03301,0 -0.06417,-0.01 -0.09349,-0.016 l 0.08795,-0.341 1.649933,0 2.023895,5.7638 1.176941,-4.1028 c 0.05147,-0.1614 0.09002,-0.2897 0.115646,-0.3851 0.02562,-0.095 0.04212,-0.1576 0.04951,-0.1869 0.0074,-0.029 0.01286,-0.059 0.01645,-0.088 0.0036,-0.029 0.0054,-0.059 0.0054,-0.088 -6e-6,-0.1833 -0.05679,-0.317 -0.170364,-0.4013 -0.113583,-0.084 -0.317069,-0.141 -0.610458,-0.1704 l 0.08795,-0.341 2.122925,0 z m -9.568268,-0.1212 0.319245,7.0841 0.648895,0.044 -0.09903,0.33 -2.299164,0 0.08829,-0.33 0.659973,-0.033 -0.07721,-1.9803 -2.4750666,0 c -0.043866,0.073 -0.1006538,0.167 -0.1703644,0.2807 -0.069714,0.1137 -0.1448532,0.2328 -0.2254181,0.3575 -0.021933,0.037 -0.042075,0.072 -0.060425,0.1046 -0.018353,0.033 -0.038606,0.064 -0.06076,0.093 -0.087953,0.1613 -0.1667289,0.3153 -0.2363281,0.4619 -0.069601,0.1466 -0.1044016,0.2639 -0.1044007,0.3521 -9e-7,0.1392 0.047667,0.2363 0.1430054,0.2914 0.095336,0.055 0.2565802,0.083 0.4837341,0.083 l 0.07721,-0.011 -0.09903,0.33 -2.1561585,0 0.09903,-0.33 c 0.2714643,0.01 0.5006867,-0.081 0.6876679,-0.264 0.1869808,-0.1834 0.3500717,-0.3851 0.4892731,-0.6051 0.044087,-0.059 0.082636,-0.1173 0.1156463,-0.1759 0.033009,-0.059 0.067865,-0.1173 0.1045685,-0.1759 l 3.1239631,-5.1482 -0.110108,-0.6711 1.132965,-0.088 z m -0.780823,4.7192 -0.09903,-3.509 -2.1121827,3.509 2.2112117,0 z m -3.5244442,-4.598 -0.09903,0.33 -0.5720215,0.044 -1.8919678,6.6001 0.6817933,0.033 -0.087952,0.33 -2.2880859,0 0.088287,-0.33 0.5827637,-0.033 0.9459839,-3.322 -3.1790161,0 -0.9567261,3.322 0.6928711,0.033 -0.09903,0.33 -2.2880859,0 0.09902954,-0.33 0.57202149,-0.033 1.89196777,-6.6001 -0.6817932,-0.044 0.087952,-0.33 2.288086,0 -0.088287,0.33 -0.5827636,0.044 -0.8029786,2.8158 3.1790162,0 0.8137207,-2.8158 -0.6928711,-0.044 0.09903,-0.33 2.2880859,0 z" />
    </g>
  </g>
</svg>
