<svg width="24" height="24" viewBox="0 0 24 24" fill="none" xmlns="http://www.w3.org/2000/svg">
<g clip-path="url(#clip0_458_5211)">
<path d="M11.1164 0.392727L0.320063 12.3883C0.160862 12.5599 0.0553657 12.7744 0.0165789 13.0053C-0.0222079 13.2361 0.00740967 13.4733 0.101781 13.6876C0.196152 13.9018 0.351152 14.0838 0.547674 14.211C0.744197 14.3382 0.973653 14.4051 1.20776 14.4035H2.85694H3.60694V15.1535V22.8004C3.60694 23.1186 3.73332 23.4237 3.95829 23.6487C4.18326 23.8736 4.48838 24 4.80653 24H19.2016C19.5198 24 19.8249 23.8736 20.0498 23.6487C20.2748 23.4237 20.4012 23.1186 20.4012 22.8004V15.1535V14.4035H21.1512H22.8004C23.1185 14.4035 23.4236 14.2772 23.6486 14.0522C23.8736 13.8272 24 13.5221 24 13.204L12.8918 0.392727M11.1164 0.392727L11.6714 0.897188L0.877526 12.89L0.870011 12.8984L0.86995 12.8983C0.810284 12.9626 0.770749 13.043 0.756213 13.1295C0.741678 13.2161 0.752777 13.3049 0.788143 13.3852C0.82351 13.4655 0.881599 13.5337 0.955253 13.5814C1.02891 13.6291 1.11491 13.6542 1.20265 13.6536L1.20776 13.6535V13.6535H3.60694H4.35694V14.4035V22.8004C4.35694 22.9197 4.4043 23.034 4.48861 23.1183C4.57293 23.2026 4.68728 23.25 4.80653 23.25H19.2016C19.3209 23.25 19.4352 23.2026 19.5195 23.1183C19.6038 23.034 19.6512 22.9197 19.6512 22.8004V14.4035V13.6535H20.4012H22.8004C22.9196 13.6535 23.034 13.6062 23.1183 13.5219C23.2026 13.4376 23.25 13.3232 23.25 13.204V13.1985H23.25C23.2508 13.0855 23.2091 12.9764 23.1331 12.8928L23.1306 12.89L12.3368 0.897188L12.8918 0.392727M11.1164 0.392727L11.6738 0.894458L11.6723 0.896148C11.7143 0.850277 11.7653 0.8136 11.8222 0.788442C11.8795 0.763094 11.9414 0.75 12.0041 0.75C12.0667 0.75 12.1287 0.763094 12.186 0.788442L12.4876 0.106658L12.186 0.788442C12.2428 0.813601 12.2939 0.850279 12.3358 0.896152L12.3343 0.894458L12.8918 0.392727M11.1164 0.392727C11.2288 0.26903 11.3659 0.170198 11.5187 0.102567C11.6716 0.0349358 11.8369 0 12.0041 0C12.1712 0 12.3365 0.0349358 12.4894 0.102567C12.6423 0.170198 12.7793 0.26903 12.8918 0.392727" stroke="#041E42" stroke-width="1.5"/>
</g>
<defs>
<clipPath id="clip0_458_5211">
<rect width="24" height="24" fill="white"/>
</clipPath>
</defs>
</svg>
