<svg xmlns="http://www.w3.org/2000/svg" width="416.979" height="416.979" viewBox="0 0 416.979 416.979">
  <g id="info-icon-svgrepo-com" transform="translate(0 0)">
    <path id="Path_1" data-name="Path 1" d="M356,61.156c-81.37-81.47-213.377-81.551-294.848-.182s-81.552,213.379-.181,294.85,213.378,81.551,294.849.181S437.375,142.626,356,61.156ZM237.6,340.786a5.821,5.821,0,0,1-5.822,5.822H185.2a5.821,5.821,0,0,1-5.822-5.822v-172.9a5.821,5.821,0,0,1,5.822-5.822h46.576a5.821,5.821,0,0,1,5.822,5.822ZM208.49,137.9a33.765,33.765,0,1,1,33.766-33.765A33.8,33.8,0,0,1,208.49,137.9Z" fill="#041e42"/>
  </g>
</svg>
