<svg width="124" height="88" viewBox="0 0 124 88" fill="none" xmlns="http://www.w3.org/2000/svg">
<path d="M23.2002 51.3798L34.2202 45.2898C31.2302 45.2998 26.6502 45.4398 24.1402 45.4298L14.6202 50.7998L15.4602 45.3698C11.1202 45.3498 11.6902 45.3498 7.07022 45.2898C7.07022 45.2898 5.01021 58.5998 4.97021 58.5998C7.39021 58.5898 9.47021 58.5798 10.0702 58.5798L13.6402 58.5998L14.4702 51.8598C18.1502 54.7098 21.0602 57.1198 22.6902 58.5998C25.2702 58.5898 27.1102 58.5798 28.1902 58.5798L33.1802 58.5998L24.7002 52.5298L23.2002 51.3798ZM108.88 45.2898C107.35 45.2998 105.69 45.3098 103.89 45.3098C102.86 45.3098 101.27 45.3798 99.0202 45.3698C98.3402 46.0298 96.6302 47.6998 96.6302 47.6998L87.1202 56.8298C87.1702 56.1798 87.2402 55.4398 87.3202 54.6498C87.4802 53.1298 87.6302 51.9398 87.7802 51.0598L87.8102 50.7298C87.8102 50.7298 80.2602 50.3698 76.5802 50.8898C76.3302 53.2598 76.3302 53.2598 76.3302 53.2598C76.3302 53.2598 80.3002 53.3898 81.1202 53.4298L80.8902 55.5698C79.5302 55.7498 76.9302 55.9698 75.7902 55.9698C74.4202 55.9698 73.1802 55.8298 72.0702 55.5598C70.9602 55.2898 70.1502 54.8898 69.6302 54.3698C69.1202 53.8498 68.8602 53.2598 68.8602 52.5898C68.8602 51.9398 69.0802 51.3198 69.5302 50.7298C69.9802 50.1398 70.6502 49.6398 71.5502 49.2098C72.4502 48.7898 73.5302 48.4698 74.7802 48.2698C76.0302 48.0598 77.3602 47.9598 78.7602 47.9598C79.3002 47.9598 79.9102 47.9798 80.5902 48.0098C82.4702 48.0998 84.7002 48.2398 88.1002 48.6398C88.1702 46.5998 88.1002 48.6398 88.1702 46.5998C84.7502 45.8798 80.2402 45.0698 77.4502 45.0698C73.6202 45.0698 70.5002 45.3998 68.0802 46.0598C65.6602 46.7198 63.8102 47.6098 62.5202 48.7398C61.8402 49.3298 61.3402 49.9498 61.0202 50.5998C60.8602 49.9998 60.5502 49.4498 60.1102 48.9498C59.4102 48.1498 58.3502 47.4498 56.9302 46.8298C55.5102 46.2198 53.8602 45.7698 51.9702 45.4898C50.0802 45.2098 48.1202 45.0698 46.0702 45.0698C42.8802 45.0698 40.0102 45.3698 37.4702 45.9798C34.9202 46.5798 33.0002 47.4198 31.7102 48.4898C30.4102 49.5698 29.7602 50.8098 29.7602 52.2298C29.7602 53.1998 30.0702 54.0798 30.6802 54.8698C31.2902 55.6598 32.3302 56.3798 33.7902 57.0198C35.2502 57.6598 36.9702 58.1298 38.9502 58.4198C40.9302 58.7098 42.9902 58.8598 45.1502 58.8598C47.3302 58.8598 49.4302 58.7098 51.4502 58.4198C53.4702 58.1198 55.2002 57.6598 56.6602 57.0198C58.1102 56.3898 59.2302 55.6098 60.0002 54.6998C60.3102 54.3298 60.5602 53.9398 60.7502 53.5398C60.8702 53.9398 61.0502 54.3298 61.3002 54.7198C61.7802 55.4698 62.4602 56.1098 63.3402 56.6598C64.2202 57.1998 65.3202 57.6298 66.6402 57.9498C67.9602 58.2698 69.4602 58.4998 71.1302 58.6398C72.8002 58.7798 74.5102 58.8498 76.2402 58.8498C77.3002 58.8498 78.5102 58.8198 79.8602 58.7798C81.2102 58.7298 82.9702 58.6798 83.9302 58.6198C84.5602 58.5798 84.6902 58.5998 85.5402 58.5798C87.4602 58.5698 88.9102 58.5698 89.8002 58.5698C90.3302 58.5698 91.7902 58.5798 94.1602 58.5898C95.3502 57.2098 96.4902 55.9498 97.6002 54.7998H107.24C108.3 56.2498 109.11 57.5098 109.67 58.5898C111.75 58.5798 113.33 58.5698 114.4 58.5698C114.87 58.5698 116.22 58.5798 118.43 58.5898L108.88 45.2898ZM54.1802 52.1098C53.7602 54.3098 50.0302 55.9598 45.5202 55.9598C45.3502 55.9598 45.1702 55.9598 45.0002 55.9498C41.7602 55.8498 39.0302 54.8898 37.8702 53.4398C37.3902 52.8498 37.2102 52.1898 37.3402 51.5298C37.7602 49.3298 41.4902 47.6798 46.0002 47.6798C46.1702 47.6798 46.3502 47.6798 46.5302 47.6898C49.7702 47.7898 52.5002 48.7498 53.6602 50.1998C54.1202 50.7898 54.3102 51.4498 54.1802 52.1098ZM99.9502 51.9698L101.33 50.5298C101.92 49.9198 102.72 49.0098 103.56 48.0598C103.7 48.2998 104.42 49.6798 105.9 51.9598H99.9502V51.9698Z" fill="white"/>
<path d="M22.7101 67.5097C22.4101 66.9797 22.0401 66.6797 21.3901 66.6797C20.7101 66.6797 20.1201 67.1697 20.1201 67.8697C20.1201 68.5297 20.8001 68.8397 21.3201 69.0697L21.8301 69.2897C22.8301 69.7297 23.6701 70.2297 23.6701 71.4497C23.6701 72.7897 22.5901 73.8197 21.2601 73.8197C20.0301 73.8197 19.1201 73.0297 18.8701 71.8397L19.7001 71.6097C19.8101 72.3897 20.4101 73.0297 21.2301 73.0297C22.0501 73.0297 22.8101 72.3997 22.8101 71.5397C22.8101 70.6497 22.1101 70.3397 21.4001 70.0197L20.9301 69.8197C20.0401 69.4097 19.2601 68.9597 19.2601 67.8597C19.2601 66.6697 20.2701 65.9097 21.4001 65.9097C22.2501 65.9097 22.9801 66.3497 23.3801 67.0997L22.7101 67.5097Z" fill="white"/>
<path d="M29.85 73.68H29V66.02H29.85V73.68Z" fill="white"/>
<path d="M42.6003 69.8301C42.6203 70.8701 42.5103 71.7201 41.8103 72.5301C41.1103 73.3401 40.0403 73.8101 38.9703 73.8101C36.8103 73.8101 35.0303 72.0201 35.0303 69.8701C35.0303 67.6701 36.8203 65.8901 39.0203 65.8901C40.3603 65.8901 41.4503 66.4901 42.2603 67.5501L41.6403 68.1301C41.0003 67.2301 40.1403 66.6901 39.0103 66.6901C37.2603 66.6901 35.8803 68.1601 35.8803 69.8901C35.8803 70.7001 36.2103 71.4801 36.7703 72.0601C37.3303 72.6201 38.1403 73.0401 38.9503 73.0401C40.2803 73.0401 41.6803 72.0601 41.6803 70.6401H39.4003V69.8501H42.6003V69.8301Z" fill="white"/>
<path d="M47.9199 65.6899L53.8999 71.9499V66.0099H54.7499V74.0199L48.7699 67.7699V73.6799H47.9199V65.6899Z" fill="white"/>
<path d="M61.5602 71.4999L60.6302 73.6799H59.7002L63.2402 65.6499L66.6902 73.6799H65.7402L64.8402 71.4999H61.5602ZM63.2202 67.6399L61.9102 70.7099H64.5002L63.2202 67.6399Z" fill="white"/>
<path d="M72.8001 73.68H71.9501V66.81H70.1001V66.02H74.6701V66.81H72.8001V73.68Z" fill="white"/>
<path d="M80.4503 70.5798C80.4503 71.1498 80.4304 71.7998 80.7904 72.2898C81.1304 72.7598 81.7803 73.0198 82.3403 73.0198C82.8903 73.0198 83.4903 72.7698 83.8403 72.3398C84.2503 71.8498 84.2204 71.1798 84.2204 70.5798V66.0198H85.0704V70.8198C85.0704 71.6498 85.0104 72.3098 84.4004 72.9398C83.8704 73.5098 83.1103 73.8098 82.3403 73.8098C81.6203 73.8098 80.8804 73.5398 80.3604 73.0298C79.6904 72.3898 79.6104 71.6898 79.6104 70.8098V66.0098H80.4604V70.5798H80.4503Z" fill="white"/>
<path d="M91.4999 73.68H90.6499V66.02H91.7599C93.2099 66.02 94.5699 66.41 94.5699 68.13C94.5699 69.31 93.8299 70.14 92.6499 70.24L95.0899 73.68H94.0399L91.7199 70.32H91.4999V73.68ZM91.4999 69.56H91.7599C92.7299 69.56 93.6999 69.38 93.6999 68.19C93.6999 66.93 92.7799 66.81 91.7499 66.81H91.4999V69.56Z" fill="white"/>
<path d="M100.22 66.02H104.19V66.81H101.07V69.09H104.1V69.88H101.07V72.89H104.19V73.68H100.22V66.02Z" fill="white"/>
<path d="M72.4499 3.76953H58.5499C56.7999 4.51953 54.8199 5.91953 54.7099 8.00953C54.5999 10.1795 56.3899 11.5795 58.0399 12.6195C62.0099 15.1195 66.2699 17.1095 70.2699 19.5395C71.9299 20.5495 73.7199 21.6295 74.5899 23.4495C75.5699 25.4895 75.0099 27.6895 73.6199 29.3695C70.9699 32.5695 66.5899 34.4095 62.8399 35.9295C61.7599 36.3695 60.6699 36.8095 59.5699 37.2195C59.0199 37.4295 58.7099 37.5295 58.3099 37.6295H72.4499C72.4499 37.6295 79.6299 37.6295 79.6299 30.4295V10.9695C79.6299 10.9695 79.6299 3.76953 72.4499 3.76953Z" fill="white"/>
<path d="M64.9099 30.7598C66.3399 27.5998 63.7199 24.9698 61.3599 23.2298C58.0899 20.8198 54.3399 19.0998 51.1099 16.6498C48.5699 14.7298 47.0799 11.7598 48.8599 8.75977C50.3999 6.15977 53.4699 4.83977 56.1399 3.75977H50.7899C50.7899 3.75977 43.6099 3.75977 43.6099 10.9598V30.4298C43.6099 30.4298 43.6099 37.6298 50.7899 37.6298H55.0899C57.0999 36.7298 59.1099 35.8198 60.9699 34.6198C62.5099 33.6398 64.1299 32.4898 64.9099 30.7598Z" fill="white"/>
</svg>
