<svg xmlns="http://www.w3.org/2000/svg" width="105.2" height="65.145" viewBox="0 0 105.2 65.145">
  <g id="logo-Signature" transform="translate(-4.97 -3.76)">
    <path id="Path_21" data-name="Path 21" d="M21.873,50.921l10.218-5.647c-2.772.009-7.019.139-9.346.13l-8.827,4.979.779-5.035c-4.024-.019-3.5-.019-7.779-.074,0,0-1.91,12.341-1.947,12.341C7.214,57.606,9.142,57.6,9.7,57.6l3.31.019.77-6.249c3.412,2.643,6.11,4.877,7.622,6.249,2.392-.009,4.1-.019,5.1-.019l4.627.019-7.863-5.628Zm79.442-5.647c-1.419.009-2.958.019-4.627.019-.955,0-2.429.065-4.515.056-.631.612-2.216,2.16-2.216,2.16l-8.818,8.465c.046-.6.111-1.289.185-2.021.148-1.409.287-2.513.427-3.329l.028-.306a78.423,78.423,0,0,0-10.412.148l-.232,2.2s3.681.121,4.441.158l-.213,1.984c-1.261.167-3.672.371-4.729.371a14.6,14.6,0,0,1-3.449-.38,4.735,4.735,0,0,1-2.262-1.1,2.294,2.294,0,0,1-.714-1.65,2.8,2.8,0,0,1,.621-1.725A5,5,0,0,1,66.7,48.909a11.329,11.329,0,0,1,2.995-.872,22.31,22.31,0,0,1,3.69-.287c.5,0,1.066.019,1.7.046,1.743.083,3.811.213,6.963.584l.065-1.891a58.063,58.063,0,0,0-9.94-1.419,33.865,33.865,0,0,0-8.688.918,12.918,12.918,0,0,0-5.155,2.485A5.589,5.589,0,0,0,56.94,50.2a3.789,3.789,0,0,0-.844-1.53A8.239,8.239,0,0,0,53.147,46.7a18.517,18.517,0,0,0-4.6-1.242,37.241,37.241,0,0,0-5.47-.389,34.274,34.274,0,0,0-7.974.844,13.053,13.053,0,0,0-5.341,2.327,4.415,4.415,0,0,0-1.808,3.468,3.913,3.913,0,0,0,.853,2.448,7.282,7.282,0,0,0,2.884,1.993,18.662,18.662,0,0,0,4.784,1.3,39.573,39.573,0,0,0,5.749.408,41.069,41.069,0,0,0,5.841-.408,19,19,0,0,0,4.831-1.3A8.336,8.336,0,0,0,55.994,54a5.056,5.056,0,0,0,.7-1.076,4.31,4.31,0,0,0,.51,1.094,5.888,5.888,0,0,0,1.891,1.8,10.64,10.64,0,0,0,3.06,1.2,27.565,27.565,0,0,0,4.163.64c1.548.13,3.134.195,4.738.195.983,0,2.1-.028,3.356-.065s2.884-.093,3.774-.148c.584-.037.7-.019,1.493-.037,1.78-.009,3.125-.009,3.95-.009.491,0,1.845.009,4.043.019,1.1-1.28,2.16-2.448,3.19-3.514h8.938a28.093,28.093,0,0,1,2.253,3.514c1.929-.009,3.394-.019,4.386-.019.436,0,1.688.009,3.737.019ZM50.6,51.6c-.389,2.04-3.848,3.57-8.03,3.57-.158,0-.325,0-.482-.009-3-.093-5.535-.983-6.611-2.327a2.105,2.105,0,0,1-.491-1.771c.389-2.04,3.848-3.57,8.03-3.57.158,0,.325,0,.491.009,3,.093,5.535.983,6.611,2.327A2.161,2.161,0,0,1,50.6,51.6Zm42.438-.13,1.28-1.335c.547-.566,1.289-1.409,2.068-2.29.13.223.8,1.5,2.17,3.616H93.035Z" transform="translate(0 -3.007)" fill="#0e7cc7"/>
    <path id="Path_22" data-name="Path 22" d="M22.43,67.394a1.294,1.294,0,0,0-1.224-.77,1.129,1.129,0,0,0-1.178,1.1c0,.612.63.9,1.113,1.113l.473.2c.927.408,1.706.872,1.706,2a2.244,2.244,0,0,1-4.451.362l.77-.213a1.46,1.46,0,0,0,1.419,1.317,1.433,1.433,0,0,0,1.465-1.382c0-.825-.649-1.113-1.307-1.409l-.436-.185c-.825-.38-1.548-.8-1.548-1.817a1.864,1.864,0,0,1,1.984-1.808,2.038,2.038,0,0,1,1.836,1.1Z" transform="translate(-1.012 -4.525)" fill="#0e7cc7"/>
    <path id="Path_23" data-name="Path 23" d="M29.788,73.122H29v-7.1h.788Z" transform="translate(-1.749 -4.533)" fill="#0e7cc7"/>
    <path id="Path_24" data-name="Path 24" d="M42.049,69.543a3.368,3.368,0,0,1-.732,2.5,3.523,3.523,0,0,1-2.633,1.187,3.672,3.672,0,1,1,3.05-5.8l-.575.538a2.89,2.89,0,0,0-2.439-1.335,2.944,2.944,0,0,0-2.9,2.967,2.914,2.914,0,0,0,.825,2.012,2.986,2.986,0,0,0,2.021.909A2.438,2.438,0,0,0,41.2,70.294H39.082v-.732h2.967Z" transform="translate(-2.188 -4.523)" fill="#0e7cc7"/>
    <path id="Path_25" data-name="Path 25" d="M47.92,65.69l5.545,5.8V65.987h.788v7.427l-5.545-5.795V73.1H47.92Z" transform="translate(-3.127 -4.509)" fill="#0e7cc7"/>
    <path id="Path_26" data-name="Path 26" d="M61.425,71.074,60.562,73.1H59.7l3.282-7.445,3.2,7.445H65.3l-.834-2.021ZM62.964,67.5l-1.215,2.846h2.4Z" transform="translate(-3.984 -4.506)" fill="#0e7cc7"/>
    <path id="Path_27" data-name="Path 27" d="M72.6,73.122h-.788v-6.37H70.1V66.02h4.237v.732H72.6Z" transform="translate(-4.742 -4.533)" fill="#0e7cc7"/>
    <path id="Path_28" data-name="Path 28" d="M80.389,70.247a2.612,2.612,0,0,0,.315,1.586,1.857,1.857,0,0,0,2.828.046,2.437,2.437,0,0,0,.352-1.632V66.019h.788V70.47a2.492,2.492,0,0,1-.621,1.966,2.606,2.606,0,0,1-1.91.807,2.65,2.65,0,0,1-1.836-.723,2.509,2.509,0,0,1-.7-2.058V66.01H80.4v4.237Z" transform="translate(-5.434 -4.532)" fill="#0e7cc7"/>
    <path id="Path_29" data-name="Path 29" d="M91.438,73.122H90.65v-7.1h1.029c1.344,0,2.605.362,2.605,1.956a1.851,1.851,0,0,1-1.78,1.956l2.262,3.19h-.974l-2.151-3.115h-.2Zm0-3.82h.241c.9,0,1.8-.167,1.8-1.27,0-1.168-.853-1.28-1.808-1.28h-.232Z" transform="translate(-6.238 -4.533)" fill="#0e7cc7"/>
    <path id="Path_30" data-name="Path 30" d="M100.22,66.02H103.9v.732h-2.893v2.114h2.809V69.6h-2.809V72.39H103.9v.732H100.22Z" transform="translate(-6.934 -4.533)" fill="#0e7cc7"/>
    <path id="Path_31" data-name="Path 31" d="M71.158,3.77H58.27c-1.623.7-3.458,1.993-3.56,3.931-.1,2.012,1.558,3.31,3.088,4.274,3.681,2.318,7.631,4.163,11.34,6.416,1.539.936,3.2,1.938,4.006,3.625a5.057,5.057,0,0,1-.9,5.489c-2.457,2.967-6.518,4.673-10,6.082-1,.408-2.012.816-3.032,1.2a9.243,9.243,0,0,1-1.168.38H71.158s6.657,0,6.657-6.676V10.446S77.815,3.77,71.158,3.77Z" transform="translate(-3.621 -0.001)" fill="#0e7cc7"/>
    <path id="Path_32" data-name="Path 32" d="M63.359,28.794c1.326-2.93-1.1-5.368-3.292-6.982-3.032-2.235-6.509-3.829-9.5-6.1-2.355-1.78-3.737-4.534-2.086-7.316,1.428-2.411,4.274-3.635,6.75-4.636H50.267s-6.657,0-6.657,6.676V28.488s0,6.676,6.657,6.676h3.987a40.267,40.267,0,0,0,5.452-2.791A8.993,8.993,0,0,0,63.359,28.794Z" transform="translate(-2.813)" fill="#0e7cc7"/>
  </g>
</svg>
