<svg width="13" height="16" viewBox="0 0 13 16" fill="none" xmlns="http://www.w3.org/2000/svg">
<path d="M6.40219 14.9457C6.27671 14.8234 6.13249 14.6816 5.97308 14.522C5.38772 13.9358 4.60222 13.1136 3.8161 12.1611C3.02794 11.2061 2.25202 10.1355 1.67622 9.05345C1.09571 7.96251 0.75 6.9179 0.75 6C0.75 3.48044 2.61619 0.75 6.4 0.75C10.1838 0.75 12.05 3.48044 12.05 6C12.05 6.81037 11.7164 7.80148 11.1384 8.88373C10.568 9.95197 9.79818 11.0383 9.01391 12.0205C8.23172 13.0001 7.44754 13.8608 6.85796 14.4773C6.68792 14.6551 6.53439 14.8123 6.40219 14.9457Z" stroke="#041E42" stroke-width="1.5"/>
<circle cx="6.39993" cy="6.13333" r="1.13333" fill="#041E42" stroke="#041E42" stroke-width="2"/>
</svg>
