<svg width="27" height="33" viewBox="0 0 27 33" fill="none" xmlns="http://www.w3.org/2000/svg">
<path d="M14.8945 30.2294C14.3379 30.7984 13.8645 31.2658 13.5111 31.6086C13.1687 31.2849 12.7144 30.8537 12.1796 30.3301C10.9373 29.1136 9.26704 27.4043 7.59361 25.4218C5.91734 23.4359 4.25575 21.1966 3.01752 18.9214C1.77259 16.6338 1 14.3901 1 12.375C1 6.93081 5.14269 1 13.5 1C21.8573 1 26 6.93081 26 12.375C26 14.1736 25.2487 16.3095 24.013 18.572C22.7879 20.8152 21.1417 23.0845 19.4754 25.1249C17.8121 27.1618 16.146 28.9497 14.8945 30.2294Z" fill="#041E42" stroke="#232F5D" stroke-width="2"/>
<path d="M11.3171 14.5997C11.3171 16.2002 10.016 17.4997 8.40853 17.4997C6.80101 17.4997 5.5 16.2002 5.5 14.5997C5.5 12.9993 6.80101 11.6997 8.40853 11.6997C10.016 11.6997 11.3171 12.9993 11.3171 14.5997Z" stroke="white"/>
<path d="M21.3424 14.5997C21.3424 16.2002 20.0414 17.4997 18.4339 17.4997C16.8264 17.4997 15.5254 16.2002 15.5254 14.5997C15.5254 12.9993 16.8264 11.6997 18.4339 11.6997C20.0414 11.6997 21.3424 12.9993 21.3424 14.5997Z" stroke="white"/>
<path d="M8.40918 14.8H13.0207M13.0207 14.8L13.6222 14M13.0207 14.8L12.6197 14M16.6297 9.6V8H15.2262M16.6297 9.6L18.6348 14.4M16.6297 9.6L13.6222 14M11.6172 9H9.01068H10.6147L12.6197 14M13.6222 14H12.6197" stroke="white"/>
</svg>
