<svg width="24" height="24" viewBox="0 0 24 24" fill="none" xmlns="http://www.w3.org/2000/svg">
<path d="M7.82647 2.58061C7.96467 2.92023 8.16738 3.42529 8.37971 3.95433C8.48416 4.21459 8.59094 4.48064 8.69352 4.73566C8.8497 5.12394 8.9963 5.48704 9.11144 5.76854C9.16907 5.90945 9.21813 6.0282 9.25621 6.11868C9.27528 6.16398 9.29094 6.20061 9.30314 6.22855C9.31561 6.2571 9.32121 6.26907 9.32183 6.27037L9.32188 6.27049C9.49589 6.62649 9.68162 7.1921 9.37025 7.84682L9.36624 7.85524L9.3662 7.85521C8.89363 8.81973 8.3901 9.35775 8.07679 9.69253C8.03914 9.73276 8.00424 9.77006 7.97246 9.8048C7.94641 9.83329 7.92526 9.8573 7.90818 9.87727C8.81725 11.4692 9.70591 12.5122 10.6912 13.3316C11.6919 14.1638 12.8203 14.79 14.2624 15.5276L14.2651 15.529C14.3061 15.5502 14.3396 15.5655 14.3662 15.5764C14.6778 15.2132 15.5568 14.1511 15.8512 13.7006C16.0943 13.3208 16.4415 13.015 16.9342 12.9555C17.3339 12.9073 17.7041 13.0498 17.9095 13.1289L17.9125 13.13C18.1961 13.2351 18.9581 13.6028 19.6516 13.9443C20.3686 14.2975 21.096 14.6648 21.3564 14.8013C21.4127 14.8292 21.4732 14.8586 21.5351 14.8886C21.6947 14.966 21.8635 15.0478 21.9942 15.1222C22.1787 15.2272 22.4578 15.4058 22.6303 15.7207M7.82647 2.58061C7.82656 2.58085 7.82666 2.58109 7.82676 2.58133L7.08518 2.88143L7.82617 2.57988C7.82627 2.58012 7.82637 2.58036 7.82647 2.58061ZM7.82647 2.58061C7.59413 2.00675 7.2888 1.58152 6.83997 1.36681C6.62101 1.26206 6.41813 1.23289 6.26791 1.22412C6.19918 1.22011 6.13592 1.22024 6.09697 1.22032L6.09354 1.22033C6.04627 1.22042 6.03402 1.2202 6.02673 1.21976L5.97796 2.01823L6.029 1.2199C5.71761 1.19999 5.3704 1.19999 5.05092 1.2L5.03593 1.2C4.51511 1.2 3.75528 1.39878 3.13042 2.0886L3.1304 2.08858L3.12559 2.09398C3.09654 2.12664 3.06334 2.16301 3.02663 2.20322C2.48907 2.7921 1.2 4.20423 1.2 6.82732C1.2 8.24097 1.69896 9.58774 2.19499 10.5893C2.67179 11.5521 3.17764 12.2577 3.33218 12.4733C3.34019 12.4845 3.34726 12.4943 3.35334 12.5029L3.35324 12.5029L3.36147 12.514L3.36151 12.5141C3.36203 12.5148 3.36693 12.5216 3.37916 12.5393L3.42572 12.6071L3.43777 12.6247C3.47441 12.6782 3.52147 12.747 3.57754 12.828C3.70278 13.0087 3.87352 13.2507 4.08702 13.5382C4.51365 14.1128 5.11146 14.87 5.86103 15.6874C7.35263 17.3139 9.48016 19.2177 12.0921 20.3738L12.0929 20.3742C13.675 21.0724 14.8263 21.4749 15.8056 21.6643C16.8089 21.8582 17.6006 21.8224 18.4472 21.6937L18.4486 21.6935C19.076 21.5971 19.9125 21.2321 20.6291 20.7614C21.3288 20.3018 22.1089 19.6151 22.4009 18.765M22.4009 18.765C22.6258 18.1122 22.7407 17.5005 22.7819 17.0101C22.8024 16.7656 22.8055 16.5395 22.7911 16.3457C22.7801 16.1978 22.7524 15.9406 22.6303 15.7207M22.4009 18.765C22.4008 18.7653 22.4006 18.7656 22.4005 18.7659L21.6442 18.5051L22.4009 18.765ZM22.6303 15.7207C22.6316 15.7231 22.633 15.7256 22.6343 15.7281L21.93 16.1075L22.6239 15.7093C22.626 15.7131 22.6282 15.7169 22.6303 15.7207Z" stroke="#D3D5DF" stroke-width="1.6"/>
</svg>
