<svg width="24" height="24" viewBox="0 0 24 24" fill="none" xmlns="http://www.w3.org/2000/svg">
<path d="M9.60477 22.5945C9.39667 22.3922 9.14929 22.1498 8.87118 21.8713C7.99147 20.9903 6.81029 19.754 5.62775 18.3212C4.44249 16.885 3.27303 15.2721 2.40398 13.6389C1.52866 11.9939 1 10.4059 1 9C1 5.1591 3.84799 1 9.6 1C15.352 1 18.2 5.1591 18.2 9C18.2 10.2459 17.6885 11.7542 16.8179 13.3845C15.9573 14.9961 14.7976 16.6321 13.6185 18.1087C12.4423 19.5819 11.2634 20.8758 10.3773 21.8024C10.0833 22.1098 9.82217 22.3761 9.60477 22.5945Z" stroke="white" stroke-width="2"/>
<circle cx="9.60039" cy="9.2" r="2.2" fill="white" stroke="white" stroke-width="2"/>
</svg>
