<svg xmlns="http://www.w3.org/2000/svg" width="448" height="448" viewBox="0 0 448 448">
  <g id="save-white" transform="translate(-32 -32)">
    <path id="Path_1" data-name="Path 1" d="M465.94,119.76l-73.7-73.7A47.68,47.68,0,0,0,358.3,32H96A64,64,0,0,0,32,96V416a64,64,0,0,0,64,64H416a64,64,0,0,0,64-64V153.7a47.68,47.68,0,0,0-14.06-33.94ZM120,112H296a8,8,0,0,1,8,8v48a8,8,0,0,1-8,8H120a8,8,0,0,1-8-8V120A8,8,0,0,1,120,112ZM259.75,431.91a80,80,0,1,1,76.16-76.16,80,80,0,0,1-76.16,76.16Z" fill="#fff"/>
    <circle id="Ellipse_1" data-name="Ellipse 1" cx="48" cy="48" r="48" transform="translate(208 304)" fill="#fff"/>
  </g>
</svg>
