<svg width="24" height="24" viewBox="0 0 24 24" fill="none" xmlns="http://www.w3.org/2000/svg">
<path d="M8.8421 11.9999C8.8421 13.8453 7.32281 15.3635 5.42105 15.3635C3.51929 15.3635 2 13.8453 2 11.9999C2 10.1545 3.51929 8.63623 5.42105 8.63623C7.32281 8.63623 8.8421 10.1545 8.8421 11.9999Z" stroke="#041E42" stroke-width="2"/>
<path d="M20.9998 4.36364C20.9998 6.20904 19.4805 7.72727 17.5788 7.72727C15.677 7.72727 14.1577 6.20904 14.1577 4.36364C14.1577 2.51823 15.677 1 17.5788 1C19.4805 1 20.9998 2.51823 20.9998 4.36364Z" stroke="#041E42" stroke-width="2"/>
<path d="M20.9998 19.6366C20.9998 21.482 19.4805 23.0002 17.5788 23.0002C15.677 23.0002 14.1577 21.482 14.1577 19.6366C14.1577 17.7912 15.677 16.2729 17.5788 16.2729C19.4805 16.2729 20.9998 17.7912 20.9998 19.6366Z" stroke="#041E42" stroke-width="2"/>
<line y1="-1" x2="6.60945" y2="-1" transform="matrix(0.864158 0.503221 0.513075 -0.858344 8.73682 14.1816)" stroke="#041E42" stroke-width="2"/>
<line y1="-1" x2="6.60945" y2="-1" transform="matrix(-0.864158 0.503221 -0.513075 -0.858344 13.3438 5.45459)" stroke="#041E42" stroke-width="2"/>
</svg>
