<svg width="24" height="24" viewBox="0 0 24 24" fill="none" xmlns="http://www.w3.org/2000/svg">
<path d="M12 9.06299V22.442" stroke="#D3D5DF" stroke-width="1.5" stroke-miterlimit="10" stroke-linecap="round"/>
<path d="M23 5.25293V18.6947L12 23.0001L1 18.6947V5.77703" stroke="#D3D5DF" stroke-width="1.5" stroke-miterlimit="10" stroke-linecap="round" stroke-linejoin="round"/>
<path d="M15.6031 7.69084L5.31299 3.76904" stroke="#D3D5DF" stroke-width="1.5" stroke-miterlimit="10" stroke-linecap="square"/>
<path d="M19.4393 6.25521L8.88965 2.42773" stroke="#D3D5DF" stroke-width="1.5" stroke-miterlimit="10" stroke-linecap="square"/>
<path d="M22.25 5.58322C22.25 5.99744 22.5858 6.33322 23 6.33322C23.4142 6.33322 23.75 5.99744 23.75 5.58322H22.25ZM23 5.28027H23.75C23.75 5.03667 23.6317 4.80825 23.4327 4.6677C23.2338 4.52715 22.9789 4.49199 22.7493 4.5734L23 5.28027ZM12 9.18091L11.7493 9.88778C11.9115 9.94529 12.0885 9.94529 12.2507 9.88778L12 9.18091ZM1 5.28027L1.25066 4.5734C1.02107 4.49199 0.766237 4.52715 0.567273 4.6677C0.368309 4.80825 0.25 5.03667 0.25 5.28027H1ZM0.25 5.58322V6.33322H1.75V5.58322H0.25ZM23.75 5.58322V5.28027H22.25V5.58322H23.75ZM22.7493 4.5734L11.7493 8.47404L12.2507 9.88778L23.2507 5.98715L22.7493 4.5734ZM12.2507 8.47404L1.25066 4.5734L0.74934 5.98715L11.7493 9.88778L12.2507 8.47404ZM0.25 5.28027V5.58322H1.75V5.28027H0.25Z" fill="#D3D5DF"/>
<path d="M23 5.20473V4.90064L12 1L1 4.90064V5.20473" stroke="#D3D5DF" stroke-width="1.5" stroke-miterlimit="10" stroke-linecap="round" stroke-linejoin="round"/>
<path d="M16.4165 8.34183C16.4165 7.92762 16.0807 7.59183 15.6665 7.59183C15.2523 7.59183 14.9165 7.92762 14.9165 8.34183H16.4165ZM15.6665 11.5428H14.9165C14.9165 11.7887 15.037 12.019 15.2391 12.1591C15.4411 12.2992 15.699 12.3314 15.9293 12.2453L15.6665 11.5428ZM19.3332 10.171L19.596 10.8734C19.889 10.7638 20.0832 10.4838 20.0832 10.171H19.3332ZM20.0832 6.5127C20.0832 6.09848 19.7474 5.7627 19.3332 5.7627C18.919 5.7627 18.5832 6.09848 18.5832 6.5127H20.0832ZM14.9165 8.34183V11.5428H16.4165V8.34183H14.9165ZM15.9293 12.2453L19.596 10.8734L19.0704 9.46853L15.4037 10.8404L15.9293 12.2453ZM20.0832 10.171V6.5127H18.5832V10.171H20.0832Z" fill="#D3D5DF"/>
</svg>
