<?xml version="1.0" encoding="UTF-8" standalone="no"?>
<svg
   xmlns="http://www.w3.org/2000/svg"
   version="1.2"
   viewBox="0 0 116 5.9">
  <g transform="translate(0,-1046.4222)" style="fill:#999">
    <g transform="translate(-116.05618,894.07852)">
      <path
         d="m 228.38556,153.13547 -0.44009,0 -3.76212,5.1482 -1.84799,0 3.69598,-5.1482 -3.56372,0 0.57202,-0.7919 8.82202,0 -0.61599,0.7919 z m -9.99024,0 -2.79397,0 c -0.52078,-0.0293 -0.99019,0.0953 -1.40823,0.37396 l -1.01178,1.29813 5.10388,0 -0.616,0.81406 -5.03809,0 -1.15478,1.56198 -0.0222,0.0329 c -0.0146,0.0586 -0.0218,0.0953 -0.0218,0.1101 0,0.12466 0.17232,0.1796 0.51697,0.16483 l 6.55609,0 -0.7261,0.79224 -6.0502,0 c -1.29802,0 -2.01663,-0.22011 -2.15583,-0.66031 -0.0586,-0.17591 -0.044,-0.34454 0.044,-0.50589 l 2.61807,-3.65201 c 0.49862,-0.49861 1.18063,-0.84326 2.04605,-1.03394 0.24192,-0.0293 0.48569,-0.0513 0.73131,-0.066 0.24561,-0.0146 0.49318,-0.022 0.74272,-0.022 l 6.09384,0 -0.70395,0.7919 z m -13.37838,-0.7919 -1.95777,0 -0.81405,1.12189 -2.61808,3.65201 c -0.088,0.16135 -0.10261,0.32998 -0.044,0.50589 0.1392,0.4402 0.85781,0.66031 2.15582,0.66031 l 6.0502,0 0.6818,-0.79224 -6.53394,0 c -0.32988,-0.0146 -0.48015,-0.11716 -0.45084,-0.30783 l 2.71677,-3.67417 z m -9.99024,0 -1.95776,0 -0.81406,1.12189 -2.61807,3.65201 c -0.088,0.16135 -0.10261,0.32998 -0.044,0.50589 0.13921,0.4402 0.85781,0.66031 2.15583,0.66031 l 6.0502,0 0.68179,-0.79224 -6.53393,0 c -0.32988,-0.0146 -0.48016,-0.11716 -0.45084,-0.30783 l 2.71677,-3.67417 z m -6.4151,4.84003 c -0.42544,0.72599 -1.52181,1.09268 -3.28912,1.10007 l -3.56406,0 c -1.30517,-0.0296 -2.02378,-0.25692 -2.15582,-0.68213 l 0.044,-0.48407 2.61807,-3.65201 0.77008,-1.03394 1.27597,0 0.68179,0 -0.044,0.11011 -0.72611,0.9678 -2.71676,3.67417 c -0.0148,0.0293 -0.0258,0.0605 -0.0331,0.0935 -0.007,0.033 -0.0146,0.0679 -0.022,0.10457 0,0.0732 0.1467,0.10977 0.4401,0.10977 l 3.77285,0.0111 c 0.44736,-0.007 0.759,-0.10642 0.93491,-0.29709 l 2.61807,-3.67383 0.68213,-1.12222 c 0.0293,-0.0293 0.43997,-0.0366 1.232,-0.0218 l 0.72576,0 -0.72576,1.14404 z m -10.17721,-4.04813 -3.9162,0 -0.28601,0.37396 -1.01178,1.29813 4.28982,0 c 0.55008,0 0.97183,-0.21271 1.26523,-0.63815 l 0.45084,-0.63782 c -0.13205,-0.21999 -0.39602,-0.35202 -0.7919,-0.39612 z m 0.68179,3.366 -0.50589,0.70395 c -0.38874,0.71883 -1.48142,1.07825 -3.27805,1.07825 l -3.56405,0 -3.01386,0 0.90201,-1.1662 2.61807,-3.65201 0.87986,-1.12189 6.13815,0 c 0.21998,0.007 0.42531,0.0202 0.616,0.0384 0.19066,0.0182 0.36668,0.042 0.52804,0.0713 0.41066,0.13205 0.64531,0.38147 0.70395,0.74826 l 0,0.32999 -0.63815,0.87985 c -0.17592,0.27863 -0.68192,0.58669 -1.51801,0.92417 0.33748,0.33726 0.38145,0.72588 0.13193,1.16586 z m -2.48581,0.65997 0.65997,-0.9678 c 0.27124,-0.38135 0.14658,-0.57202 -0.37396,-0.57202 l -4.24618,0 -1.17694,1.59488 -0.18699,0.27493 4.36704,0.0111 c 0.44736,-0.0148 0.75172,-0.1138 0.91309,-0.29709 z m -8.18622,-4.02597 -3.9162,0 -0.28601,0.37396 -1.01178,1.29813 4.44391,0 c 0.43998,0 0.77735,-0.16135 1.01212,-0.48407 l 0.54986,-0.7919 c -0.13205,-0.21999 -0.39601,-0.35202 -0.7919,-0.39612 z m -3.21191,2.48615 -2.55228,0 -1.15478,1.56198 -0.0222,0.0329 c -0.0145,0.0586 -0.0218,0.0953 -0.0218,0.1101 l -0.69321,0.95707 -1.91378,0 0.7919,-1.1662 3.43213,-4.7739 6.20395,0 c 0.21998,0.007 0.42531,0.0202 0.61599,0.0384 0.19067,0.0182 0.36668,0.042 0.52805,0.0713 0.41065,0.13205 0.6453,0.38147 0.70395,0.74826 l 0,0.32999 -0.98996,1.53983 c -0.27886,0.3668 -0.75555,0.55747 -1.43006,0.57202 l -0.74792,0 0,2.64023 -1.8923,0 0,-2.66205 z m -6.77832,-2.48615 -2.79398,0 c -0.52077,-0.0293 -0.99019,0.0953 -1.40823,0.37396 l -1.01178,1.29813 5.10388,0 -0.616,0.81406 -5.03808,0 -1.15479,1.56198 -0.0222,0.0329 c -0.0145,0.0586 -0.0218,0.0953 -0.0218,0.1101 0,0.12466 0.17232,0.1796 0.51696,0.16483 l 6.5561,0 -0.72611,0.79224 -6.0502,0 c -1.29802,0 -2.01662,-0.22011 -2.15582,-0.66031 -0.0586,-0.17591 -0.044,-0.34454 0.044,-0.50589 l 2.61808,-3.65201 c 0.49861,-0.49861 1.18063,-0.84326 2.04605,-1.03394 0.24191,-0.0293 0.48568,-0.0513 0.7313,-0.066 0.24561,-0.0146 0.49319,-0.022 0.74273,-0.022 l 6.09384,0 -0.70395,0.7919 z m -14.01621,3.52008 5.58796,-4.268 1.97991,0 -7.78808,5.89612 -1.78186,0 0.70395,-5.9401 1.89197,0 z m -9.35241,-4.31198 -1.95777,0 -0.81405,1.12189 -2.61808,3.65201 c -0.088,0.16135 -0.10261,0.32998 -0.044,0.50589 0.1392,0.4402 0.85781,0.66031 2.15582,0.66031 l 6.0502,0 0.6818,-0.79224 -6.53394,0 c -0.32988,-0.0146 -0.48015,-0.11716 -0.45084,-0.30783 l 2.71677,-3.67417 z m -5.29892,3.32202 1.60595,-2.15616 0.81406,-1.16586 -1.93594,0 -0.83588,1.12189 -2.61807,3.65201 -0.83588,1.1662 1.93594,0 0.71503,-0.95707 c 0,-0.0293 0.007,-0.066 0.0218,-0.1101 l 0.0222,-0.0329 z m -5.98609,1.49585 1.07791,-1.53982 -6.09384,0 c -0.60872,0 -0.74076,-0.24203 -0.39612,-0.72611 l 1.0561,-1.43005 c 0.46929,-0.60133 1.15131,-0.94598 2.04605,-1.03394 0.24192,-0.0293 0.48568,-0.0513 0.7313,-0.066 0.24562,-0.0146 0.49319,-0.022 0.74273,-0.022 l 6.11599,0 -0.63815,0.7919 -5.63193,0 c -0.52077,-0.0293 -0.99018,0.0953 -1.40823,0.37396 l -1.01178,1.29813 6.09384,0 c 0.65996,0 0.82132,0.23465 0.48407,0.70395 l -0.90201,1.29813 -0.28601,0.39578 c -0.38874,0.71883 -1.48142,1.07825 -3.27804,1.07825 l -6.44599,0 0.74793,-0.79224 6.03912,0.0111 c 0.44736,-0.0148 0.75172,-0.1138 0.91309,-0.29709 z" />
    </g>
  </g>
</svg>
