<?xml version="1.0" standalone="no"?>
<!DOCTYPE svg PUBLIC "-//W3C//DTD SVG 1.1//EN" "http://www.w3.org/Graphics/SVG/1.1/DTD/svg11.dtd" >
<svg xmlns="http://www.w3.org/2000/svg" xmlns:xlink="http://www.w3.org/1999/xlink" version="1.1">
<metadata>
Created by FontForge 20170731 at Sun Mar 24 20:13:27 2019
 By Aleksey,,,
Copyright (c) 2013 by PSTL. All rights reserved. |DCNT
</metadata>
<defs>
<font id="Quatro-SemiBoldItalic" horiz-adv-x="608" >
  <font-face 
    font-family="Quatro SemiBold"
    font-weight="600"
    font-style="italic"
    font-stretch="normal"
    units-per-em="1000"
    panose-1="2 11 5 3 0 0 0 9 0 4"
    ascent="742"
    descent="-258"
    x-height="548"
    cap-height="720"
    bbox="-119 -256 1068 939"
    underline-thickness="50"
    underline-position="-275"
    slope="-12"
    unicode-range="U+000D-FB02"
  />
<missing-glyph horiz-adv-x="570" 
d="M527 670l-75 -670h-410l75 670h410zM119 69h272l58 532h-272z" />
    <glyph glyph-name="fi" unicode="fi" horiz-adv-x="674" 
d="M529 742h143l-25 -123h-143zM410 147l83 401h140l-81 -378q-9 -43 5.5 -60t50.5 -17l24 2l-19 -92q-45 -9 -91 -9q-69 0 -98 41t-14 112zM482 764l-19 -101q-53 10 -87 10q-43 0 -66.5 -21.5t-32.5 -71.5l-6 -32h152l-21 -108h-148l-133 -645h-137l132 645h-67l18 95
l70 11l12 60q19 92 68 130.5t140 38.5q56 0 125 -11z" />
    <glyph glyph-name="fl" unicode="fl" horiz-adv-x="683" 
d="M537 763h141l-126 -611q-5 -25 8.5 -39t41.5 -14l34 3l-17 -101q-42 -7 -95 -7q-69 0 -98 44.5t-13 125.5zM482 764l-19 -101q-53 10 -87 10q-43 0 -66.5 -21.5t-32.5 -71.5l-6 -32h152l-21 -108h-148l-133 -645h-137l132 645h-67l18 95l70 11l12 60q19 92 68 130.5
t140 38.5q56 0 125 -11z" />
    <glyph glyph-name=".notdef" horiz-adv-x="570" 
d="M527 670l-75 -670h-410l75 670h410zM119 69h272l58 532h-272z" />
    <glyph glyph-name=".null" horiz-adv-x="0" 
 />
    <glyph glyph-name="nonmarkingreturn" horiz-adv-x="333" 
 />
    <glyph glyph-name="CR" unicode="&#xd;" horiz-adv-x="230" 
 />
    <glyph glyph-name="space" unicode=" " horiz-adv-x="244" 
 />
    <glyph glyph-name="exclam" unicode="!" horiz-adv-x="296" 
d="M167 720h136l-106 -497h-136zM155 0h-145l28 133h146z" />
    <glyph glyph-name="quotedbl" unicode="&#x22;" horiz-adv-x="375" 
d="M190 488h-94l48 231h95zM352 488h-94l48 231h95z" />
    <glyph glyph-name="numbersign" unicode="#" horiz-adv-x="723" 
d="M189 350h-106l48 119h104l71 177h129l-71 -177h130l70 177h131l-70 -177h94l-48 -119h-94l-42 -104h101l-47 -116h-99l-67 -164h-132l68 164h-129l-68 -164h-130l68 164h-103l47 116h103zM446 350h-128l-42 -104h129z" />
    <glyph glyph-name="dollar" unicode="$" horiz-adv-x="564" 
d="M197 111q24 -1 50 4.5t52 17.5t42.5 37t15.5 59q0 31 -24 48q-25 19 -89 38q-64 21 -93 39q-37 26 -51.5 56t-14.5 73q0 95 65 160t170 80l20 97h119l-19 -89q69 -3 133 -14l-26 -120q-85 13 -105 14q-34 2 -45 2q-74 0 -117 -26.5t-43 -75.5q0 -24 18 -42q20 -17 89 -39
q70 -21 98 -40q67 -43 67 -125q0 -98 -58.5 -166t-164.5 -94l-20 -96h-119l17 82q-82 1 -169 18l25 128q119 -26 177 -26z" />
    <glyph glyph-name="percent" unicode="%" horiz-adv-x="761" 
d="M94 0l492 720h101l-493 -720h-100zM80 503q0 96 54.5 162.5t135.5 66.5q57 0 86 -30t29 -83q0 -105 -53.5 -168t-134.5 -63q-117 0 -117 115zM255 662q-41 0 -67 -47q-24 -47 -24 -101q0 -56 47 -56q23 0 42 16q21 16 34.5 54.5t13.5 78.5q0 55 -46 55zM396 107
q0 88 51.5 159t138.5 71q59 0 87.5 -31t28.5 -84q0 -103 -54.5 -166t-134.5 -63q-58 0 -87.5 30t-29.5 84zM571 267q-42 0 -66 -48q-24 -47 -24 -101q0 -55 47 -55q22 0 41 16q21 16 34.5 54.5t13.5 78.5q0 55 -46 55z" />
    <glyph glyph-name="ampersand" unicode="&#x26;" horiz-adv-x="721" 
d="M647 706l-22 -110q-86 27 -168 27q-90 0 -147 -33.5t-57 -95.5q-3 -31 28 -54t72 -22h358l-20 -103h-109l25 -315h-122l-7 73q-23 -19 -79 -43q-100 -42 -190 -42q-95 0 -148.5 42t-53.5 119q0 71 48 129.5t126 86.5q-67 37 -67 128q0 102 90.5 170.5t253.5 68.5
q87 0 189 -26zM468 162l-11 157h-126q-75 0 -122.5 -39t-47.5 -97q-3 -33 28.5 -60.5t82.5 -25.5q44 0 99 18t97 47z" />
    <glyph glyph-name="quotesingle" unicode="'" horiz-adv-x="213" 
d="M190 488h-94l48 231h95z" />
    <glyph glyph-name="parenleft" unicode="(" horiz-adv-x="321" 
d="M10 88q0 180 70 353q70 175 195 322h134q-132 -159 -200.5 -326t-68.5 -322q0 -171 64 -320h-134q-60 144 -60 293z" />
    <glyph glyph-name="parenright" unicode=")" horiz-adv-x="320" 
d="M296 468q0 -175 -69 -349t-196 -324h-132q130 160 198.5 327t68.5 320q0 169 -64 321h134q60 -145 60 -295z" />
    <glyph glyph-name="asterisk" unicode="*" horiz-adv-x="456" 
d="M241 603l28 131h95l-28 -131l128 42l10 -82l-135 -38l60 -104l-90 -57l-50 100l-92 -101l-66 57l105 105l-119 37l45 83z" />
    <glyph glyph-name="plus" unicode="+" horiz-adv-x="560" 
d="M216 220h-179v114h179v176h114v-176h179v-114h-179v-176h-114v176z" />
    <glyph glyph-name="comma" unicode="," horiz-adv-x="244" 
d="M30 -128h-60l58 275h120q2 -49 -30.5 -128.5t-87.5 -146.5z" />
    <glyph glyph-name="hyphen" unicode="-" horiz-adv-x="546" 
d="M465 218h-423l23 112h424z" />
    <glyph glyph-name="period" unicode="." horiz-adv-x="242" 
d="M27 148h122l-31 -148h-123z" />
    <glyph glyph-name="slash" unicode="/" horiz-adv-x="447" 
d="M45 -206h-121l462 969h124z" />
    <glyph glyph-name="zero" unicode="0" horiz-adv-x="680" 
d="M401 602q-52 1 -95 -35t-67.5 -92t-37 -116t-12.5 -113q0 -129 109 -129q92 0 152 104q33 60 46 127q14 73 14 123q0 131 -109 131zM40 222q0 95 31 197t86 173q58 72 119.5 104t152.5 36q230 0 230 -238q0 -135 -52 -258q-50 -121 -137.5 -184.5t-199.5 -63.5
q-230 0 -230 234z" />
    <glyph glyph-name="one" unicode="1" horiz-adv-x="368" 
d="M377 720l-153 -720h-140l121 570l-138 -53l28 129l173 74h109z" />
    <glyph glyph-name="two" unicode="2" horiz-adv-x="548" 
d="M444 0h-468l21 99q199 138 293.5 240t94.5 178q0 45 -34 67.5t-94 22.5q-55 0 -149 -18l26 123q94 20 175 20q110 0 168 -43t58 -126q0 -98 -74 -202q-73 -103 -257 -237h266z" />
    <glyph glyph-name="three" unicode="3" horiz-adv-x="540" 
d="M108 580l27 124q102 27 201 27q89 0 143 -40.5t54 -109.5q2 -68 -46 -130.5t-98 -82.5q41 -15 64 -50.5t23 -77.5q0 -97 -87 -171q-50 -42 -115 -61q-68 -20 -124 -20q-70 0 -166 12l24 119q70 -10 160 -10q63 0 108 24q55 30 55 96q3 29 -28.5 51t-83.5 21h-94l25 116
h88q41 0 78 19q69 37 69 102q0 69 -110 69q-34 0 -88 -9q-53 -9 -79 -18z" />
    <glyph glyph-name="four" unicode="4" horiz-adv-x="642" 
d="M22 283l246 437h140l-243 -426h206l14 66l58 144h110l-44 -209h106l-26 -125h-106l-37 -170h-138l37 170h-345z" />
    <glyph glyph-name="five" unicode="5" horiz-adv-x="552" 
d="M168 110q71 -3 129 38.5t54 110.5q0 76 -108 76h-171l82 385h419l-27 -122h-283l-30 -143l55 1q97 0 154.5 -37.5t57.5 -121.5q0 -122 -74 -199q-105 -109 -274 -109q-76 0 -156 15l25 123q90 -17 147 -17z" />
    <glyph glyph-name="six" unicode="6" horiz-adv-x="626" 
d="M627 718l-24 -122q-61 11 -119 11q-107 0 -179.5 -56t-95.5 -160q98 41 190 41q87 2 135.5 -42t44.5 -108q0 -127 -94 -210.5t-226 -83.5q-108 0 -164.5 58t-56.5 167q-1 97 30 190t86.5 167t143 118.5t191.5 43.5q59 0 138 -14zM286 110q28 0 58 12t49 33q37 38 37 89
q0 30 -23.5 49t-71.5 19q-68 0 -144 -31q-6 -30 -6 -56q0 -55 27 -85t74 -30z" />
    <glyph glyph-name="seven" unicode="7" horiz-adv-x="513" 
d="M207 0h-142q38 169 123 318q91 162 214 280h-323l26 122h477l-25 -121q-107 -107 -173 -200q-126 -180 -177 -399z" />
    <glyph glyph-name="eight" unicode="8" horiz-adv-x="615" 
d="M239 -12q-109 0 -167.5 42t-58.5 117q-1 65 43.5 129t114.5 97q-64 45 -64 117q0 92 77.5 167t209.5 75q93 3 153 -45t55 -112q3 -47 -31.5 -106.5t-99.5 -102.5q81 -46 81 -129q0 -111 -91.5 -180t-221.5 -69zM265 109q58 0 99 28q42 29 42 72q0 44 -57 70
q-32 15 -53 22q-16 6 -37 14q-42 -21 -68.5 -58t-26.5 -71t27 -55.5t74 -21.5zM367 616q-41 4 -79.5 -26.5t-36.5 -74.5q0 -61 128 -99q33 21 54.5 56.5t21.5 68.5t-24 54t-64 21z" />
    <glyph glyph-name="nine" unicode="9" horiz-adv-x="626" 
d="M19 1l25 122q68 -11 119 -11q107 0 179.5 56t95.5 160q-94 -41 -190 -41q-87 -2 -135.5 42t-44.5 108q0 127 93.5 211t225.5 84q108 0 165 -58t57 -167q1 -97 -30 -190t-86.5 -167t-143 -118.5t-191.5 -43.5q-70 0 -139 13zM361 609q-41 0 -78 -22q-67 -38 -67 -112
q0 -68 95 -68q73 0 144 31q6 30 6 56q0 54 -27 84.5t-73 30.5z" />
    <glyph glyph-name="colon" unicode=":" horiz-adv-x="246" 
d="M27 148h123l-31 -148h-123zM94 460h122l-32 -150h-123z" />
    <glyph glyph-name="semicolon" unicode=";" horiz-adv-x="251" 
d="M94 459h124l-32 -149h-124zM31 -129h-61l58 277h122q2 -46 -30.5 -126.5t-88.5 -150.5z" />
    <glyph glyph-name="less" unicode="&#x3c;" horiz-adv-x="573" 
d="M481 159v-148l-440 176v161l440 176v-147l-332 -109z" />
    <glyph glyph-name="equal" unicode="=" horiz-adv-x="654" 
d="M556 340h-472v114h472v-114zM556 108h-472v114h472v-114z" />
    <glyph glyph-name="greater" unicode="&#x3e;" horiz-adv-x="571" 
d="M74 377v147l440 -176v-161l-440 -176v148l332 109z" />
    <glyph glyph-name="question" unicode="?" horiz-adv-x="487" 
d="M115 255q10 51 41 100q33 50 97 101q67 52 75 60q17 13 31.5 37t11.5 39q0 62 -108 62q-41 0 -88 -9q-51 -10 -73 -19l28 124q95 21 173 21q107 0 161.5 -36.5t54.5 -103.5q0 -49 -24 -95q-25 -48 -93 -106q-79 -67 -83 -71q-51 -48 -64 -101q-4 -20 -5 -50h-141
q2 26 6 47zM212 0h-143l26 119h143z" />
    <glyph glyph-name="at" unicode="@" horiz-adv-x="932" 
d="M614 50q-44 -2 -81 21t-37 63q-59 -54 -124 -54q-49 -1 -79.5 33.5t-27.5 72.5q0 103 68.5 177.5t177.5 74.5q84 0 157 -50l-70 -210q2 -29 44 -29q57 0 101 65q23 34 37 77t14 72q0 92 -68.5 142.5t-190.5 50.5q-163 2 -284 -119t-119 -283q0 -106 70.5 -160t201.5 -54
q83 0 165 20l-8 -104q-90 -26 -205 -26q-149 0 -244.5 75t-95.5 223q0 102 32 192.5t87 155.5q79 91 189 139t237 48q149 0 249 -76.5t100 -195.5q0 -107 -58 -198q-93 -143 -238 -143zM492 188l53 150q-25 14 -54 14q-46 0 -79 -41t-33 -94q0 -46 45 -46q25 0 68 17z" />
    <glyph glyph-name="A" unicode="A" horiz-adv-x="676" 
d="M86 0h-148l394 721h189l91 -721h-144l-16 146h-287zM407 600h-9l-177 -330h222z" />
    <glyph glyph-name="B" unicode="B" horiz-adv-x="651" 
d="M161 720h293q80 0 134 -36.5t54 -111.5q0 -60 -37 -115.5t-98 -85.5q93 -35 93 -122q0 -107 -83.5 -178t-205.5 -71h-302zM177 121h152q45 -3 86 29t39 85q0 65 -93 65h-146zM277 597l-37 -176h125q36 0 69 16q63 32 63 98q0 29 -24.5 45.5t-66.5 16.5h-129z" />
    <glyph glyph-name="C" unicode="C" horiz-adv-x="611" 
d="M38 234q0 96 27 184q27 90 72 150q124 164 329 164q100 0 189 -24l-27 -129q-86 31 -160 31q-124 0 -202.5 -94t-78.5 -242q0 -167 154 -167q70 0 197 39l-26 -126q-96 -32 -199 -32q-121 0 -198 60t-77 186z" />
    <glyph glyph-name="D" unicode="D" horiz-adv-x="715" 
d="M272 0h-263l152 720h241q81 0 140.5 -22.5t92 -60.5t47.5 -82t15 -95q1 -88 -29.5 -172t-85 -148t-136 -102.5t-174.5 -37.5zM177 122h102q104 0 182 81q42 44 64.5 106.5t22.5 123.5q0 77 -42.5 121t-122.5 44h-106z" />
    <glyph glyph-name="E" unicode="E" 
d="M9 0l152 720h493l-26 -122h-351l-37 -175h300l-26 -120h-299l-38 -181h347l-25 -122h-490z" />
    <glyph glyph-name="F" unicode="F" horiz-adv-x="590" 
d="M9 0l152 720h490l-27 -122h-347l-42 -199h303l-25 -121h-303l-60 -278h-141z" />
    <glyph glyph-name="G" unicode="G" horiz-adv-x="708" 
d="M488 610q-115 0 -198 -76q-105 -97 -105 -254q0 -174 168 -174q52 0 126 20l53 253h141l-72 -342q-151 -49 -283 -49q-126 0 -203 72t-77 190q0 149 68 268q56 95 159.5 154.5t249.5 59.5q118 0 203 -24l-29 -127q-44 11 -100 20q-58 9 -101 9z" />
    <glyph glyph-name="H" unicode="H" horiz-adv-x="761" 
d="M8 0l154 720h141l-63 -300h327l63 300h143l-153 -720h-143l64 299h-327l-64 -299h-142z" />
    <glyph glyph-name="I" unicode="I" horiz-adv-x="291" 
d="M150 0h-141l152 720h142z" />
    <glyph glyph-name="J" unicode="J" horiz-adv-x="290" 
d="M162 720h142l-130 -613q-39 -181 -233 -321l-60 110q127 96 149 203z" />
    <glyph glyph-name="K" unicode="K" horiz-adv-x="673" 
d="M341 193l-38 109l-96 -31l-57 -271h-141l152 720h142l-67 -321q10 4 59 18q93 29 138 61q109 75 108 242h142q-9 -259 -246 -371l51 -138q20 -53 48 -74t78 -21l-25 -118l-55 -2q-68 -1 -112 44.5t-81 152.5z" />
    <glyph glyph-name="L" unicode="L" horiz-adv-x="547" 
d="M9 0l152 720h142l-126 -598h324l-26 -122h-466z" />
    <glyph glyph-name="M" unicode="M" horiz-adv-x="935" 
d="M481 -2h-188q-5 53 -12 278t-12 278h-7l-118 -554h-135l153 720h248q5 -56 12 -280q7 -207 11 -272l21 20l268 532h225l-153 -720h-135l118 554h-9q-37 -68 -144 -278q-123 -240 -143 -278z" />
    <glyph glyph-name="N" unicode="N" horiz-adv-x="760" 
d="M619 0h-147l-218 485l-104 -485h-141l152 720h150l214 -497l105 497h142z" />
    <glyph glyph-name="O" unicode="O" horiz-adv-x="744" 
d="M328 109q113 4 179.5 97.5t71.5 239.5q0 164 -144 164q-104 0 -172 -89q-79 -106 -79 -260q0 -152 144 -152zM37 233q-1 94 26.5 183t79.5 160.5t135 114.5t184 41q118 0 191.5 -68.5t73.5 -181.5q0 -92 -27.5 -179.5t-78.5 -159t-134 -114.5t-184 -41q-124 0 -195 64.5
t-71 180.5z" />
    <glyph glyph-name="P" unicode="P" horiz-adv-x="622" 
d="M311 206h-117l-44 -206h-141l152 720h263q99 0 154 -55q57 -55 57 -141q2 -127 -91.5 -223t-232.5 -95zM391 598h-114l-57 -270h99q75 0 122 48.5t47 123.5q0 46 -24 72t-73 26z" />
    <glyph glyph-name="Q" unicode="Q" horiz-adv-x="743" 
d="M37 235q0 172 85 310q52 86 139.5 136.5t200.5 50.5q124 0 194.5 -68.5t70.5 -182.5q0 -157 -71.5 -283.5t-189.5 -178.5q37 -17 62.5 -53.5t26.5 -82.5h-182q-2 38 -23.5 67.5t-53.5 37.5q-127 2 -193 65.5t-66 181.5zM328 110q103 0 171 88q80 105 80 253
q0 159 -145 159q-113 -4 -179 -98.5t-72 -250.5q0 -151 145 -151z" />
    <glyph glyph-name="R" unicode="R" horiz-adv-x="643" 
d="M9 0l152 720h241q238 0 238 -176q0 -87 -42 -158.5t-117 -114.5l76 -271h-148l-63 232h-146l-50 -232h-141zM389 597h-112l-51 -244h110q71 0 112.5 50t41.5 105q2 40 -30 66t-71 23z" />
    <glyph glyph-name="S" unicode="S" horiz-adv-x="585" 
d="M217 110q71 -2 121.5 31.5t46.5 82.5q0 27 -21 45q-20 17 -90 34q-68 16 -94 27q-36 19 -53 32.5t-30.5 41.5t-15.5 72q0 126 93 190.5t241 64.5q69 0 187 -13l-26 -126q-116 18 -183 18q-77 0 -120 -27t-43 -72q0 -26 21 -44q24 -19 91 -35q73 -17 98 -28
q97 -38 97 -136q0 -81 -37 -142q-30 -58 -109 -98.5t-189 -39.5q-104 0 -211 21l26 126q132 -25 200 -25z" />
    <glyph glyph-name="T" unicode="T" horiz-adv-x="628" 
d="M97 720h608l-27 -122h-232l-127 -598h-142l127 598h-233z" />
    <glyph glyph-name="U" unicode="U" horiz-adv-x="721" 
d="M291 -12q-136 2 -199 74.5t-36 199.5l97 458h141l-99 -469q-13 -62 19 -101t101 -41q55 -4 113 33.5t70 108.5l100 469h141l-96 -457q-29 -135 -118.5 -205t-233.5 -70z" />
    <glyph glyph-name="V" unicode="V" horiz-adv-x="650" 
d="M579 720h154l-387 -720h-177l-83 720h145l56 -564h8z" />
    <glyph glyph-name="W" unicode="W" horiz-adv-x="971" 
d="M719 -1h-190l-11 450h-9l-216 -450h-184l-7 721h139l6 -536h5l250 536h152l10 -536h5l231 536h143z" />
    <glyph glyph-name="X" unicode="X" horiz-adv-x="639" 
d="M539 720h163l-284 -358l166 -362h-152l-119 270l-208 -270h-169l312 384l-150 336h152l103 -249z" />
    <glyph glyph-name="Y" unicode="Y" horiz-adv-x="621" 
d="M365 242l-50 -242h-142l52 242l-145 478h149l93 -354l228 354h157z" />
    <glyph glyph-name="Z" unicode="Z" horiz-adv-x="648" 
d="M123 720h562l-28 -133l-476 -464h395l-26 -123h-571l27 132l479 466h-388z" />
    <glyph glyph-name="bracketleft" unicode="[" horiz-adv-x="297" 
d="M-36 -205l204 968h184l-26 -123h-59l-153 -721h59l-26 -124h-183z" />
    <glyph glyph-name="backslash" unicode="\" horiz-adv-x="588" 
d="M459 -205h-122l-223 968h124z" />
    <glyph glyph-name="bracketright" unicode="]" horiz-adv-x="297" 
d="M320 763l-205 -968h-183l26 123h58l153 721h-59l26 124h184z" />
    <glyph glyph-name="asciicircum" unicode="^" horiz-adv-x="502" 
d="M58 370l166 317h115l74 -164q14 -31 31 -68t26 -56.5t13 -28.5h-126l-73 177q-16 -12 -54 -90l-43 -87h-129z" />
    <glyph glyph-name="underscore" unicode="_" horiz-adv-x="527" 
d="M417 -10h-410l2 105h409z" />
    <glyph glyph-name="grave" unicode="`" horiz-adv-x="500" 
d="M325 615h-105l-90 158h143z" />
    <glyph glyph-name="a" unicode="a" 
d="M589 521l-105 -521h-112l-5 65q-35 -34 -83 -53t-95 -19q-78 0 -124.5 54.5t-46.5 140.5q-2 159 93.5 266t256.5 106q98 0 221 -39zM372 152l60 287q-40 12 -76 12q-86 0 -141.5 -69.5t-55.5 -166.5q0 -49 23 -79t68 -30q65 0 122 46z" />
    <glyph glyph-name="b" unicode="b" horiz-adv-x="619" 
d="M232 -12q-124 0 -230 30l152 745h142l-57 -265q97 62 188 62q77 0 120 -47.5t43 -129.5q2 -167 -97 -282t-261 -113zM221 395l-60 -287q42 -12 85 -12q87 0 143 75t56 175q0 48 -22.5 72t-61.5 24q-60 0 -140 -47z" />
    <glyph glyph-name="c" unicode="c" horiz-adv-x="519" 
d="M159 212q0 -59 34 -87.5t94 -28.5q64 0 158 28l-22 -111q-88 -25 -178 -25q-104 0 -166 51t-62 149q-1 99 39.5 183.5t120.5 137t183 51.5q85 0 169 -26l-22 -109q-71 25 -145 25q-90 0 -146.5 -69t-56.5 -169z" />
    <glyph glyph-name="d" unicode="d" horiz-adv-x="616" 
d="M645 763l-156 -763h-108l-6 65q-94 -75 -193 -75q-76 0 -120.5 52.5t-44.5 142.5q0 70 21 137.5t57 113.5q47 65 118 94.5t139 28.5q48 0 112 -14l46 218h135zM384 152l58 287q-41 12 -83 12q-90 0 -145.5 -64.5t-55.5 -171.5q0 -54 23.5 -81.5t65.5 -27.5q62 0 137 46z
" />
    <glyph glyph-name="e" unicode="e" horiz-adv-x="562" 
d="M478 137l-12 -116q-111 -33 -207 -33q-113 0 -177.5 49t-64.5 156q0 126 61 218q97 149 273 149q91 0 142.5 -40.5t51.5 -110.5q0 -80 -58 -129.5t-176 -49.5q-62 0 -143 16q-5 -25 -5 -45q0 -48 31.5 -76t95.5 -28q87 0 188 40zM178 320q64 -9 106 -9q130 0 133 86
q0 28 -21 45t-61 17q-56 0 -98.5 -37t-58.5 -102z" />
    <glyph glyph-name="f" unicode="f" horiz-adv-x="386" 
d="M491 764l-19 -101q-63 9 -86 9q-87 0 -107 -89l-8 -35h152l-21 -108h-148l-133 -645h-137l132 645h-67l18 95l70 11l12 60q35 169 217 169q56 0 125 -11z" />
    <glyph glyph-name="g" unicode="g" horiz-adv-x="615" 
d="M595 520l-101 -502l-3 -12q-33 -118 -98.5 -170t-200.5 -53q-96 0 -207 30l21 111q110 -33 184 -33q148 0 175 121l11 52q-84 -71 -187 -71q-81 0 -126.5 51t-45.5 141q0 103 40.5 186.5t124 135.5t195.5 52q101 0 218 -39zM382 152l60 286q-45 13 -81 13q-95 0 -149 -69
t-54 -171q0 -46 22.5 -75.5t67.5 -29.5q62 0 134 46z" />
    <glyph glyph-name="h" unicode="h" horiz-adv-x="622" 
d="M581 398l-82 -398h-140l78 374q11 72 -61 72q-56 0 -155 -51l-82 -395h-139l155 763h140l-56 -268q126 63 213 63q74 0 109 -43.5t20 -116.5z" />
    <glyph glyph-name="i" unicode="i" horiz-adv-x="291" 
d="M145 742h143l-25 -123h-143zM26 147l83 401h140l-81 -378q-9 -43 5.5 -60t50.5 -17l24 2l-19 -92q-45 -9 -91 -9q-69 0 -98 41t-14 112z" />
    <glyph glyph-name="j" unicode="j" horiz-adv-x="265" 
d="M111 548h139l-90 -450q-22 -112 -73.5 -182t-149.5 -116l-48 86q61 41 86 79q24 35 38 100zM147 742h143l-25 -123h-143z" />
    <glyph glyph-name="k" unicode="k" horiz-adv-x="571" 
d="M296 763l-92 -444l107 30q44 12 70 43.5t26 75.5q0 38 -12 80h127q10 -39 10 -79q0 -134 -150 -198q12 -80 42.5 -118.5t89.5 -49.5l-30 -107q-104 3 -155.5 68t-58.5 167l-87 -20l-43 -211h-140l156 763h140z" />
    <glyph glyph-name="l" unicode="l" horiz-adv-x="300" 
d="M155 763h140l-126 -611q-11 -54 50 -54l34 4l-17 -101q-34 -7 -95 -7q-71 0 -99 40.5t-10 129.5z" />
    <glyph glyph-name="m" unicode="m" horiz-adv-x="959" 
d="M790 559q74 0 107.5 -44t19.5 -120l-81 -395h-140l77 375q8 34 -9.5 52t-47.5 18q-72 0 -148 -49l-81 -396h-139l76 371q6 33 -7.5 53t-45.5 20q-61 0 -151 -49l-81 -395h-139l111 548h118v-59q120 70 216 70q54 0 85.5 -22t38.5 -53q128 75 221 75z" />
    <glyph glyph-name="n" unicode="n" horiz-adv-x="622" 
d="M580 395l-81 -395h-139l77 375q7 33 -7.5 52t-47.5 19q-54 0 -162 -50l-81 -396h-139l111 548h116l2 -58q137 70 224 70q61 0 102.5 -41t24.5 -124z" />
    <glyph glyph-name="o" unicode="o" horiz-adv-x="624" 
d="M343 452q-78 0 -130 -78t-52 -170q0 -108 106 -108q73 0 126.5 72t55.5 166q0 118 -106 118zM17 190q-2 153 96 262t249 108q112 0 170.5 -55t58.5 -150q0 -159 -95.5 -263t-249.5 -104q-113 0 -171 53t-58 149z" />
    <glyph glyph-name="p" unicode="p" horiz-adv-x="617" 
d="M137 3l-44 -208h-135l154 753h110l2 -65q95 75 195 75q78 0 122 -48.5t44 -130.5q0 -138 -63 -243q-40 -68 -107.5 -107.5t-153.5 -39.5q-54 0 -124 14zM219 398l-61 -289q44 -12 84 -12q88 0 144 70t56 177q0 49 -22.5 74t-61.5 25q-56 0 -139 -45z" />
    <glyph glyph-name="q" unicode="q" horiz-adv-x="619" 
d="M376 560q114 0 226 -30l-149 -735h-140l52 253q-94 -60 -190 -60q-73 0 -117 48t-44 129q0 172 98.5 283.5t263.5 111.5zM383 152l61 288q-46 11 -82 11q-33 2 -68 -13.5t-65 -45.5t-49.5 -79.5t-20.5 -110.5q0 -43 21 -69.5t63 -26.5q63 0 140 46z" />
    <glyph glyph-name="r" unicode="r" horiz-adv-x="399" 
d="M435 549l-27 -140q-80 -7 -200 -79l-69 -330h-139l111 548h131l-23 -114q51 59 112.5 90t103.5 25z" />
    <glyph glyph-name="s" unicode="s" horiz-adv-x="496" 
d="M-11 9l18 110q95 -24 165 -24q60 0 91.5 20.5t31.5 54.5q0 20 -23 32q-17 9 -79 23q-65 15 -92 34q-54 36 -54 105q0 96 75.5 146t192.5 50q92 0 166 -18l-22 -109q-80 18 -146 18q-60 0 -90 -18t-30 -44q0 -19 16 -31q17 -11 76 -24q60 -13 83 -24q35 -17 54 -43t19 -73
q0 -102 -76 -154t-196 -52q-88 0 -180 21z" />
    <glyph glyph-name="t" unicode="t" horiz-adv-x="402" 
d="M417 440h-163l-59 -292q-3 -20 12 -32.5t42 -12.5q34 0 79 13l-21 -111q-73 -14 -119 -14q-63 0 -101 27q-51 41 -32 137l60 285h-70l21 101q113 12 147 126h87l-24 -119h162z" />
    <glyph glyph-name="u" unicode="u" horiz-adv-x="622" 
d="M26 152l81 396h140l-78 -376q-6 -30 9 -50.5t47 -20.5q56 0 161 50l82 397h139l-112 -548h-116l-2 57q-128 -69 -224 -69q-67 0 -104 48q-37 47 -23 116z" />
    <glyph glyph-name="v" unicode="v" horiz-adv-x="535" 
d="M120 -1l-71 549h144l40 -413l17 18l130 250q31 57 31 145h136q0 -96 -52 -193l-192 -356h-183z" />
    <glyph glyph-name="w" unicode="w" horiz-adv-x="943" 
d="M35 191l72 357h140l-77 -377q-7 -30 9 -51t47 -21q69 0 155 54q4 46 8 63l69 332h130l-74 -362q-8 -40 14.5 -65t67.5 -25q50 0 83 24.5t42 65.5l73 362h141l-75 -365q-19 -94 -90.5 -144.5t-191.5 -50.5q-138 0 -181 84q-49 -39 -108 -61.5t-112 -22.5
q-86 0 -124.5 52.5t-17.5 150.5z" />
    <glyph glyph-name="x" unicode="x" horiz-adv-x="544" 
d="M20 97l159 177l-137 274h156l85 -182l92 107q14 15 23.5 38t9.5 37h141q0 -59 -73 -137l-129 -138l139 -273h-159l-85 173l-74 -88q-53 -65 -53 -85h-138q0 46 43 97z" />
    <glyph glyph-name="y" unicode="y" horiz-adv-x="538" 
d="M234 134h9l135 261q14 29 24 73q11 47 11 80h138q0 -90 -53 -191l-194 -364q-27 -49 -49 -108q-21 -55 -21 -90h-143q0 39 20.5 95.5t55.5 108.5h-47l-71 549h144z" />
    <glyph glyph-name="z" unicode="z" horiz-adv-x="545" 
d="M341 440h-281l21 108h469l-17 -88l-348 -352h290l-21 -108h-481l17 89z" />
    <glyph glyph-name="braceleft" unicode="{" horiz-adv-x="449" 
d="M390 656q-44 0 -69 -16.5t-39 -52.5q-10 -24 -13 -117t-16 -126q-22 -61 -74 -82l-1 -7q33 -23 33 -75q0 -46 -31 -124q-29 -78 -34 -98q-4 -17 -4 -30q0 -31 21 -48.5t55 -17.5q42 0 114 18l-25 -118q-71 -17 -135 -17q-81 0 -124 36t-43 105q0 71 31 146t36 92t5 29
q0 42 -46 42h-29l27 127l29 -1q38 0 56 29t20 101q5 323 257 323q63 0 129 -17l-26 -119q-67 18 -104 18z" />
    <glyph glyph-name="bar" unicode="|" horiz-adv-x="284" 
d="M167 763h140l-205 -968h-137q27 131 202 968z" />
    <glyph glyph-name="braceright" unicode="}" horiz-adv-x="450" 
d="M38 -137q44 0 69 16.5t39 52.5q10 24 13 117q3 90 15 125q22 62 75 83l1 7q-33 23 -33 75q0 45 30 124q30 75 35 98q4 17 4 30q0 31 -21 48.5t-55 17.5q-42 0 -114 -18l25 118q71 17 135 17q81 0 124 -36t43 -105q0 -68 -32 -146q-31 -75 -36 -92q-4 -13 -4 -29
q0 -42 46 -42h29l-27 -127l-29 1q-38 0 -56 -29t-20 -101q-5 -323 -257 -323q-63 0 -129 17l26 119q68 -18 104 -18z" />
    <glyph glyph-name="asciitilde" unicode="~" horiz-adv-x="584" 
d="M526 364l-9 -96q-56 -25 -110 -25q-45 0 -120 19q-78 20 -113 20q-57 0 -117 -29l12 100q69 31 134 31q50 0 123 -19q75 -19 109 -19q47 0 91 18z" />
    <glyph glyph-name="uni00A0" unicode="&#xa0;" horiz-adv-x="244" 
 />
    <glyph glyph-name="exclamdown" unicode="&#xa1;" horiz-adv-x="277" 
d="M97 -206h-135l105 498h136zM108 515h148l-29 -133h-147z" />
    <glyph glyph-name="cent" unicode="&#xa2;" horiz-adv-x="536" 
d="M160 212q0 -59 34 -87.5t94 -28.5q64 0 158 28l-22 -111q-60 -18 -130 -23l-32 -159h-118l34 164q-76 15 -118 64t-42 129q0 137 74.5 240.5t201.5 125.5l35 162h118l-34 -158q57 -6 117 -24l-22 -109q-71 25 -145 25q-90 0 -146.5 -69t-56.5 -169z" />
    <glyph glyph-name="sterling" unicode="&#xa3;" horiz-adv-x="559" 
d="M538 742l-10 -130q-83 -10 -128 -50t-63 -121l-3 -16h157l-26 -124h-156l-8 -38q-25 -107 -96 -147q59 12 159 12h115l-27 -128h-481l41 120q112 7 149 181h-79l26 124h79l3 15q29 133 122.5 215.5t225.5 86.5z" />
    <glyph glyph-name="yen" unicode="&#xa5;" horiz-adv-x="699" 
d="M265 241h-200l24 115h143l-111 364h150l92 -354l228 354h157l-262 -364h144l-24 -115h-200l-9 -48h199l-25 -117h-200l-16 -76h-141l16 76h-200l26 117h199z" />
    <glyph glyph-name="brokenbar" unicode="&#xa6;" horiz-adv-x="288" 
d="M-34 -205l94 450h140l-95 -450h-139zM310 763l-95 -450h-140l95 450h140z" />
    <glyph glyph-name="section" unicode="&#xa7;" horiz-adv-x="538" 
d="M56 310q0 46 25.5 91.5t66.5 72.5q-36 40 -36 88q0 83 65.5 138.5t205.5 55.5q63 0 164 -18l-21 -108q-30 7 -74 12q-48 5 -73 5q-55 0 -87.5 -17t-32.5 -46q0 -15 14 -27t88 -29q74 -16 100 -39q46 -37 46 -97q0 -93 -86 -176q26 -28 26 -72q0 -93 -75 -149t-198 -56
q-38 0 -90 6q-48 4 -89 14l18 108q98 -22 165 -22q59 0 91 20t32 56q0 11 -6 18t-21 15q-12 7 -75 22q-84 21 -111 50t-32 84zM190 346q0 -46 85 -63l54 -13q42 46 42 82q0 21 -18 35t-69 26l-54 13q-40 -42 -40 -80z" />
    <glyph glyph-name="dieresis" unicode="&#xa8;" horiz-adv-x="833" 
d="M516 750h124l-29 -135h-124zM258 750h124l-29 -135h-124z" />
    <glyph glyph-name="copyright" unicode="&#xa9;" horiz-adv-x="836" 
d="M361 43q131 0 243 93q60 48 95 108q57 93 57 186q0 109 -72 178.5t-188 69.5q-130 0 -242 -90q-62 -48 -96 -106q-56 -96 -56 -189q0 -96 60 -167q34 -40 87.5 -61.5t111.5 -21.5zM816 439q1 -83 -37.5 -166t-102 -146t-150 -101.5t-176.5 -37.5q-134 0 -220 84t-86 212
q0 111 59 215q59 105 168 169q110 66 236 66q134 0 221.5 -84t87.5 -211zM476 459q-55 0 -85 -34.5t-30 -95.5q0 -31 18 -44.5t56 -13.5q10 0 16 1l64 10l-17 -76q-47 -11 -91 -11q-51 -3 -93.5 29t-39.5 94q0 94 59.5 155.5t145.5 61.5q45 0 87 -11l-16 -76q-61 11 -74 11z
" />
    <glyph glyph-name="ordfeminine" unicode="&#xaa;" horiz-adv-x="444" 
d="M449 654l-69 -344h-74l-4 43q-51 -48 -117 -48q-49 0 -81 35t-32 94q0 106 62.5 176t168.5 70q61 0 146 -26zM306 410l39 190q-30 8 -50 8q-31 0 -63 -18q-29 -16 -49 -58q-18 -40 -18 -80q0 -72 60 -72q40 0 81 30z" />
    <glyph glyph-name="guillemotleft" unicode="&#xab;" horiz-adv-x="613" 
d="M26 274l215 267h137l-223 -267l102 -267h-128zM282 274l216 267h136l-223 -267l102 -267h-128z" />
    <glyph glyph-name="logicalnot" unicode="&#xac;" horiz-adv-x="621" 
d="M65 330h486l-46 -259l-111 7l27 132h-381z" />
    <glyph glyph-name="registered" unicode="&#xae;" horiz-adv-x="513" 
d="M207 420l45 212h76q73 0 73 -53t-48 -80l23 -79h-50l-19 66h-37l-13 -66h-50zM318 591h-25l-14 -66h25q21 0 33.5 13t12.5 29q0 24 -32 24zM263 343q81 0 148.5 65t67.5 148q0 60 -40 98.5t-105 38.5q-79 0 -145.5 -64.5t-66.5 -147.5q0 -60 39.5 -99t101.5 -39zM520 564
q2 -102 -79 -181.5t-186 -77.5q-77 0 -127 48q-49 48 -49 121q0 103 79.5 180.5t184.5 77.5q77 0 127 -48q50 -47 50 -120z" />
    <glyph glyph-name="macron" unicode="&#xaf;" horiz-adv-x="601" 
d="M489 619h-401l23 111h401z" />
    <glyph glyph-name="degree" unicode="&#xb0;" horiz-adv-x="315" 
d="M207 551q28 0 48 21.5t20 51.5q0 44 -44 44q-29 0 -49 -22.5t-20 -53.5q0 -41 45 -41zM194 491q-42 0 -69.5 25t-27.5 65q0 62 44 104q45 42 102 42q43 0 70.5 -25t27.5 -66q0 -51 -40 -98t-107 -47z" />
    <glyph glyph-name="plusminus" unicode="&#xb1;" horiz-adv-x="631" 
d="M535 0h-472v108h472v-108zM242 324h-179v114h179v176h114v-176h179v-114h-179v-176h-114v176z" />
    <glyph glyph-name="twosuperior" unicode="&#xb2;" horiz-adv-x="416" 
d="M358 289h-312l16 78q119 78 155 106q84 67 84 114q0 43 -81 43q-27 0 -91 -11l20 94q80 14 130 14q136 0 136 -99q0 -62 -46 -121t-148 -124h158z" />
    <glyph glyph-name="threesuperior" unicode="&#xb3;" horiz-adv-x="400" 
d="M123 615l20 95q66 16 131 16q64 0 101.5 -24t37.5 -66q0 -36 -26 -71.5t-68 -55.5q58 -19 58 -77q0 -69 -62 -113q-61 -42 -156 -42q-19 0 -53 3q-33 3 -55 6l21 96q59 -8 94 -8q101 0 101 57q0 36 -61 36h-68l16 73h60q32 0 56 15.5t24 41.5q0 33 -64 33q-48 0 -107 -15
z" />
    <glyph glyph-name="acute" unicode="&#xb4;" horiz-adv-x="424" 
d="M188 773h144l-133 -158h-107z" />
    <glyph glyph-name="paragraph" unicode="&#xb6;" horiz-adv-x="581" 
d="M345 720h68l-98 -456h-73q-81 0 -129 48t-48 126q0 99 70 184q39 47 96 72.5t114 25.5zM449 720h141l-148 -696q-26 -124 -100.5 -180.5t-207.5 -56.5q-38 0 -81 6l26 127q43 -4 65 -4q67 0 106 26.5t53 93.5z" />
    <glyph glyph-name="periodcentered" unicode="&#xb7;" horiz-adv-x="245" 
d="M68 342h123l-32 -148h-123z" />
    <glyph glyph-name="cedilla" unicode="&#xb8;" horiz-adv-x="467" 
d="M91 -209l14 71q35 -7 70 -7q65 0 65 31q0 28 -85 32l2 10l51 72h83l-31 -41q79 -6 79 -62q0 -44 -34 -74q-44 -40 -133 -40q-38 0 -81 8z" />
    <glyph glyph-name="onesuperior" unicode="&#xb9;" horiz-adv-x="290" 
d="M310 721l-91 -432h-108l67 319l-93 -32l21 100l117 45h87z" />
    <glyph glyph-name="ordmasculine" unicode="&#xba;" horiz-adv-x="446" 
d="M286 608q-47 0 -81 -44q-18 -23 -28.5 -57t-10.5 -62q0 -71 70 -71q48 0 83 47q36 49 37 110q0 77 -70 77zM71 436q0 89 51 159q29 41 76.5 63t99.5 22q24 1 49.5 -5.5t49.5 -21t38.5 -43t13.5 -66.5q0 -91 -52 -161q-29 -39 -76 -60t-99 -21q-71 0 -111 34.5t-40 99.5z
" />
    <glyph glyph-name="guillemotright" unicode="&#xbb;" horiz-adv-x="616" 
d="M573 274l-215 -267h-137l223 267l-102 267h128zM317 274l-216 -267h-136l223 267l-102 267h128z" />
    <glyph glyph-name="onequarter" unicode="&#xbc;" horiz-adv-x="917" 
d="M476 171l147 260h109l-146 -253h101l9 41l36 86h90l-27 -127h63l-19 -93h-63l-19 -85h-108l19 85h-210zM317 721l-92 -432h-108l68 319l-94 -32l21 100l118 45h87zM138 -93h-117l621 856h118z" />
    <glyph glyph-name="onehalf" unicode="&#xbd;" horiz-adv-x="872" 
d="M314 721l-92 -432h-108l68 319l-94 -32l21 100l118 45h87zM135 -93h-117l621 856h118zM768 0h-313l17 78q128 82 183 131.5t55 88.5q0 43 -80 43q-27 0 -91 -11l21 94q80 14 130 14q135 0 135 -100q0 -120 -194 -244h157z" />
    <glyph glyph-name="threequarters" unicode="&#xbe;" horiz-adv-x="996" 
d="M112 615l20 95q66 16 131 16q64 0 101.5 -24t37.5 -66q0 -36 -26 -71.5t-68 -55.5q58 -19 58 -77q0 -69 -62 -113q-62 -42 -156 -42q-18 0 -53 3q-33 3 -55 6l21 96q59 -8 94 -8q101 0 101 57q0 36 -61 36h-68l16 73h60q32 0 56 15.5t24 41.5q0 33 -64 33q-49 0 -107 -15
zM216 -93h-116l620 856h118zM555 171l147 260h109l-146 -253h101l9 41l36 86h90l-27 -127h63l-19 -93h-63l-19 -85h-108l19 85h-210z" />
    <glyph glyph-name="questiondown" unicode="&#xbf;" horiz-adv-x="486" 
d="M350 260q-10 -52 -42 -100q-31 -50 -97 -101l-75 -60q-16 -14 -30.5 -37.5t-11.5 -38.5q0 -62 108 -62q42 0 88 9q51 10 73 19l-28 -124q-94 -21 -173 -21q-106 0 -161 36.5t-55 103.5q0 48 24 95t93 105q46 39 82 71q53 49 65 102q4 20 5 50h141q-1 -24 -6 -47zM253 515
h143l-26 -119h-143z" />
    <glyph glyph-name="Agrave" unicode="&#xc0;" horiz-adv-x="676" 
d="M86 0h-148l394 721h189l91 -721h-144l-16 146h-287zM407 600h-9l-177 -330h222zM504 772h-105l-90 158h143z" />
    <glyph glyph-name="Aacute" unicode="&#xc1;" horiz-adv-x="676" 
d="M86 0h-148l394 721h189l91 -721h-144l-16 146h-287zM407 600h-9l-177 -330h222zM481 933h144l-133 -158h-107z" />
    <glyph glyph-name="Acircumflex" unicode="&#xc2;" horiz-adv-x="676" 
d="M86 0h-148l394 721h189l91 -721h-144l-16 146h-287zM407 600h-9l-177 -330h222zM503 775l-41 108l-87 -108h-119l131 160h169l63 -160h-116z" />
    <glyph glyph-name="Atilde" unicode="&#xc3;" horiz-adv-x="676" 
d="M86 0h-148l394 721h189l91 -721h-144l-16 146h-287zM407 600h-9l-177 -330h222zM207 778l24 109q61 52 129 52q38 0 93 -29q62 -32 103 -32q74 0 135 54l-24 -110q-59 -52 -129 -52q-39 0 -95 29q-60 33 -101 33q-72 0 -135 -54z" />
    <glyph glyph-name="Adieresis" unicode="&#xc4;" horiz-adv-x="676" 
d="M86 0h-148l394 721h189l91 -721h-144l-16 146h-287zM407 600h-9l-177 -330h222zM525 910h124l-29 -135h-124zM267 910h124l-29 -135h-124z" />
    <glyph glyph-name="Aring" unicode="&#xc5;" horiz-adv-x="676" 
d="M86 0h-148l387 709q-4 11 -4 27q0 26 14 56q15 31 50 51.5t75 20.5q44 0 69 -21.5t25 -57.5q0 -43 -31 -84l89 -701h-144l-16 146h-287zM407 600h-9l-177 -330h222zM448 807q-24 0 -40.5 -17.5t-16.5 -42.5q0 -33 37 -33q25 0 40.5 18t15.5 42q0 33 -36 33z" />
    <glyph glyph-name="AE" unicode="&#xc6;" horiz-adv-x="1005" 
d="M-74 0l507 720h618l-26 -122h-350l-37 -175h299l-26 -120h-299l-38 -181h348l-26 -122h-491l31 146h-246l-103 -146h-161zM531 593h-38l-221 -326h190z" />
    <glyph glyph-name="Ccedilla" unicode="&#xc7;" horiz-adv-x="611" 
d="M38 234q0 96 27 184q27 90 72 150q124 164 329 164q100 0 189 -24l-27 -129q-86 31 -160 31q-124 0 -202.5 -94t-78.5 -242q0 -167 154 -167q70 0 197 39l-26 -126q-96 -32 -199 -32q-121 0 -198 60t-77 186zM159 -209l14 71q35 -7 70 -7q65 0 65 31q0 28 -85 32l2 10
l51 72h83l-31 -41q79 -6 79 -62q0 -44 -34 -74q-44 -40 -133 -40q-38 0 -81 8z" />
    <glyph glyph-name="Egrave" unicode="&#xc8;" 
d="M9 0l152 720h493l-26 -122h-351l-37 -175h300l-26 -120h-299l-38 -181h347l-25 -122h-490zM494 775h-105l-90 158h143z" />
    <glyph glyph-name="Eacute" unicode="&#xc9;" 
d="M9 0l152 720h493l-26 -122h-351l-37 -175h300l-26 -120h-299l-38 -181h347l-25 -122h-490zM464 933h144l-133 -158h-107z" />
    <glyph glyph-name="Ecircumflex" unicode="&#xca;" 
d="M9 0l152 720h493l-26 -122h-351l-37 -175h300l-26 -120h-299l-38 -181h347l-25 -122h-490zM483 775l-41 108l-87 -108h-119l131 160h169l63 -160h-116z" />
    <glyph glyph-name="Edieresis" unicode="&#xcb;" 
d="M9 0l152 720h493l-26 -122h-351l-37 -175h300l-26 -120h-299l-38 -181h347l-25 -122h-490zM510 910h124l-29 -135h-124zM252 910h124l-29 -135h-124z" />
    <glyph glyph-name="Igrave" unicode="&#xcc;" horiz-adv-x="291" 
d="M150 0h-141l152 720h142zM290 775h-105l-90 158h143z" />
    <glyph glyph-name="Iacute" unicode="&#xcd;" horiz-adv-x="291" 
d="M150 0h-141l152 720h142zM290 933h144l-133 -158h-107z" />
    <glyph glyph-name="Icircumflex" unicode="&#xce;" horiz-adv-x="291" 
d="M150 0h-141l152 720h142zM309 775l-41 108l-87 -108h-119l131 160h169l63 -160h-116z" />
    <glyph glyph-name="Idieresis" unicode="&#xcf;" horiz-adv-x="291" 
d="M150 0h-141l152 720h142zM336 910h124l-29 -135h-124zM78 910h124l-29 -135h-124z" />
    <glyph glyph-name="Eth" unicode="&#xd0;" horiz-adv-x="749" 
d="M306 0h-263l62 292h-113l26 126h113l65 302h263q128 0 200.5 -66.5t72.5 -188.5q1 -87 -29.5 -171t-85 -150t-136.5 -105.5t-175 -38.5zM211 122h103q104 0 182 81q42 44 64.5 106.5t22.5 123.5q0 77 -43 121t-123 44h-105l-39 -180h126l-27 -126h-125z" />
    <glyph glyph-name="Ntilde" unicode="&#xd1;" horiz-adv-x="760" 
d="M619 0h-147l-218 485l-104 -485h-141l152 720h150l214 -497l105 497h142zM238 772l24 109q61 52 129 52q38 0 93 -29q62 -32 103 -32q73 0 135 54l-24 -110q-59 -52 -129 -52q-39 0 -95 29q-60 33 -101 33q-72 0 -135 -54z" />
    <glyph glyph-name="Ograve" unicode="&#xd2;" horiz-adv-x="744" 
d="M328 109q113 4 179.5 97.5t71.5 239.5q0 164 -144 164q-104 0 -172 -89q-79 -106 -79 -260q0 -152 144 -152zM37 233q-1 94 26.5 183t79.5 160.5t135 114.5t184 41q118 0 191.5 -68.5t73.5 -181.5q0 -92 -27.5 -179.5t-78.5 -159t-134 -114.5t-184 -41q-124 0 -195 64.5
t-71 180.5zM517 775h-105l-90 158h143z" />
    <glyph glyph-name="Oacute" unicode="&#xd3;" horiz-adv-x="744" 
d="M328 109q113 4 179.5 97.5t71.5 239.5q0 164 -144 164q-104 0 -172 -89q-79 -106 -79 -260q0 -152 144 -152zM37 233q-1 94 26.5 183t79.5 160.5t135 114.5t184 41q118 0 191.5 -68.5t73.5 -181.5q0 -92 -27.5 -179.5t-78.5 -159t-134 -114.5t-184 -41q-124 0 -195 64.5
t-71 180.5zM527 933h144l-133 -158h-107z" />
    <glyph glyph-name="Ocircumflex" unicode="&#xd4;" horiz-adv-x="744" 
d="M328 109q113 4 179.5 97.5t71.5 239.5q0 164 -144 164q-104 0 -172 -89q-79 -106 -79 -260q0 -152 144 -152zM37 233q-1 94 26.5 183t79.5 160.5t135 114.5t184 41q118 0 191.5 -68.5t73.5 -181.5q0 -92 -27.5 -179.5t-78.5 -159t-134 -114.5t-184 -41q-124 0 -195 64.5
t-71 180.5zM540 775l-41 108l-87 -108h-119l131 160h169l63 -160h-116z" />
    <glyph glyph-name="Otilde" unicode="&#xd5;" horiz-adv-x="744" 
d="M328 109q113 4 179.5 97.5t71.5 239.5q0 164 -144 164q-104 0 -172 -89q-79 -106 -79 -260q0 -152 144 -152zM37 233q-1 94 26.5 183t79.5 160.5t135 114.5t184 41q118 0 191.5 -68.5t73.5 -181.5q0 -92 -27.5 -179.5t-78.5 -159t-134 -114.5t-184 -41q-124 0 -195 64.5
t-71 180.5zM241 778l24 109q61 52 129 52q38 0 93 -29q62 -32 103 -32q74 0 135 54l-24 -110q-59 -52 -129 -52q-39 0 -95 29q-60 33 -101 33q-72 0 -135 -54z" />
    <glyph glyph-name="Odieresis" unicode="&#xd6;" horiz-adv-x="744" 
d="M328 109q113 4 179.5 97.5t71.5 239.5q0 164 -144 164q-104 0 -172 -89q-79 -106 -79 -260q0 -152 144 -152zM37 233q-1 94 26.5 183t79.5 160.5t135 114.5t184 41q118 0 191.5 -68.5t73.5 -181.5q0 -92 -27.5 -179.5t-78.5 -159t-134 -114.5t-184 -41q-124 0 -195 64.5
t-71 180.5zM562 910h124l-29 -135h-124zM304 910h124l-29 -135h-124z" />
    <glyph glyph-name="multiply" unicode="&#xd7;" horiz-adv-x="526" 
d="M255 196l-127 -126l-80 80l126 127l-124 125l80 80l125 -124l127 126l80 -80l-126 -127l124 -125l-80 -80z" />
    <glyph glyph-name="Oslash" unicode="&#xd8;" horiz-adv-x="744" 
d="M37 233q-1 94 26.5 183t79.5 160.5t135 114.5t184 41q74 0 135 -29l48 60h128l-98 -122q52 -62 52 -159q0 -92 -27.5 -179.5t-78.5 -159t-134 -114.5t-184 -41q-75 0 -132 25l-45 -56h-129l92 115q-52 61 -52 161zM184 261q0 -39 10 -60l315 393q-28 16 -74 16
q-104 0 -172 -89q-79 -106 -79 -260zM328 109q113 4 179.5 97.5t71.5 239.5q0 40 -10 64l-311 -388q26 -13 70 -13z" />
    <glyph glyph-name="Ugrave" unicode="&#xd9;" horiz-adv-x="721" 
d="M291 -12q-136 2 -199 74.5t-36 199.5l97 458h141l-99 -469q-13 -62 19 -101t101 -41q55 -4 113 33.5t70 108.5l100 469h141l-96 -457q-29 -135 -118.5 -205t-233.5 -70zM502 775h-105l-90 158h143z" />
    <glyph glyph-name="Uacute" unicode="&#xda;" horiz-adv-x="721" 
d="M291 -12q-136 2 -199 74.5t-36 199.5l97 458h141l-99 -469q-13 -62 19 -101t101 -41q55 -4 113 33.5t70 108.5l100 469h141l-96 -457q-29 -135 -118.5 -205t-233.5 -70zM504 933h144l-133 -158h-107z" />
    <glyph glyph-name="Ucircumflex" unicode="&#xdb;" horiz-adv-x="721" 
d="M291 -12q-136 2 -199 74.5t-36 199.5l97 458h141l-99 -469q-13 -62 19 -101t101 -41q55 -4 113 33.5t70 108.5l100 469h141l-96 -457q-29 -135 -118.5 -205t-233.5 -70zM522 775l-41 108l-87 -108h-119l131 160h169l63 -160h-116z" />
    <glyph glyph-name="Udieresis" unicode="&#xdc;" horiz-adv-x="721" 
d="M291 -12q-136 2 -199 74.5t-36 199.5l97 458h141l-99 -469q-13 -62 19 -101t101 -41q55 -4 113 33.5t70 108.5l100 469h141l-96 -457q-29 -135 -118.5 -205t-233.5 -70zM554 910h124l-29 -135h-124zM296 910h124l-29 -135h-124z" />
    <glyph glyph-name="Yacute" unicode="&#xdd;" horiz-adv-x="621" 
d="M365 242l-50 -242h-142l52 242l-145 478h149l93 -354l228 354h157zM431 933h144l-133 -158h-107z" />
    <glyph glyph-name="Thorn" unicode="&#xde;" horiz-adv-x="625" 
d="M161 720h144l-22 -102h120q99 0 154 -55q57 -55 57 -141q2 -127 -91.5 -223t-232.5 -95h-116l-22 -104h-143zM370 496h-113l-57 -270h98q75 0 122 48.5t47 123.5q0 46 -24 72t-73 26z" />
    <glyph glyph-name="germandbls" unicode="&#xdf;" horiz-adv-x="618" 
d="M286 336h-17l26 116q61 2 110.5 40t49.5 95q0 29 -21 47t-57 18q-53 2 -89.5 -41t-45.5 -98l-152 -718h-134l151 725q18 109 102 182t203 73q44 0 86 -15t67.5 -52.5t25.5 -85.5q0 -65 -44 -127q-42 -60 -109 -83q65 -15 101 -55.5t36 -100.5q2 -98 -81.5 -182.5
t-202.5 -82.5q-52 0 -116 10l25 114q37 -10 82 -10q49 -3 99 31t48 103q0 44 -37 70.5t-106 26.5z" />
    <glyph glyph-name="agrave" unicode="&#xe0;" 
d="M589 521l-105 -521h-112l-5 65q-35 -34 -83 -53t-95 -19q-78 0 -124.5 54.5t-46.5 140.5q-2 159 93.5 266t256.5 106q98 0 221 -39zM372 152l60 287q-40 12 -76 12q-86 0 -141.5 -69.5t-55.5 -166.5q0 -49 23 -79t68 -30q65 0 122 46zM427 615h-105l-90 158h143z" />
    <glyph glyph-name="aacute" unicode="&#xe1;" 
d="M589 521l-105 -521h-112l-5 65q-35 -34 -83 -53t-95 -19q-78 0 -124.5 54.5t-46.5 140.5q-2 159 93.5 266t256.5 106q98 0 221 -39zM372 152l60 287q-40 12 -76 12q-86 0 -141.5 -69.5t-55.5 -166.5q0 -49 23 -79t68 -30q65 0 122 46zM413 773h144l-133 -158h-107z" />
    <glyph glyph-name="acircumflex" unicode="&#xe2;" 
d="M589 521l-105 -521h-112l-5 65q-35 -34 -83 -53t-95 -19q-78 0 -124.5 54.5t-46.5 140.5q-2 159 93.5 266t256.5 106q98 0 221 -39zM372 152l60 287q-40 12 -76 12q-86 0 -141.5 -69.5t-55.5 -166.5q0 -49 23 -79t68 -30q65 0 122 46zM436 615l-41 108l-87 -108h-119
l131 160h169l63 -160h-116z" />
    <glyph glyph-name="atilde" unicode="&#xe3;" 
d="M589 521l-105 -521h-112l-5 65q-35 -34 -83 -53t-95 -19q-78 0 -124.5 54.5t-46.5 140.5q-2 159 93.5 266t256.5 106q98 0 221 -39zM372 152l60 287q-40 12 -76 12q-86 0 -141.5 -69.5t-55.5 -166.5q0 -49 23 -79t68 -30q65 0 122 46zM150 613l24 109q61 52 129 52
q38 0 93 -29q62 -32 103 -32q73 0 135 54l-24 -110q-59 -52 -129 -52q-39 0 -95 29q-60 33 -101 33q-72 0 -135 -54z" />
    <glyph glyph-name="adieresis" unicode="&#xe4;" 
d="M589 521l-105 -521h-112l-5 65q-35 -34 -83 -53t-95 -19q-78 0 -124.5 54.5t-46.5 140.5q-2 159 93.5 266t256.5 106q98 0 221 -39zM372 152l60 287q-40 12 -76 12q-86 0 -141.5 -69.5t-55.5 -166.5q0 -49 23 -79t68 -30q65 0 122 46zM453 750h124l-29 -135h-124z
M195 750h124l-29 -135h-124z" />
    <glyph glyph-name="aring" unicode="&#xe5;" 
d="M589 521l-105 -521h-112l-5 65q-35 -34 -83 -53t-95 -19q-78 0 -124.5 54.5t-46.5 140.5q-2 159 93.5 266t256.5 106q98 0 221 -39zM372 152l60 287q-40 12 -76 12q-86 0 -141.5 -69.5t-55.5 -166.5q0 -49 23 -79t68 -30q65 0 122 46zM422 742q-25 0 -41 -17.5t-16 -42.5
q0 -32 37 -32q25 0 40.5 17.5t15.5 41.5q0 33 -36 33zM295 672q-5 39 36 83.5t102 43.5q44 0 69.5 -21.5t25.5 -57.5q5 -40 -36 -84.5t-102 -42.5q-44 0 -69.5 21.5t-25.5 57.5z" />
    <glyph glyph-name="ae" unicode="&#xe6;" horiz-adv-x="935" 
d="M851 137l-12 -116q-111 -33 -207 -33q-77 -2 -134.5 24t-77.5 63q-118 -82 -231 -82q-78 0 -124.5 54.5t-46.5 140.5q-2 159 93.5 266t256.5 106q89 0 206 -35q68 35 150 35q91 0 142.5 -40.5t51.5 -110.5q0 -80 -58 -129.5t-176 -49.5q-62 0 -143 16q-5 -25 -5 -45
q0 -48 31.5 -76t95.5 -28q87 0 188 40zM398 277l34 162q-40 12 -76 12q-86 0 -141.5 -69.5t-55.5 -166.5q0 -49 23 -79t68 -30q64 0 141 60q-6 42 7 111zM551 320q65 -9 106 -9q130 0 133 86q0 28 -21 45t-61 17q-56 0 -98.5 -37t-58.5 -102z" />
    <glyph glyph-name="ccedilla" unicode="&#xe7;" horiz-adv-x="519" 
d="M159 212q0 -59 34 -87.5t94 -28.5q64 0 158 28l-22 -111q-88 -25 -178 -25q-104 0 -166 51t-62 149q-1 99 39.5 183.5t120.5 137t183 51.5q85 0 169 -26l-22 -109q-71 25 -145 25q-90 0 -146.5 -69t-56.5 -169zM80 -209l14 71q35 -7 70 -7q65 0 65 31q0 28 -85 32l2 10
l51 72h83l-31 -41q79 -6 79 -62q0 -44 -34 -74q-44 -40 -133 -40q-38 0 -81 8z" />
    <glyph glyph-name="egrave" unicode="&#xe8;" horiz-adv-x="562" 
d="M478 137l-12 -116q-111 -33 -207 -33q-113 0 -177.5 49t-64.5 156q0 126 61 218q97 149 273 149q91 0 142.5 -40.5t51.5 -110.5q0 -80 -58 -129.5t-176 -49.5q-62 0 -143 16q-5 -25 -5 -45q0 -48 31.5 -76t95.5 -28q87 0 188 40zM178 320q64 -9 106 -9q130 0 133 86
q0 28 -21 45t-61 17q-56 0 -98.5 -37t-58.5 -102zM427 615h-105l-90 158h143z" />
    <glyph glyph-name="eacute" unicode="&#xe9;" horiz-adv-x="562" 
d="M478 137l-12 -116q-111 -33 -207 -33q-113 0 -177.5 49t-64.5 156q0 126 61 218q97 149 273 149q91 0 142.5 -40.5t51.5 -110.5q0 -80 -58 -129.5t-176 -49.5q-62 0 -143 16q-5 -25 -5 -45q0 -48 31.5 -76t95.5 -28q87 0 188 40zM178 320q64 -9 106 -9q130 0 133 86
q0 28 -21 45t-61 17q-56 0 -98.5 -37t-58.5 -102zM412 773h144l-133 -158h-107z" />
    <glyph glyph-name="ecircumflex" unicode="&#xea;" horiz-adv-x="562" 
d="M478 137l-12 -116q-111 -33 -207 -33q-113 0 -177.5 49t-64.5 156q0 126 61 218q97 149 273 149q91 0 142.5 -40.5t51.5 -110.5q0 -80 -58 -129.5t-176 -49.5q-62 0 -143 16q-5 -25 -5 -45q0 -48 31.5 -76t95.5 -28q87 0 188 40zM178 320q64 -9 106 -9q130 0 133 86
q0 28 -21 45t-61 17q-56 0 -98.5 -37t-58.5 -102zM418 615l-41 108l-87 -108h-119l131 160h169l63 -160h-116z" />
    <glyph glyph-name="edieresis" unicode="&#xeb;" horiz-adv-x="562" 
d="M478 137l-12 -116q-111 -33 -207 -33q-113 0 -177.5 49t-64.5 156q0 126 61 218q97 149 273 149q91 0 142.5 -40.5t51.5 -110.5q0 -80 -58 -129.5t-176 -49.5q-62 0 -143 16q-5 -25 -5 -45q0 -48 31.5 -76t95.5 -28q87 0 188 40zM178 320q64 -9 106 -9q130 0 133 86
q0 28 -21 45t-61 17q-56 0 -98.5 -37t-58.5 -102zM427 750h124l-29 -135h-124zM169 750h124l-29 -135h-124z" />
    <glyph glyph-name="igrave" unicode="&#xec;" horiz-adv-x="291" 
d="M243 615h-105l-90 158h143zM26 147l83 401h140l-81 -378q-9 -42 6 -59.5t51 -17.5l23 2l-19 -92q-42 -8 -91 -8q-69 0 -98 40.5t-14 111.5z" />
    <glyph glyph-name="iacute" unicode="&#xed;" horiz-adv-x="291" 
d="M232 773h144l-133 -158h-107zM26 147l83 401h140l-81 -378q-9 -42 6 -59.5t51 -17.5l23 2l-19 -92q-42 -8 -91 -8q-69 0 -98 40.5t-14 111.5z" />
    <glyph glyph-name="icircumflex" unicode="&#xee;" horiz-adv-x="291" 
d="M26 147l83 401h140l-81 -378q-9 -42 6 -59.5t51 -17.5l23 2l-19 -92q-42 -8 -91 -8q-69 0 -98 40.5t-14 111.5zM247 615l-41 108l-87 -108h-119l131 160h169l63 -160h-116z" />
    <glyph glyph-name="idieresis" unicode="&#xef;" horiz-adv-x="291" 
d="M287 750h124l-29 -135h-124zM29 750h124l-29 -135h-124zM26 147l83 401h140l-81 -378q-9 -42 6 -59.5t51 -17.5l23 2l-19 -92q-42 -8 -91 -8q-69 0 -98 40.5t-14 111.5z" />
    <glyph glyph-name="eth" unicode="&#xf0;" horiz-adv-x="623" 
d="M313 586l-31 59l53 27q-35 45 -84 91h162q10 -9 30 -37l63 33l30 -61l-48 -23q49 -69 76.5 -158t25.5 -151q2 -172 -100.5 -276t-247.5 -102q-112 0 -169 53t-57 148q-2 141 87.5 253t226.5 110q50 0 93 -17q-25 52 -46 83zM339 440q-78 0 -129.5 -65.5t-51.5 -165.5
q0 -102 109 -102q82 0 130.5 69t48.5 161q0 103 -107 103z" />
    <glyph glyph-name="ntilde" unicode="&#xf1;" horiz-adv-x="622" 
d="M580 395l-81 -395h-139l77 375q7 33 -7.5 52t-47.5 19q-54 0 -162 -50l-81 -396h-139l111 548h116l2 -58q137 70 224 70q61 0 102.5 -41t24.5 -124zM140 613l24 109q61 52 129 52q38 0 93 -29q62 -32 103 -32q73 0 135 54l-24 -110q-59 -52 -129 -52q-39 0 -95 29
q-60 33 -101 33q-72 0 -135 -54z" />
    <glyph glyph-name="ograve" unicode="&#xf2;" horiz-adv-x="624" 
d="M343 452q-78 0 -130 -78t-52 -170q0 -108 106 -108q73 0 126.5 72t55.5 166q0 118 -106 118zM17 190q-2 153 96 262t249 108q112 0 170.5 -55t58.5 -150q0 -159 -95.5 -263t-249.5 -104q-113 0 -171 53t-58 149zM436 615h-105l-90 158h143z" />
    <glyph glyph-name="oacute" unicode="&#xf3;" horiz-adv-x="624" 
d="M343 452q-78 0 -130 -78t-52 -170q0 -108 106 -108q73 0 126.5 72t55.5 166q0 118 -106 118zM17 190q-2 153 96 262t249 108q112 0 170.5 -55t58.5 -150q0 -159 -95.5 -263t-249.5 -104q-113 0 -171 53t-58 149zM420 773h144l-133 -158h-107z" />
    <glyph glyph-name="ocircumflex" unicode="&#xf4;" horiz-adv-x="624" 
d="M343 452q-78 0 -130 -78t-52 -170q0 -108 106 -108q73 0 126.5 72t55.5 166q0 118 -106 118zM17 190q-2 153 96 262t249 108q112 0 170.5 -55t58.5 -150q0 -159 -95.5 -263t-249.5 -104q-113 0 -171 53t-58 149zM434 615l-41 108l-87 -108h-119l131 160h169l63 -160h-116
z" />
    <glyph glyph-name="otilde" unicode="&#xf5;" horiz-adv-x="624" 
d="M343 452q-78 0 -130 -78t-52 -170q0 -108 106 -108q73 0 126.5 72t55.5 166q0 118 -106 118zM17 190q-2 153 96 262t249 108q112 0 170.5 -55t58.5 -150q0 -159 -95.5 -263t-249.5 -104q-113 0 -171 53t-58 149zM145 613l24 109q61 52 129 52q38 0 93 -29q62 -32 103 -32
q74 0 135 54l-24 -110q-59 -52 -129 -52q-39 0 -95 29q-60 33 -101 33q-72 0 -135 -54z" />
    <glyph glyph-name="odieresis" unicode="&#xf6;" horiz-adv-x="624" 
d="M343 452q-78 0 -130 -78t-52 -170q0 -108 106 -108q73 0 126.5 72t55.5 166q0 118 -106 118zM17 190q-2 153 96 262t249 108q112 0 170.5 -55t58.5 -150q0 -159 -95.5 -263t-249.5 -104q-113 0 -171 53t-58 149zM454 750h124l-29 -135h-124zM196 750h124l-29 -135h-124z
" />
    <glyph glyph-name="divide" unicode="&#xf7;" horiz-adv-x="567" 
d="M332 508v-121h-114v121h114zM40 218v114h472v-114h-472zM332 163v-122h-114v122h114z" />
    <glyph glyph-name="oslash" unicode="&#xf8;" horiz-adv-x="624" 
d="M17 190q-2 153 96 262t249 108q45 0 89 -11l80 105h129l-120 -157q51 -53 51 -142q0 -159 -95.5 -263t-249.5 -104q-50 0 -86 10l-87 -114h-128l124 163q-52 49 -52 143zM343 452q-78 0 -130 -78t-52 -170q0 -18 3 -33l211 278q-15 3 -32 3zM449 334q0 25 -4 38
l-209 -274q12 -2 31 -2q73 0 126.5 72t55.5 166z" />
    <glyph glyph-name="ugrave" unicode="&#xf9;" horiz-adv-x="622" 
d="M26 152l81 396h140l-78 -376q-6 -30 9 -50.5t47 -20.5q56 0 161 50l82 397h139l-112 -548h-116l-2 57q-128 -69 -224 -69q-67 0 -104 48q-37 47 -23 116zM422 615h-105l-90 158h143z" />
    <glyph glyph-name="uacute" unicode="&#xfa;" horiz-adv-x="622" 
d="M26 152l81 396h140l-78 -376q-6 -30 9 -50.5t47 -20.5q56 0 161 50l82 397h139l-112 -548h-116l-2 57q-128 -69 -224 -69q-67 0 -104 48q-37 47 -23 116zM400 773h144l-133 -158h-107z" />
    <glyph glyph-name="ucircumflex" unicode="&#xfb;" horiz-adv-x="622" 
d="M26 152l81 396h140l-78 -376q-6 -30 9 -50.5t47 -20.5q56 0 161 50l82 397h139l-112 -548h-116l-2 57q-128 -69 -224 -69q-67 0 -104 48q-37 47 -23 116zM428 615l-41 108l-87 -108h-119l131 160h169l63 -160h-116z" />
    <glyph glyph-name="udieresis" unicode="&#xfc;" horiz-adv-x="622" 
d="M26 152l81 396h140l-78 -376q-6 -30 9 -50.5t47 -20.5q56 0 161 50l82 397h139l-112 -548h-116l-2 57q-128 -69 -224 -69q-67 0 -104 48q-37 47 -23 116zM467 750h124l-29 -135h-124zM209 750h124l-29 -135h-124z" />
    <glyph glyph-name="yacute" unicode="&#xfd;" horiz-adv-x="538" 
d="M234 134h9l135 261q14 29 24 73q11 47 11 80h138q0 -90 -53 -191l-194 -364q-27 -49 -49 -108q-21 -55 -21 -90h-143q0 39 20.5 95.5t55.5 108.5h-47l-71 549h144zM356 773h144l-133 -158h-107z" />
    <glyph glyph-name="thorn" unicode="&#xfe;" horiz-adv-x="614" 
d="M137 2l-43 -207h-136l188 925h136l-50 -232q106 72 195 72q26 0 50 -7.5t49 -26t40.5 -56.5t15.5 -91q0 -138 -57 -236q-91 -155 -263 -155q-46 0 -125 14zM248 102q82 -3 136 69.5t54 171.5q0 100 -79 100q-55 0 -140 -45l-61 -286q39 -10 90 -10z" />
    <glyph glyph-name="ydieresis" unicode="&#xff;" horiz-adv-x="538" 
d="M234 134h9l135 261q14 29 24 73q11 47 11 80h138q0 -90 -53 -191l-194 -364q-27 -49 -49 -108q-21 -55 -21 -90h-143q0 39 20.5 95.5t55.5 108.5h-47l-71 549h144zM405 750h124l-29 -135h-124zM147 750h124l-29 -135h-124z" />
    <glyph glyph-name="dotlessi" unicode="&#x131;" horiz-adv-x="291" 
d="M26 147l83 401h140l-81 -378q-9 -42 6 -59.5t51 -17.5l23 2l-19 -92q-42 -8 -91 -8q-69 0 -98 40.5t-14 111.5z" />
    <glyph glyph-name="Lslash" unicode="&#x141;" horiz-adv-x="566" 
d="M111 389l70 331h142l-55 -259l187 85l-27 -128l-187 -84l-44 -212h324l-26 -122h-466l55 263l-110 -49l25 124z" />
    <glyph glyph-name="lslash" unicode="&#x142;" horiz-adv-x="332" 
d="M180 763h141l-52 -252l101 51l-27 -128l-100 -50l-48 -232q-11 -53 50 -53l34 3l-16 -101q-43 -7 -96 -7q-145 0 -110 170l29 142l-93 -46l26 124l92 47z" />
    <glyph glyph-name="OE" unicode="&#x152;" horiz-adv-x="1022" 
d="M435 610q-104 0 -172 -89q-79 -106 -79 -260q0 -152 148 -152q41 0 117 17l98 465q-57 19 -112 19zM462 732q49 0 113 -12h493l-27 -127h-351l-35 -168h299l-26 -126h-300l-37 -174h348l-27 -125h-490q-59 -12 -119 -12q-124 0 -195 64.5t-71 180.5q-1 94 26.5 183
t79.5 160.5t135 114.5t184 41z" />
    <glyph glyph-name="oe" unicode="&#x153;" horiz-adv-x="979" 
d="M17 190q-2 154 95.5 261.5t248.5 106.5q68 2 120.5 -23.5t70.5 -59.5q86 83 214 83q87 0 139 -38q56 -39 56 -111q0 -87 -61 -133.5t-173 -46.5q-61 0 -143 17q-5 -35 -5 -45q0 -49 32.5 -76.5t97.5 -27.5q84 0 185 40l-12 -117q-116 -32 -207 -32q-149 0 -204 83
q-91 -83 -225 -83q-113 0 -171 53t-58 149zM342 450q-78 0 -129.5 -77t-51.5 -169q0 -108 105 -108q69 0 124 68t58 170q0 116 -106 116zM594 320q127 -18 183 2.5t56 77.5q0 26 -21 42.5t-62 16.5q-58 0 -100.5 -39t-55.5 -100z" />
    <glyph glyph-name="Scaron" unicode="&#x160;" horiz-adv-x="585" 
d="M217 110q71 -2 121.5 31.5t46.5 82.5q0 27 -21 45q-20 17 -90 34q-68 16 -94 27q-36 19 -53 32.5t-30.5 41.5t-15.5 72q0 126 93 190.5t241 64.5q69 0 187 -13l-26 -126q-116 18 -183 18q-77 0 -120 -27t-43 -72q0 -26 21 -44q24 -19 91 -35q73 -17 98 -28
q97 -38 97 -136q0 -81 -37 -142q-30 -58 -109 -98.5t-189 -39.5q-104 0 -211 21l26 126q132 -25 200 -25zM358 934l42 -109l86 109h118l-128 -159h-174l-61 159h117z" />
    <glyph glyph-name="scaron" unicode="&#x161;" horiz-adv-x="496" 
d="M-11 9l18 110q95 -24 165 -24q60 0 91.5 20.5t31.5 54.5q0 20 -23 32q-17 9 -79 23q-65 15 -92 34q-54 36 -54 105q0 96 75.5 146t192.5 50q92 0 166 -18l-22 -109q-80 18 -146 18q-60 0 -90 -18t-30 -44q0 -19 16 -31q17 -11 76 -24q60 -13 83 -24q35 -17 54 -43t19 -73
q0 -102 -76 -154t-196 -52q-88 0 -180 21zM263 774l42 -109l86 109h118l-128 -159h-174l-61 159h117z" />
    <glyph glyph-name="Ydieresis" unicode="&#x178;" horiz-adv-x="621" 
d="M365 242l-50 -242h-142l52 242l-145 478h149l93 -354l228 354h157zM489 910h124l-29 -135h-124zM231 910h124l-29 -135h-124z" />
    <glyph glyph-name="Zcaron" unicode="&#x17d;" horiz-adv-x="648" 
d="M123 720h562l-28 -133l-476 -464h395l-26 -123h-571l27 132l479 466h-388zM376 934l42 -109l86 109h118l-128 -159h-174l-61 159h117z" />
    <glyph glyph-name="zcaron" unicode="&#x17e;" horiz-adv-x="545" 
d="M341 440h-281l21 108h469l-17 -88l-348 -352h290l-21 -108h-481l17 89zM301 774l42 -109l86 109h118l-128 -159h-174l-61 159h117z" />
    <glyph glyph-name="florin" unicode="&#x192;" horiz-adv-x="614" 
d="M366 272l-51 -242q-52 -247 -274 -247q-71 0 -117 10l37 119q36 -11 79 -11q62 0 94.5 32.5t48.5 109.5l48 229h-133l24 117h134l26 121q28 133 97.5 195t185.5 62q68 0 111 -10l-37 -115q-30 10 -79 10q-62 0 -95.5 -34.5t-49.5 -110.5l-25 -118h153l-25 -117h-152z" />
    <glyph glyph-name="circumflex" unicode="&#x2c6;" horiz-adv-x="680" 
d="M385 615l-41 108l-87 -108h-119l131 160h169l63 -160h-116z" />
    <glyph glyph-name="caron" unicode="&#x2c7;" horiz-adv-x="680" 
d="M291 774l42 -109l86 109h118l-128 -159h-174l-61 159h117z" />
    <glyph glyph-name="breve" unicode="&#x2d8;" horiz-adv-x="638" 
d="M303 614q-58 0 -105.5 17.5t-68.5 49.5l44 80q70 -46 151 -46q82 0 171 46l11 -80q-35 -32 -90 -49.5t-113 -17.5z" />
    <glyph glyph-name="dotaccent" unicode="&#x2d9;" horiz-adv-x="347" 
d="M135 749h114l-28 -133h-114z" />
    <glyph glyph-name="ring" unicode="&#x2da;" horiz-adv-x="447" 
d="M230 742q-25 0 -41 -17.5t-16 -42.5q0 -32 37 -32q25 0 40.5 17.5t15.5 41.5q0 33 -36 33zM103 672q-5 39 36 83.5t102 43.5q44 0 69.5 -21.5t25.5 -57.5q5 -40 -36 -84.5t-102 -42.5q-44 0 -69.5 21.5t-25.5 57.5z" />
    <glyph glyph-name="ogonek" unicode="&#x2db;" horiz-adv-x="463" 
d="M240 0h85q-87 -68 -87 -120q0 -46 74 -46l29 2l-16 -79q-45 -9 -80 -9q-58 0 -91.5 22t-33.5 63q-2 41 37.5 93t82.5 74z" />
    <glyph glyph-name="tilde" unicode="&#x2dc;" horiz-adv-x="702" 
d="M108 613l24 109q61 52 129 52q38 0 93 -29q62 -32 103 -32q73 0 135 54l-24 -110q-59 -52 -129 -52q-39 0 -95 29q-60 33 -101 33q-72 0 -135 -54z" />
    <glyph glyph-name="hungarumlaut" unicode="&#x2dd;" horiz-adv-x="808" 
d="M213 774h144l-134 -158h-107zM416 774h145l-135 -158h-107z" />
    <glyph glyph-name="uni0394" unicode="&#x394;" horiz-adv-x="807" 
d="M523 670l111 -670h-593l384 670h98zM446 515l-232 -404h293z" />
    <glyph glyph-name="uni03A9" unicode="&#x3a9;" horiz-adv-x="773" 
d="M446 594q-98 0 -170.5 -75.5t-72.5 -177.5q0 -63 29 -119t78 -90l-28 -132h-304l28 129h152q-44 32 -70 93t-24 114q0 143 108 258q57 62 137 96t165 34q96 0 164 -42q113 -69 113 -207q4 -92 -58 -192t-156 -154h155l-27 -129h-305l27 132q78 41 143 122q75 96 75 187
q0 69 -43.5 111t-115.5 42z" />
    <glyph glyph-name="uni03BC" unicode="&#x3bc;" horiz-adv-x="627" 
d="M-43 -205l155 753h140l-78 -376q-6 -30 9 -50.5t47 -20.5q56 0 161 50l82 397h139l-112 -548h-116l-2 57q-128 -69 -224 -69l-24 2l-41 -195h-136z" />
    <glyph glyph-name="pi" unicode="&#x3c0;" horiz-adv-x="732" 
d="M723 434h-141l-59 -269q-13 -57 52 -57q31 0 77 11l-23 -114q-73 -15 -124 -15q-159 0 -126 155l62 289h-135l-93 -434h-141l93 434h-127l24 114h685z" />
    <glyph glyph-name="endash" unicode="&#x2013;" horiz-adv-x="606" 
d="M523 211h-484l27 125h484z" />
    <glyph glyph-name="emdash" unicode="&#x2014;" horiz-adv-x="827" 
d="M744 211h-705l27 125h705z" />
    <glyph glyph-name="quoteleft" unicode="&#x2018;" horiz-adv-x="238" 
d="M209 751h61l-59 -278h-122q11 137 120 278z" />
    <glyph glyph-name="quoteright" unicode="&#x2019;" horiz-adv-x="230" 
d="M155 470h-61l59 277h122q-10 -137 -120 -277z" />
    <glyph glyph-name="quotesinglbase" unicode="&#x201a;" horiz-adv-x="244" 
d="M29 -129h-60l58 277h123q-1 -52 -33.5 -131t-87.5 -146z" />
    <glyph glyph-name="quotedblleft" unicode="&#x201c;" horiz-adv-x="437" 
d="M408 751h61l-59 -278h-122q1 52 33.5 132.5t86.5 145.5zM209 751h61l-59 -278h-122q11 137 120 278z" />
    <glyph glyph-name="quotedblright" unicode="&#x201d;" horiz-adv-x="429" 
d="M155 470h-61l59 277h122q-8 -138 -120 -277zM354 470h-60l58 277h123q-10 -139 -121 -277z" />
    <glyph glyph-name="quotedblbase" unicode="&#x201e;" horiz-adv-x="432" 
d="M29 -129h-61l59 277h122q0 -67 -38.5 -146t-81.5 -131zM218 -129h-61l59 277h122q-9 -137 -120 -277z" />
    <glyph glyph-name="dagger" unicode="&#x2020;" horiz-adv-x="487" 
d="M332 401l-78 -367h-138l78 367h-140l27 126h139l37 175h138l-37 -175h140l-26 -126h-140z" />
    <glyph glyph-name="daggerdbl" unicode="&#x2021;" horiz-adv-x="515" 
d="M300 187l-32 -155h-138l32 155h-140l27 126h140l18 87h-140l27 126h140l37 176h138l-37 -176h140l-27 -126h-139l-19 -87h140l-27 -126h-140z" />
    <glyph glyph-name="bullet" unicode="&#x2022;" horiz-adv-x="337" 
d="M244 274h-167l35 166h167z" />
    <glyph glyph-name="ellipsis" unicode="&#x2026;" horiz-adv-x="767" 
d="M28 147h121l-32 -147h-121zM292 147h122l-32 -147h-121zM551 147h122l-33 -147h-122z" />
    <glyph glyph-name="perthousand" unicode="&#x2030;" horiz-adv-x="1101" 
d="M96 0l492 720h100l-493 -720h-99zM82 503q0 90 50 159.5t140 69.5q56 0 85.5 -30t29.5 -83q0 -61 -22 -115t-66.5 -85t-99.5 -31q-56 0 -86.5 30.5t-30.5 84.5zM256 662q-42 0 -66 -47t-24 -101q0 -56 47 -56q41 0 65 46q25 46 25 103q0 55 -47 55zM398 108
q0 90 50 159.5t140 69.5q56 0 85.5 -30t29.5 -83q0 -105 -53.5 -168t-134.5 -63q-56 0 -86.5 30.5t-30.5 84.5zM573 267q-41 0 -67 -47q-24 -46 -24 -101q0 -56 47 -56q23 0 42 16q21 16 34.5 54.5t13.5 78.5q0 55 -46 55zM738 108q0 98 52.5 163.5t136.5 65.5
q57 0 86.5 -30t29.5 -83q0 -97 -51.5 -164t-137.5 -67q-55 0 -85.5 31t-30.5 84zM912 267q-38 0 -64 -44t-26 -104q0 -56 47 -56q41 0 65 46q25 46 25 103q0 55 -47 55z" />
    <glyph glyph-name="guilsinglleft" unicode="&#x2039;" horiz-adv-x="359" 
d="M260 7h-133l-101 267l213 266h136l-217 -266z" />
    <glyph glyph-name="guilsinglright" unicode="&#x203a;" horiz-adv-x="361" 
d="M83 540h133l102 -266l-215 -267h-133l216 267z" />
    <glyph glyph-name="fraction" unicode="&#x2044;" horiz-adv-x="528" 
d="M18 -93h-115l619 856h118z" />
    <glyph glyph-name="Euro" unicode="&#x20ac;" horiz-adv-x="708" 
d="M554 508l-24 -114h-241l-7 -33l-6 -39h239l-25 -114h-203q28 -90 136 -90q84 0 201 31l-28 -132q-93 -29 -201 -29q-124 0 -193 56.5t-78 163.5h-105l25 114h86l13 72h-84l24 114h104q55 106 149.5 165t215.5 59q104 0 190 -24l-29 -133q-108 24 -162 24q-142 0 -208 -91
h211z" />
    <glyph glyph-name="trademark" unicode="&#x2122;" horiz-adv-x="742" 
d="M381 720l-14 -67h-85l-43 -201h-72l43 201h-83l14 67h240zM547 532h3l91 188h118l-57 -268h-72l41 193h-4l-97 -194h-78l-15 194h-4l-41 -193h-72l57 268h118z" />
    <glyph glyph-name="minus" unicode="&#x2212;" horiz-adv-x="624" 
d="M541 218h-472v114h472v-114z" />
    <glyph glyph-name="radical" unicode="&#x221a;" horiz-adv-x="743" 
d="M58 532h244l30 -507l359 800h163l-470 -1002h-183l-43 580h-128z" />
    <glyph glyph-name="infinity" unicode="&#x221e;" horiz-adv-x="1029" 
d="M716 74q-50 -2 -111.5 28t-115.5 92q-80 -62 -152.5 -92t-122.5 -28q-81 0 -127.5 41t-46.5 112q0 108 77 179.5t182 71.5q113 0 227 -119q162 119 275 119q79 0 126.5 -41.5t47.5 -112.5q0 -107 -78 -178.5t-181 -71.5zM772 353q-31 0 -71 -14q-36 -13 -114 -62
q55 -49 88 -63t64 -14q52 -1 83 30t28 64q0 27 -20 43t-58 16zM244 199q22 0 58 9q36 10 129 69q-56 47 -90 62q-33 14 -64 14q-39 3 -76 -24t-35 -72q0 -27 20 -42.5t58 -15.5z" />
    <glyph glyph-name="integral" unicode="&#x222b;" horiz-adv-x="422" 
d="M72 -18l128 607q45 199 221 199q33 0 44 -1q25 -2 50 -8l-35 -120q-32 7 -61 7q-63 0 -84 -93l-129 -607q-43 -199 -219 -199q-34 0 -45 1q-15 1 -50 9l35 119q32 -7 62 -7q62 0 83 93z" />
    <glyph glyph-name="approxequal" unicode="&#x2248;" horiz-adv-x="599" 
d="M490 443l34 -100q-56 -50 -125 -50q-26 0 -97 23t-106 23q-46 0 -98 -29l-40 98q68 48 127 48q37 0 108 -24q72 -23 97 -23q50 0 100 34zM491 235l33 -100q-56 -50 -124 -50q-26 0 -98 23q-71 23 -106 23q-50 0 -97 -29l-40 97q68 48 126 48q37 0 109 -23t97 -23
q55 0 100 34z" />
    <glyph glyph-name="notequal" unicode="&#x2260;" horiz-adv-x="600" 
d="M277 340h-220v112h281l47 86h92l-46 -86h98v-112h-160l-63 -118h223v-114h-285l-44 -83h-91l44 83h-96v114h157z" />
    <glyph glyph-name="lessequal" unicode="&#x2264;" horiz-adv-x="641" 
d="M545 540l-364 -132l364 -132v-128l-472 183v154l472 183v-128zM545 0h-472v108h472v-108z" />
    <glyph glyph-name="greaterequal" unicode="&#x2265;" horiz-adv-x="675" 
d="M109 148v128l364 132l-364 132v128l472 -183v-154zM109 108h472v-108h-472v108z" />
    <glyph glyph-name="lozenge" unicode="&#x25ca;" horiz-adv-x="566" 
d="M276 152l125 184l-102 181l-123 -183zM34 337l223 332h87l199 -336l-224 -333h-87z" />
    <glyph glyph-name="NULL" horiz-adv-x="0" 
 />
    </font>
</defs>
</svg>
