<?xml version="1.0" standalone="no"?>
<!DOCTYPE svg PUBLIC "-//W3C//DTD SVG 1.1//EN" "http://www.w3.org/Graphics/SVG/1.1/DTD/svg11.dtd" >
<svg xmlns="http://www.w3.org/2000/svg" xmlns:xlink="http://www.w3.org/1999/xlink" version="1.1">
<metadata>
Created by FontForge 20170731 at Sun Mar 24 20:02:05 2019
 By Aleksey,,,
Copyright (c) 2013 by PSTL. All rights reserved. |DCNT
</metadata>
<defs>
<font id="Quatro-BookItalic" horiz-adv-x="740" >
  <font-face 
    font-family="Quatro Book"
    font-weight="350"
    font-style="italic"
    font-stretch="normal"
    units-per-em="1000"
    panose-1="2 11 5 3 0 0 0 9 0 4"
    ascent="742"
    descent="-258"
    x-height="539"
    cap-height="720"
    bbox="-123 -258 1050 927"
    underline-thickness="50"
    underline-position="-275"
    slope="-12.5"
    unicode-range="U+000D-FB02"
  />
<missing-glyph horiz-adv-x="570" 
d="M548 670l-117 -670h-410l117 670h410zM102 69h272l93 532h-272z" />
    <glyph glyph-name="fi" unicode="fi" horiz-adv-x="604" 
d="M512 728h76l-19 -96h-77zM383 108l91 431h75l-91 -422q-14 -65 52 -65h3q3 1 8 1.5l10 1l10 1t8 0.5l-11 -54q-29 -7 -66 -7q-52 0 -76 30.5t-13 82.5zM470 765l-12 -58q-59 10 -93 10q-50 0 -82 -23q-31 -22 -48 -99l-12 -56h169l-13 -61h-166l-143 -683h-72l141 683
h-67l10 50l69 11l12 56q21 97 65.5 139t133.5 42q50 0 108 -11z" />
    <glyph glyph-name="fl" unicode="fl" horiz-adv-x="605" 
d="M387 140l132 623h75l-137 -647q-10 -61 51 -61q19 0 40 4l-9 -59q-38 -5 -69 -5q-56 0 -77 34t-6 111zM470 765l-12 -58q-59 10 -93 10q-50 0 -82 -23q-31 -22 -48 -99l-12 -56h169l-13 -61h-166l-143 -683h-72l141 683h-67l10 50l69 11l12 56q21 97 65.5 139t133.5 42
q50 0 108 -11z" />
    <glyph glyph-name=".notdef" horiz-adv-x="570" 
d="M548 670l-117 -670h-410l117 670h410zM102 69h272l93 532h-272z" />
    <glyph glyph-name=".null" horiz-adv-x="0" 
 />
    <glyph glyph-name="nonmarkingreturn" horiz-adv-x="333" 
 />
    <glyph glyph-name="CR" unicode="&#xd;" horiz-adv-x="230" 
 />
    <glyph glyph-name="space" unicode=" " horiz-adv-x="264" 
 />
    <glyph glyph-name="exclam" unicode="!" horiz-adv-x="264" 
d="M183 720h74l-106 -497h-74zM106 0h-77l21 99h77z" />
    <glyph glyph-name="quotedbl" unicode="&#x22;" horiz-adv-x="314" 
d="M288 518h-56l43 201h56zM168 518h-56l43 201h56z" />
    <glyph glyph-name="numbersign" unicode="#" horiz-adv-x="692" 
d="M219 389h-121l26 66h122l71 174h72l-71 -174h177l70 174h71l-70 -174h118l-26 -66h-119l-65 -156h122l-25 -64h-123l-71 -169h-72l71 169h-177l-71 -169h-72l72 169h-121l26 64h121zM467 389h-177l-65 -156h177z" />
    <glyph glyph-name="dollar" unicode="$" horiz-adv-x="566" 
d="M200 55q102 0 161.5 50.5t59.5 126.5q0 27 -14 47q-13 19 -39 31q-22 11 -95 29q-67 16 -96 29q-24 11 -42 26q-39 37 -39 97q0 100 63.5 161.5t186.5 74.5l19 93h68l-19 -89l43 -2q35 -2 113 -9l-15 -71q-83 15 -163 15q-101 0 -157.5 -41t-56.5 -113q0 -33 23 -58
q23 -23 108 -43q88 -20 112 -32q42 -20 60.5 -44.5t21.5 -77.5q0 -107 -66.5 -177t-180.5 -84l-16 -85h-68l16 80q-94 0 -187 16l13 72q116 -22 186 -22z" />
    <glyph glyph-name="percent" unicode="%" horiz-adv-x="745" 
d="M107 0l492 720h61l-492 -720h-61zM83 498q0 97 50 165.5t129 68.5q53 0 79.5 -28.5t26.5 -80.5q0 -105 -50 -170t-129 -65q-47 0 -76.5 27t-29.5 83zM198 430q51 0 84 49q37 53 37 135q0 75 -66 75q-46 0 -82 -45q-39 -51 -39 -138q0 -76 66 -76zM400 103
q-1 103 53.5 171t124.5 63q53 0 80 -29t27 -80q0 -105 -50 -170t-129 -65q-47 0 -76.5 27t-29.5 83zM515 35q52 -3 86 52.5t34 131.5q0 75 -66 75q-49 4 -86 -53t-34 -130q0 -76 66 -76z" />
    <glyph glyph-name="ampersand" unicode="&#x26;" horiz-adv-x="712" 
d="M636 704l-13 -64q-84 28 -176 28q-101 0 -171 -45t-70 -124q0 -47 38.5 -76t88.5 -29h355l-12 -59h-116l26 -335h-70l-7 81q-33 -21 -87 -45q-106 -48 -201 -48t-147 41t-52 114q0 75 53 137q53 61 138 85q-39 17 -61 53t-22 81q0 101 91 167t225 66q94 0 190 -28z
M506 137l-15 198h-169q-94 0 -156 -51q-61 -49 -61 -125q0 -52 40 -81t103 -29q56 -1 136.5 27.5t121.5 60.5z" />
    <glyph glyph-name="quotesingle" unicode="'" horiz-adv-x="194" 
d="M168 518h-56l43 201h56z" />
    <glyph glyph-name="parenleft" unicode="(" horiz-adv-x="288" 
d="M24 103q0 170 69.5 338t202.5 322h74q-125 -150 -199.5 -317.5t-74.5 -329.5q0 -80 17 -171q16 -86 46 -157h-73q-62 149 -62 315z" />
    <glyph glyph-name="parenright" unicode=")" horiz-adv-x="288" 
d="M251 446q0 -330 -270 -671h-78q133 162 204.5 333.5t71.5 323.5q0 182 -63 332h73q62 -153 62 -318z" />
    <glyph glyph-name="asterisk" unicode="*" horiz-adv-x="464" 
d="M386 409l-48 -31l-67 124l-116 -125l-37 31l121 127l-136 47l25 47l133 -49l33 154h52l-33 -154l156 49l5 -46l-159 -48z" />
    <glyph glyph-name="plus" unicode="+" horiz-adv-x="560" 
d="M242 245h-204v64h204v201h63v-201h205v-64h-205v-201h-63v201z" />
    <glyph glyph-name="comma" unicode="," horiz-adv-x="205" 
d="M19 -96h-33l42 199h63v-9q0 -34 -20 -91q-19 -53 -52 -99z" />
    <glyph glyph-name="hyphen" unicode="-" horiz-adv-x="518" 
d="M430 234h-372l13 64h372z" />
    <glyph glyph-name="period" unicode="." horiz-adv-x="205" 
d="M27 103h67l-21 -103h-67z" />
    <glyph glyph-name="slash" unicode="/" horiz-adv-x="406" 
d="M-2 -206h-67l463 969h69z" />
    <glyph glyph-name="zero" unicode="0" horiz-adv-x="656" 
d="M403 661q-99 0 -175 -104q-42 -58 -68 -155q-25 -93 -25 -177q0 -81 31 -124t109 -43q65 -1 118.5 42t85 110.5t48 141.5t16.5 141q0 168 -140 168zM54 208q0 155 63 300q45 101 121.5 162.5t179.5 61.5q206 0 206 -222q0 -155 -64 -299q-44 -99 -121 -161t-180 -62
q-205 0 -205 220z" />
    <glyph glyph-name="one" unicode="1" horiz-adv-x="332" 
d="M328 720l-153 -720h-76l135 633l-150 -63l15 73l174 77h55z" />
    <glyph glyph-name="two" unicode="2" horiz-adv-x="533" 
d="M425 0h-444l14 67q194 145 247 191q69 60 108 106q78 96 78 180q0 56 -37 87t-104 31q-15 0 -45 -3q-23 -1 -65 -10q-48 -11 -50 -11l15 72q93 22 172 22q92 0 145 -42.5t53 -119.5q0 -76 -37 -146q-36 -70 -121 -151q-86 -81 -258 -204h343z" />
    <glyph glyph-name="three" unicode="3" horiz-adv-x="535" 
d="M134 638l14 69q29 9 90 17q52 7 95 7q82 0 133.5 -38t51.5 -102q0 -35 -18 -79q-18 -43 -63 -85q-46 -43 -94 -59q51 -12 82 -51t31 -88q0 -105 -90 -173t-210 -68q-38 0 -85 4q-67 6 -83 8l13 67q68 -11 162 -11q96 0 154.5 47.5t58.5 120.5q0 26 -15 50t-51.5 39.5
t-78.5 15.5h-91l14 66h88q70 0 132.5 52t62.5 123q0 44 -36 67.5t-98 23.5q-31 0 -89 -8q-54 -8 -80 -15z" />
    <glyph glyph-name="four" unicode="4" horiz-adv-x="620" 
d="M24 252l266 468h77l-263 -461h285l22 104l46 141h59l-51 -244h115l-15 -70h-116l-40 -190h-75l41 190h-363z" />
    <glyph glyph-name="five" unicode="5" horiz-adv-x="542" 
d="M168 57q90 0 158.5 56t68.5 144q0 104 -134 104h-172l76 359h387l-15 -69h-313l-48 -223h108q93 0 143.5 -37.5t50.5 -112.5q0 -129 -92.5 -209t-228.5 -80q-36 0 -77 4q-52 5 -77 11l15 70q32 -8 76 -12q50 -5 74 -5z" />
    <glyph glyph-name="six" unicode="6" horiz-adv-x="604" 
d="M598 721l-14 -69q-52 11 -104 11q-120 0 -210.5 -85t-117.5 -215q54 22 115 38q65 17 112 17q73 0 118.5 -36.5t45.5 -107.5q0 -62 -23 -116t-60 -88q-89 -82 -211 -82q-87 0 -143.5 55t-56.5 161q-1 93 29 186.5t84.5 171t139.5 125t185 45.5q48 0 111 -11zM263 56
q82 0 140 58t58 141q0 95 -115 95q-92 0 -206 -50q-10 -54 -10 -90q-2 -74 36 -115t97 -39z" />
    <glyph glyph-name="seven" unicode="7" horiz-adv-x="490" 
d="M161 0h-76q37 169 127 339.5t244 311.5h-361l15 69h445l-15 -72q-149 -137 -242 -296q-89 -151 -137 -352z" />
    <glyph glyph-name="eight" unicode="8" horiz-adv-x="592" 
d="M230 -12q-101 0 -153.5 39t-52.5 109q0 66 48.5 133.5t128.5 106.5q-79 46 -79 126q0 66 42 124q29 45 94.5 77t128.5 29q85 0 134.5 -39.5t49.5 -104.5q0 -62 -41 -123t-113 -109q96 -50 96 -132q0 -101 -82.5 -168.5t-200.5 -67.5zM245 55q66 0 117 33q71 44 71 120
q0 42 -41 73q-23 19 -78 40l-64 25q-63 -35 -103 -87t-40 -101q0 -40 31.5 -71.5t106.5 -31.5zM372 666q-72 0 -121.5 -47.5t-49.5 -105.5q0 -42 38 -71.5t124 -57.5q57 35 92 85.5t35 96.5q3 37 -28.5 69.5t-89.5 30.5z" />
    <glyph glyph-name="nine" unicode="9" horiz-adv-x="603" 
d="M27 -1l15 69q52 -11 104 -11q90 0 166 49q55 33 102 106t60 144q-57 -23 -115 -38q-61 -16 -113 -16q-72 0 -117.5 36t-45.5 108q0 127 86.5 206.5t207.5 79.5q99 0 149 -62q50 -60 50 -155q1 -93 -29 -186t-84 -170.5t-139 -125t-185 -45.5q-48 0 -112 11zM362 663
q-81 0 -139.5 -57.5t-58.5 -140.5q0 -96 116 -96q41 0 100 14q58 15 105 36q10 47 10 90q0 77 -35 115.5t-98 38.5z" />
    <glyph glyph-name="colon" unicode=":" horiz-adv-x="213" 
d="M30 103h67l-22 -103h-67zM101 438h67l-22 -104h-67z" />
    <glyph glyph-name="semicolon" unicode=";" horiz-adv-x="214" 
d="M101 437h67l-22 -103h-67zM21 -96h-33l42 199h63v-9q0 -34 -20 -91q-19 -53 -52 -99z" />
    <glyph glyph-name="less" unicode="&#x3c;" horiz-adv-x="596" 
d="M504 23l-472 194v84l472 194v-74l-413 -162l413 -162v-74z" />
    <glyph glyph-name="equal" unicode="=" horiz-adv-x="685" 
d="M571 351h-472v64h472v-64zM571 130h-472v65h472v-65z" />
    <glyph glyph-name="greater" unicode="&#x3e;" horiz-adv-x="598" 
d="M73 495l472 -194v-84l-472 -194v74l413 162l-413 162v74z" />
    <glyph glyph-name="question" unicode="?" horiz-adv-x="444" 
d="M178 193h-70q-2 60 30 128t94 110q88 62 112 85q50 50 50 99q3 33 -33.5 61t-102.5 27q-57 0 -143 -24l15 71q90 23 167 23q84 0 132 -37t48 -100q0 -71 -56 -134q-13 -15 -43 -41q-17 -14 -56 -42l-43 -31q-101 -75 -101 -195zM147 0h-75l15 73h76z" />
    <glyph glyph-name="at" unicode="@" horiz-adv-x="937" 
d="M632 38q-41 0 -75 21t-35 62q0 9 2 19q-70 -67 -139 -67q-43 0 -71 29t-28 74q0 102 70 175.5t171 73.5q68 0 132 -37l-67 -202q-9 -24 -12 -47q8 -45 64 -45q80 0 133 73q30 39 47.5 91t17.5 103q0 111 -77 170.5t-219 59.5q-126 2 -232.5 -64t-165.5 -173t-57 -224
q0 -127 78.5 -195t225.5 -68q93 0 184 24q-3 -44 -6 -61q-98 -25 -201 -25q-159 0 -253 80t-94 229q0 218 132 364q71 80 179 127t226 47q156 0 251 -74.5t95 -203.5q0 -47 -17.5 -110t-55.5 -114q-37 -54 -96 -84t-107 -28zM532 189l58 169q-32 16 -72 16q-60 0 -110 -45
q-27 -24 -42.5 -62t-15.5 -75q0 -64 58 -64q59 0 124 61z" />
    <glyph glyph-name="A" unicode="A" horiz-adv-x="653" 
d="M37 0h-83l407 721h111l102 -721h-78l-24 170h-342zM409 654h-13l-233 -416h304z" />
    <glyph glyph-name="B" unicode="B" horiz-adv-x="635" 
d="M178 720h262q81 0 127 -37t46 -106q3 -49 -36 -114t-117 -95q52 -14 80 -48t28 -82q0 -99 -78 -168.5t-187 -69.5h-278zM116 67h197q71 -4 125 48.5t50 114.5q0 45 -34.5 72.5t-93.5 27.5h-188zM185 396h175q69 0 122 49t53 118q0 40 -31 64.5t-89 24.5h-176
q-25 -131 -54 -256z" />
    <glyph glyph-name="C" unicode="C" horiz-adv-x="605" 
d="M54 239q-2 206 112 350t303 143q89 0 178 -24l-16 -71q-88 27 -162 27q-98 0 -174 -52q-75 -50 -119 -146q-42 -94 -42 -207q0 -100 51 -152t141 -52q80 0 188 31l-13 -71q-101 -27 -189 -27q-122 0 -190 67t-68 184z" />
    <glyph glyph-name="D" unicode="D" horiz-adv-x="711" 
d="M252 0h-227l153 720h219q130 0 205.5 -67t75.5 -195q2 -117 -50.5 -222t-152.5 -171.5t-223 -64.5zM116 68h133q60 -3 133.5 28t119.5 90q49 56 72 127.5t23 129.5q0 99 -54.5 154t-159.5 55h-144z" />
    <glyph glyph-name="E" unicode="E" horiz-adv-x="594" 
d="M25 0l153 720h454l-15 -68h-378l-55 -257h333l-14 -67h-332l-55 -260h376l-14 -68h-453z" />
    <glyph glyph-name="F" unicode="F" horiz-adv-x="579" 
d="M25 0l153 720h454l-15 -68h-378l-58 -276h336l-15 -67h-336l-65 -309h-76z" />
    <glyph glyph-name="G" unicode="G" horiz-adv-x="702" 
d="M503 664q-65 3 -143 -28t-127 -92q-52 -55 -77.5 -136.5t-23.5 -147.5q0 -206 218 -206q75 0 169 32l57 265h75l-68 -319q-139 -44 -255 -44q-130 0 -202.5 67t-72.5 189q-1 136 54.5 247.5t162 176.5t243.5 64q98 0 183 -24l-16 -71q-94 27 -177 27z" />
    <glyph glyph-name="H" unicode="H" horiz-adv-x="743" 
d="M25 0l154 720h76l-68 -320h410l68 320h76l-153 -720h-76l70 333h-410l-70 -333h-77z" />
    <glyph glyph-name="I" unicode="I" horiz-adv-x="256" 
d="M101 0h-76l153 720h76z" />
    <glyph glyph-name="J" unicode="J" horiz-adv-x="256" 
d="M178 720h76l-135 -638q-34 -156 -207 -290l-35 59q138 103 166 235z" />
    <glyph glyph-name="K" unicode="K" horiz-adv-x="635" 
d="M303 336l-141 -49l-60 -287h-77l153 720h76l-76 -360l139 47q127 47 184.5 122t57.5 191h76q-3 -252 -261 -357l68 -204q17 -50 43.5 -72.5t79.5 -22.5l-14 -66l-31 -1q-52 0 -87 31.5t-64 107.5q-23 60 -66 200z" />
    <glyph glyph-name="L" unicode="L" horiz-adv-x="523" 
d="M25 0l153 720h76l-138 -652h350l-14 -68h-427z" />
    <glyph glyph-name="M" unicode="M" horiz-adv-x="898" 
d="M799 635l-375 -638h-91l-95 638h-5l-134 -635h-74l153 720h132l92 -629l53 81l316 548h125l-153 -720h-73l135 635h-6z" />
    <glyph glyph-name="N" unicode="N" 
d="M585 0h-83l-273 598l-128 -598h-76l153 720h83l273 -604l128 604h76z" />
    <glyph glyph-name="O" unicode="O" 
d="M316 55q123 0 207 101q46 54 69 116q37 99 37 196q0 196 -183 196q-77 0 -142 -43.5t-106 -117.5q-37 -61 -52.5 -141.5t-12.5 -114.5q0 -99 45.5 -145.5t137.5 -46.5zM53 229q0 102 33 203t90 169q61 68 125.5 98t159.5 33q119 0 183.5 -64.5t64.5 -178.5
q1 -92 -25 -180t-75.5 -161t-129 -117t-177.5 -43q-121 0 -185 63t-64 178z" />
    <glyph glyph-name="P" unicode="P" horiz-adv-x="596" 
d="M304 245h-151l-52 -245h-76l153 720h227q90 0 142.5 -47.5t52.5 -132.5q0 -118 -80 -206.5t-216 -88.5zM389 652h-150l-72 -340h143q89 -3 149 60.5t61 149.5q0 130 -131 130z" />
    <glyph glyph-name="Q" unicode="Q" 
d="M53 230q0 92 25.5 181.5t72.5 156.5q116 164 310 164q108 0 175 -55q74 -61 74 -189q0 -105 -31.5 -201.5t-100 -174.5t-163.5 -107q37 -18 62 -55t29 -83h-92q-5 52 -41 87.5t-73 33.5q-122 1 -184.5 63.5t-62.5 178.5zM316 56q105 0 184 76q38 37 69 91q60 110 60 247
q0 100 -45.5 147t-137.5 47q-122 0 -208 -101q-45 -54 -69 -117q-37 -100 -37 -199q0 -191 184 -191z" />
    <glyph glyph-name="R" unicode="R" horiz-adv-x="618" 
d="M25 0l153 720h217q97 0 148.5 -43.5t51.5 -123.5q0 -43 -14 -89t-53.5 -97t-97.5 -79l89 -288h-82l-80 266q-1 0 -11 -1t-25 -2t-28 -1h-136l-56 -262h-76zM387 652h-148l-68 -322h148q77 0 130 52q66 63 66 152q0 59 -38 89q-32 29 -90 29z" />
    <glyph glyph-name="S" unicode="S" horiz-adv-x="564" 
d="M200 56q91 -4 158 48.5t63 128.5q0 40 -29 63t-108 41q-83 20 -107 31q-42 23 -61 47.5t-21 76.5q0 103 76 171t235 68q49 0 164 -11l-15 -71q-113 15 -165 15q-101 0 -158 -41t-57 -113q0 -34 24 -59q23 -23 109 -43q82 -17 115 -32q80 -36 80 -121q0 -120 -84.5 -193.5
t-227.5 -73.5q-93 0 -193 17l15 72q114 -21 187 -21z" />
    <glyph glyph-name="T" unicode="T" horiz-adv-x="608" 
d="M98 720h588l-14 -68h-256l-138 -652h-77l139 652h-256z" />
    <glyph glyph-name="U" unicode="U" horiz-adv-x="710" 
d="M713 720l-104 -493q-20 -99 -102 -169t-220 -70q-117 0 -180.5 60.5t-39.5 177.5l105 494h76l-106 -498q-15 -69 21 -116q40 -51 136 -51q72 -2 145 44t88 123l105 498h76z" />
    <glyph glyph-name="V" unicode="V" horiz-adv-x="638" 
d="M622 720h84l-399 -720h-106l-100 720h79l85 -639h9z" />
    <glyph glyph-name="W" unicode="W" horiz-adv-x="955" 
d="M679 -4h-103l-40 585h-5l-293 -585h-100l-24 724h77l21 -622h5l307 622h85l39 -622h5l284 622h77z" />
    <glyph glyph-name="X" unicode="X" horiz-adv-x="603" 
d="M565 720h94l-293 -354l165 -366h-85l-139 314l-268 -314h-94l325 379l-152 341h82l129 -292z" />
    <glyph glyph-name="Y" unicode="Y" horiz-adv-x="590" 
d="M321 261l-56 -261h-76l56 261l-146 459h82l117 -385l275 385h88z" />
    <glyph glyph-name="Z" unicode="Z" horiz-adv-x="627" 
d="M127 720h536l-16 -73l-561 -579h457l-15 -68h-548l15 74l560 578h-443z" />
    <glyph glyph-name="bracketleft" unicode="[" horiz-adv-x="284" 
d="M18 -205l142 968h126l-5 -67h-59l-66 -417q-60 -383 -67 -417h58l-4 -67h-125z" />
    <glyph glyph-name="backslash" unicode="\" horiz-adv-x="438" 
d="M303 -205h-66l-115 968h68z" />
    <glyph glyph-name="bracketright" unicode="]" horiz-adv-x="282" 
d="M253 763l-143 -968h-124l5 66h58q6 29 67 421q63 403 65 414h-59l5 67h126z" />
    <glyph glyph-name="asciicircum" unicode="^" horiz-adv-x="456" 
d="M67 388l201 317h56q51 -152 108 -317h-72l-71 224l-50 -70l-95 -154h-77z" />
    <glyph glyph-name="underscore" unicode="_" horiz-adv-x="504" 
d="M380 -4h-371l6 60h370z" />
    <glyph glyph-name="grave" unicode="`" horiz-adv-x="500" 
d="M287 617h-56l-57 143h77z" />
    <glyph glyph-name="a" unicode="a" horiz-adv-x="590" 
d="M557 520l-109 -520h-59l4 66q-42 -34 -94 -54t-100 -20q-78 0 -123.5 49.5t-45.5 132.5q0 102 42 191q42 88 119.5 136.5t178.5 48.5q84 0 187 -30zM400 126l73 345q-61 18 -109 18q-104 0 -179 -83q-39 -43 -59 -101.5t-20 -108.5q0 -80 36 -111t85 -31q42 0 90 20
t83 52z" />
    <glyph glyph-name="b" unicode="b" horiz-adv-x="609" 
d="M218 -12q-42 0 -103 8q-49 6 -99 19l158 748h75l-63 -292q125 80 221 80q70 0 113.5 -45t43.5 -131q0 -137 -64 -235q-98 -152 -282 -152zM174 408l-72 -341q57 -19 122 -19q114 0 187.5 89.5t73.5 220.5q0 64 -29.5 96.5t-81.5 32.5q-80 0 -200 -79z" />
    <glyph glyph-name="c" unicode="c" horiz-adv-x="525" 
d="M266 50q70 0 168 29l-13 -64q-90 -27 -176 -27q-102 0 -158 51.5t-56 142.5q-2 150 89.5 260.5t241.5 108.5q85 0 166 -28l-14 -64q-87 29 -154 29q-107 0 -179.5 -84.5t-72.5 -206.5q0 -71 40.5 -109t117.5 -38z" />
    <glyph glyph-name="d" unicode="d" horiz-adv-x="606" 
d="M623 763l-161 -763h-56l2 67q-105 -77 -213 -77q-74 0 -119.5 48.5t-45.5 148.5q0 121 65 220q36 55 90.5 89.5t100.5 45t91 9.5q60 0 126 -17l48 229h72zM416 126l73 345q-61 18 -109 18q-116 0 -191 -76q-39 -40 -61.5 -96.5t-22.5 -116.5q0 -73 32.5 -109.5
t86.5 -36.5q87 0 192 72z" />
    <glyph glyph-name="e" unicode="e" horiz-adv-x="556" 
d="M457 91l-8 -68q-111 -35 -202 -35q-103 0 -159.5 48.5t-56.5 143.5q-1 67 19.5 132.5t58.5 119.5t99.5 87t136.5 32q87 0 134.5 -38t47.5 -102q0 -86 -63 -130t-183 -44q-71 0 -164 16q-7 -36 -7 -68q-3 -59 38.5 -98t117.5 -37q97 0 191 41zM125 302q83 -12 143 -12
q187 0 187 115q0 39 -29.5 64.5t-87.5 25.5q-72 0 -130 -47t-83 -146z" />
    <glyph glyph-name="f" unicode="f" horiz-adv-x="357" 
d="M470 765l-11 -58q-59 10 -94 10q-50 0 -82 -23t-47 -97l-13 -58h169l-13 -61h-166l-143 -683h-72l141 683h-67l10 50l70 11l12 56q21 98 65 139.5t133 41.5q50 0 108 -11z" />
    <glyph glyph-name="g" unicode="g" horiz-adv-x="605" 
d="M572 520l-105 -501q-27 -129 -89 -182q-62 -54 -178 -54q-98 0 -204 33l11 65q120 -37 185 -37q90 0 137 36.5t63 111.5l16 74q-104 -74 -210 -74q-81 0 -124.5 50.5t-43.5 143.5q0 66 22.5 131.5t60.5 110.5q51 65 125.5 94t147.5 28q82 0 186 -30zM416 126l73 345
q-66 17 -109 17q-115 0 -190 -76q-85 -87 -85 -215q0 -72 31.5 -107.5t88.5 -35.5q91 0 191 72z" />
    <glyph glyph-name="h" unicode="h" horiz-adv-x="610" 
d="M554 400l-85 -400h-74l83 388q19 100 -85 100q-77 0 -217 -73l-88 -415h-74l161 763h74l-62 -288q157 76 243 76q72 0 105 -41t19 -110z" />
    <glyph glyph-name="i" unicode="i" horiz-adv-x="255" 
d="M163 728h77l-20 -96h-77zM34 108l91 431h75l-90 -422q-15 -65 51 -65q23 0 39 4l-10 -55q-33 -6 -67 -6q-52 0 -76 30.5t-13 82.5z" />
    <glyph glyph-name="j" unicode="j" horiz-adv-x="232" 
d="M127 539h74l-86 -417q-20 -94 -40 -138q-20 -48 -50.5 -83.5t-83.5 -74.5l-31 48q55 49 80 86q27 41 37 95zM165 728h77l-19 -96h-77z" />
    <glyph glyph-name="k" unicode="k" horiz-adv-x="530" 
d="M174 763h75l-101 -479l117 26q144 32 144 156q0 34 -10 73h69q9 -35 9 -71q0 -146 -162 -200q9 -91 51 -150q44 -54 94 -65l-16 -57q-79 6 -130.5 77t-60.5 174l-118 -27l-46 -220h-74z" />
    <glyph glyph-name="l" unicode="l" horiz-adv-x="261" 
d="M44 140l131 623h75l-137 -647q-10 -61 51 -61q19 0 40 4l-9 -59q-38 -5 -69 -5q-57 0 -78 34t-4 111z" />
    <glyph glyph-name="m" unicode="m" horiz-adv-x="966" 
d="M787 550q60 0 93 -30t33 -83q0 -15 -5 -43l-83 -394h-74l82 387q3 15 3 28q0 34 -21.5 53t-63.5 19q-31 0 -73 -13q-44 -14 -135 -60l-11 -58l-75 -356h-74l80 380q3 15 3 29q0 36 -21.5 56.5t-61.5 20.5q-33 0 -75 -13q-44 -12 -132 -60l-87 -413h-75l113 539h62l-6 -69
q140 80 237 80q110 0 122 -85q148 85 245 85z" />
    <glyph glyph-name="n" unicode="n" horiz-adv-x="611" 
d="M554 394l-84 -394h-73l82 388q21 100 -82 100q-69 0 -221 -73l-87 -415h-74l113 539h62l-6 -68q158 80 248 80q72 0 104 -42t18 -115z" />
    <glyph glyph-name="o" unicode="o" horiz-adv-x="624" 
d="M350 489q-103 0 -172.5 -90t-69.5 -206q0 -144 148 -144q99 0 171 84.5t72 207.5q0 148 -149 148zM30 183q0 130 68 230q36 53 88.5 86t93.5 42.5t82 9.5q95 0 155 -48t60 -149q0 -154 -91 -260t-242 -106q-103 0 -158.5 50t-55.5 145z" />
    <glyph glyph-name="p" unicode="p" horiz-adv-x="605" 
d="M89 5l-44 -210h-73l156 744h63l-9 -68q128 80 228 80q72 0 111 -45.5t39 -126.5q0 -137 -62 -240q-41 -70 -108 -110.5t-154 -40.5q-71 0 -147 17zM231 52q77 0 135.5 46t87 115t28.5 147q0 61 -28 94t-78 33q-78 0 -200 -71l-74 -349q62 -15 129 -15z" />
    <glyph glyph-name="q" unicode="q" horiz-adv-x="608" 
d="M576 523l-153 -728h-74l58 265q-121 -71 -229 -71q-69 0 -110 51q-39 48 -39 125q0 173 97.5 279.5t263.5 106.5q84 0 186 -28zM419 126l72 345q-52 16 -108 16q-120 0 -197.5 -83.5t-77.5 -222.5q0 -128 108 -128q85 0 203 73z" />
    <glyph glyph-name="r" unicode="r" horiz-adv-x="369" 
d="M404 542l-16 -77q-36 -4 -85 -25q-45 -19 -138 -83l-75 -357h-75l113 539h71l-25 -120q131 120 230 123z" />
    <glyph glyph-name="s" unicode="s" horiz-adv-x="483" 
d="M168 50q35 -1 71 9t66.5 39.5t28.5 73.5q0 24 -17 40q-11 10 -26 15q-13 6 -86 22q-69 15 -95 33q-24 18 -33 34q-14 27 -14 60q0 83 64.5 129t175.5 46q73 0 156 -18l-13 -65q-65 20 -141 20q-37 1 -71.5 -6t-63.5 -31t-27 -61q0 -28 19 -47t90 -34q67 -13 99 -28
q61 -28 61 -98q0 -89 -66 -142q-67 -53 -178 -53q-18 0 -70 3q-49 3 -105 14l15 65q94 -20 160 -20z" />
    <glyph glyph-name="t" unicode="t" horiz-adv-x="358" 
d="M385 478h-175l-76 -367q-6 -26 8.5 -42.5t46.5 -16.5q29 0 89 17l-12 -65q-75 -14 -107 -14q-125 0 -100 123l77 365h-78l13 54q51 2 82 29.5t48 94.5h46l-24 -117h175z" />
    <glyph glyph-name="u" unicode="u" horiz-adv-x="611" 
d="M41 145l84 394h74l-79 -370q-14 -63 5.5 -91t72.5 -28q71 0 221 74l88 415h73l-113 -539h-62l7 67q-58 -35 -129 -57q-67 -22 -120 -22q-70 0 -103.5 43t-18.5 114z" />
    <glyph glyph-name="v" unicode="v" horiz-adv-x="507" 
d="M147 -1l-76 540h77l59 -463l187 330q39 71 39 133h73q0 -67 -42 -146q-23 -34 -36 -62l-188 -332h-93z" />
    <glyph glyph-name="w" unicode="w" horiz-adv-x="933" 
d="M44 156l80 383h74l-81 -389q-10 -45 10 -72.5t62 -27.5q93 0 209 78q0 30 6 56l75 355h70l-77 -366q-12 -59 18 -90t97 -31q65 0 111 31.5t58 89.5l77 366h74l-78 -370q-15 -81 -80 -131q-67 -50 -175 -50q-65 -2 -112.5 27.5t-55.5 63.5q-132 -91 -231 -91
q-82 0 -114.5 44.5t-16.5 123.5z" />
    <glyph glyph-name="x" unicode="x" horiz-adv-x="503" 
d="M30 95l171 179l-143 265h80l114 -217l129 137q47 51 47 80h73q0 -47 -60 -109l-155 -161l143 -269h-81l-114 219l-127 -135q-54 -58 -54 -84h-72q0 43 49 95z" />
    <glyph glyph-name="y" unicode="y" horiz-adv-x="515" 
d="M207 73h11l168 313q54 100 54 153h75q0 -62 -51 -155l-212 -388q-50 -96 -63 -127q-20 -52 -20 -74h-76q0 64 87 205h-34l-76 539h78z" />
    <glyph glyph-name="z" unicode="z" horiz-adv-x="517" 
d="M403 478h-330l13 61h427l-11 -53l-414 -425h348l-13 -61h-445l10 54z" />
    <glyph glyph-name="braceleft" unicode="{" horiz-adv-x="451" 
d="M395 709q-61 0 -95 -24q-36 -23 -52 -65q-17 -42 -24 -130q-8 -90 -16 -125q-19 -78 -77 -101l-1 -5q36 -12 36 -69q0 -45 -31 -132q-31 -93 -35 -113q-4 -23 -4 -38q0 -90 100 -90q44 0 127 18l-14 -68q-65 -16 -126 -16q-163 0 -163 130q0 60 31 144q29 80 37 110
q6 24 6 41q0 52 -56 52l-21 -1l15 70l20 -1q41 -4 64 31.5t26 71.5q10 93 13 120q10 105 43 160q59 96 203 96q60 0 120 -17l-16 -67q-64 18 -110 18z" />
    <glyph glyph-name="bar" unicode="|" horiz-adv-x="249" 
d="M-20 -205l204 968h74l-205 -968h-73z" />
    <glyph glyph-name="braceright" unicode="}" horiz-adv-x="450" 
d="M35 -182q127 0 154 122q8 35 16 110q8 76 16 109q19 78 78 101v2q-31 10 -31 82q0 42 33 136t33 134q0 94 -106 94q-50 0 -121 -18q9 39 13 68q70 17 127 17q162 0 162 -130q0 -39 -10 -78q-12 -47 -37 -116q-26 -75 -26 -103q0 -52 56 -52l21 1l-15 -70l-20 1
q-43 0 -66 -32q-24 -33 -34 -133q-11 -102 -19 -134q-17 -72 -55 -115q-56 -63 -174 -63q-60 0 -118 16l16 69q64 -18 107 -18z" />
    <glyph glyph-name="asciitilde" unicode="~" horiz-adv-x="612" 
d="M534 344l1 -56q-55 -24 -109 -24q-46 0 -121 19q-77 20 -112 20q-58 0 -118 -29l2 59q69 31 132 31q47 0 124 -20q75 -19 108 -19q49 0 93 19z" />
    <glyph glyph-name="uni00A0" unicode="&#xa0;" horiz-adv-x="264" 
 />
    <glyph glyph-name="exclamdown" unicode="&#xa1;" horiz-adv-x="242" 
d="M45 -222h-73l106 498h73zM122 499h78l-21 -99h-78z" />
    <glyph glyph-name="cent" unicode="&#xa2;" horiz-adv-x="526" 
d="M255 51q76 0 168 29l-14 -66q-79 -22 -149 -25l-32 -158h-67l33 160q-77 9 -126 54.5t-49 136.5q0 85 29 161q28 75 95.5 135.5t164.5 69.5l34 164h67l-33 -162q65 -3 140 -27l-13 -65q-89 29 -155 29q-108 0 -179.5 -83t-71.5 -207q0 -71 40.5 -108.5t117.5 -37.5z" />
    <glyph glyph-name="sterling" unicode="&#xa3;" horiz-adv-x="529" 
d="M488 729q-3 -22 -4 -68q-64 -16 -101 -38t-68 -75t-52 -147h191l-14 -69h-194l-12 -56q-15 -74 -36.5 -120t-37 -61t-43.5 -34q64 7 185 7h138l-14 -68h-453l22 63q42 3 73 25q32 22 52 63.5t38 124.5l12 56h-86l14 69h86l17 69q27 104 102.5 174t184.5 85z" />
    <glyph glyph-name="yen" unicode="&#xa5;" horiz-adv-x="639" 
d="M268 255h-210l13 64h181l-129 401h83l117 -387l276 387h86l-298 -401h181l-13 -64h-211l-15 -75h210l-14 -65h-211l-24 -115h-76l24 115h-210l15 65h210z" />
    <glyph glyph-name="brokenbar" unicode="&#xa6;" horiz-adv-x="252" 
d="M-19 -205l94 450h75l-95 -450h-74zM260 763l-95 -450h-75l95 450h75z" />
    <glyph glyph-name="section" unicode="&#xa7;" horiz-adv-x="523" 
d="M69 335q-3 38 25 87t70 79q-33 30 -33 82q0 75 61 123.5t179 48.5q81 0 156 -18l-14 -64q-65 20 -141 20q-37 1 -71.5 -6t-63 -31t-26.5 -61q0 -27 19 -46t90 -34q70 -15 95 -28q65 -33 65 -105q0 -86 -99 -168q37 -28 37 -81q0 -89 -66 -141q-67 -53 -178 -53
q-35 0 -92 5q-44 4 -82 13l13 63q91 -19 161 -19q71 1 118.5 31t46.5 89q0 26 -19 42q-20 17 -80 30q-55 12 -90 25q-81 34 -81 117zM145 341q0 -37 37 -59q22 -12 71 -22q35 -7 68 -16q84 70 84 133q0 35 -36 52q-26 12 -75 22q-52 11 -72 18q-77 -59 -77 -128z" />
    <glyph glyph-name="dieresis" unicode="&#xa8;" horiz-adv-x="833" 
d="M550 713h68l-20 -96h-68zM328 713h68l-20 -96h-68z" />
    <glyph glyph-name="copyright" unicode="&#xa9;" horiz-adv-x="864" 
d="M374 35q106 0 201 58q96 59 150 150t54 188q0 114 -74 185t-192 71q-95 0 -189 -51q-93 -49 -155 -144q-61 -92 -61 -200q0 -114 74 -185.5t192 -71.5zM829 439q0 -154 -107 -282q-60 -71 -128 -107q-113 -62 -230 -62q-134 0 -220 84t-86 212q-2 118 62 223t172.5 166.5
t230.5 60.5q133 0 219.5 -84t86.5 -211zM493 485q-62 2 -107.5 -40.5t-43.5 -119.5q0 -80 97 -80q29 0 82 11l-11 -50q-46 -11 -86 -11q-65 0 -101.5 32t-36.5 91q0 94 58 155.5t152 61.5q43 0 82 -11l-11 -50q-49 11 -74 11z" />
    <glyph glyph-name="ordfeminine" unicode="&#xaa;" horiz-adv-x="447" 
d="M443 660l-73 -351h-44l3 45q-58 -49 -131 -49q-50 0 -82 33t-32 91q0 64 23 116q24 56 75.5 95.5t129.5 39.5q65 0 131 -20zM333 394l49 230q-36 11 -73 11q-65 5 -118 -52.5t-52 -138.5q0 -92 77 -92q68 0 117 42z" />
    <glyph glyph-name="guillemotleft" unicode="&#xab;" horiz-adv-x="510" 
d="M238 513h75l-206 -244l100 -243h-69l-100 244zM434 513h75l-207 -244l101 -243h-70l-100 244z" />
    <glyph glyph-name="logicalnot" unicode="&#xac;" horiz-adv-x="623" 
d="M77 305h467l-49 -230l-57 5l32 158h-408z" />
    <glyph glyph-name="registered" unicode="&#xae;" horiz-adv-x="536" 
d="M224 420l45 212h76q29 0 46.5 -13.5t17.5 -38.5t-14.5 -47.5t-36.5 -32.5l24 -80h-43l-20 72h-40l-15 -72h-40zM332 600h-30l-16 -77h30q24 0 37.5 14.5t13.5 35.5q0 27 -35 27zM272 338q71 0 141 55q39 32 61 76t22 87q0 63 -40 102.5t-106 39.5q-83 0 -152 -66
t-69 -151q0 -64 40 -103.5t103 -39.5zM532 564q0 -103 -79 -181t-186 -78q-77 0 -127 48q-49 48 -49 121q0 103 80.5 180.5t185.5 77.5q67 0 117 -40q58 -46 58 -128z" />
    <glyph glyph-name="macron" unicode="&#xaf;" horiz-adv-x="601" 
d="M494 629h-401l13 64h401z" />
    <glyph glyph-name="degree" unicode="&#xb0;" horiz-adv-x="313" 
d="M205 543q32 -1 57 27.5t22 56.5q0 48 -51 48q-23 3 -51.5 -21.5t-27.5 -62.5q0 -48 51 -48zM197 505q-39 0 -62.5 21t-23.5 56q-4 45 34.5 89t95.5 43q32 0 59 -20t27 -58q0 -56 -38 -94q-37 -37 -92 -37z" />
    <glyph glyph-name="plusminus" unicode="&#xb1;" horiz-adv-x="621" 
d="M258 319h-204v64h204v201h63v-201h205v-64h-205v-201h-63v201zM526 64v-64h-472v64h472z" />
    <glyph glyph-name="twosuperior" unicode="&#xb2;" horiz-adv-x="405" 
d="M339 289h-286l11 50q128 77 195.5 143.5t67.5 129.5q0 59 -86 59q-43 0 -99 -14l12 54q64 16 115 16q123 0 123 -94q0 -142 -235 -289h195z" />
    <glyph glyph-name="threesuperior" unicode="&#xb3;" horiz-adv-x="398" 
d="M142 656l11 54q57 16 118 16q60 0 95 -21.5t35 -63.5q0 -33 -26 -74t-80 -57q32 -8 50 -30t18 -50q0 -69 -60 -109.5t-148 -40.5q-42 0 -99 10l13 55q53 -10 88 -10q65 -1 105 26t36 67q3 22 -21.5 40t-61.5 17h-61l10 47h57q45 0 79 24.5t34 64.5q0 50 -87 50
q-35 0 -105 -15z" />
    <glyph glyph-name="acute" unicode="&#xb4;" horiz-adv-x="424" 
d="M210 760h83l-118 -143h-61z" />
    <glyph glyph-name="paragraph" unicode="&#xb6;" horiz-adv-x="531" 
d="M348 720h68l-93 -435h-73q-82 0 -130.5 45t-48.5 119q0 115 82 193t195 78zM457 720h76l-148 -696q-27 -125 -93 -181t-187 -56q-39 0 -87 6l14 68q46 -6 84 -6q84 0 129 40t63 127z" />
    <glyph glyph-name="periodcentered" unicode="&#xb7;" horiz-adv-x="214" 
d="M76 321h67l-21 -103h-67z" />
    <glyph glyph-name="cedilla" unicode="&#xb8;" horiz-adv-x="467" 
d="M91 -209l10 47q46 -8 74 -8q94 0 94 52q0 17 -24 25t-87 8l4 15l57 70h53l-46 -54q102 0 102 -56q0 -51 -43 -79t-112 -28q-39 0 -82 8z" />
    <glyph glyph-name="onesuperior" unicode="&#xb9;" horiz-adv-x="259" 
d="M268 721l-91 -432h-60l76 364l-93 -35l12 58l117 45h39z" />
    <glyph glyph-name="ordmasculine" unicode="&#xba;" horiz-adv-x="458" 
d="M297 633q-55 5 -106 -51.5t-52 -145.5q0 -90 97 -90q62 0 109.5 56t48.5 139q0 92 -97 92zM82 431q0 98 61.5 173.5t162.5 75.5q67 0 106 -34t39 -99q0 -99 -62 -173t-162 -74q-25 0 -48 5.5t-46 19t-37 41t-14 65.5z" />
    <glyph glyph-name="guillemotright" unicode="&#xbb;" horiz-adv-x="508" 
d="M59 26h-73l205 244l-101 243h70l100 -243zM255 26h-75l206 244l-100 243h69l100 -243z" />
    <glyph glyph-name="onequarter" unicode="&#xbc;" horiz-adv-x="802" 
d="M391 156l160 275h61l-159 -272h157l16 73l30 80h48l-33 -154h67l-11 -53h-68l-22 -105h-60l22 105h-219zM274 721l-92 -432h-61l78 364l-95 -35l12 58l118 45h40zM63 -93h-68l622 856h67z" />
    <glyph glyph-name="onehalf" unicode="&#xbd;" horiz-adv-x="787" 
d="M270 721l-92 -432h-61l78 364l-95 -35l12 58l118 45h40zM59 -93h-68l622 856h67zM684 0h-286l11 50q128 77 195.5 143.5t67.5 129.5q0 59 -86 59q-43 0 -99 -14l12 54q64 16 115 16q123 0 123 -94q0 -143 -236 -289h196z" />
    <glyph glyph-name="threequarters" unicode="&#xbe;" horiz-adv-x="907" 
d="M130 656l11 54q57 16 118 16q60 0 95 -21.5t35 -63.5q0 -33 -26 -74t-80 -57q32 -8 50 -30t18 -50q0 -69 -60 -109.5t-148 -40.5q-42 0 -99 10l13 55q53 -10 88 -10q65 -1 105 26t36 67q3 22 -21.5 40t-61.5 17h-61l10 47h57q45 0 79 24.5t34 64.5q0 50 -87 50
q-35 0 -105 -15zM497 156l160 275h61l-159 -272h157l16 73l30 80h48l-33 -154h67l-11 -53h-68l-22 -105h-60l22 105h-219zM166 -93h-68l622 856h68z" />
    <glyph glyph-name="questiondown" unicode="&#xbf;" horiz-adv-x="442" 
d="M245 321h71q2 -61 -30 -128.5t-94 -108.5l-46 -32q-40 -27 -68 -54q-48 -48 -48 -98q-3 -33 33 -61t102 -27q57 0 143 24l-15 -71q-90 -23 -167 -23q-84 0 -131.5 37t-47.5 100q0 78 60 138q30 30 81 67l57 42q100 75 100 195zM277 515h75l-16 -74h-75z" />
    <glyph glyph-name="Agrave" unicode="&#xc0;" horiz-adv-x="653" 
d="M37 0h-83l407 721h111l102 -721h-78l-24 170h-342zM409 654h-13l-233 -416h304zM449 775h-56l-57 143h77z" />
    <glyph glyph-name="Aacute" unicode="&#xc1;" horiz-adv-x="653" 
d="M37 0h-83l407 721h111l102 -721h-78l-24 170h-342zM409 654h-13l-233 -416h304zM493 918h83l-118 -143h-61z" />
    <glyph glyph-name="Acircumflex" unicode="&#xc2;" horiz-adv-x="653" 
d="M37 0h-83l407 721h111l102 -721h-78l-24 170h-342zM409 654h-13l-233 -416h304zM505 775l-59 119l-112 -119h-70l141 152h89l76 -152h-65z" />
    <glyph glyph-name="Atilde" unicode="&#xc3;" horiz-adv-x="653" 
d="M37 0h-83l407 721h111l102 -721h-78l-24 170h-342zM409 654h-13l-233 -416h304zM219 779l13 69q59 43 114 43q36 0 82 -24q46 -23 66 -27q17 -4 31 -4q56 0 119 45l-13 -69q-62 -44 -113 -44q-36 0 -83 24q-45 23 -66 28q-17 4 -32 4q-57 0 -118 -45z" />
    <glyph glyph-name="Adieresis" unicode="&#xc4;" horiz-adv-x="653" 
d="M37 0h-83l407 721h111l102 -721h-78l-24 170h-342zM409 654h-13l-233 -416h304zM522 871h68l-20 -96h-68zM300 871h68l-20 -96h-68z" />
    <glyph glyph-name="Aring" unicode="&#xc5;" horiz-adv-x="653" 
d="M37 0h-83l396 701q-13 5 -21.5 18t-8.5 29q0 22 12 51q13 30 45.5 50.5t70.5 20.5q41 0 64 -20t23 -54q0 -30 -16 -56t-43 -39h-1l99 -701h-78l-24 170h-342zM409 654h-13l-233 -416h304zM439 831q-30 0 -52 -22t-22 -53q0 -42 50 -42q27 -3 51 20t23 54q0 43 -50 43z
" />
    <glyph glyph-name="AE" unicode="&#xc6;" horiz-adv-x="991" 
d="M-57 0l547 720h539l-14 -68h-379l-54 -257h333l-14 -67h-333l-55 -260h377l-15 -68h-453l35 170h-296l-130 -170h-88zM560 651h-41l-312 -415h266z" />
    <glyph glyph-name="Ccedilla" unicode="&#xc7;" horiz-adv-x="605" 
d="M54 239q-2 206 112 350t303 143q89 0 178 -24l-16 -71q-88 27 -162 27q-98 0 -174 -52q-75 -50 -119 -146q-42 -94 -42 -207q0 -100 51 -152t141 -52q80 0 188 31l-13 -71q-101 -27 -189 -27q-122 0 -190 67t-68 184zM158 -209l10 47q46 -8 74 -8q94 0 94 52q0 17 -24 25
t-87 8l4 15l57 70h53l-46 -54q102 0 102 -56q0 -51 -43 -79t-112 -28q-39 0 -82 8z" />
    <glyph glyph-name="Egrave" unicode="&#xc8;" horiz-adv-x="594" 
d="M25 0l153 720h454l-15 -68h-378l-55 -257h333l-14 -67h-332l-55 -260h376l-14 -68h-453zM452 775h-56l-57 143h77z" />
    <glyph glyph-name="Eacute" unicode="&#xc9;" horiz-adv-x="594" 
d="M25 0l153 720h454l-15 -68h-378l-55 -257h333l-14 -67h-332l-55 -260h376l-14 -68h-453zM482 918h83l-118 -143h-61z" />
    <glyph glyph-name="Ecircumflex" unicode="&#xca;" horiz-adv-x="594" 
d="M25 0l153 720h454l-15 -68h-378l-55 -257h333l-14 -67h-332l-55 -260h376l-14 -68h-453zM497 775l-59 119l-112 -119h-70l141 152h89l76 -152h-65z" />
    <glyph glyph-name="Edieresis" unicode="&#xcb;" horiz-adv-x="594" 
d="M25 0l153 720h454l-15 -68h-378l-55 -257h333l-14 -67h-332l-55 -260h376l-14 -68h-453zM500 871h68l-20 -96h-68zM278 871h68l-20 -96h-68z" />
    <glyph glyph-name="Igrave" unicode="&#xcc;" horiz-adv-x="256" 
d="M101 0h-76l153 720h76zM252 775h-56l-57 143h77z" />
    <glyph glyph-name="Iacute" unicode="&#xcd;" horiz-adv-x="256" 
d="M101 0h-76l153 720h76zM292 918h83l-118 -143h-61z" />
    <glyph glyph-name="Icircumflex" unicode="&#xce;" horiz-adv-x="256" 
d="M101 0h-76l153 720h76zM312 775l-59 119l-112 -119h-70l141 152h89l76 -152h-65z" />
    <glyph glyph-name="Idieresis" unicode="&#xcf;" horiz-adv-x="256" 
d="M101 0h-76l153 720h76zM324 871h68l-20 -96h-68zM102 871h68l-20 -96h-68z" />
    <glyph glyph-name="Eth" unicode="&#xd0;" horiz-adv-x="746" 
d="M288 0h-227l68 321h-126l14 69h126l71 330h227q128 0 200.5 -67.5t72.5 -192.5q1 -86 -30 -169.5t-85.5 -148.5t-136 -104t-174.5 -38zM151 68h135q132 0 228 92q52 50 77 105q43 91 43 178q0 99 -55 154t-160 55h-144l-56 -262h153l-14 -69h-153z" />
    <glyph glyph-name="Ntilde" unicode="&#xd1;" 
d="M585 0h-83l-273 598l-128 -598h-76l153 720h83l273 -604l128 604h76zM253 777l13 69q59 43 114 43q36 0 82 -24q46 -23 66 -27q17 -4 31 -4q56 0 119 45l-13 -69q-62 -44 -113 -44q-36 0 -83 24q-45 23 -66 28q-17 4 -32 4q-57 0 -118 -45z" />
    <glyph glyph-name="Ograve" unicode="&#xd2;" 
d="M316 55q123 0 207 101q46 54 69 116q37 99 37 196q0 196 -183 196q-77 0 -142 -43.5t-106 -117.5q-37 -61 -52.5 -141.5t-12.5 -114.5q0 -99 45.5 -145.5t137.5 -46.5zM53 229q0 102 33 203t90 169q61 68 125.5 98t159.5 33q119 0 183.5 -64.5t64.5 -178.5
q1 -92 -25 -180t-75.5 -161t-129 -117t-177.5 -43q-121 0 -185 63t-64 178zM506 775h-56l-57 143h77z" />
    <glyph glyph-name="Oacute" unicode="&#xd3;" 
d="M316 55q123 0 207 101q46 54 69 116q37 99 37 196q0 196 -183 196q-77 0 -142 -43.5t-106 -117.5q-37 -61 -52.5 -141.5t-12.5 -114.5q0 -99 45.5 -145.5t137.5 -46.5zM53 229q0 102 33 203t90 169q61 68 125.5 98t159.5 33q119 0 183.5 -64.5t64.5 -178.5
q1 -92 -25 -180t-75.5 -161t-129 -117t-177.5 -43q-121 0 -185 63t-64 178zM525 918h83l-118 -143h-61z" />
    <glyph glyph-name="Ocircumflex" unicode="&#xd4;" 
d="M316 55q123 0 207 101q46 54 69 116q37 99 37 196q0 196 -183 196q-77 0 -142 -43.5t-106 -117.5q-37 -61 -52.5 -141.5t-12.5 -114.5q0 -99 45.5 -145.5t137.5 -46.5zM53 229q0 102 33 203t90 169q61 68 125.5 98t159.5 33q119 0 183.5 -64.5t64.5 -178.5
q1 -92 -25 -180t-75.5 -161t-129 -117t-177.5 -43q-121 0 -185 63t-64 178zM565 775l-59 119l-112 -119h-70l141 152h89l76 -152h-65z" />
    <glyph glyph-name="Otilde" unicode="&#xd5;" 
d="M316 55q123 0 207 101q46 54 69 116q37 99 37 196q0 196 -183 196q-77 0 -142 -43.5t-106 -117.5q-37 -61 -52.5 -141.5t-12.5 -114.5q0 -99 45.5 -145.5t137.5 -46.5zM53 229q0 102 33 203t90 169q61 68 125.5 98t159.5 33q119 0 183.5 -64.5t64.5 -178.5
q1 -92 -25 -180t-75.5 -161t-129 -117t-177.5 -43q-121 0 -185 63t-64 178zM272 779l13 69q59 43 114 43q35 0 82 -24q47 -23 66 -27q17 -4 31 -4q56 0 119 45l-13 -69q-62 -44 -113 -44q-37 0 -83 24q-45 23 -66 28q-17 4 -32 4q-56 0 -118 -45z" />
    <glyph glyph-name="Odieresis" unicode="&#xd6;" 
d="M316 55q123 0 207 101q46 54 69 116q37 99 37 196q0 196 -183 196q-77 0 -142 -43.5t-106 -117.5q-37 -61 -52.5 -141.5t-12.5 -114.5q0 -99 45.5 -145.5t137.5 -46.5zM53 229q0 102 33 203t90 169q61 68 125.5 98t159.5 33q119 0 183.5 -64.5t64.5 -178.5
q1 -92 -25 -180t-75.5 -161t-129 -117t-177.5 -43q-121 0 -185 63t-64 178zM584 871h68l-20 -96h-68zM362 871h68l-20 -96h-68z" />
    <glyph glyph-name="multiply" unicode="&#xd7;" horiz-adv-x="517" 
d="M250 232l-144 -144l-45 45l145 144l-142 142l44 45l142 -142l145 145l45 -45l-145 -146l143 -142l-45 -44z" />
    <glyph glyph-name="Oslash" unicode="&#xd8;" 
d="M53 229q0 102 33 203t90 169q61 68 125.5 98t159.5 33q94 0 155 -43l59 74h72l-89 -110q51 -62 51 -164q1 -92 -25 -180t-75.5 -161t-129 -117t-177.5 -43q-90 0 -148 36l-54 -67h-71l81 101q-57 58 -57 171zM133 247q0 -78 31 -121l404 503q-44 35 -122 35
q-77 0 -142 -43.5t-106 -117.5q-37 -61 -52.5 -141.5t-12.5 -114.5zM316 55q123 0 207 101q46 54 69 116q37 99 37 196q0 72 -27 115l-400 -499q41 -29 114 -29z" />
    <glyph glyph-name="Ugrave" unicode="&#xd9;" horiz-adv-x="710" 
d="M713 720l-104 -493q-20 -99 -102 -169t-220 -70q-117 0 -180.5 60.5t-39.5 177.5l105 494h76l-106 -498q-15 -69 21 -116q40 -51 136 -51q72 -2 145 44t88 123l105 498h76zM481 775h-56l-57 143h77z" />
    <glyph glyph-name="Uacute" unicode="&#xda;" horiz-adv-x="710" 
d="M713 720l-104 -493q-20 -99 -102 -169t-220 -70q-117 0 -180.5 60.5t-39.5 177.5l105 494h76l-106 -498q-15 -69 21 -116q40 -51 136 -51q72 -2 145 44t88 123l105 498h76zM510 918h83l-118 -143h-61z" />
    <glyph glyph-name="Ucircumflex" unicode="&#xdb;" horiz-adv-x="710" 
d="M713 720l-104 -493q-20 -99 -102 -169t-220 -70q-117 0 -180.5 60.5t-39.5 177.5l105 494h76l-106 -498q-15 -69 21 -116q40 -51 136 -51q72 -2 145 44t88 123l105 498h76zM537 775l-59 119l-112 -119h-70l141 152h89l76 -152h-65z" />
    <glyph glyph-name="Udieresis" unicode="&#xdc;" horiz-adv-x="710" 
d="M713 720l-104 -493q-20 -99 -102 -169t-220 -70q-117 0 -180.5 60.5t-39.5 177.5l105 494h76l-106 -498q-15 -69 21 -116q40 -51 136 -51q72 -2 145 44t88 123l105 498h76zM552 871h68l-20 -96h-68zM330 871h68l-20 -96h-68z" />
    <glyph glyph-name="Yacute" unicode="&#xdd;" horiz-adv-x="590" 
d="M321 261l-56 -261h-76l56 261l-146 459h82l117 -385l275 385h88zM456 918h83l-118 -143h-61z" />
    <glyph glyph-name="Thorn" unicode="&#xde;" horiz-adv-x="603" 
d="M296 120h-166l-27 -120h-78l154 720h78l-27 -124h161q77 0 131.5 -44t54.5 -135q0 -113 -81.5 -205t-199.5 -92zM372 526h-156l-72 -337h153q81 -3 139 62.5t59 150.5q0 47 -28.5 85.5t-94.5 38.5z" />
    <glyph glyph-name="germandbls" unicode="&#xdf;" horiz-adv-x="580" 
d="M248 354l14 70q49 6 95.5 28t82 66t35.5 100q0 37 -25.5 63.5t-75.5 26.5q-59 0 -106 -41t-63 -118l-162 -754h-73l161 754q24 110 91 168t171 58q72 0 114.5 -38t42.5 -102q4 -73 -55 -145t-158 -93q182 -25 182 -163q0 -95 -76.5 -169.5t-186.5 -74.5q-60 0 -123 15
l14 65q60 -17 111 -17q69 -4 128.5 51t55.5 123q0 60 -49.5 93.5t-144.5 33.5z" />
    <glyph glyph-name="agrave" unicode="&#xe0;" horiz-adv-x="590" 
d="M557 520l-109 -520h-59l4 66q-42 -34 -94 -54t-100 -20q-78 0 -123.5 49.5t-45.5 132.5q0 102 42 191q42 88 119.5 136.5t178.5 48.5q84 0 187 -30zM400 126l73 345q-61 18 -109 18q-104 0 -179 -83q-39 -43 -59 -101.5t-20 -108.5q0 -80 36 -111t85 -31q42 0 90 20
t83 52zM424 617h-56l-57 143h77z" />
    <glyph glyph-name="aacute" unicode="&#xe1;" horiz-adv-x="590" 
d="M557 520l-109 -520h-59l4 66q-42 -34 -94 -54t-100 -20q-78 0 -123.5 49.5t-45.5 132.5q0 102 42 191q42 88 119.5 136.5t178.5 48.5q84 0 187 -30zM400 126l73 345q-61 18 -109 18q-104 0 -179 -83q-39 -43 -59 -101.5t-20 -108.5q0 -80 36 -111t85 -31q42 0 90 20
t83 52zM425 760h83l-118 -143h-61z" />
    <glyph glyph-name="acircumflex" unicode="&#xe2;" horiz-adv-x="590" 
d="M557 520l-109 -520h-59l4 66q-42 -34 -94 -54t-100 -20q-78 0 -123.5 49.5t-45.5 132.5q0 102 42 191q42 88 119.5 136.5t178.5 48.5q84 0 187 -30zM400 126l73 345q-61 18 -109 18q-104 0 -179 -83q-39 -43 -59 -101.5t-20 -108.5q0 -80 36 -111t85 -31q42 0 90 20
t83 52zM469 617l-59 119l-112 -119h-70l141 152h89l76 -152h-65z" />
    <glyph glyph-name="atilde" unicode="&#xe3;" horiz-adv-x="590" 
d="M557 520l-109 -520h-59l4 66q-42 -34 -94 -54t-100 -20q-78 0 -123.5 49.5t-45.5 132.5q0 102 42 191q42 88 119.5 136.5t178.5 48.5q84 0 187 -30zM400 126l73 345q-61 18 -109 18q-104 0 -179 -83q-39 -43 -59 -101.5t-20 -108.5q0 -80 36 -111t85 -31q42 0 90 20
t83 52zM166 617l13 69q59 43 114 43q35 0 82 -24q47 -23 66 -27q17 -4 31 -4q56 0 119 45l-13 -69q-62 -44 -113 -44q-37 0 -83 24q-45 23 -66 28q-17 4 -32 4q-57 0 -118 -45z" />
    <glyph glyph-name="adieresis" unicode="&#xe4;" horiz-adv-x="590" 
d="M557 520l-109 -520h-59l4 66q-42 -34 -94 -54t-100 -20q-78 0 -123.5 49.5t-45.5 132.5q0 102 42 191q42 88 119.5 136.5t178.5 48.5q84 0 187 -30zM400 126l73 345q-61 18 -109 18q-104 0 -179 -83q-39 -43 -59 -101.5t-20 -108.5q0 -80 36 -111t85 -31q42 0 90 20
t83 52zM481 713h68l-20 -96h-68zM259 713h68l-20 -96h-68z" />
    <glyph glyph-name="aring" unicode="&#xe5;" horiz-adv-x="590" 
d="M557 520l-109 -520h-59l4 66q-42 -34 -94 -54t-100 -20q-78 0 -123.5 49.5t-45.5 132.5q0 102 42 191q42 88 119.5 136.5t178.5 48.5q84 0 187 -30zM400 126l73 345q-61 18 -109 18q-104 0 -179 -83q-39 -43 -59 -101.5t-20 -108.5q0 -80 36 -111t85 -31q42 0 90 20
t83 52zM414 756q-30 0 -52 -21.5t-22 -53.5q0 -19 12.5 -30.5t35.5 -11.5q27 -3 51.5 20t23.5 54q0 43 -49 43zM294 673q0 23 12 51q13 30 45.5 50.5t70.5 20.5q41 0 63.5 -20t22.5 -54q5 -39 -32 -80.5t-95 -40.5q-41 0 -64 20t-23 53z" />
    <glyph glyph-name="ae" unicode="&#xe6;" horiz-adv-x="938" 
d="M838 90l-7 -68q-106 -34 -203 -34q-76 -1 -129 29t-68 70q-61 -48 -115.5 -71.5t-117.5 -23.5q-45 0 -84 19q-40 20 -62 63.5t-22 99.5q0 113 47 202q47 87 122.5 130.5t169.5 43.5q88 0 182 -29l-10 -49q78 78 185 78q87 0 135 -38t48 -102q0 -86 -63.5 -130t-183.5 -44
q-67 0 -164 17q-7 -38 -7 -70q0 -133 157 -133q98 0 190 40zM427 257l45 213q-62 18 -109 18q-107 0 -176 -78q-83 -93 -83 -214q0 -69 32 -105.5t90 -36.5q42 0 95.5 23t95.5 58l-1 26q0 47 11 96zM506 299q83 -12 143 -12q187 0 187 117q0 42 -30 66t-87 24
q-68 0 -128 -48.5t-85 -146.5z" />
    <glyph glyph-name="ccedilla" unicode="&#xe7;" horiz-adv-x="526" 
d="M267 50q70 0 168 29l-13 -64q-90 -27 -176 -27q-102 0 -158 51.5t-56 142.5q-2 150 89.5 260.5t241.5 108.5q85 0 166 -28l-14 -64q-87 29 -154 29q-107 0 -179.5 -84.5t-72.5 -206.5q0 -71 40.5 -109t117.5 -38zM97 -209l10 47q46 -8 74 -8q94 0 94 52q0 17 -24 25
t-87 8l4 15l57 70h53l-46 -54q102 0 102 -56q0 -51 -43 -79t-112 -28q-39 0 -82 8z" />
    <glyph glyph-name="egrave" unicode="&#xe8;" horiz-adv-x="556" 
d="M457 91l-8 -68q-111 -35 -202 -35q-103 0 -159.5 48.5t-56.5 143.5q-1 67 19.5 132.5t58.5 119.5t99.5 87t136.5 32q87 0 134.5 -38t47.5 -102q0 -86 -63 -130t-183 -44q-71 0 -164 16q-7 -36 -7 -68q-3 -59 38.5 -98t117.5 -37q97 0 191 41zM125 302q83 -12 143 -12
q187 0 187 115q0 39 -29.5 64.5t-87.5 25.5q-72 0 -130 -47t-83 -146zM396 617h-56l-57 143h77z" />
    <glyph glyph-name="eacute" unicode="&#xe9;" horiz-adv-x="556" 
d="M457 91l-8 -68q-111 -35 -202 -35q-103 0 -159.5 48.5t-56.5 143.5q-1 67 19.5 132.5t58.5 119.5t99.5 87t136.5 32q87 0 134.5 -38t47.5 -102q0 -86 -63 -130t-183 -44q-71 0 -164 16q-7 -36 -7 -68q-3 -59 38.5 -98t117.5 -37q97 0 191 41zM125 302q83 -12 143 -12
q187 0 187 115q0 39 -29.5 64.5t-87.5 25.5q-72 0 -130 -47t-83 -146zM435 760h83l-118 -143h-61z" />
    <glyph glyph-name="ecircumflex" unicode="&#xea;" horiz-adv-x="556" 
d="M457 91l-8 -68q-111 -35 -202 -35q-103 0 -159.5 48.5t-56.5 143.5q-1 67 19.5 132.5t58.5 119.5t99.5 87t136.5 32q87 0 134.5 -38t47.5 -102q0 -86 -63 -130t-183 -44q-71 0 -164 16q-7 -36 -7 -68q-3 -59 38.5 -98t117.5 -37q97 0 191 41zM125 302q83 -12 143 -12
q187 0 187 115q0 39 -29.5 64.5t-87.5 25.5q-72 0 -130 -47t-83 -146zM437 617l-59 119l-112 -119h-70l141 152h89l76 -152h-65z" />
    <glyph glyph-name="edieresis" unicode="&#xeb;" horiz-adv-x="556" 
d="M457 91l-8 -68q-111 -35 -202 -35q-103 0 -159.5 48.5t-56.5 143.5q-1 67 19.5 132.5t58.5 119.5t99.5 87t136.5 32q87 0 134.5 -38t47.5 -102q0 -86 -63 -130t-183 -44q-71 0 -164 16q-7 -36 -7 -68q-3 -59 38.5 -98t117.5 -37q97 0 191 41zM125 302q83 -12 143 -12
q187 0 187 115q0 39 -29.5 64.5t-87.5 25.5q-72 0 -130 -47t-83 -146zM447 713h68l-20 -96h-68zM225 713h68l-20 -96h-68z" />
    <glyph glyph-name="igrave" unicode="&#xec;" horiz-adv-x="255" 
d="M205 617h-56l-57 143h77zM34 108l91 431h75l-90 -422q-15 -65 51 -65h3q3 1 8 1.5l10 1l10 1t8 0.5l-10 -54q-29 -7 -67 -7q-52 0 -76 30.5t-13 82.5z" />
    <glyph glyph-name="iacute" unicode="&#xed;" horiz-adv-x="255" 
d="M242 760h83l-118 -143h-61zM34 108l91 431h75l-90 -422q-15 -65 51 -65h3q3 1 8 1.5l10 1l10 1t8 0.5l-10 -54q-29 -7 -67 -7q-52 0 -76 30.5t-13 82.5z" />
    <glyph glyph-name="icircumflex" unicode="&#xee;" horiz-adv-x="255" 
d="M34 108l91 431h75l-90 -422q-15 -65 51 -65h3q3 1 8 1.5l10 1l10 1t8 0.5l-10 -54q-29 -7 -67 -7q-52 0 -76 30.5t-13 82.5zM259 617l-59 119l-112 -119h-70l141 152h89l76 -152h-65z" />
    <glyph glyph-name="idieresis" unicode="&#xef;" horiz-adv-x="255" 
d="M274 713h68l-20 -96h-68zM52 713h68l-20 -96h-68zM34 108l91 431h75l-90 -422q-15 -65 51 -65h3q3 1 8 1.5l10 1l10 1t8 0.5l-10 -54q-29 -7 -67 -7q-52 0 -76 30.5t-13 82.5z" />
    <glyph glyph-name="eth" unicode="&#xf0;" horiz-adv-x="626" 
d="M336 608l-19 41l66 33q-31 42 -73 81h92q17 -18 43 -50l70 36l19 -40l-62 -31q47 -67 72 -136q34 -96 34 -179q0 -161 -93 -268t-241 -107q-101 0 -157.5 51t-56.5 145q0 147 89 256t232 109q74 0 127 -35q-19 60 -67 132zM350 485q-68 0 -124 -38q-48 -29 -83.5 -99.5
t-34.5 -151.5q0 -69 38 -106t112 -37q105 0 173.5 85t68.5 204q0 69 -38 106t-112 37z" />
    <glyph glyph-name="ntilde" unicode="&#xf1;" horiz-adv-x="611" 
d="M554 394l-84 -394h-73l82 388q21 100 -82 100q-69 0 -221 -73l-87 -415h-74l113 539h62l-6 -68q158 80 248 80q72 0 104 -42t18 -115zM169 617l13 69q59 43 114 43q36 0 82 -24q46 -23 66 -27q17 -4 31 -4q56 0 119 45l-13 -69q-62 -44 -113 -44q-36 0 -83 24
q-45 23 -66 28q-17 4 -32 4q-57 0 -118 -45z" />
    <glyph glyph-name="ograve" unicode="&#xf2;" horiz-adv-x="624" 
d="M350 489q-103 0 -172.5 -90t-69.5 -206q0 -144 148 -144q99 0 171 84.5t72 207.5q0 148 -149 148zM30 183q0 130 68 230q36 53 88.5 86t93.5 42.5t82 9.5q95 0 155 -48t60 -149q0 -154 -91 -260t-242 -106q-103 0 -158.5 50t-55.5 145zM406 617h-56l-57 143h77z" />
    <glyph glyph-name="oacute" unicode="&#xf3;" horiz-adv-x="624" 
d="M350 489q-103 0 -172.5 -90t-69.5 -206q0 -144 148 -144q99 0 171 84.5t72 207.5q0 148 -149 148zM30 183q0 130 68 230q36 53 88.5 86t93.5 42.5t82 9.5q95 0 155 -48t60 -149q0 -154 -91 -260t-242 -106q-103 0 -158.5 50t-55.5 145zM450 760h83l-118 -143h-61z" />
    <glyph glyph-name="ocircumflex" unicode="&#xf4;" horiz-adv-x="624" 
d="M350 489q-103 0 -172.5 -90t-69.5 -206q0 -144 148 -144q99 0 171 84.5t72 207.5q0 148 -149 148zM30 183q0 130 68 230q36 53 88.5 86t93.5 42.5t82 9.5q95 0 155 -48t60 -149q0 -154 -91 -260t-242 -106q-103 0 -158.5 50t-55.5 145zM471 617l-59 119l-112 -119h-70
l141 152h89l76 -152h-65z" />
    <glyph glyph-name="otilde" unicode="&#xf5;" horiz-adv-x="624" 
d="M350 489q-103 0 -172.5 -90t-69.5 -206q0 -144 148 -144q99 0 171 84.5t72 207.5q0 148 -149 148zM30 183q0 130 68 230q36 53 88.5 86t93.5 42.5t82 9.5q95 0 155 -48t60 -149q0 -154 -91 -260t-242 -106q-103 0 -158.5 50t-55.5 145zM181 617l13 69q59 43 114 43
q36 0 82 -24q46 -23 66 -27q17 -4 31 -4q56 0 119 45l-13 -69q-62 -44 -113 -44q-36 0 -83 24q-45 23 -66 28q-17 4 -32 4q-57 0 -118 -45z" />
    <glyph glyph-name="odieresis" unicode="&#xf6;" horiz-adv-x="624" 
d="M350 489q-103 0 -172.5 -90t-69.5 -206q0 -144 148 -144q99 0 171 84.5t72 207.5q0 148 -149 148zM30 183q0 130 68 230q36 53 88.5 86t93.5 42.5t82 9.5q95 0 155 -48t60 -149q0 -154 -91 -260t-242 -106q-103 0 -158.5 50t-55.5 145zM474 713h68l-20 -96h-68zM252 713
h68l-20 -96h-68z" />
    <glyph glyph-name="divide" unicode="&#xf7;" horiz-adv-x="610" 
d="M261 33v101h62v-101h-62zM323 501v-96h-62v96h62zM60 237v64h472v-64h-472z" />
    <glyph glyph-name="oslash" unicode="&#xf8;" horiz-adv-x="625" 
d="M30 183q0 101 42 186q43 87 119 134.5t172 47.5q55 0 100 -18l92 121h74l-114 -150q63 -51 63 -150q0 -92 -36 -173q-30 -77 -110 -135.5t-187 -57.5q-58 0 -106 20l-94 -124h-72l115 152q-58 51 -58 147zM351 489q-103 0 -172.5 -90t-69.5 -206q0 -59 30 -89l282 373
q-28 12 -70 12zM257 49q99 0 171 84.5t72 207.5q0 66 -36 96l-282 -373q27 -15 75 -15z" />
    <glyph glyph-name="ugrave" unicode="&#xf9;" horiz-adv-x="611" 
d="M41 145l84 394h74l-79 -370q-14 -63 5.5 -91t72.5 -28q71 0 221 74l88 415h73l-113 -539h-62l7 67q-58 -35 -129 -57q-67 -22 -120 -22q-70 0 -103.5 43t-18.5 114zM388 617h-56l-57 143h77z" />
    <glyph glyph-name="uacute" unicode="&#xfa;" horiz-adv-x="611" 
d="M41 145l84 394h74l-79 -370q-14 -63 5.5 -91t72.5 -28q71 0 221 74l88 415h73l-113 -539h-62l7 67q-58 -35 -129 -57q-67 -22 -120 -22q-70 0 -103.5 43t-18.5 114zM421 760h83l-118 -143h-61z" />
    <glyph glyph-name="ucircumflex" unicode="&#xfb;" horiz-adv-x="611" 
d="M41 145l84 394h74l-79 -370q-14 -63 5.5 -91t72.5 -28q71 0 221 74l88 415h73l-113 -539h-62l7 67q-58 -35 -129 -57q-67 -22 -120 -22q-70 0 -103.5 43t-18.5 114zM449 617l-59 119l-112 -119h-70l141 152h89l76 -152h-65z" />
    <glyph glyph-name="udieresis" unicode="&#xfc;" horiz-adv-x="611" 
d="M41 145l84 394h74l-79 -370q-14 -63 5.5 -91t72.5 -28q71 0 221 74l88 415h73l-113 -539h-62l7 67q-58 -35 -129 -57q-67 -22 -120 -22q-70 0 -103.5 43t-18.5 114zM462 713h68l-20 -96h-68zM240 713h68l-20 -96h-68z" />
    <glyph glyph-name="yacute" unicode="&#xfd;" horiz-adv-x="515" 
d="M207 73h11l168 313q54 100 54 153h75q0 -62 -51 -155l-212 -388q-50 -96 -63 -127q-20 -52 -20 -74h-76q0 64 87 205h-34l-76 539h78zM374 760h83l-118 -143h-61z" />
    <glyph glyph-name="thorn" unicode="&#xfe;" horiz-adv-x="606" 
d="M89 5l-44 -210h-73l194 925h71l-52 -247q128 77 226 77q72 0 111 -45.5t39 -126.5q0 -137 -62 -240q-41 -69 -108 -109.5t-154 -40.5q-71 0 -148 17zM231 52q77 0 135.5 46t87 115t28.5 147q0 61 -27.5 93.5t-77.5 32.5q-79 0 -200 -71l-75 -348q60 -15 129 -15z" />
    <glyph glyph-name="ydieresis" unicode="&#xff;" horiz-adv-x="515" 
d="M207 73h11l168 313q54 100 54 153h75q0 -62 -51 -155l-212 -388q-50 -96 -63 -127q-20 -52 -20 -74h-76q0 64 87 205h-34l-76 539h78zM404 713h68l-20 -96h-68zM182 713h68l-20 -96h-68z" />
    <glyph glyph-name="dotlessi" unicode="&#x131;" horiz-adv-x="255" 
d="M34 108l91 431h75l-90 -422q-15 -65 51 -65h3q3 1 8 1.5l10 1l10 1t8 0.5l-10 -54q-29 -7 -67 -7q-52 0 -76 30.5t-13 82.5z" />
    <glyph glyph-name="Lslash" unicode="&#x141;" horiz-adv-x="546" 
d="M111 296l-125 -58l13 69l127 59l75 354h76l-67 -317l215 99l-15 -71l-215 -98l-57 -266h351l-15 -67h-426z" />
    <glyph glyph-name="lslash" unicode="&#x142;" horiz-adv-x="335" 
d="M139 396l78 367h75l-70 -328l141 67l-15 -71l-140 -66l-53 -249q-10 -61 51 -61q19 0 40 4l-9 -59q-38 -5 -69 -5q-115 0 -83 145l39 185l-118 -56l14 70z" />
    <glyph glyph-name="OE" unicode="&#x152;" horiz-adv-x="1012" 
d="M596 720h454l-15 -68h-378l-55 -257h333l-14 -67h-332l-55 -260h376l-14 -68h-451q-75 -12 -142 -12q-126 0 -188.5 61.5t-62.5 176.5q0 99 27.5 189.5t78 161.5t129.5 113t175 42q64 0 134 -12zM451 663q-130 2 -225 -117t-94 -302q0 -188 190 -188q60 0 136 15l123 575
q-66 17 -130 17z" />
    <glyph glyph-name="oe" unicode="&#x153;" horiz-adv-x="1009" 
d="M30 183q0 101 42 186q43 87 119 134.5t172 47.5q80 0 131 -32.5t67 -93.5q86 126 236 126q80 0 131 -36t51 -104q0 -86 -63 -130t-183 -44q-71 0 -164 16q-7 -36 -7 -68q0 -64 39 -99.5t118 -35.5q96 0 190 41l-8 -68q-111 -35 -202 -35q-168 0 -200 127
q-43 -63 -117 -96.5t-137 -30.5q-96 0 -155.5 47.5t-59.5 147.5zM351 489q-103 0 -172.5 -90t-69.5 -206q0 -144 148 -144q99 0 171 84.5t72 207.5q0 148 -149 148zM577 302q83 -12 143 -12q187 0 187 115q0 42 -30 66t-87 24q-77 0 -134 -50.5t-79 -142.5z" />
    <glyph glyph-name="Scaron" unicode="&#x160;" horiz-adv-x="564" 
d="M200 56q91 -4 158 48.5t63 128.5q0 40 -29 63t-108 41q-83 20 -107 31q-42 23 -61 47.5t-21 76.5q0 103 76 171t235 68q49 0 164 -11l-15 -71q-113 15 -165 15q-101 0 -158 -41t-57 -113q0 -34 24 -59q23 -23 109 -43q82 -17 115 -32q80 -36 80 -121q0 -120 -84.5 -193.5
t-227.5 -73.5q-93 0 -193 17l15 72q114 -21 187 -21zM352 927l60 -120l110 120h70l-139 -152h-91l-76 152h66z" />
    <glyph glyph-name="scaron" unicode="&#x161;" horiz-adv-x="483" 
d="M168 50q35 -1 71 9t66.5 39.5t28.5 73.5q0 24 -17 40q-11 10 -26 15q-13 6 -86 22q-69 15 -95 33q-24 18 -33 34q-14 27 -14 60q0 83 64.5 129t175.5 46q73 0 156 -18l-13 -65q-65 20 -141 20q-37 1 -71.5 -6t-63.5 -31t-27 -61q0 -28 19 -47t90 -34q67 -13 99 -28
q61 -28 61 -98q0 -89 -66 -142q-67 -53 -178 -53q-18 0 -70 3q-49 3 -105 14l15 65q94 -20 160 -20zM257 769l60 -120l110 120h70l-139 -152h-91l-76 152h66z" />
    <glyph glyph-name="Ydieresis" unicode="&#x178;" horiz-adv-x="590" 
d="M321 261l-56 -261h-76l56 261l-146 459h82l117 -385l275 385h88zM482 871h68l-20 -96h-68zM260 871h68l-20 -96h-68z" />
    <glyph glyph-name="Zcaron" unicode="&#x17d;" horiz-adv-x="627" 
d="M127 720h536l-16 -73l-561 -579h457l-15 -68h-548l15 74l560 578h-443zM364 927l60 -120l110 120h70l-139 -152h-91l-76 152h66z" />
    <glyph glyph-name="zcaron" unicode="&#x17e;" horiz-adv-x="517" 
d="M403 478h-330l13 61h427l-11 -53l-414 -425h348l-13 -61h-445l10 54zM263 767l60 -120l110 120h70l-139 -152h-91l-76 152h66z" />
    <glyph glyph-name="florin" unicode="&#x192;" horiz-adv-x="587" 
d="M332 322l-68 -319q-52 -247 -262 -247q-41 0 -86 8l20 66q35 -8 66 -8q80 0 125 44.5t66 143.5l67 312h-121l13 65h121l27 124q26 128 90.5 189.5t174.5 61.5q43 0 84 -7l-21 -66q-27 7 -66 7q-80 0 -126 -45t-67 -143l-26 -121h168l-13 -65h-166z" />
    <glyph glyph-name="circumflex" unicode="&#x2c6;" horiz-adv-x="680" 
d="M408 617l-59 119l-112 -119h-70l141 152h89l76 -152h-65z" />
    <glyph glyph-name="caron" unicode="&#x2c7;" horiz-adv-x="680" 
d="M268 767l60 -120l110 120h70l-139 -152h-91l-76 152h66z" />
    <glyph glyph-name="breve" unicode="&#x2d8;" horiz-adv-x="638" 
d="M308 612q-107 0 -159 52l23 50q70 -44 148 -44q77 0 167 44l2 -50q-73 -52 -181 -52z" />
    <glyph glyph-name="dotaccent" unicode="&#x2d9;" horiz-adv-x="347" 
d="M151 711h66l-20 -94h-66z" />
    <glyph glyph-name="ring" unicode="&#x2da;" horiz-adv-x="447" 
d="M233 756q-30 0 -52 -21.5t-22 -53.5q0 -19 12.5 -30.5t35.5 -11.5q27 -3 51.5 20t23.5 54q0 43 -49 43zM113 673q0 23 12 51q13 30 45.5 50.5t70.5 20.5q41 0 63.5 -20t22.5 -54q5 -39 -32 -80.5t-95 -40.5q-41 0 -64 20t-23 53z" />
    <glyph glyph-name="ogonek" unicode="&#x2db;" horiz-adv-x="463" 
d="M256 0h62q-47 -28 -82.5 -68t-35.5 -75q0 -25 21 -40.5t56 -15.5q24 0 60 9l-11 -50q-53 -11 -83 -11q-51 -1 -81.5 25.5t-27.5 58.5q0 40 32 89q33 46 90 78z" />
    <glyph glyph-name="tilde" unicode="&#x2dc;" horiz-adv-x="702" 
d="M140 617l13 69q59 43 114 43q35 0 82 -24q47 -23 66 -27q17 -4 31 -4q56 0 119 45l-13 -69q-62 -44 -113 -44q-37 0 -83 24q-45 23 -66 28q-17 4 -32 4q-56 0 -118 -45z" />
    <glyph glyph-name="hungarumlaut" unicode="&#x2dd;" horiz-adv-x="808" 
d="M246 759h83l-125 -142h-63zM435 759h84l-126 -142h-62z" />
    <glyph glyph-name="uni0394" unicode="&#x394;" horiz-adv-x="835" 
d="M511 670l101 -670h-528l381 670h46zM467 567l-284 -503h356z" />
    <glyph glyph-name="uni03A9" unicode="&#x3a9;" horiz-adv-x="761" 
d="M449 628q-116 2 -209.5 -91t-91.5 -214q0 -56 23 -113q41 -96 116 -139l-15 -71h-280l14 70h186q-49 37 -85 102q-35 67 -35 144q-2 151 117.5 268t275.5 115q118 0 189 -67.5t71 -174.5q0 -79 -39 -158q-36 -77 -100 -139q-63 -60 -116 -90h186l-14 -70h-281l14 71
q63 29 129 90q65 60 103.5 135.5t38.5 140.5q0 85 -55 137q-54 54 -142 54z" />
    <glyph glyph-name="uni03BC" unicode="&#x3bc;" horiz-adv-x="614" 
d="M-29 -205l157 744h74l-82 -391q-10 -46 11 -71.5t71 -25.5q77 0 220 73l88 415h73l-112 -539h-61l5 68q-155 -80 -248 -80q-52 0 -77 27l-46 -220h-73z" />
    <glyph glyph-name="pi" unicode="&#x3c0;" horiz-adv-x="725" 
d="M259 476l-101 -476h-74l101 476h-133l13 63h675l-14 -63h-168l-75 -354q-14 -63 56 -63q37 0 88 15l-15 -69q-74 -15 -112 -15q-59 0 -82.5 32t-8.5 105l74 349h-224z" />
    <glyph glyph-name="endash" unicode="&#x2013;" horiz-adv-x="595" 
d="M505 232h-448l15 69h448z" />
    <glyph glyph-name="emdash" unicode="&#x2014;" horiz-adv-x="818" 
d="M729 232h-672l15 69h671z" />
    <glyph glyph-name="quoteleft" unicode="&#x2018;" horiz-adv-x="199" 
d="M188 739h34l-43 -200h-64q0 43 20 100q19 55 53 100z" />
    <glyph glyph-name="quoteright" unicode="&#x2019;" horiz-adv-x="194" 
d="M147 531h-33l42 200h65q0 -41 -21 -100q-20 -56 -53 -100z" />
    <glyph glyph-name="quotesinglbase" unicode="&#x201a;" horiz-adv-x="205" 
d="M19 -96h-34l43 198h64q0 -36 -20 -96q-19 -57 -53 -102z" />
    <glyph glyph-name="quotedblleft" unicode="&#x201c;" horiz-adv-x="329" 
d="M318 739h33l-43 -198h-64q0 24 11 66q22 78 63 132zM189 739h34l-43 -198h-64q0 36 20 96q19 57 53 102z" />
    <glyph glyph-name="quotedblright" unicode="&#x201d;" horiz-adv-x="323" 
d="M148 533h-33l43 198h64q0 -25 -12 -67q-21 -76 -62 -131zM277 533h-34l43 198h64q0 -36 -20 -96q-19 -57 -53 -102z" />
    <glyph glyph-name="quotedblbase" unicode="&#x201e;" horiz-adv-x="333" 
d="M18 -96h-33l43 198h64q0 -25 -12 -67q-21 -76 -62 -131zM147 -96h-34l43 198h64q0 -36 -20 -96q-19 -57 -53 -102z" />
    <glyph glyph-name="dagger" unicode="&#x2020;" horiz-adv-x="451" 
d="M288 433l-84 -399h-73l84 399h-154l15 69h154l42 200h73l-42 -200h154l-14 -69h-155z" />
    <glyph glyph-name="daggerdbl" unicode="&#x2021;" horiz-adv-x="493" 
d="M267 231l-42 -200h-75l43 200h-154l15 71h154l27 129h-154l15 70h154l43 201h75l-43 -201h154l-15 -70h-154l-27 -129h154l-15 -71h-155z" />
    <glyph glyph-name="bullet" unicode="&#x2022;" horiz-adv-x="307" 
d="M204 281h-113l24 110h112z" />
    <glyph glyph-name="ellipsis" unicode="&#x2026;" horiz-adv-x="735" 
d="M28 102h66l-23 -102h-66zM306 102h66l-22 -102h-67zM558 102h66l-22 -102h-67z" />
    <glyph glyph-name="perthousand" unicode="&#x2030;" horiz-adv-x="1071" 
d="M105 0l492 720h62l-493 -720h-61zM82 498q-1 103 53.5 171t124.5 63q53 0 79.5 -28.5t26.5 -80.5q0 -105 -50 -170t-129 -65q-52 0 -78.5 29t-26.5 81zM196 430q51 0 84 49q37 53 37 135q0 75 -66 75q-49 4 -86 -53t-34 -130q0 -76 65 -76zM398 103q0 89 47 161.5
t132 72.5q53 0 79.5 -28.5t26.5 -80.5q0 -105 -50 -170t-129 -65q-52 0 -79 29t-27 81zM513 35q51 0 84 49q37 53 37 135q0 75 -66 75q-46 0 -82 -45q-39 -51 -39 -138q0 -76 66 -76zM728 103q-1 103 53.5 171t124.5 63q53 0 79.5 -28.5t26.5 -80.5q0 -105 -50 -170
t-129 -65q-52 0 -78.5 29t-26.5 81zM842 35q51 0 84 49q37 53 37 135q0 75 -66 75q-49 4 -86 -53t-34 -130q0 -76 65 -76z" />
    <glyph glyph-name="guilsinglleft" unicode="&#x2039;" horiz-adv-x="315" 
d="M239 513h75l-206 -244l100 -243h-70l-100 244z" />
    <glyph glyph-name="guilsinglright" unicode="&#x203a;" horiz-adv-x="313" 
d="M60 26h-75l206 244l-100 243h69l100 -243z" />
    <glyph glyph-name="fraction" unicode="&#x2044;" horiz-adv-x="512" 
d="M-13 -93h-68l622 856h68z" />
    <glyph glyph-name="Euro" unicode="&#x20ac;" horiz-adv-x="712" 
d="M149 232h-41h-76l14 65h106q5 63 21 121h-101l13 65h112q50 114 144.5 181.5t222.5 67.5q84 0 179 -24l-17 -72q-89 28 -161 28q-94 0 -167.5 -47.5t-117.5 -133.5h276l-13 -65h-289q-19 -54 -23 -121h286l-14 -65h-273q6 -85 54.5 -131t137.5 -46q72 0 187 31l-13 -71
q-101 -27 -189 -27q-119 0 -187.5 65t-70.5 179z" />
    <glyph glyph-name="trademark" unicode="&#x2122;" horiz-adv-x="710" 
d="M480 720l36 -220h4l129 220h68l-57 -268h-44l46 214l-129 -215h-52l-36 215l-46 -214h-44l57 268h68zM369 720l-9 -43h-90l-48 -225h-45l48 225h-88l9 43h223z" />
    <glyph glyph-name="minus" unicode="&#x2212;" horiz-adv-x="638" 
d="M547 238h-472v64h472v-64z" />
    <glyph glyph-name="radical" unicode="&#x221a;" horiz-adv-x="652" 
d="M60 497h178l28 -500l6 -37l392 865h85l-463 -1002h-90l-37 603h-114z" />
    <glyph glyph-name="infinity" unicode="&#x221e;" horiz-adv-x="989" 
d="M702 100q-49 0 -100 25q-55 27 -124 106q-167 -131 -279 -131q-71 0 -113 36.5t-42 98.5q0 93 68 156.5t162 63.5q49 0 100 -25q54 -26 124 -105q172 130 279 130q71 0 113.5 -37.5t42.5 -99.5q0 -90 -69.5 -154t-161.5 -64zM762 387q-36 0 -78 -17.5t-69.5 -34.5
t-69.5 -47q-10 -7 -14 -10q41 -42 66 -63q56 -46 118 -46q28 0 59 12t49 30q40 40 40 92q0 38 -27 61t-74 23zM214 168q24 0 71 14q46 13 163 96q-59 55 -79 70q-51 39 -108 39q-43 0 -81 -23q-66 -39 -66 -113q0 -38 26.5 -60.5t73.5 -22.5z" />
    <glyph glyph-name="integral" unicode="&#x222b;" horiz-adv-x="379" 
d="M297 630l-152 -712q-9 -61 -57 -107.5t-113 -43.5q-45 0 -72 7l19 66q25 -7 59 -7q41 -1 64 33t26 59l150 710q15 68 54 107q45 45 116 45q43 0 74 -6l-20 -66q-28 6 -59 6q-70 0 -89 -91z" />
    <glyph glyph-name="approxequal" unicode="&#x2248;" horiz-adv-x="580" 
d="M463 387q11 -20 24 -55q-53 -44 -111 -44q-26 0 -92 29t-98 29q-36 0 -89 -29l-25 54q62 40 109 40q35 0 101 -29q65 -28 93 -28q43 0 88 33zM465 205l24 -55q-55 -45 -112 -45q-29 0 -83 25q-50 24 -75 29q-22 5 -32 5q-42 0 -89 -29l-25 54q62 40 109 40q35 0 101 -29
q67 -29 93 -29q48 0 89 34z" />
    <glyph glyph-name="notequal" unicode="&#x2260;" horiz-adv-x="619" 
d="M315 358h-249v62h283l61 113h58l-61 -113h131v-62h-165l-88 -164h253v-64h-288l-56 -105h-58l56 105h-126v64h161z" />
    <glyph glyph-name="lessequal" unicode="&#x2264;" horiz-adv-x="619" 
d="M524 64v-64h-472v64h472zM524 90l-472 194v84l472 194v-74l-413 -162l413 -162v-74z" />
    <glyph glyph-name="greaterequal" unicode="&#x2265;" horiz-adv-x="647" 
d="M553 64v-64h-472v64h472zM81 562l472 -194v-84l-472 -194v74l413 162l-413 162v74z" />
    <glyph glyph-name="lozenge" unicode="&#x25ca;" horiz-adv-x="525" 
d="M224 92l201 246l-113 241l-198 -245zM37 336l262 333h40l162 -336l-262 -333h-40z" />
    <glyph glyph-name="NULL" horiz-adv-x="0" 
 />
    </font>
</defs>
</svg>
