<?xml version="1.0" standalone="no"?>
<!DOCTYPE svg PUBLIC "-//W3C//DTD SVG 1.1//EN" "http://www.w3.org/Graphics/SVG/1.1/DTD/svg11.dtd" >
<svg xmlns="http://www.w3.org/2000/svg" xmlns:xlink="http://www.w3.org/1999/xlink" version="1.1">
<metadata>
Created by FontForge 20170731 at Sun Mar 24 20:14:52 2019
 By Aleksey,,,
Copyright (c) 2013 by PSTL. All rights reserved. |DCNT
</metadata>
<defs>
<font id="Quatro-UltraBlack" horiz-adv-x="656" >
  <font-face 
    font-family="Quatro UltraBlack"
    font-weight="950"
    font-stretch="normal"
    units-per-em="1000"
    panose-1="2 11 5 3 0 0 0 2 0 4"
    ascent="742"
    descent="-258"
    x-height="558"
    cap-height="720"
    bbox="-74 -262 1145 994"
    underline-thickness="50"
    underline-position="-275"
    unicode-range="U+000D-FB04"
  />
<missing-glyph horiz-adv-x="570" 
d="M490 670v-670h-410v670h410zM149 69h272v532h-272v-532z" />
    <glyph glyph-name="f_f" unicode="ff" horiz-adv-x="860" 
d="M861 765v-163q-49 6 -74 6q-40 -1 -50 -7t-12 -31l1 -12h123v-177h-116v-381h-247v381h-154v-381h-247v381h-67v162l67 12v50q2 41 10 67.5t29.5 52t66 38t112.5 12.5q56 0 122 -6v-163l-39 2q-40 -1 -50 -7t-12 -31l1 -12h161v47q2 41 10 67.5t29.5 52t66 38t112.5 12.5
q64 0 157 -10z" />
    <glyph glyph-name="fi" unicode="fi" horiz-adv-x="766" 
d="M477 558h250v-558h-250v558zM729 600h-252v163h252v-163zM448 766v-163q-50 5 -62 5q-40 -1 -50 -7t-12 -31l1 -12h123v-177h-116v-381h-247v381h-67v162l67 12v50q2 41 10 67.5t29.5 52t66 38t112.5 12.5q51 0 145 -9z" />
    <glyph glyph-name="fl" unicode="fl" horiz-adv-x="785" 
d="M460 765v-163q-50 6 -74 6q-40 -1 -50 -7t-12 -31l1 -12h123v-177h-116v-381h-247v381h-67v162l67 12v50q2 41 10 67.5t29.5 52t66 38t112.5 12.5q64 0 157 -10zM744 763v-763h-250v763h250z" />
    <glyph glyph-name="f_f_i" unicode="ffi" horiz-adv-x="1167" 
d="M849 766v-163q-50 5 -62 5q-40 -1 -50 -7t-12 -31l1 -12h123v-177h-116v-381h-247v381h-154v-381h-247v381h-67v162l67 12v50q2 41 10 67.5t29.5 52t66 38t112.5 12.5q56 0 122 -6v-163l-39 2q-40 -1 -50 -7t-12 -31l1 -12h161v47q2 41 10 67.5t29.5 52t66 38t112.5 12.5
q50 0 145 -9zM878 558h250v-558h-250v558zM1130 600h-252v163h252v-163z" />
    <glyph glyph-name="f_f_l" unicode="ffl" horiz-adv-x="1186" 
d="M861 765v-163q-49 6 -74 6q-40 -1 -50 -7t-12 -31l1 -12h123v-177h-116v-381h-247v381h-154v-381h-247v381h-67v162l67 12v50q2 41 10 67.5t29.5 52t66 38t112.5 12.5q56 0 122 -6v-163l-39 2q-40 -1 -50 -7t-12 -31l1 -12h161v47q2 41 10 67.5t29.5 52t66 38t112.5 12.5
q64 0 157 -10zM1145 763v-763h-250v763h250z" />
    <glyph glyph-name="f_j" unicode="fj" horiz-adv-x="766" 
d="M727 600h-250v163h250v-163zM460 765v-163q-50 6 -74 6q-40 -1 -50 -7t-12 -31l1 -12h123v-177h-116v-381h-247v381h-67v162l67 12v50q2 41 10 67.5t29.5 52t66 38t112.5 12.5q64 0 157 -10zM477 558h250v-494q0 -94 -62 -171q-65 -82 -202 -133l-89 144q59 31 81 65.5
t22 109.5v479z" />
    <glyph glyph-name="f_t" unicode="ft" horiz-adv-x="871" 
d="M856 382h-143v-152q0 -53 62 -53q19 0 59 8v-178q-27 -6 -85 -12q-52 -7 -110 -7q-175 0 -175 193v201h-132v-382h-247v381h-67v162l67 12v50q2 41 10 67.5t29.5 52t66 38t112.5 12.5q64 0 157 -10v-163q-50 6 -74 6q-40 -1 -50 -7t-12 -31l1 -12h169l109 125h111v-125
h142v-176z" />
    <glyph glyph-name=".notdef" horiz-adv-x="570" 
d="M490 670v-670h-410v670h410zM149 69h272v532h-272v-532z" />
    <glyph glyph-name=".null" horiz-adv-x="0" 
 />
    <glyph glyph-name="nonmarkingreturn" horiz-adv-x="333" 
 />
    <glyph glyph-name="NULL" horiz-adv-x="0" 
 />
    <glyph glyph-name="NULL" horiz-adv-x="0" 
 />
    <glyph glyph-name="CR" unicode="&#xd;" horiz-adv-x="230" 
 />
    <glyph glyph-name="space" unicode=" " horiz-adv-x="177" 
 />
    <glyph glyph-name="exclam" unicode="!" horiz-adv-x="349" 
d="M52 721h245v-498h-245v498zM307 0h-265v168h265v-168z" />
    <glyph glyph-name="quotedbl" unicode="&#x22;" horiz-adv-x="426" 
d="M197 407h-164v263h164v-263zM393 407h-164v263h164v-263z" />
    <glyph glyph-name="numbersign" unicode="#" horiz-adv-x="766" 
d="M302 -66h-230l32 163h-79l36 170h67l10 50h-67l29 173h62l32 180h230l-36 -180h48l34 180h233l-34 -180h67l-29 -173h-62l-8 -50h64l-27 -170h-62l-28 -163h-234l29 163h-49zM404 267l9 50h-50l-10 -50h51z" />
    <glyph glyph-name="dollar" unicode="$" horiz-adv-x="582" 
d="M30 464q0 161 146 206v62h214v-45q39 -1 124 -10v-194q-28 6 -89 11q-57 5 -87 5q-44 0 -61.5 -5t-17.5 -18q0 -10 12 -16q15 -7 72 -11q55 -4 95 -16q118 -33 118 -164q0 -188 -166 -227v-42h-214v35q-70 6 -129 20v193q31 -8 103 -19q71 -9 109 -9q39 0 52.5 4t13.5 18
q0 11 -18 17q-14 4 -77 11q-67 8 -101 24q-56 29 -80 75q-19 37 -19 95z" />
    <glyph glyph-name="percent" unicode="%" horiz-adv-x="736" 
d="M637 773l62 -242l-199 -185l-67 232zM206 418q-79 0 -124 41t-45 115q0 26 8 51.5t26 50.5t53 40.5t82 15.5q73 3 125 -45t48 -113q0 -74 -46 -115t-127 -41zM206 526q13 0 19 9.5t6 38.5q0 48 -25 48q-12 0 -18 -10t-6 -38q0 -26 5 -37t19 -11zM23 161l206 194l74 -208
l-211 -199zM531 -12q-79 0 -124 41t-45 115q0 26 8 51.5t26 50.5t53 40.5t82 15.5q73 3 125 -45t48 -113q0 -74 -46 -115t-127 -41zM531 96q13 0 19 9.5t6 38.5q0 48 -25 48q-12 0 -18 -10t-6 -38q0 -26 5 -37t19 -11z" />
    <glyph glyph-name="ampersand" unicode="&#x26;" horiz-adv-x="771" 
d="M446 556q-129 0 -129 -59q0 -43 65 -43h364v-166h-96l83 -288h-236l-18 61q-109 -73 -221 -73q-53 0 -107 23q-53 24 -83 71.5t-30 105.5q0 55 28 103t77 75q-74 59 -74 154q0 212 344 212q78 0 194 -22v-178q-83 24 -161 24zM439 201l-26 94h-39q-74 0 -74 -61
q0 -27 17.5 -44t42.5 -17q39 0 79 28z" />
    <glyph glyph-name="quotesingle" unicode="'" horiz-adv-x="230" 
d="M197 407h-164v263h164v-263z" />
    <glyph glyph-name="parenleft" unicode="(" horiz-adv-x="393" 
d="M164 763h229q-49 -79 -84 -169q-64 -165 -64 -315q0 -62 14 -144q33 -176 134 -340h-229q-141 212 -139 484q-3 122 33.5 255t105.5 229z" />
    <glyph glyph-name="parenright" unicode=")" horiz-adv-x="393" 
d="M229 -205h-229q50 81 83 169q65 164 65 315q0 65 -15 144q-13 77 -50 171q-33 88 -83 169h229q141 -212 139 -484q3 -122 -33.5 -255t-105.5 -229z" />
    <glyph glyph-name="asterisk" unicode="*" horiz-adv-x="402" 
d="M372 433l-118 -85l-53 77l-49 -79l-122 89l61 74l-93 28l43 132l88 -32l-4 97h148l-4 -98l92 34l43 -131l-96 -28z" />
    <glyph glyph-name="plus" unicode="+" horiz-adv-x="526" 
d="M499 370v-178h-137v-146h-197v146h-137v178h137v145h197v-145h137z" />
    <glyph glyph-name="comma" unicode="," horiz-adv-x="283" 
d="M35 -76v82v187h211q8 -30 8 -84q3 -51 -30.5 -130t-83.5 -141h-107z" />
    <glyph glyph-name="hyphen" unicode="-" horiz-adv-x="412" 
d="M377 173h-342v185h342v-185z" />
    <glyph glyph-name="period" unicode="." horiz-adv-x="287" 
d="M252 0h-217v194h217v-194z" />
    <glyph glyph-name="slash" unicode="/" horiz-adv-x="424" 
d="M459 763l-255 -968h-219l258 968h216z" />
    <glyph glyph-name="zero" unicode="0" horiz-adv-x="720" 
d="M21 360q0 173 84.5 272.5t254.5 99.5t254.5 -99.5t84.5 -272.5t-84.5 -272.5t-254.5 -99.5t-254.5 99.5t-84.5 272.5zM284 360q0 -85 16 -117t60 -32t60 32t16 117q0 84 -16 116t-60 32t-60 -32t-16 -116z" />
    <glyph glyph-name="one" unicode="1" horiz-adv-x="417" 
d="M365 720v-720h-256v497h-93v157l143 66h206z" />
    <glyph glyph-name="two" unicode="2" horiz-adv-x="580" 
d="M553 0h-533v220q239 116 239 216q0 65 -102 65q-59 0 -117 -15v229q102 17 213 17q131 0 207.5 -57t76.5 -184q4 -66 -53 -141.5t-161 -126.5h230v-223z" />
    <glyph glyph-name="three" unicode="3" horiz-adv-x="545" 
d="M25 496v204q129 31 226 31q116 0 186.5 -54.5t70.5 -147.5q0 -98 -86 -155q41 -12 72 -56.5t29 -95.5q0 -107 -87 -169.5t-230 -62.5q-107 0 -186 13v194q91 -11 159 -11q41 0 59.5 12.5t18.5 40.5q0 41 -71 41h-76v156h88q31 0 44.5 10.5t13.5 36.5q0 44 -73 44
q-39 0 -89 -12q-44 -9 -69 -19z" />
    <glyph glyph-name="four" unicode="4" horiz-adv-x="670" 
d="M328 367l47 137h199v-173h91v-194h-91v-137h-246v137h-316v222l127 361h250l-128 -389h67v36z" />
    <glyph glyph-name="five" unicode="5" horiz-adv-x="566" 
d="M195 319h-146v401h473v-206h-231v-47q124 0 188 -61t64 -162q0 -127 -87 -191.5t-224 -64.5q-82 0 -186 18v211q77 -13 139 -13q40 0 64 18.5t24 44.5t-17 39t-61 13z" />
    <glyph glyph-name="six" unicode="6" horiz-adv-x="663" 
d="M595 715v-218l-100 11q-28 4 -64 4q-80 0 -115 -17t-35 -54l1 -17q56 9 87 12t64 3q100 0 158.5 -56t58.5 -154q0 -120 -81 -180.5t-224 -60.5q-73 0 -128.5 17.5t-100.5 57.5t-69 114.5t-24 181.5q0 111 37 193q33 78 120.5 129t223.5 50q92 0 191 -16zM387 232
q0 11 -8 22t-49 11q-15 0 -39 -4q0 -32 14.5 -51.5t34.5 -19.5q47 0 47 42z" />
    <glyph glyph-name="seven" unicode="7" horiz-adv-x="537" 
d="M1 720h534v-178q-104 -168 -143 -281q-38 -113 -48 -261h-256q9 267 160 514h-247v206z" />
    <glyph glyph-name="eight" unicode="8" horiz-adv-x="663" 
d="M297 277q-19 -18 -19 -44q0 -44 55 -44t55 44q0 10 -14 19q-13 9 -77 25zM332 -12q-152 0 -232 54t-80 156q0 119 105 171q-44 33 -62.5 69.5t-18.5 92.5q0 80 75 140.5t213 60.5q135 0 211.5 -60.5t76.5 -140.5q0 -106 -81 -162q105 -50 105 -158q0 -105 -81.5 -164
t-230.5 -59zM332 535q-23 0 -39 -11.5t-16 -29.5q0 -19 13 -29q15 -12 68 -25l15 18q14 17 14 36q0 17 -16.5 29t-38.5 12z" />
    <glyph glyph-name="nine" unicode="9" horiz-adv-x="661" 
d="M67 3v218q67 -7 100 -12q31 -3 64 -3q80 0 115 17t35 54l-1 17q-56 -9 -87 -12q-32 -3 -64 -3q-100 0 -158.5 56t-58.5 154q0 105 84 173.5t233 68.5q153 0 231.5 -95.5t78.5 -276.5q0 -111 -37 -193q-33 -78 -120.5 -129t-223.5 -50q-92 0 -191 16zM275 486
q0 -33 35 -33q32 0 61 3q0 32 -14.5 52t-34.5 20q-47 0 -47 -42z" />
    <glyph glyph-name="colon" unicode=":" horiz-adv-x="373" 
d="M295 287h-217v194h217v-194zM295 0h-217v194h217v-194z" />
    <glyph glyph-name="semicolon" unicode=";" horiz-adv-x="313" 
d="M271 287h-217v194h217v-194zM54 -76v82v187h211q8 -30 8 -84q3 -51 -30.5 -130t-83.5 -141h-107z" />
    <glyph glyph-name="less" unicode="&#x3c;" horiz-adv-x="502" 
d="M329 289l-90 -10v-14l90 -10l130 -33v-216l-440 149v234l440 149v-216z" />
    <glyph glyph-name="equal" unicode="=" horiz-adv-x="543" 
d="M507 482v-182h-471v182h471zM507 258v-183h-471v183h471z" />
    <glyph glyph-name="greater" unicode="&#x3e;" horiz-adv-x="502" 
d="M173 255l90 10v14l-90 10l-130 33v216l440 -149v-234l-440 -149v216z" />
    <glyph glyph-name="question" unicode="?" horiz-adv-x="486" 
d="M344 222h-247q-3 21 -3 40q0 101 84 185q42 43 48 54q7 11 7 20q0 43 -80 43q-63 0 -153 -24v216q140 19 236 19q110 0 182 -54t72 -144q0 -43 -15 -79q-13 -36 -54 -78q-39 -39 -51 -56q-30 -44 -30 -97q0 -26 4 -45zM348 0h-251v163h251v-163z" />
    <glyph glyph-name="at" unicode="@" horiz-adv-x="887" 
d="M418 261q0 -16 7 -21.5t25 -5.5l15 99q-6 2 -11 2q-16 0 -26 -22.5t-10 -51.5zM662 393l-28 -186l42 -6l32 206q-37 36 -109.5 65.5t-140.5 28.5q-110 0 -188.5 -68.5t-78.5 -182.5q-2 -100 62 -162.5t192 -61.5q67 0 137 16l28 -161q-83 -28 -203 -28q-82 0 -160 29
q-75 28 -122 72q-65 63 -91 127t-30 169q0 110 54 207q54 98 161 158t245 60q183 0 301 -94.5t118 -233.5q3 -69 -26.5 -131.5t-94 -103.5t-150.5 -41q-98 0 -119 65l-10 2q-36 -49 -106 -49q-19 -1 -42.5 6.5t-47 24t-38.5 47.5t-14 72q0 90 57 157t167 67q108 0 203 -70z
" />
    <glyph glyph-name="A" unicode="A" horiz-adv-x="758" 
d="M283 108l-26 -108h-267l220 721h337l221 -721h-266l-28 108h-191zM335 318h88l-32 127l-7 52h-10l-7 -52z" />
    <glyph glyph-name="B" unicode="B" horiz-adv-x="692" 
d="M48 720h347q118 0 188 -59t70 -143q0 -97 -59 -149v-5q83 -50 83 -146q0 -102 -71 -160t-211 -58h-347v720zM343 514h-39v-88h39q31 0 43.5 11t12.5 33t-12.5 33t-43.5 11zM343 294h-39v-88h39q31 0 43.5 11t12.5 33t-12.5 33t-43.5 11z" />
    <glyph glyph-name="C" unicode="C" horiz-adv-x="623" 
d="M591 710v-223q-99 21 -162 21q-152 0 -152 -141q0 -73 33 -115q36 -41 107 -41q77 0 175 32v-221q-79 -34 -215 -34q-188 0 -275 93.5t-87 280.5q0 170 98.5 270t261.5 100q124 0 216 -22z" />
    <glyph glyph-name="D" unicode="D" horiz-adv-x="725" 
d="M709 360q0 -175 -91 -267.5t-245 -92.5h-325v720h325q154 0 245 -92.5t91 -267.5zM343 497h-39v-274h39q56 0 81 25t25 112q0 86 -25 111q-26 26 -81 26z" />
    <glyph glyph-name="E" unicode="E" horiz-adv-x="634" 
d="M601 0h-553v720h559v-223h-303v-48h214v-178h-214v-48h297v-223z" />
    <glyph glyph-name="F" unicode="F" horiz-adv-x="609" 
d="M304 0h-256v720h550v-223h-294v-85h246v-213h-246v-199z" />
    <glyph glyph-name="G" unicode="G" horiz-adv-x="717" 
d="M449 408h238v-365q-159 -55 -317 -55q-168 0 -255 80q-101 93 -101 298q0 163 107.5 264.5t306.5 101.5q149 0 241 -25v-230q-43 10 -109 21q-59 10 -95 10q-70 0 -106 -10q-85 -21 -85 -139q2 -39 5.5 -59.5t16 -44t39.5 -34t71 -10.5q20 0 43 3v194z" />
    <glyph glyph-name="H" unicode="H" horiz-adv-x="790" 
d="M48 0v720h256v-255h181v255h257v-720h-257v242h-181v-242h-256z" />
    <glyph glyph-name="I" unicode="I" horiz-adv-x="352" 
d="M304 720v-720h-256v720h256z" />
    <glyph glyph-name="J" unicode="J" horiz-adv-x="355" 
d="M308 720v-586q0 -191 -200 -354l-149 162q93 85 93 170v608h256z" />
    <glyph glyph-name="K" unicode="K" horiz-adv-x="737" 
d="M304 251v-251h-256v720h256v-259h26q99 46 99 259h264q0 -137 -32.5 -227.5t-103.5 -150.5l27 -45q27 -43 51 -58t80 -13v-228q-59 -7 -98 -7q-105 2 -165 57.5t-124 202.5h-24z" />
    <glyph glyph-name="L" unicode="L" horiz-adv-x="592" 
d="M582 223v-223h-534v720h256v-497h278z" />
    <glyph glyph-name="M" unicode="M" horiz-adv-x="997" 
d="M698 339h-13l-65 -340h-252l-57 340h-12v-339h-251v720h337l111 -403h10l107 403h336v-720h-251v339z" />
    <glyph glyph-name="N" unicode="N" horiz-adv-x="781" 
d="M733 0h-246l-180 291l-6 -3l3 -86v-202h-256v720h254l173 -299l6 3l-4 78v218h256v-720z" />
    <glyph glyph-name="O" unicode="O" horiz-adv-x="752" 
d="M15 360q0 181 93.5 276.5t267.5 95.5t267.5 -95.5t93.5 -276.5t-93.5 -276.5t-267.5 -95.5t-267.5 95.5t-93.5 276.5zM275 360q0 -79 21.5 -113.5t79.5 -34.5t79.5 34.5t21.5 113.5t-21.5 113.5t-79.5 34.5t-79.5 -34.5t-21.5 -113.5z" />
    <glyph glyph-name="P" unicode="P" horiz-adv-x="665" 
d="M48 0v720h354q117 0 190.5 -78.5t73.5 -198.5q0 -118 -72.5 -197.5t-183.5 -79.5h-106v-166h-256zM347 502h-43v-118h43q59 0 59 59t-59 59z" />
    <glyph glyph-name="Q" unicode="Q" horiz-adv-x="752" 
d="M15 360q0 181 93.5 276.5t267.5 95.5t267.5 -95.5t93.5 -276.5q0 -226 -141 -316l144 -156h-283l-96 100q-168 5 -257 100t-89 272zM275 360q0 -79 21.5 -113.5t79.5 -34.5t79.5 34.5t21.5 113.5t-21.5 113.5t-79.5 34.5t-79.5 -34.5t-21.5 -113.5z" />
    <glyph glyph-name="R" unicode="R" horiz-adv-x="714" 
d="M682 444q2 -45 -24 -100.5t-62 -83.5l109 -260h-275l-72 201h-54v-201h-256v720h348q139 0 212.5 -74.5t73.5 -201.5zM357 504h-53v-120h53q33 0 49.5 13t16.5 47t-16.5 47t-49.5 13z" />
    <glyph glyph-name="S" unicode="S" horiz-adv-x="629" 
d="M20 477q0 129 82.5 192t254.5 63q78 0 210 -14v-219q-55 9 -101 13q-63 5 -98 5q-51 0 -70 -5.5t-19 -20.5q0 -17 28 -23q25 -4 67 -8q49 -4 73 -9q167 -30 167 -194q0 -269 -313 -269q-52 0 -130 8t-132 19v218q39 -11 117 -21q76 -10 124 -10q43 0 57.5 5t14.5 20
q0 9 -12 15q-10 6 -79 14q-71 8 -98 17q-56 19 -91 52q-52 48 -52 152z" />
    <glyph glyph-name="T" unicode="T" horiz-adv-x="651" 
d="M646 720v-224h-193v-496h-256v497h-193v223h642z" />
    <glyph glyph-name="U" unicode="U" horiz-adv-x="750" 
d="M708 720v-421q0 -155 -89.5 -233t-243.5 -78t-243.5 78t-89.5 233v421h256v-422q0 -48 17.5 -67.5t59.5 -19.5t59.5 19.5t17.5 67.5v422h256z" />
    <glyph glyph-name="V" unicode="V" horiz-adv-x="767" 
d="M384 227l7 52l106 441h275l-224 -720h-337l-226 720h274l108 -441l7 -52h10z" />
    <glyph glyph-name="W" unicode="W" horiz-adv-x="1085" 
d="M756 273h6l57 447h256l-136 -720h-332l-55 303h-14l-49 -303h-343l-136 720h272l69 -447h6l65 447h260z" />
    <glyph glyph-name="X" unicode="X" horiz-adv-x="776" 
d="M486 720h292l-184 -354l203 -366h-297l-112 193h-14l-94 -193h-285l187 363l-198 357h299l100 -194h14z" />
    <glyph glyph-name="Y" unicode="Y" horiz-adv-x="720" 
d="M736 720l-249 -497v-223h-254v223l-249 497h277l95 -241h9l94 241h277z" />
    <glyph glyph-name="Z" unicode="Z" horiz-adv-x="670" 
d="M24 720h607v-196l-249 -301h265v-223h-611v193l250 304h-262v223z" />
    <glyph glyph-name="bracketleft" unicode="[" horiz-adv-x="350" 
d="M42 -205v968h275v-178h-59v-611h59v-179h-275z" />
    <glyph glyph-name="backslash" unicode="\" horiz-adv-x="423" 
d="M184 763l258 -968h-219l-255 968h216z" />
    <glyph glyph-name="bracketright" unicode="]" horiz-adv-x="350" 
d="M308 763v-968h-275v178h59v611h-59v179h275z" />
    <glyph glyph-name="asciicircum" unicode="^" horiz-adv-x="628" 
d="M314 467l-42 -114h-222l154 317h215l159 -317h-217l-43 114h-4z" />
    <glyph glyph-name="underscore" unicode="_" horiz-adv-x="540" 
d="M508 -7h-476v154h476v-154z" />
    <glyph glyph-name="grave" unicode="`" horiz-adv-x="500" 
d="M376 615h-185l-120 174h251z" />
    <glyph glyph-name="a" unicode="a" horiz-adv-x="605" 
d="M223 332h98v9q0 45 -85 45q-31 0 -89 -8q-53 -7 -88 -18v186q40 8 121 17q63 7 121 7q127 0 197.5 -56.5t70.5 -162.5v-351h-217l-12 45h-5q-78 -54 -145 -54q-82 0 -129 46t-47 131q0 78 52 121t157 43zM321 167v50h-27q-14 0 -22.5 -8.5t-8.5 -21.5t8 -20.5t20 -7.5
q14 0 30 8z" />
    <glyph glyph-name="b" unicode="b" horiz-adv-x="643" 
d="M374 285q0 55 -8.5 74t-35.5 19q-21 0 -41 -11v-188l21 -2q38 0 51 22.5t13 85.5zM39 24v739h250v-216q69 23 124 23q102 0 158.5 -71t56.5 -201q0 -157 -86 -233.5t-235 -76.5q-121 0 -268 36z" />
    <glyph glyph-name="c" unicode="c" horiz-adv-x="519" 
d="M15 279q0 137 70 211q78 80 227 80q97 0 178 -23v-181q-75 20 -134 20q-48 0 -67.5 -25t-19.5 -82q0 -54 18 -80.5t69 -26.5q59 0 134 20v-181q-81 -23 -178 -23q-149 0 -227 80q-70 74 -70 211z" />
    <glyph glyph-name="d" unicode="d" horiz-adv-x="651" 
d="M360 560v203h250v-763h-207l-12 31q-73 -43 -163 -43q-100 0 -153.5 72.5t-53.5 214.5q0 130 62.5 212.5t200.5 82.5q37 0 76 -10zM322 169q21 0 38 13v207q-11 3 -25 3q-3 0 -14 -1t-13 -2t-10 -4t-9.5 -7.5t-6 -13t-5.5 -20.5t-2 -29t0 -40q0 -57 11.5 -81.5
t35.5 -24.5z" />
    <glyph glyph-name="e" unicode="e" horiz-adv-x="599" 
d="M570 196v-173q-148 -35 -248 -35q-151 0 -229 73t-78 216q0 147 79.5 220t221.5 73q129 0 195 -62.5t66 -195.5v-78h-299q3 -61 112 -61q36 0 85 7q57 8 95 16zM275 364h79q2 22 -7.5 35t-27.5 13t-31 -13.5t-13 -34.5z" />
    <glyph glyph-name="f" unicode="f" horiz-adv-x="459" 
d="M460 765v-163q-50 6 -74 6q-38 0 -49.5 -6.5t-11.5 -31.5l1 -12h122v-177h-114v-381h-250v381h-66v162l66 12v50q0 90 51 130t168 40q64 0 157 -10z" />
    <glyph glyph-name="g" unicode="g" horiz-adv-x="654" 
d="M122 20v7q-49 23 -49 78q0 62 53 97q-53 19 -82 61.5t-29 100.5q0 92 72 149t204 57q27 0 85 -6q60 -6 88 -6q103 0 178 12l6 -155q-37 0 -82 3q6 -27 6 -64q0 -78 -68 -129t-205 -51v-34h163q163 0 163 -139q0 -97 -80 -154q-90 -64 -280 -64q-252 0 -252 123
q0 57 26 83.5t83 30.5zM378 -42q0 20 -51 20h-55q-13 0 -13 -16q0 -42 50 -42q69 0 69 38zM294 313q16 0 22.5 9.5t6.5 40.5q0 27 -6 38.5t-23 11.5q-16 0 -23 -10t-7 -41q0 -28 6 -38.5t24 -10.5z" />
    <glyph glyph-name="h" unicode="h" 
d="M291 367v-367h-250v763h250v-237q64 44 154 44q83 0 127 -44t44 -131v-395h-250v354q0 32 -28 32q-20 0 -47 -19z" />
    <glyph glyph-name="i" unicode="i" horiz-adv-x="332" 
d="M41 558h250v-558h-250v558zM294 600h-256v163h256v-163z" />
    <glyph glyph-name="j" unicode="j" horiz-adv-x="332" 
d="M41 558h250v-494q0 -94 -62 -171q-65 -82 -202 -133l-89 144q59 31 81 65.5t22 109.5v479zM294 600h-256v163h256v-163z" />
    <glyph glyph-name="k" unicode="k" horiz-adv-x="668" 
d="M291 198v-198h-250v763h250v-386h19q21 8 38.5 57.5t16.5 123.5h255q4 -172 -107 -264q21 -50 48 -66q28 -16 86 -16v-216q-82 -8 -94 -8q-197 0 -243 210h-19z" />
    <glyph glyph-name="l" unicode="l" horiz-adv-x="332" 
d="M291 763v-763h-250v763h250z" />
    <glyph glyph-name="m" unicode="m" horiz-adv-x="961" 
d="M606 367v-367h-250v354q0 32 -28 32q-15 0 -37 -19v-367h-250v558h243v-33q77 45 160 45q98 0 138 -59l17 13q60 46 151 46q83 0 127 -44t44 -131v-395h-250v354q0 32 -28 32q-18 0 -37 -19z" />
    <glyph glyph-name="n" unicode="n" 
d="M291 367v-367h-250v558h232v-41h5q71 53 167 53q83 0 127 -44t44 -131v-395h-250v354q0 32 -28 32q-20 0 -47 -19z" />
    <glyph glyph-name="o" unicode="o" horiz-adv-x="631" 
d="M14 279q0 140 78.5 215.5t222.5 75.5t223 -76.5t79 -214.5t-79 -214.5t-223 -76.5t-222.5 75.5t-78.5 215.5zM269 279q0 -65 9.5 -89.5t37.5 -24.5q22 0 34 18q13 17 13 96q0 65 -9.5 89.5t-37.5 24.5q-22 0 -35 -18q-12 -18 -12 -96z" />
    <glyph glyph-name="p" unicode="p" horiz-adv-x="654" 
d="M291 -2v-203h-250v763h240v-41h3q74 53 160 53q186 0 186 -276q0 -155 -61.5 -230.5t-201.5 -75.5q-29 0 -76 10zM336 389q-26 0 -45 -13v-207q11 -3 25 -3q3 0 12.5 1t11.5 1.5t9.5 2.5t9 5t6.5 9t5.5 14t3 20t2.5 28v36q0 61 -8.5 83.5t-31.5 22.5z" />
    <glyph glyph-name="q" unicode="q" horiz-adv-x="643" 
d="M269 273q0 -55 8.5 -74t35.5 -19q21 0 41 11v188l-21 2q-38 0 -51 -22.5t-13 -85.5zM604 534v-739h-250v216q-69 -23 -124 -23q-102 0 -158.5 71t-56.5 201q0 157 86 233.5t235 76.5q138 0 268 -36z" />
    <glyph glyph-name="r" unicode="r" horiz-adv-x="462" 
d="M448 560v-234l-157 -34v-292h-250v558h234v-79h7q20 31 71.5 56.5t94.5 24.5z" />
    <glyph glyph-name="s" unicode="s" horiz-adv-x="526" 
d="M287 570q34 0 94 -5q55 -4 94 -12l-8 -178q-24 5 -75 10q-52 5 -76 5q-46 0 -46 -17q0 -7 7 -11q9 -6 58 -10q47 -4 73 -13q44 -16 68 -41q36 -38 36 -112q0 -198 -278 -198q-50 0 -105 4q-65 3 -99 10l7 178q37 -7 89 -11q65 -5 95 -5q20 0 29 4t9 18q0 12 -44 17
q-65 7 -95 16q-23 9 -36.5 16.5t-30 22.5t-25 41t-9.5 62q0 209 268 209z" />
    <glyph glyph-name="t" unicode="t" horiz-adv-x="479" 
d="M464 381h-143v-151q0 -53 62 -53q19 0 59 8v-178q-27 -6 -85 -12q-52 -7 -110 -7q-176 0 -176 193v200h-54v146l194 156h111v-125h142v-177z" />
    <glyph glyph-name="u" unicode="u" 
d="M365 191v367h250v-558h-213l-19 41h-5q-71 -53 -167 -53q-83 0 -127 44t-44 131v395h250v-354q0 -32 28 -32q20 0 47 19z" />
    <glyph glyph-name="v" unicode="v" 
d="M-6 558h266l55 -245l8 -90h14l7 90l56 245h262l-168 -559h-335z" />
    <glyph glyph-name="w" unicode="w" horiz-adv-x="977" 
d="M38 558h250v-354q0 -32 35 -32q10 0 29.5 6.5t28.5 12.5v367h234v-349q2 -37 37 -37q16 0 27 11.5t11 31.5v343h250v-354q0 -106 -74 -161t-216 -55t-218 73q-28 -33 -78.5 -53t-107.5 -20q-89 0 -148.5 56.5t-59.5 159.5v354z" />
    <glyph glyph-name="x" unicode="x" horiz-adv-x="678" 
d="M325 88l-45 -88h-280l160 283l-180 275h297l54 -117l3 -37h14l4 37l49 117h283l-171 -278l181 -280h-300l-47 88l-3 39h-13z" />
    <glyph glyph-name="y" unicode="y" horiz-adv-x="680" 
d="M686 558l-230 -763h-257l58 204h-93l-170 559h270l55 -245l11 -90h14l9 90l68 245h265z" />
    <glyph glyph-name="z" unicode="z" horiz-adv-x="593" 
d="M226 381h-201v177h538v-140l-189 -241h194v-177h-540v141z" />
    <glyph glyph-name="braceleft" unicode="{" horiz-adv-x="431" 
d="M278 286l-10 -9l11 -8q35 -40 35 -90q0 -35 -17 -92q-16 -54 -16 -70q0 -32 34 -32q23 0 92 19l10 -203q-70 -18 -146 -18q-201 0 -201 205q0 40 14 96q15 54 15 67q0 32 -40 32h-52v191h52q40 0 40 32q0 13 -15 67q-14 56 -14 96q0 205 201 205q75 0 146 -18l-10 -203
q-69 19 -92 19q-35 0 -35 -32q0 -17 16 -71q17 -57 17 -91q0 -52 -35 -92z" />
    <glyph glyph-name="bar" unicode="|" horiz-adv-x="335" 
d="M42 763h251v-968h-251v968z" />
    <glyph glyph-name="braceright" unicode="}" horiz-adv-x="431" 
d="M152 271l10 9l-11 8q-35 40 -35 90q0 37 16 91q17 57 17 71q0 32 -34 32q-23 0 -92 -19l-10 203q71 18 146 18q201 0 201 -205q0 -42 -15 -96q-14 -56 -14 -67q0 -32 40 -32h52v-191h-52q-40 0 -40 -32q0 -11 14 -67q15 -54 15 -96q0 -205 -201 -205q-75 0 -146 18
l10 203q69 -19 92 -19q35 0 35 32q0 14 -17 71q-16 54 -16 91q0 52 35 92z" />
    <glyph glyph-name="asciitilde" unicode="~" horiz-adv-x="528" 
d="M486 386l12 -139q-51 -25 -108 -25q-45 0 -122 19t-118 19q-59 0 -109 -29l-9 143q62 31 131 31q47 0 124 -19q79 -18 116 -18q44 0 83 18z" />
    <glyph glyph-name="uni00A0" unicode="&#xa0;" horiz-adv-x="177" 
 />
    <glyph glyph-name="exclamdown" unicode="&#xa1;" horiz-adv-x="349" 
d="M297 -205h-245v497h245v-497zM42 515h265v-168h-265v168z" />
    <glyph glyph-name="cent" unicode="&#xa2;" horiz-adv-x="543" 
d="M29 279q0 218 175 274v81h198v-67q51 -6 102 -20v-181q-75 20 -134 20q-48 0 -67.5 -25t-19.5 -82q0 -54 18 -80.5t69 -26.5q59 0 134 20v-181q-51 -14 -102 -20v-67h-198v81q-175 55 -175 274z" />
    <glyph glyph-name="sterling" unicode="&#xa3;" horiz-adv-x="550" 
d="M503 190v-190h-495l26 179q46 0 69.5 12.5t23.5 48.5h-62v192h66q0 118 91.5 185.5t248.5 75.5l27 -185q-139 -10 -141 -76h105v-192h-116q0 -12 -10 -28.5t-23 -26.5l3 -5q30 10 65 10h122z" />
    <glyph glyph-name="currency" unicode="&#xa4;" horiz-adv-x="501" 
d="M250 206q18 0 30 13.5t12 32.5t-12 32.5t-30 13.5t-30.5 -13.5t-12.5 -32.5t12.5 -32.5t30.5 -13.5zM382 471l91 -91l-79 -78q9 -27 9 -50q0 -27 -9 -50l81 -79l-91 -91l-81 79q-24 -9 -53 -9t-53 8l-80 -79l-91 91l79 78q-8 27 -8 52q0 28 9 52l-78 77l91 91l80 -79
q27 9 51 9t53 -9z" />
    <glyph glyph-name="yen" unicode="&#xa5;" horiz-adv-x="806" 
d="M688 183v-183h-570v183h158v32h-158v182h71l-162 323h277l95 -241h9l94 241h277l-162 -323h71v-182h-158v-32h158z" />
    <glyph glyph-name="brokenbar" unicode="&#xa6;" horiz-adv-x="339" 
d="M44 -205v443h251v-443h-251zM295 763v-443h-251v443h251z" />
    <glyph glyph-name="section" unicode="&#xa7;" horiz-adv-x="553" 
d="M492 267l-203 84q-124 52 -157 70q-37 21 -54 38q-47 44 -47 121q0 81 71 132q72 51 195 51q47 0 103 -7q62 -6 90 -15l-19 -158q-12 5 -61 14q-47 10 -87 10q-61 0 -61 -24q0 -7 6 -13q10 -8 17 -11q21 -9 83 -28q71 -22 105 -46q55 -42 55 -102q0 -61 -36 -116zM30 307
q0 26 10 55.5t24 44.5l220 -98l18 -9q7 -2 88 -38q77 -33 107 -62.5t30 -78.5q0 -83 -69.5 -136.5t-209.5 -53.5q-41 0 -106 6q-61 4 -103 14l14 157q23 -7 74 -16q53 -8 86 -8q49 0 65 5.5t16 18.5q0 14 -60 33q-79 25 -104 37q-43 21 -70 50q-30 32 -30 79z" />
    <glyph glyph-name="dieresis" unicode="&#xa8;" horiz-adv-x="833" 
d="M442 609h-202v179h202v-179zM682 609h-202v179h202v-179z" />
    <glyph glyph-name="copyright" unicode="&#xa9;" horiz-adv-x="922" 
d="M28 365q0 115 53 206q54 91 154 141t226 50q112 0 212 -44q101 -44 161 -136.5t60 -216.5q0 -127 -58.5 -219t-155.5 -135.5t-219 -42.5q-190 0 -311.5 102.5t-121.5 294.5zM608 445v126q-78 14 -127 14q-215 0 -215 -217q0 -103 51 -157t147 -54q62 0 145 24v115
q-59 -9 -89 -9q-41 0 -60.5 19t-19.5 65q0 38 11 60q11 21 63 21q16 0 48 -3q18 -1 46 -4z" />
    <glyph glyph-name="ordfeminine" unicode="&#xaa;" horiz-adv-x="410" 
d="M219 412v39h-17q-31 0 -31 -22q0 -23 24 -23q11 0 24 6zM14 414q0 60 36.5 86t124.5 26h44v9q0 27 -53 27q-64 0 -121 -16v117q89 19 160 19q173 0 173 -150v-224h-121l-9 31h-3q-44 -43 -108 -43q-57 0 -90 31.5t-33 86.5z" />
    <glyph glyph-name="guillemotleft" unicode="&#xab;" horiz-adv-x="610" 
d="M145 511h200l-146 -243l146 -243h-200l-141 243zM394 511h200l-146 -243l146 -243h-200l-141 243z" />
    <glyph glyph-name="logicalnot" unicode="&#xac;" horiz-adv-x="580" 
d="M26 356h517v-296l-180 15v107h-337v174z" />
    <glyph glyph-name="uni00AD" unicode="&#xad;" horiz-adv-x="412" 
d="M377 173h-342v185h342v-185z" />
    <glyph glyph-name="registered" unicode="&#xae;" horiz-adv-x="922" 
d="M663 432q0 67 -45.5 107t-129.5 40h-206v-410h162v108h23l39 -108h168l-66 139q55 35 55 124zM463 382h-19v82h19q31 0 31 -41t-31 -41zM28 365q0 115 53 206q54 91 154 141t226 50q112 0 212 -44q101 -44 161 -136.5t60 -216.5q0 -127 -58.5 -219t-155.5 -135.5
t-219 -42.5q-190 0 -311.5 102.5t-121.5 294.5z" />
    <glyph glyph-name="macron" unicode="&#xaf;" horiz-adv-x="601" 
d="M501 636h-401v153h401v-153z" />
    <glyph glyph-name="degree" unicode="&#xb0;" horiz-adv-x="288" 
d="M143 443q-39 0 -74 20q-61 38 -61 111q-1 62 46 99t89 33q26 2 57 -11t55.5 -45.5t24.5 -75.5q5 -46 -35.5 -89t-101.5 -42zM145 538q16 0 26 9.5t10 27.5q0 17 -10.5 27.5t-25.5 10.5t-25.5 -10.5t-10.5 -27.5t10.5 -27t25.5 -10z" />
    <glyph glyph-name="plusminus" unicode="&#xb1;" horiz-adv-x="531" 
d="M501 185v-185h-471v185h471zM501 412v-184h-471v184h137v145h197v-145h137z" />
    <glyph glyph-name="twosuperior" unicode="&#xb2;" horiz-adv-x="429" 
d="M405 295h-374v118q152 83 152 140q0 45 -50 45q-22 0 -100 -20v134q90 32 175 32q75 2 126.5 -33.5t48.5 -104.5q1 -99 -120 -175h142v-136z" />
    <glyph glyph-name="threesuperior" unicode="&#xb3;" horiz-adv-x="419" 
d="M34 584v141q78 18 162 18q11 0 51 -5q37 -4 69 -21q75 -36 75 -102q0 -74 -46 -105q59 -19 59 -88q0 -65 -63 -104.5t-175 -39.5q-88 0 -133 7v135q63 -10 102 -10q30 0 41.5 6.5t11.5 23.5q0 12 -9.5 17.5t-41.5 5.5h-41v86h41q28 0 39 5.5t11 22.5q0 26 -47 26
q-49 0 -106 -19z" />
    <glyph glyph-name="acute" unicode="&#xb4;" horiz-adv-x="424" 
d="M130 789h251l-120 -174h-185z" />
    <glyph glyph-name="mu" unicode="&#xb5;" horiz-adv-x="645" 
d="M356 191v367h250v-558h-213l-19 41h-5q-38 -29 -88 -42v-204h-250v763h250v-354q0 -32 28 -32q20 0 47 19z" />
    <glyph glyph-name="paragraph" unicode="&#xb6;" horiz-adv-x="689" 
d="M380 670h251v-625q0 -135 -78.5 -198.5t-268.5 -63.5q-42 0 -92 3v214l35 -1q47 0 85 6q34 6 51 31t17 76v558zM272 670h57v-493h-65q-115 0 -188.5 67.5t-73.5 181.5q0 115 74 179.5t196 64.5z" />
    <glyph glyph-name="periodcentered" unicode="&#xb7;" horiz-adv-x="299" 
d="M258 170h-217v194h217v-194z" />
    <glyph glyph-name="cedilla" unicode="&#xb8;" horiz-adv-x="467" 
d="M110 -211v94l35 -1q47 0 47 24q0 9 -9.5 15.5t-27.5 6.5h-9v31l36 41h118l-38 -45q95 -4 95 -75q0 -95 -166 -95q-38 0 -81 4z" />
    <glyph glyph-name="onesuperior" unicode="&#xb9;" horiz-adv-x="322" 
d="M286 292h-195v292l-59 -14v121l141 35h113v-434z" />
    <glyph glyph-name="ordmasculine" unicode="&#xba;" horiz-adv-x="436" 
d="M218 680q96 0 150.5 -52.5t54.5 -142.5q0 -96 -53 -146t-152 -50t-151.5 50t-52.5 146q0 90 54.5 142.5t149.5 52.5zM178 485q0 -70 40 -70q41 0 41 70q0 72 -41 72q-40 0 -40 -72z" />
    <glyph glyph-name="guillemotright" unicode="&#xbb;" horiz-adv-x="610" 
d="M465 25h-200l146 243l-146 243h200l141 -243zM216 25h-200l146 243l-146 243h200l141 -243z" />
    <glyph glyph-name="onequarter" unicode="&#xbc;" horiz-adv-x="1015" 
d="M524 215l85 212h179l-82 -212h44v19l38 109h158v-128h46v-136h-46v-79h-196v79h-226v136zM701 763l-341 -763h-164l340 763h165zM286 292h-195v292l-59 -14v121l141 35h113v-434z" />
    <glyph glyph-name="onehalf" unicode="&#xbd;" horiz-adv-x="1000" 
d="M286 292h-195v292l-59 -14v121l141 35h113v-434zM974 0h-374v118q30 12 74 41q78 52 78 99q0 45 -50 45q-22 0 -100 -20v134q90 32 175 32q75 2 126.5 -33.5t48.5 -104.5q1 -99 -120 -175h142v-136zM701 763l-341 -763h-164l340 763h165zM286 292h-195v292l-59 -14v121
l141 35h113v-434z" />
    <glyph glyph-name="threequarters" unicode="&#xbe;" horiz-adv-x="1076" 
d="M588 215l85 212h179l-82 -212h44v19l38 109h158v-128h46v-136h-46v-79h-196v79h-226v136zM32 584l-1 141q78 18 162 18q11 0 51 -5q38 -4 69 -21q75 -36 75 -102q0 -74 -46 -105q59 -19 59 -88q0 -65 -63 -104.5t-175 -39.5q-88 0 -133 7v135q63 -10 102 -10
q30 0 41.5 6.5t11.5 23.5q0 12 -9.5 17.5t-41.5 5.5h-41v86h41q28 0 39 5.5t11 22.5q0 26 -47 26q-48 0 -105 -19zM588 215l85 212h179l-82 -212h44v19l38 109h158v-128h46v-136h-46v-79h-196v79h-226v136zM765 763l-341 -763h-164l340 763h165z" />
    <glyph glyph-name="questiondown" unicode="&#xbf;" horiz-adv-x="458" 
d="M142 292h247q3 -21 3 -40q0 -100 -84 -186q-41 -41 -49 -54q-6 -10 -6 -19q0 -43 80 -43q62 0 152 24v-216q-140 -19 -235 -19q-110 0 -182 54t-72 144q0 42 14 79q16 38 55 77q37 38 50 57q31 43 31 97q0 26 -4 45zM138 515h251v-163h-251v163z" />
    <glyph glyph-name="Agrave" unicode="&#xc0;" horiz-adv-x="758" 
d="M-10 0l220 721h337l221 -721h-266l-28 108h-191l-26 -108h-267zM391 445l-7 52h-10l-7 -52l-32 -127h88zM475 775h-185l-120 174h251z" />
    <glyph glyph-name="Aacute" unicode="&#xc1;" horiz-adv-x="758" 
d="M-10 0l220 721h337l221 -721h-266l-28 108h-191l-26 -108h-267zM391 445l-7 52h-10l-7 -52l-32 -127h88zM338 949h251l-120 -174h-185z" />
    <glyph glyph-name="Acircumflex" unicode="&#xc2;" horiz-adv-x="758" 
d="M-10 0l220 721h337l221 -721h-266l-28 108h-191l-26 -108h-267zM391 445l-7 52h-10l-7 -52l-32 -127h88zM339 775h-202l79 174h321l80 -174h-202l-38 99z" />
    <glyph glyph-name="Atilde" unicode="&#xc3;" horiz-adv-x="758" 
d="M-10 0l220 721h337l221 -721h-266l-28 108h-191l-26 -108h-267zM391 445l-7 52h-10l-7 -52l-32 -127h88zM629 994v-170q-68 -56 -134 -56q-38 0 -101 24q-61 23 -88 28q-23 4 -40 4q-68 0 -139 -49v167q70 49 139 49q44 0 117 -27q74 -27 112 -27q67 0 134 57z" />
    <glyph glyph-name="Adieresis" unicode="&#xc4;" horiz-adv-x="758" 
d="M-10 0l220 721h337l221 -721h-266l-28 108h-191l-26 -108h-267zM391 445l-7 52h-10l-7 -52l-32 -127h88zM358 775h-202v179h202v-179zM598 775h-202v179h202v-179z" />
    <glyph glyph-name="Aring" unicode="&#xc5;" horiz-adv-x="758" 
d="M-10 0l220 721h337l221 -721h-266l-28 108h-191l-26 -108h-267zM391 445l-7 52h-10l-7 -52l-32 -127h88zM516 866q0 -103 -141 -103q-136 0 -136 103t136 103q141 0 141 -103zM355 865q0 -8 6 -14t14 -6q9 0 15.5 6t6.5 14q0 9 -6.5 15.5t-15.5 6.5q-8 0 -14 -6.5
t-6 -15.5z" />
    <glyph glyph-name="AE" unicode="&#xc6;" horiz-adv-x="1075" 
d="M1042 0h-547v108h-167l-44 -108h-299l313 720h750v-223h-302v-48h213v-178h-213v-48h296v-223zM495 503h-21l-71 -185h92v185z" />
    <glyph glyph-name="Ccedilla" unicode="&#xc7;" horiz-adv-x="623" 
d="M253 -211v94l35 -1q47 0 47 24q0 9 -9.5 15.5t-27.5 6.5h-9v31l27 32q-155 14 -228 106t-73 265q0 170 98.5 270t261.5 100q124 0 216 -22v-223q-99 21 -162 21q-152 0 -152 -141q0 -73 33 -115q36 -41 107 -41q77 0 175 32v-221q-55 -24 -157 -31l-30 -36q95 -4 95 -75
q0 -95 -166 -95q-38 0 -81 4z" />
    <glyph glyph-name="Egrave" unicode="&#xc8;" horiz-adv-x="634" 
d="M601 0h-553v720h559v-223h-303v-48h214v-178h-214v-48h297v-223zM439 775h-185l-120 174h251z" />
    <glyph glyph-name="Eacute" unicode="&#xc9;" horiz-adv-x="634" 
d="M601 0h-553v720h559v-223h-303v-48h214v-178h-214v-48h297v-223zM273 949h251l-120 -174h-185z" />
    <glyph glyph-name="Ecircumflex" unicode="&#xca;" horiz-adv-x="634" 
d="M601 0h-553v720h559v-223h-303v-48h214v-178h-214v-48h297v-223zM281 775h-202l79 174h321l80 -174h-202l-38 99z" />
    <glyph glyph-name="Edieresis" unicode="&#xcb;" horiz-adv-x="634" 
d="M601 0h-553v720h559v-223h-303v-48h214v-178h-214v-48h297v-223zM299 775h-202v179h202v-179zM539 775h-202v179h202v-179z" />
    <glyph glyph-name="Igrave" unicode="&#xcc;" horiz-adv-x="352" 
d="M304 720v-720h-256v720h256zM267 775h-185l-120 174h251z" />
    <glyph glyph-name="Iacute" unicode="&#xcd;" horiz-adv-x="352" 
d="M304 720v-720h-256v720h256zM142 949h251l-120 -174h-185z" />
    <glyph glyph-name="Icircumflex" unicode="&#xce;" horiz-adv-x="352" 
d="M304 720v-720h-256v720h256zM140 775h-202l79 174h321l80 -174h-202l-38 99z" />
    <glyph glyph-name="Idieresis" unicode="&#xcf;" horiz-adv-x="352" 
d="M304 720v-720h-256v720h256zM151 775h-202v179h202v-179zM391 775h-202v179h202v-179z" />
    <glyph glyph-name="Eth" unicode="&#xd0;" horiz-adv-x="774" 
d="M97 260h-92v190h92v270h325q154 0 245 -92.5t91 -267.5t-91 -267.5t-245 -92.5h-325v260zM392 497h-39v-274h39q56 0 81 25t25 112q0 86 -25 111q-26 26 -81 26z" />
    <glyph glyph-name="Ntilde" unicode="&#xd1;" horiz-adv-x="781" 
d="M733 0h-246l-180 291l-6 -3l3 -86v-202h-256v720h254l173 -299l6 3l-4 78v218h256v-720zM631 982v-170q-68 -56 -134 -56q-38 0 -101 24q-61 23 -88 28q-23 4 -40 4q-68 0 -139 -49v167q70 49 139 49q44 0 117 -27q74 -27 112 -27q67 0 134 57z" />
    <glyph glyph-name="Ograve" unicode="&#xd2;" horiz-adv-x="752" 
d="M15 360q0 181 93.5 276.5t267.5 95.5t267.5 -95.5t93.5 -276.5t-93.5 -276.5t-267.5 -95.5t-267.5 95.5t-93.5 276.5zM275 360q0 -79 21.5 -113.5t79.5 -34.5t79.5 34.5t21.5 113.5t-21.5 113.5t-79.5 34.5t-79.5 -34.5t-21.5 -113.5zM467 775h-185l-120 174h251z" />
    <glyph glyph-name="Oacute" unicode="&#xd3;" horiz-adv-x="752" 
d="M15 360q0 181 93.5 276.5t267.5 95.5t267.5 -95.5t93.5 -276.5t-93.5 -276.5t-267.5 -95.5t-267.5 95.5t-93.5 276.5zM275 360q0 -79 21.5 -113.5t79.5 -34.5t79.5 34.5t21.5 113.5t-21.5 113.5t-79.5 34.5t-79.5 -34.5t-21.5 -113.5zM335 949h251l-120 -174h-185z" />
    <glyph glyph-name="Ocircumflex" unicode="&#xd4;" horiz-adv-x="752" 
d="M15 360q0 181 93.5 276.5t267.5 95.5t267.5 -95.5t93.5 -276.5t-93.5 -276.5t-267.5 -95.5t-267.5 95.5t-93.5 276.5zM275 360q0 -79 21.5 -113.5t79.5 -34.5t79.5 34.5t21.5 113.5t-21.5 113.5t-79.5 34.5t-79.5 -34.5t-21.5 -113.5zM338 775h-202l79 174h321l80 -174
h-202l-38 99z" />
    <glyph glyph-name="Otilde" unicode="&#xd5;" horiz-adv-x="752" 
d="M15 360q0 181 93.5 276.5t267.5 95.5t267.5 -95.5t93.5 -276.5t-93.5 -276.5t-267.5 -95.5t-267.5 95.5t-93.5 276.5zM275 360q0 -79 21.5 -113.5t79.5 -34.5t79.5 34.5t21.5 113.5t-21.5 113.5t-79.5 34.5t-79.5 -34.5t-21.5 -113.5zM627 994v-170q-68 -56 -134 -56
q-38 0 -101 24q-61 23 -88 28q-23 4 -40 4q-68 0 -139 -49v167q70 49 139 49q44 0 117 -27t112 -27q67 0 134 57z" />
    <glyph glyph-name="Odieresis" unicode="&#xd6;" horiz-adv-x="752" 
d="M15 360q0 181 93.5 276.5t267.5 95.5t267.5 -95.5t93.5 -276.5t-93.5 -276.5t-267.5 -95.5t-267.5 95.5t-93.5 276.5zM275 360q0 -79 21.5 -113.5t79.5 -34.5t79.5 34.5t21.5 113.5t-21.5 113.5t-79.5 34.5t-79.5 -34.5t-21.5 -113.5zM360 775h-202v179h202v-179z
M600 775h-202v179h202v-179z" />
    <glyph glyph-name="multiply" unicode="&#xd7;" horiz-adv-x="505" 
d="M361 515l126 -126l-104 -105l103 -103l-139 -140l-103 104l-93 -94l-126 126l93 94l-106 106l140 139l105 -106z" />
    <glyph glyph-name="Oslash" unicode="&#xd8;" horiz-adv-x="752" 
d="M15 360q0 181 93.5 276.5t267.5 95.5q61 0 105 -10l21 52h90l-32 -78q177 -85 177 -336q0 -181 -93.5 -276.5t-267.5 -95.5q-59 0 -103 10l-21 -53h-86l31 76q-182 81 -182 339zM275 360q0 -74 16 -105l103 252l-18 1q-58 0 -79.5 -34.5t-21.5 -113.5zM477 360
q0 63 -14 99l-102 -247h15q58 0 79.5 34.5t21.5 113.5z" />
    <glyph glyph-name="Ugrave" unicode="&#xd9;" horiz-adv-x="750" 
d="M708 720v-421q0 -155 -89.5 -233t-243.5 -78t-243.5 78t-89.5 233v421h256v-422q0 -48 17.5 -67.5t59.5 -19.5t59.5 19.5t17.5 67.5v422h256zM471 775h-185l-120 174h251z" />
    <glyph glyph-name="Uacute" unicode="&#xda;" horiz-adv-x="750" 
d="M708 720v-421q0 -155 -89.5 -233t-243.5 -78t-243.5 78t-89.5 233v421h256v-422q0 -48 17.5 -67.5t59.5 -19.5t59.5 19.5t17.5 67.5v422h256zM336 949h251l-120 -174h-185z" />
    <glyph glyph-name="Ucircumflex" unicode="&#xdb;" horiz-adv-x="750" 
d="M708 720v-421q0 -155 -89.5 -233t-243.5 -78t-243.5 78t-89.5 233v421h256v-422q0 -48 17.5 -67.5t59.5 -19.5t59.5 19.5t17.5 67.5v422h256zM336 775h-202l79 174h321l80 -174h-202l-38 99z" />
    <glyph glyph-name="Udieresis" unicode="&#xdc;" horiz-adv-x="750" 
d="M708 720v-421q0 -155 -89.5 -233t-243.5 -78t-243.5 78t-89.5 233v421h256v-422q0 -48 17.5 -67.5t59.5 -19.5t59.5 19.5t17.5 67.5v422h256zM357 775h-202v179h202v-179zM597 775h-202v179h202v-179z" />
    <glyph glyph-name="Yacute" unicode="&#xdd;" horiz-adv-x="720" 
d="M736 720l-249 -497v-223h-254v223l-249 497h277l95 -241h9l94 241h277zM324 949h251l-120 -174h-185z" />
    <glyph glyph-name="Thorn" unicode="&#xde;" horiz-adv-x="668" 
d="M48 763h256v-105h98q117 0 190.5 -78.5t73.5 -198.5q0 -118 -72.5 -197.5t-183.5 -79.5h-106v-104h-256v763zM347 440h-43v-118h43q59 0 59 59t-59 59z" />
    <glyph glyph-name="germandbls" unicode="&#xdf;" horiz-adv-x="724" 
d="M352 775q138 0 218.5 -64t80.5 -157q0 -60 -29 -104.5t-79 -63.5v-8q69 -6 115 -54t43 -119q4 -89 -66.5 -151t-201.5 -61q-49 0 -107 11v147q18 -2 36 -2q85 0 85 80q0 39 -27 57t-88 18v116q39 0 54.5 20.5t15.5 68.5q0 77 -56 77q-29 0 -44.5 -20.5t-15.5 -56.5v-509
h-250v496q0 132 81.5 205.5t234.5 73.5z" />
    <glyph glyph-name="agrave" unicode="&#xe0;" horiz-adv-x="605" 
d="M223 332h98v9q0 45 -85 45q-31 0 -89 -8q-53 -7 -88 -18v186q40 8 121 17q63 7 121 7q127 0 197.5 -56.5t70.5 -162.5v-351h-217l-12 45h-5q-78 -54 -145 -54q-82 0 -129 46t-47 131q0 78 52 121t157 43zM321 167v50h-27q-14 0 -22.5 -8.5t-8.5 -21.5t8 -20.5t20 -7.5
q14 0 30 8zM379 615h-185l-120 174h251z" />
    <glyph glyph-name="aacute" unicode="&#xe1;" horiz-adv-x="605" 
d="M223 332h98v9q0 45 -85 45q-31 0 -89 -8q-53 -7 -88 -18v186q40 8 121 17q63 7 121 7q127 0 197.5 -56.5t70.5 -162.5v-351h-217l-12 45h-5q-78 -54 -145 -54q-82 0 -129 46t-47 131q0 78 52 121t157 43zM321 167v50h-27q-14 0 -22.5 -8.5t-8.5 -21.5t8 -20.5t20 -7.5
q14 0 30 8zM239 789h251l-120 -174h-185z" />
    <glyph glyph-name="acircumflex" unicode="&#xe2;" horiz-adv-x="605" 
d="M223 332h98v9q0 45 -85 45q-31 0 -89 -8q-53 -7 -88 -18v186q40 8 121 17q63 7 121 7q127 0 197.5 -56.5t70.5 -162.5v-351h-217l-12 45h-5q-78 -54 -145 -54q-82 0 -129 46t-47 131q0 78 52 121t157 43zM321 167v50h-27q-14 0 -22.5 -8.5t-8.5 -21.5t8 -20.5t20 -7.5
q14 0 30 8zM257 615h-202l79 174h321l80 -174h-202l-38 99z" />
    <glyph glyph-name="atilde" unicode="&#xe3;" horiz-adv-x="605" 
d="M223 332h98v9q0 45 -85 45q-31 0 -89 -8q-53 -7 -88 -18v186q40 8 121 17q63 7 121 7q127 0 197.5 -56.5t70.5 -162.5v-351h-217l-12 45h-5q-78 -54 -145 -54q-82 0 -129 46t-47 131q0 78 52 121t157 43zM321 167v50h-27q-14 0 -22.5 -8.5t-8.5 -21.5t8 -20.5t20 -7.5
q14 0 30 8zM557 832v-170q-68 -56 -134 -56q-38 0 -101 24q-61 23 -88 28q-23 4 -40 4q-68 0 -139 -49v167q70 49 139 49q44 0 117 -27t112 -27q67 0 134 57z" />
    <glyph glyph-name="adieresis" unicode="&#xe4;" horiz-adv-x="605" 
d="M223 332h98v9q0 45 -85 45q-31 0 -89 -8q-53 -7 -88 -18v186q40 8 121 17q63 7 121 7q127 0 197.5 -56.5t70.5 -162.5v-351h-217l-12 45h-5q-78 -54 -145 -54q-82 0 -129 46t-47 131q0 78 52 121t157 43zM321 167v50h-27q-14 0 -22.5 -8.5t-8.5 -21.5t8 -20.5t20 -7.5
q14 0 30 8zM286 615h-202v179h202v-179zM526 615h-202v179h202v-179z" />
    <glyph glyph-name="aring" unicode="&#xe5;" horiz-adv-x="605" 
d="M223 332h98v9q0 45 -85 45q-31 0 -89 -8q-53 -7 -88 -18v186q40 8 121 17q63 7 121 7q127 0 197.5 -56.5t70.5 -162.5v-351h-217l-12 45h-5q-78 -54 -145 -54q-82 0 -129 46t-47 131q0 78 52 121t157 43zM321 167v50h-27q-14 0 -22.5 -8.5t-8.5 -21.5t8 -20.5t20 -7.5
q14 0 30 8zM438 708q0 -103 -141 -103q-136 0 -136 103t136 103q141 0 141 -103zM277 707q0 -8 6 -14t14 -6q9 0 15.5 6t6.5 14q0 9 -6.5 15.5t-15.5 6.5q-8 0 -14 -6.5t-6 -15.5z" />
    <glyph glyph-name="ae" unicode="&#xe6;" horiz-adv-x="906" 
d="M223 331l98 1v9q0 45 -85 45q-31 0 -89 -8q-53 -7 -88 -18v186q40 8 121 17q63 7 121 7q104 0 168 -37q70 37 154 37q129 0 195 -62.5t66 -195.5v-78h-299q3 -61 112 -61q36 0 85 7q57 8 95 16v-173q-148 -35 -248 -35q-148 0 -218 67q-103 -64 -207 -64q-190 0 -190 177
q0 160 209 163zM582 364h79v8q0 40 -35 40q-18 0 -31 -13.5t-13 -34.5zM321 167v50h-27q-14 0 -22.5 -8.5t-8.5 -21.5t8 -20.5t20 -7.5q14 0 30 8z" />
    <glyph glyph-name="ccedilla" unicode="&#xe7;" horiz-adv-x="519" 
d="M182 -211v94l35 -1q47 0 47 24q0 9 -9.5 15.5t-27.5 6.5h-9v31l29 33q-113 15 -172.5 87.5t-59.5 199.5q0 137 70 211q78 80 227 80q97 0 178 -23v-181q-75 20 -134 20q-48 0 -67.5 -25t-19.5 -82q0 -54 18 -80.5t69 -26.5q59 0 134 20v-181q-62 -17 -127 -22l-29 -34
q95 -4 95 -75q0 -95 -166 -95q-38 0 -81 4z" />
    <glyph glyph-name="egrave" unicode="&#xe8;" horiz-adv-x="599" 
d="M570 196v-173q-148 -35 -248 -35q-151 0 -229 73t-78 216q0 147 79.5 220t221.5 73q129 0 195 -62.5t66 -195.5v-78h-299q3 -61 112 -61q36 0 85 7q57 8 95 16zM275 364h79q2 22 -7.5 35t-27.5 13t-31 -13.5t-13 -34.5zM406 615h-185l-120 174h251z" />
    <glyph glyph-name="eacute" unicode="&#xe9;" horiz-adv-x="599" 
d="M570 196v-173q-148 -35 -248 -35q-151 0 -229 73t-78 216q0 147 79.5 220t221.5 73q129 0 195 -62.5t66 -195.5v-78h-299q3 -61 112 -61q36 0 85 7q57 8 95 16zM275 364h79q2 22 -7.5 35t-27.5 13t-31 -13.5t-13 -34.5zM283 789h251l-120 -174h-185z" />
    <glyph glyph-name="ecircumflex" unicode="&#xea;" horiz-adv-x="599" 
d="M570 196v-173q-148 -35 -248 -35q-151 0 -229 73t-78 216q0 147 79.5 220t221.5 73q129 0 195 -62.5t66 -195.5v-78h-299q3 -61 112 -61q36 0 85 7q57 8 95 16zM275 364h79q2 22 -7.5 35t-27.5 13t-31 -13.5t-13 -34.5zM272 615h-202l79 174h321l80 -174h-202l-38 99z
" />
    <glyph glyph-name="edieresis" unicode="&#xeb;" horiz-adv-x="599" 
d="M570 196v-173q-148 -35 -248 -35q-151 0 -229 73t-78 216q0 147 79.5 220t221.5 73q129 0 195 -62.5t66 -195.5v-78h-299q3 -61 112 -61q36 0 85 7q57 8 95 16zM275 364h79q2 22 -7.5 35t-27.5 13t-31 -13.5t-13 -34.5zM293 615h-202v179h202v-179zM533 615h-202v179h202
v-179z" />
    <glyph glyph-name="igrave" unicode="&#xec;" horiz-adv-x="332" 
d="M41 558h250v-558h-250v558zM256 615h-185l-120 174h251z" />
    <glyph glyph-name="iacute" unicode="&#xed;" horiz-adv-x="332" 
d="M41 558h250v-558h-250v558zM128 789h251l-120 -174h-185z" />
    <glyph glyph-name="icircumflex" unicode="&#xee;" horiz-adv-x="332" 
d="M41 558h250v-558h-250v558zM128 615h-202l79 174h321l80 -174h-202l-38 99z" />
    <glyph glyph-name="idieresis" unicode="&#xef;" horiz-adv-x="332" 
d="M41 558h250v-558h-250v558zM147 615h-202v179h202v-179zM387 615h-202v179h202v-179z" />
    <glyph glyph-name="eth" unicode="&#xf0;" horiz-adv-x="608" 
d="M332 537q-34 54 -103 117q-68 65 -136 109h237q39 -32 55 -51l108 59l74 -108l-83 -48q40 -55 63 -99q49 -93 49 -223q0 -142 -79.5 -223.5t-222.5 -81.5q-144 0 -222.5 75.5t-78.5 215.5q-1 92 44.5 161t124.5 96.5t170 0.5zM248 279q0 -65 9.5 -89.5t37.5 -24.5
q22 0 34 18q13 17 13 96q0 65 -9.5 89.5t-37.5 24.5q-21 0 -35 -18q-12 -18 -12 -96z" />
    <glyph glyph-name="ntilde" unicode="&#xf1;" 
d="M291 367v-367h-250v558h232v-41h5q71 53 167 53q83 0 127 -44t44 -131v-395h-250v354q0 32 -28 32q-20 0 -47 -19zM579 832v-170q-68 -56 -134 -56q-38 0 -101 24q-61 23 -88 28q-23 4 -40 4q-68 0 -139 -49v167q70 49 139 49q44 0 117 -27q74 -27 112 -27q67 0 134 57z
" />
    <glyph glyph-name="ograve" unicode="&#xf2;" horiz-adv-x="631" 
d="M14 279q0 140 78.5 215.5t222.5 75.5t223 -76.5t79 -214.5t-79 -214.5t-223 -76.5t-222.5 75.5t-78.5 215.5zM269 279q0 -65 9.5 -89.5t37.5 -24.5q22 0 34 18q13 17 13 96q0 65 -9.5 89.5t-37.5 24.5q-22 0 -35 -18q-12 -18 -12 -96zM404 615h-185l-120 174h251z" />
    <glyph glyph-name="oacute" unicode="&#xf3;" horiz-adv-x="631" 
d="M14 279q0 140 78.5 215.5t222.5 75.5t223 -76.5t79 -214.5t-79 -214.5t-223 -76.5t-222.5 75.5t-78.5 215.5zM269 279q0 -65 9.5 -89.5t37.5 -24.5q22 0 34 18q13 17 13 96q0 65 -9.5 89.5t-37.5 24.5q-22 0 -35 -18q-12 -18 -12 -96zM272 789h251l-120 -174h-185z" />
    <glyph glyph-name="ocircumflex" unicode="&#xf4;" horiz-adv-x="631" 
d="M14 279q0 140 78.5 215.5t222.5 75.5t223 -76.5t79 -214.5t-79 -214.5t-223 -76.5t-222.5 75.5t-78.5 215.5zM269 279q0 -65 9.5 -89.5t37.5 -24.5q22 0 34 18q13 17 13 96q0 65 -9.5 89.5t-37.5 24.5q-22 0 -35 -18q-12 -18 -12 -96zM277 615h-202l79 174h321l80 -174
h-202l-38 99z" />
    <glyph glyph-name="otilde" unicode="&#xf5;" horiz-adv-x="631" 
d="M14 279q0 140 78.5 215.5t222.5 75.5t223 -76.5t79 -214.5t-79 -214.5t-223 -76.5t-222.5 75.5t-78.5 215.5zM269 279q0 -65 9.5 -89.5t37.5 -24.5q22 0 34 18q13 17 13 96q0 65 -9.5 89.5t-37.5 24.5q-22 0 -35 -18q-12 -18 -12 -96zM568 824v-170q-68 -56 -134 -56
q-38 0 -101 24q-61 23 -88 28q-23 4 -40 4q-68 0 -139 -49v167q70 49 139 49q43 0 117 -27t112 -27q66 0 134 57z" />
    <glyph glyph-name="odieresis" unicode="&#xf6;" horiz-adv-x="631" 
d="M14 279q0 140 78.5 215.5t222.5 75.5t223 -76.5t79 -214.5t-79 -214.5t-223 -76.5t-222.5 75.5t-78.5 215.5zM269 279q0 -65 9.5 -89.5t37.5 -24.5q22 0 34 18q13 17 13 96q0 65 -9.5 89.5t-37.5 24.5q-22 0 -35 -18q-12 -18 -12 -96zM297 615h-202v179h202v-179z
M537 615h-202v179h202v-179z" />
    <glyph glyph-name="divide" unicode="&#xf7;" horiz-adv-x="515" 
d="M493 354v-178h-471v178h471zM341 504v-135h-170v135h170zM171 28v132h170v-132h-170z" />
    <glyph glyph-name="oslash" unicode="&#xf8;" horiz-adv-x="631" 
d="M14 279q0 140 78.5 215.5t222.5 75.5q39 0 74 -6l30 70h102l-42 -99q138 -70 138 -256q0 -138 -79 -214.5t-223 -76.5q-28 0 -65 5l-30 -69h-103l42 94q-145 66 -145 261zM269 279v-35l58 148l-11 1q-22 0 -35 -18q-12 -18 -12 -96zM363 279l-1 32l-54 -146h8q22 0 34 18
q13 17 13 96z" />
    <glyph glyph-name="ugrave" unicode="&#xf9;" 
d="M365 191v367h250v-558h-213l-19 41h-5q-71 -53 -167 -53q-83 0 -127 44t-44 131v395h250v-354q0 -32 28 -32q20 0 47 19zM434 615h-185l-120 174h251z" />
    <glyph glyph-name="uacute" unicode="&#xfa;" 
d="M365 191v367h250v-558h-213l-19 41h-5q-71 -53 -167 -53q-83 0 -127 44t-44 131v395h250v-354q0 -32 28 -32q20 0 47 19zM288 789h251l-120 -174h-185z" />
    <glyph glyph-name="ucircumflex" unicode="&#xfb;" 
d="M365 191v367h250v-558h-213l-19 41h-5q-71 -53 -167 -53q-83 0 -127 44t-44 131v395h250v-354q0 -32 28 -32q20 0 47 19zM292 615h-202l79 174h321l80 -174h-202l-38 99z" />
    <glyph glyph-name="udieresis" unicode="&#xfc;" 
d="M365 191v367h250v-558h-213l-19 41h-5q-71 -53 -167 -53q-83 0 -127 44t-44 131v395h250v-354q0 -32 28 -32q20 0 47 19zM311 615h-202v179h202v-179zM551 615h-202v179h202v-179z" />
    <glyph glyph-name="yacute" unicode="&#xfd;" horiz-adv-x="680" 
d="M686 558l-230 -763h-257l58 204h-93l-170 559h270l55 -245l11 -90h14l9 90l68 245h265zM301 789h251l-120 -174h-185z" />
    <glyph glyph-name="thorn" unicode="&#xfe;" horiz-adv-x="654" 
d="M289 -2v-203h-248v925h248v-203h4q75 53 151 53q186 0 186 -276q0 -155 -61.5 -230.5t-201.5 -75.5q-31 0 -78 10zM336 389q-26 0 -45 -13v-207q11 -3 25 -3q3 0 12.5 1t11.5 1.5t9.5 2.5t9 5t6.5 9t5.5 14t3 20t2.5 28v36q0 61 -8.5 83.5t-31.5 22.5z" />
    <glyph glyph-name="ydieresis" unicode="&#xff;" horiz-adv-x="680" 
d="M686 558l-230 -763h-257l58 204h-93l-170 559h270l55 -245l11 -90h14l9 90l68 245h265zM326 615h-202v179h202v-179zM566 615h-202v179h202v-179z" />
    <glyph glyph-name="dotlessi" unicode="&#x131;" horiz-adv-x="332" 
d="M41 558h250v-558h-250v558z" />
    <glyph glyph-name="Lslash" unicode="&#x141;" horiz-adv-x="647" 
d="M103 227l-88 -42v201l88 42v292h256v-169l115 56v-201l-115 -56v-127h278v-223h-534v227z" />
    <glyph glyph-name="lslash" unicode="&#x142;" horiz-adv-x="450" 
d="M103 238l-85 -45v213l85 45v312h250v-177l85 46v-213l-85 -46v-373h-250v238z" />
    <glyph glyph-name="OE" unicode="&#x152;" horiz-adv-x="1056" 
d="M15 360q0 181 93.5 276.5t267.5 95.5q54 0 137 -12h516v-223h-303v-48h214v-178h-214v-48h297v-223h-537q-50 -12 -110 -12q-174 0 -267.5 95.5t-93.5 276.5zM275 360q0 -79 21.5 -113.5t79.5 -34.5q38 0 94 11v274q-2 0 -7 1t-11 2l-12 2q-34 6 -64 6q-58 0 -79.5 -34.5
t-21.5 -113.5z" />
    <glyph glyph-name="oe" unicode="&#x153;" horiz-adv-x="960" 
d="M14 279q0 140 78.5 215.5t222.5 75.5q105 0 179 -60q78 60 183 60q129 0 195 -62.5t66 -195.5v-78h-299q3 -61 112 -61q36 0 85 7q57 8 95 16v-173q-148 -35 -248 -35q-128 0 -200 63q-73 -63 -168 -63q-144 0 -222.5 75.5t-78.5 215.5zM269 279q0 -65 9.5 -89.5
t37.5 -24.5q22 0 34 18q13 17 13 96q0 65 -9.5 89.5t-37.5 24.5q-22 0 -35 -18q-12 -18 -12 -96zM636 364h79q2 22 -7.5 35t-27.5 13t-31 -13.5t-13 -34.5z" />
    <glyph glyph-name="Scaron" unicode="&#x160;" horiz-adv-x="629" 
d="M20 477q0 129 82.5 192t254.5 63q78 0 210 -14v-219q-55 9 -101 13q-63 5 -98 5q-51 0 -70 -5.5t-19 -20.5q0 -17 28 -23q25 -4 67 -8q49 -4 73 -9q167 -30 167 -194q0 -269 -313 -269q-52 0 -130 8t-132 19v218q39 -11 117 -21q76 -10 124 -10q43 0 57.5 5t14.5 20
q0 9 -12 15q-10 6 -79 14q-71 8 -98 17q-56 19 -91 52q-52 48 -52 152zM347 949h202l-79 -174h-321l-80 174h202l38 -99z" />
    <glyph glyph-name="scaron" unicode="&#x161;" horiz-adv-x="526" 
d="M287 570q34 0 94 -5q55 -4 94 -12l-8 -178q-24 5 -75 10q-52 5 -76 5q-46 0 -46 -17q0 -7 7 -11q9 -6 58 -10q47 -4 73 -13q44 -16 68 -41q36 -38 36 -112q0 -198 -278 -198q-50 0 -105 4q-65 3 -99 10l7 178q37 -7 89 -11q65 -5 95 -5q20 0 29 4t9 18q0 12 -44 17
q-65 7 -95 16q-23 9 -36.5 16.5t-30 22.5t-25 41t-9.5 62q0 209 268 209zM297 789h202l-79 -174h-321l-80 174h202l38 -99z" />
    <glyph glyph-name="Ydieresis" unicode="&#x178;" horiz-adv-x="720" 
d="M736 720l-249 -497v-223h-254v223l-249 497h277l95 -241h9l94 241h277zM340 775h-202v179h202v-179zM580 775h-202v179h202v-179z" />
    <glyph glyph-name="Zcaron" unicode="&#x17d;" horiz-adv-x="670" 
d="M24 720h607v-196l-249 -301h265v-223h-611v193l250 304h-262v223zM373 949h202l-79 -174h-321l-80 174h202l38 -99z" />
    <glyph glyph-name="zcaron" unicode="&#x17e;" horiz-adv-x="593" 
d="M226 381h-201v177h538v-140l-189 -241h194v-177h-540v141zM338 789h202l-79 -174h-321l-80 174h202l38 -99z" />
    <glyph glyph-name="florin" unicode="&#x192;" horiz-adv-x="571" 
d="M62 407h102v106q0 124 61 186.5t176 62.5q43 0 87 -4q54 -3 85 -10l-21 -171q-50 14 -105 14q-59 0 -59 -97v-87h139v-167h-136v-253q0 -124 -61 -186.5t-176 -62.5q-43 0 -87 4q-54 3 -85 10l21 171q50 -14 105 -14q28 0 42 22t14 75v234h-102v167z" />
    <glyph glyph-name="circumflex" unicode="&#x2c6;" horiz-adv-x="680" 
d="M302 615h-202l79 174h321l80 -174h-202l-38 99z" />
    <glyph glyph-name="caron" unicode="&#x2c7;" horiz-adv-x="680" 
d="M378 789h202l-79 -174h-321l-80 174h202l38 -99z" />
    <glyph glyph-name="breve" unicode="&#x2d8;" horiz-adv-x="638" 
d="M319 610q-76 -2 -138 23.5t-81 58.5l53 111q34 -21 80 -34.5t86 -13.5t86 13.5t80 34.5l53 -111q-18 -32 -81 -57.5t-138 -24.5z" />
    <glyph glyph-name="dotaccent" unicode="&#x2d9;" horiz-adv-x="347" 
d="M262 617h-177v162h177v-162z" />
    <glyph glyph-name="ring" unicode="&#x2da;" horiz-adv-x="447" 
d="M362 698q0 -103 -141 -103q-136 0 -136 103t136 103q141 0 141 -103zM201 697q0 -8 6 -14t14 -6q9 0 15.5 6t6.5 14q0 9 -6.5 15.5t-15.5 6.5q-8 0 -14 -6.5t-6 -15.5z" />
    <glyph glyph-name="ogonek" unicode="&#x2db;" horiz-adv-x="463" 
d="M195 0h115q-34 -39 -34 -69q0 -21 15.5 -33.5t42.5 -12.5l21 1v-134q-34 -9 -99 -9q-55 -3 -101 28t-45 83q-1 36 25.5 78t59.5 68z" />
    <glyph glyph-name="tilde" unicode="&#x2dc;" horiz-adv-x="702" 
d="M602 824v-170q-68 -56 -134 -56q-38 0 -101 24q-61 23 -88 28q-23 4 -40 4q-68 0 -139 -49v167q70 49 139 49q43 0 117 -27t112 -27q66 0 134 57z" />
    <glyph glyph-name="hungarumlaut" unicode="&#x2dd;" horiz-adv-x="808" 
d="M457 789h251l-120 -174h-185zM154 789h251l-120 -174h-185z" />
    <glyph glyph-name="uni0394" unicode="&#x394;" horiz-adv-x="759" 
d="M471 670l261 -670h-705l261 670h183zM476 181l-93 259l-93 -259h186z" />
    <glyph glyph-name="uni03A9" unicode="&#x3a9;" horiz-adv-x="806" 
d="M403 535q-112 0 -112 -131q0 -138 83 -206v-198h-347v193h118q-51 46 -78.5 102t-27.5 135q0 126 102.5 214t261.5 88q160 0 262.5 -88t102.5 -214q0 -139 -107 -237h118v-193h-347v198q83 68 83 206q0 131 -112 131z" />
    <glyph glyph-name="uni03BC" unicode="&#x3bc;" horiz-adv-x="645" 
d="M356 191v367h250v-558h-213l-19 41h-5q-38 -29 -88 -42v-204h-250v763h250v-354q0 -32 28 -32q20 0 47 19z" />
    <glyph glyph-name="pi" unicode="&#x3c0;" horiz-adv-x="873" 
d="M837 382h-143v-152q0 -53 62 -53q19 0 59 8v-178q-27 -6 -85 -12q-52 -7 -110 -7q-176 0 -176 193v201h-55v-382h-250v382h-119v176h817v-176z" />
    <glyph glyph-name="endash" unicode="&#x2013;" horiz-adv-x="617" 
d="M582 188h-547v185h547v-185z" />
    <glyph glyph-name="emdash" unicode="&#x2014;" horiz-adv-x="832" 
d="M797 188h-762v185h762v-185z" />
    <glyph glyph-name="quoteleft" unicode="&#x2018;" horiz-adv-x="273" 
d="M240 677v-82v-187h-211q-8 30 -8 84q-3 52 30.5 130.5t83.5 140.5h107z" />
    <glyph glyph-name="quoteright" unicode="&#x2019;" horiz-adv-x="258" 
d="M33 494v82v187h211q8 -30 8 -84q3 -51 -30.5 -130t-83.5 -141h-107z" />
    <glyph glyph-name="quotesinglbase" unicode="&#x201a;" horiz-adv-x="283" 
d="M35 -76v82v187h211q8 -30 8 -84q3 -51 -30.5 -130t-83.5 -141h-107z" />
    <glyph glyph-name="quotedblleft" unicode="&#x201c;" horiz-adv-x="541" 
d="M508 677v-82v-187h-211q-8 30 -8 84q-3 52 30.5 130.5t83.5 140.5h107zM240 677v-82v-187h-211q-8 30 -8 84q-3 52 30.5 130.5t83.5 140.5h107z" />
    <glyph glyph-name="quotedblright" unicode="&#x201d;" horiz-adv-x="526" 
d="M33 494v82v187h211q8 -30 8 -84q3 -51 -30.5 -130t-83.5 -141h-107zM301 494v82v187h211q8 -30 8 -84q3 -51 -30.5 -130t-83.5 -141h-107z" />
    <glyph glyph-name="quotedblbase" unicode="&#x201e;" horiz-adv-x="551" 
d="M35 -76v82v187h211q8 -30 8 -84q3 -51 -30.5 -130t-83.5 -141h-107zM303 -76v82v187h211q8 -30 8 -84q3 -51 -30.5 -130t-83.5 -141h-107z" />
    <glyph glyph-name="dagger" unicode="&#x2020;" horiz-adv-x="537" 
d="M394 339v-305h-251v305h-115v197h115v166h251v-166h115v-197h-115z" />
    <glyph glyph-name="daggerdbl" unicode="&#x2021;" horiz-adv-x="537" 
d="M394 100v-100h-251v100h-115v197h115v42h-115v197h115v166h251v-166h116v-197h-116v-42h116v-197h-116z" />
    <glyph glyph-name="bullet" unicode="&#x2022;" horiz-adv-x="328" 
d="M286 211h-244v224h244v-224z" />
    <glyph glyph-name="ellipsis" unicode="&#x2026;" horiz-adv-x="833" 
d="M252 0h-217v194h217v-194zM524 0h-217v194h217v-194zM798 0h-217v194h217v-194z" />
    <glyph glyph-name="perthousand" unicode="&#x2030;" horiz-adv-x="1071" 
d="M652 773l62 -242l-199 -185l-67 232zM245 374q-79 0 -124 41t-45 115q0 26 8 51.5t26 50.5t53 40.5t82 15.5q73 3 125 -45t48 -113q0 -74 -46 -115t-127 -41zM245 482q13 0 19 9.5t6 38.5q0 48 -25 48q-12 0 -18 -10t-6 -38q0 -26 5 -37t19 -11zM38 161l206 194l74 -208
l-211 -199zM518 -12q-79 0 -124 41t-45 115q0 26 8 51.5t26 50.5t53 40.5t82 15.5q73 3 125 -45t48 -113q0 -74 -46 -115t-127 -41zM518 96q13 0 19 9.5t6 38.5q0 48 -25 48q-12 0 -18 -10t-6 -38q0 -26 5 -37t19 -11zM881 -12q-79 0 -124 41t-45 115q0 26 8 51.5t26 50.5
t53 40.5t82 15.5q73 3 125 -45t48 -113q0 -74 -46 -115t-127 -41zM881 96q13 0 19 9.5t6 38.5q0 48 -25 48q-12 0 -18 -10t-6 -38q0 -26 5 -37t19 -11z" />
    <glyph glyph-name="guilsinglleft" unicode="&#x2039;" horiz-adv-x="361" 
d="M145 511h200l-146 -243l146 -243h-200l-141 243z" />
    <glyph glyph-name="guilsinglright" unicode="&#x203a;" horiz-adv-x="361" 
d="M216 25h-200l146 243l-146 243h200l141 -243z" />
    <glyph glyph-name="fraction" unicode="&#x2044;" horiz-adv-x="413" 
d="M470 763l-341 -763h-164l340 763h165z" />
    <glyph glyph-name="Euro" unicode="&#x20ac;" horiz-adv-x="706" 
d="M562 346l-10 -127h-192q9 -19 38 -32t73 -13q79 0 166 29v-181q-29 -8 -70 -17q-84 -17 -153 -17q-277 0 -328 231h-74l10 127h52v27h-36l10 127h43q58 232 339 232q83 0 194 -20v-181q-101 14 -139 14q-109 0 -123 -45h226l-10 -127h-248v-27h232z" />
    <glyph glyph-name="trademark" unicode="&#x2122;" horiz-adv-x="742" 
d="M282 750v-95h-78v-173h-114v173h-77v95h269zM588 616h-9l-11 -135h-121l-16 135h-8v-134h-114v268h167l29 -114h4l27 114h164v-268h-112v134z" />
    <glyph glyph-name="Omega" unicode="&#x2126;" horiz-adv-x="806" 
d="M403 535q-112 0 -112 -131q0 -138 83 -206v-198h-347v193h118q-51 46 -78.5 102t-27.5 135q0 126 102.5 214t261.5 88q160 0 262.5 -88t102.5 -214q0 -139 -107 -237h118v-193h-347v198q83 68 83 206q0 131 -112 131z" />
    <glyph glyph-name="partialdiff" unicode="&#x2202;" horiz-adv-x="663" 
d="M86 505v218q81 9 151 9q194 0 298.5 -98t104.5 -275q0 -92 -28 -165t-75.5 -117.5t-106 -67t-122.5 -21.5q-68 0 -129 19.5t-99 57.5q-67 67 -67 164q0 99 62 154t168 55q71 0 140 -24q-2 45 -55 70t-150 25q-44 0 -92 -4zM276 232q0 -42 47 -42q21 0 34.5 18t13.5 50
q-24 10 -50 10q-45 0 -45 -36z" />
    <glyph glyph-name="Delta" unicode="&#x2206;" horiz-adv-x="759" 
d="M471 670l261 -670h-705l261 670h183zM476 181l-93 259l-93 -259h186z" />
    <glyph glyph-name="product" unicode="&#x220f;" horiz-adv-x="833" 
d="M800 821v-1071h-251v867h-225v-868h-251v1072h727z" />
    <glyph glyph-name="summation" unicode="&#x2211;" 
d="M628 -25l10 -194h-593v193l246 327l-246 326v194h601l-10 -195h-329l250 -325l-250 -326h321z" />
    <glyph glyph-name="minus" unicode="&#x2212;" horiz-adv-x="543" 
d="M507 370v-178h-471v178h471z" />
    <glyph glyph-name="uni2219" unicode="&#x2219;" horiz-adv-x="299" 
d="M258 170h-217v194h217v-194z" />
    <glyph glyph-name="radical" unicode="&#x221a;" horiz-adv-x="1027" 
d="M53 566h364l124 -477l157 736h289l-268 -1002h-348l-150 505h-168v238z" />
    <glyph glyph-name="infinity" unicode="&#x221e;" horiz-adv-x="1057" 
d="M778 47q-126 0 -250 108q-123 -108 -249 -108q-111 0 -181.5 62.5t-70.5 165.5q0 102 70.5 164.5t181.5 62.5q123 0 251 -107q128 107 248 107q111 0 181.5 -62.5t70.5 -164.5q0 -103 -70.5 -165.5t-181.5 -62.5zM771 318q-11 0 -33 -5q-21 -5 -67 -38q59 -42 100 -42
q44 0 44 42q0 43 -44 43zM286 232q23 0 41 7q21 8 62 36q-35 24 -56 33.5t-47 9.5q-20 0 -30.5 -9t-10.5 -34q0 -22 9 -32.5t32 -10.5z" />
    <glyph glyph-name="uni2224" unicode="&#x2224;" horiz-adv-x="299" 
d="M258 170h-217v194h217v-194z" />
    <glyph glyph-name="logicaland" unicode="&#x2227;" horiz-adv-x="299" 
d="M258 170h-217v194h217v-194z" />
    <glyph glyph-name="integral" unicode="&#x222b;" horiz-adv-x="482" 
d="M125 41v500q0 248 245 248q81 0 136 -13l-17 -173l-41 6q-14 2 -26 2q-32 0 -42.5 -20t-10.5 -76v-500q0 -248 -245 -248q-35 0 -53 1q-26 2 -83 12l17 173l41 -6q14 -2 26 -2q32 0 42.5 20t10.5 76z" />
    <glyph glyph-name="approxequal" unicode="&#x2248;" horiz-adv-x="586" 
d="M363 471q50 0 102 34l60 -165q-66 -57 -131 -57q-25 0 -91 17q-65 18 -106 18q-48 0 -98 -29l-74 162q79 55 141 55q42 0 107 -18q66 -17 90 -17zM396 253q50 0 102 34l60 -165q-66 -57 -131 -57q-25 0 -91 17q-64 18 -106 18q-48 0 -98 -29l-74 162q79 55 141 55
q43 0 107 -18q66 -17 90 -17z" />
    <glyph glyph-name="notequal" unicode="&#x2260;" horiz-adv-x="524" 
d="M197 75l-25 -46h-101l24 46h-68v183h167l22 42h-189v182h287l27 49h102l-27 -49h82v-182h-180l-23 -42h203v-183h-301z" />
    <glyph glyph-name="lessequal" unicode="&#x2264;" horiz-adv-x="517" 
d="M336 319l-90 -10v-14l90 -10l144 -33v-157l-454 164v160l454 149v-216zM480 61v-61h-454v229z" />
    <glyph glyph-name="greaterequal" unicode="&#x2265;" horiz-adv-x="517" 
d="M181 285l90 10v14l-90 10l-144 33v216l454 -149v-160l-454 -164v157zM491 229v-229h-454v61z" />
    <glyph glyph-name="dotmath" unicode="&#x22c5;" horiz-adv-x="299" 
d="M258 170h-217v194h217v-194z" />
    <glyph glyph-name="lozenge" unicode="&#x25ca;" horiz-adv-x="639" 
d="M235 0l-208 339l208 332h168l209 -339l-209 -332h-168zM363 335l-44 78l-42 -77l41 -79z" />
    <glyph glyph-name="g.salt" horiz-adv-x="651" 
d="M77 -199l-1 177q102 -21 172 -21q134 0 134 73v8q-62 -46 -139 -46q-103 0 -162.5 69t-59.5 199q0 157 86 233.5t235 76.5q138 0 268 -36v-478q0 -114 -61 -178q-86 -95 -281 -95q-90 0 -191 18zM275 273q0 -55 8.5 -74t35.5 -19q21 0 41 11v188l-21 2q-38 0 -51 -22.5
t-13 -85.5z" />
    <glyph glyph-name="R.salt" horiz-adv-x="709" 
d="M682 444q2 -45 -24.5 -99.5t-62.5 -82.5v-4q13 -16 33 -24q21 -8 72 -8v-228q-57 -7 -98 -7q-100 0 -158 51q-60 52 -109 159h-31v-201h-256v720h348q139 0 212.5 -74.5t73.5 -201.5zM357 504h-53v-120h53q33 0 49.5 13t16.5 47t-16.5 47t-49.5 13z" />
    </font>
</defs>
</svg>
