<?xml version="1.0" standalone="no"?>
<!DOCTYPE svg PUBLIC "-//W3C//DTD SVG 1.1//EN" "http://www.w3.org/Graphics/SVG/1.1/DTD/svg11.dtd" >
<svg xmlns="http://www.w3.org/2000/svg" xmlns:xlink="http://www.w3.org/1999/xlink" version="1.1">
<metadata>
Created by FontForge 20170731 at Sun Mar 24 20:15:35 2019
 By Aleksey,,,
Copyright (c) 2013 by PSTL. All rights reserved. |DCNT
</metadata>
<defs>
<font id="Quatro-UltraBlackItalic" horiz-adv-x="654" >
  <font-face 
    font-family="Quatro UltraBlack"
    font-weight="950"
    font-style="italic"
    font-stretch="normal"
    units-per-em="1000"
    panose-1="2 11 5 5 5 0 0 9 0 4"
    ascent="742"
    descent="-258"
    x-height="558"
    cap-height="720"
    bbox="-137 -262 1233 994"
    underline-thickness="50"
    underline-position="-275"
    slope="-11"
    unicode-range="U+000D-FB04"
  />
<missing-glyph horiz-adv-x="570" 
d="M489 670v-670h-410v670h410zM148 69h272v532h-272v-532z" />
    <glyph glyph-name="f_f" unicode="ff" horiz-adv-x="862" 
d="M950 765l-32 -163q-48 6 -73 6q-19 1 -32.5 -1t-20 -7.5t-9.5 -9.5t-5 -11.5t-2 -8.5q-2 -9 -1 -12h123l-35 -177h-116l-114 -585h-247l114 585h-154l-114 -585h-247l114 585h-67l32 162l69 12l10 50q16 83 72 127q56 43 179 43q55 0 121 -6l-32 -163l-39 2
q-19 1 -32.5 -1t-20 -7.5t-9.5 -9.5t-5 -11.5t-2 -8.5q-2 -9 -1 -12h161l9 47q16 83 72 127q56 43 179 43q65 0 155 -10z" />
    <glyph glyph-name="fi" unicode="fi" horiz-adv-x="804" 
d="M786 600h-252l31 163h252zM537 766l-32 -163q-48 5 -61 5q-19 1 -32.5 -1t-20 -7.5t-9.5 -9.5t-5 -11.5t-2 -8.5q-2 -9 -1 -12h123l-35 -177h-116l-115 -586h-247l115 586h-67l32 162l69 12l10 50q16 83 72 127q56 43 179 43q48 0 143 -9zM454 190l72 368h251l-74 -372
q-3 -16 7 -23t61 -10l-26 -151q-26 -5 -67 -6q-40 -3 -66 -3q-103 0 -140 49t-18 148z" />
    <glyph glyph-name="fl" unicode="fl" horiz-adv-x="829" 
d="M549 765l-32 -163q-48 6 -73 6q-19 1 -32.5 -1t-20 -7.5t-9.5 -9.5t-5 -11.5t-2 -8.5q-2 -9 -1 -12h123l-35 -177h-116l-115 -586h-247l115 586h-67l32 162l69 12l10 50q16 83 72 127q56 43 179 43q65 0 155 -10zM470 188l112 575h250l-107 -554l-1 -11q0 -31 51 -31
l22 1l-26 -168q-23 -3 -71 -6q-46 -3 -72 -3q-165 0 -165 134q0 34 7 63z" />
    <glyph glyph-name="f_f_i" unicode="ffi" horiz-adv-x="1167" 
d="M938 766l-32 -163q-48 5 -61 5q-19 1 -32.5 -1t-20 -7.5t-9.5 -9.5t-5 -11.5t-2 -8.5q-2 -9 -1 -12h123l-35 -177h-116l-115 -586h-247l115 586h-154l-115 -586h-247l115 586h-67l32 162l69 12l10 50q16 83 72 127q56 43 179 43q55 0 121 -6l-32 -163l-39 2
q-19 1 -32.5 -1t-20 -7.5t-9.5 -9.5t-5 -11.5t-2 -8.5q-2 -9 -1 -12h160l10 47q16 83 72 127q56 43 179 43q49 0 143 -9zM927 558h250l-109 -558h-250zM1187 600h-252l31 163h252z" />
    <glyph glyph-name="f_f_l" unicode="ffl" horiz-adv-x="1188" 
d="M950 765l-32 -163q-48 6 -73 6q-71 0 -71 -42l1 -8h123l-35 -177h-116l-74 -381h-247l74 381h-154l-74 -381h-247l74 381h-67l32 162l69 12l10 50q21 93 76.5 131t174.5 39q55 0 121 -6l-32 -163l-39 2q-37 0 -54 -9t-17 -33l1 -8h161l9 47q16 83 72 127q56 43 179 43
q65 0 155 -10zM1233 763l-148 -763h-250l148 763h250z" />
    <glyph glyph-name="f_j" unicode="fj" horiz-adv-x="769" 
d="M785 600h-250l32 163h250zM527 558h250l-96 -494q-20 -103 -105 -180.5t-218 -123.5l-61 144q57 28 89 60q31 31 48 115zM537 766l-32 -163q-48 5 -61 5q-44 0 -57 -11.5t-13 -38.5h123l-35 -177h-116l-115 -586h-247l115 586h-67l32 162l69 12l10 50q21 93 76.5 131
t174.5 39q48 0 143 -9z" />
    <glyph glyph-name="f_t" unicode="ft" horiz-adv-x="871" 
d="M871 382h-143l-30 -152q-11 -53 52 -53q20 0 60 8l-34 -178q-45 -9 -97 -13q-59 -6 -102 -6q-174 0 -137 193l39 201h-132l-116 -587h-247l115 586h-67l32 162l69 12l10 50q16 83 72 127q56 43 179 43q65 0 155 -10l-32 -163q-48 6 -72 6q-19 1 -32.5 -1t-20.5 -7.5
t-9.5 -9.5t-5 -11.5t-2.5 -8.5l-1 -12h169l133 125h111l-24 -125h142z" />
    <glyph glyph-name=".notdef" horiz-adv-x="570" 
d="M489 670v-670h-410v670h410zM148 69h272v532h-272v-532z" />
    <glyph glyph-name=".null" horiz-adv-x="0" 
 />
    <glyph glyph-name="nonmarkingreturn" horiz-adv-x="333" 
 />
    <glyph glyph-name="NULL" horiz-adv-x="0" 
 />
    <glyph glyph-name="NULL" horiz-adv-x="0" 
 />
    <glyph glyph-name="CR" unicode="&#xd;" horiz-adv-x="230" 
 />
    <glyph glyph-name="space" unicode=" " horiz-adv-x="183" 
 />
    <glyph glyph-name="exclam" unicode="!" horiz-adv-x="350" 
d="M133 721h245l-97 -498h-245zM247 0h-264l32 168h265z" />
    <glyph glyph-name="quotedbl" unicode="&#x22;" horiz-adv-x="426" 
d="M215 407h-164l51 263h164zM411 407h-164l51 263h164z" />
    <glyph glyph-name="numbersign" unicode="#" horiz-adv-x="764" 
d="M228 -66h-230l64 163h-78l68 170h67l19 50h-67l63 173h62l67 180h230l-71 -180h48l69 180h233l-69 -180h67l-63 -173h-62l-17 -50h64l-60 -170h-62l-60 -163h-234l61 163h-49zM395 267l18 50h-50l-19 -50h51z" />
    <glyph glyph-name="dollar" unicode="$" horiz-adv-x="587" 
d="M57 413q0 96 50 161t140 93l13 65h214l-9 -45q35 -1 122 -10l-38 -194q-27 6 -86 11q-55 5 -87 5q-46 0 -64.5 -5.5t-18.5 -20.5q0 -9 11 -14q15 -6 69 -10q57 -5 81 -12q45 -12 69 -36q32 -32 32 -86q0 -107 -56 -175.5t-159 -94.5l-9 -45h-214l7 35q-69 6 -124 20
l37 193q28 -8 99 -19q67 -9 107 -9t55 5t15 20q0 7 -12 12q-14 6 -57 10q-36 4 -68 10q-47 13 -73 31q-46 34 -46 105z" />
    <glyph glyph-name="percent" unicode="%" horiz-adv-x="737" 
d="M727 773l15 -242l-235 -185l-22 232zM227 418q-64 0 -103.5 29t-39.5 88q0 83 57.5 140t146.5 57q68 0 106.5 -34t38.5 -91q0 -74 -53 -131.5t-153 -57.5zM248 526q17 0 27 20.5t10 53.5q0 22 -19 22q-16 0 -26.5 -22t-10.5 -53q0 -21 19 -21zM-5 161l242 194l34 -208
l-250 -199zM468 -12q-67 3 -103 27.5t-40 90.5q0 83 58 139.5t146 56.5q68 0 106.5 -34t38.5 -91q3 -73 -51.5 -130.5t-154.5 -58.5zM489 96q17 0 27.5 21t10.5 54q0 21 -19 21q-17 0 -27 -21.5t-10 -53.5q0 -21 18 -21z" />
    <glyph glyph-name="ampersand" unicode="&#x26;" horiz-adv-x="758" 
d="M487 556q-142 0 -142 -69q0 -33 56 -33h364l-35 -166h-96l22 -288h-222l-5 61q-32 -31 -97 -52q-63 -21 -128 -21q-96 0 -152 44.5t-56 125.5q0 63 40 119t108 89q-46 43 -46 110q0 122 104.5 189t289.5 67q79 0 189 -22l-38 -178q-82 24 -156 24zM419 201l-6 94h-53
q-44 0 -66.5 -21t-22.5 -56q0 -24 15 -37t40 -13q48 0 93 33z" />
    <glyph glyph-name="quotesingle" unicode="'" horiz-adv-x="230" 
d="M215 407h-164l51 263h164z" />
    <glyph glyph-name="parenleft" unicode="(" horiz-adv-x="396" 
d="M-2 74q0 184 68.5 362t196.5 328h228q-130 -155 -198.5 -324.5t-68.5 -323.5q0 -184 74 -350h-228q-72 144 -72 308z" />
    <glyph glyph-name="parenright" unicode=")" horiz-adv-x="396" 
d="M381 454q0 -184 -69 -363q-69 -177 -196 -325h-227q119 142 193 313.5t74 331.5q0 189 -75 353h228q72 -144 72 -310z" />
    <glyph glyph-name="asterisk" unicode="*" horiz-adv-x="402" 
d="M395 433l-135 -85l-38 77l-64 -79l-105 89l75 74l-86 28l68 132l81 -32l15 97h148l-23 -98l99 34l17 -131l-101 -28z" />
    <glyph glyph-name="plus" unicode="+" horiz-adv-x="562" 
d="M511 370v-178h-137v-146h-197v146h-137v178h137v145h197v-145h137z" />
    <glyph glyph-name="comma" unicode="," horiz-adv-x="284" 
d="M50 -162h-106l70 355h211q0 -171 -175 -355z" />
    <glyph glyph-name="hyphen" unicode="-" horiz-adv-x="413" 
d="M352 173h-342l35 185h342z" />
    <glyph glyph-name="period" unicode="." horiz-adv-x="288" 
d="M194 0h-217l37 194h217z" />
    <glyph glyph-name="slash" unicode="/" horiz-adv-x="426" 
d="M81 -250h-215l457 1000h220z" />
    <glyph glyph-name="zero" unicode="0" horiz-adv-x="723" 
d="M21 250q0 164 86 301q53 83 139.5 132t196.5 49q146 0 212 -72.5t66 -190.5q0 -90 -30 -185t-87 -161q-61 -69 -130.5 -100.5t-175.5 -34.5q-132 0 -200 60q-77 69 -77 202zM399 508q-48 4 -81.5 -69.5t-33.5 -164.5q0 -63 58 -63q48 -4 81.5 69t33.5 164q0 34 -14 49
t-44 15z" />
    <glyph glyph-name="one" unicode="1" horiz-adv-x="419" 
d="M446 720l-139 -720h-256l96 497h-93l31 157l155 66h206z" />
    <glyph glyph-name="two" unicode="2" horiz-adv-x="584" 
d="M496 0h-532l43 220q281 124 281 229q0 52 -90 52q-62 0 -120 -15l44 229q107 17 217 17q244 0 244 -178q0 -203 -273 -331h230z" />
    <glyph glyph-name="three" unicode="3" horiz-adv-x="553" 
d="M68 496l39 204q136 31 233 31q102 0 161.5 -43t59.5 -118q0 -127 -120 -196q33 -14 54 -44.5t21 -72.5q0 -119 -107 -193t-259 -74q-105 0 -182 13l38 194q88 -11 156 -11q89 0 89 62q0 32 -64 32h-76l30 156h88q68 0 68 56q0 35 -65 35q-40 0 -92 -12q-47 -9 -72 -19z
" />
    <glyph glyph-name="four" unicode="4" horiz-adv-x="672" 
d="M342 367l73 137h199l-33 -173h91l-38 -194h-91l-26 -137h-246l26 137h-315l42 222l197 361h250l-203 -389h67z" />
    <glyph glyph-name="five" unicode="5" horiz-adv-x="568" 
d="M197 319h-146l78 401h473l-40 -206h-231l-10 -47q106 0 160 -45t54 -125q0 -95 -49 -168q-38 -62 -126.5 -102t-190.5 -39q-83 0 -181 18l40 211q74 -13 136 -13q46 0 74 22.5t28 54.5q0 38 -69 38z" />
    <glyph glyph-name="six" unicode="6" horiz-adv-x="663" 
d="M674 715l-42 -218l-99 12q-29 3 -62 3q-87 0 -126.5 -21t-39.5 -67q60 9 89 12q31 3 65 3q86 0 134 -42t48 -115q0 -122 -101 -208.5t-269 -86.5q-125 0 -188 64t-63 185q0 140 52.5 250.5t160 177.5t254.5 67q92 0 187 -16zM324 190q20 0 35 13t15 31q0 32 -51 32
q-15 0 -40 -4q-2 -10 -2 -23q0 -49 43 -49z" />
    <glyph glyph-name="seven" unicode="7" horiz-adv-x="538" 
d="M82 720h534l-34 -178q-98 -121 -142 -188q-104 -158 -154 -354h-256q62 268 259 514h-247z" />
    <glyph glyph-name="eight" unicode="8" horiz-adv-x="664" 
d="M290 277q-28 -22 -28 -56q0 -32 47 -32q29 0 46.5 13t17.5 34q0 8 -10 15q-12 10 -41 17zM269 -12q-135 0 -205 42.5t-70 123.5q-3 52 34.5 117t107.5 98q-55 49 -55 110q0 43 18.5 85.5t56.5 81t105 62.5t153 24q122 0 187 -50.5t65 -121.5q4 -43 -29.5 -103t-86.5 -88
q78 -43 78 -123q0 -116 -100 -187t-259 -71zM376 535q-27 0 -45.5 -14.5t-18.5 -35.5q0 -8 8 -19q10 -11 63 -26q31 28 36 39q4 9 4 20q0 15 -13.5 25.5t-33.5 10.5z" />
    <glyph glyph-name="nine" unicode="9" horiz-adv-x="664" 
d="M9 3l42 218l98 -12q30 -3 63 -3q87 0 126.5 21t39.5 67q-58 -9 -90 -12t-64 -3q-86 0 -134 42t-48 115q0 122 101 208.5t269 86.5q125 0 188 -64t63 -185q0 -140 -52.5 -250.5t-160 -177.5t-254.5 -67q-92 0 -187 16zM359 528q-20 0 -35 -13t-15 -31q0 -32 51 -32
q15 0 40 4q2 10 2 23q0 49 -43 49z" />
    <glyph glyph-name="colon" unicode=":" horiz-adv-x="375" 
d="M292 287h-217l37 194h217zM236 0h-217l37 194h217z" />
    <glyph glyph-name="semicolon" unicode=";" horiz-adv-x="316" 
d="M268 287h-217l38 194h217zM69 -162h-106l70 355h211v-10q0 -23 -8 -74q-26 -121 -167 -271z" />
    <glyph glyph-name="less" unicode="&#x3c;" horiz-adv-x="505" 
d="M323 289l-92 -10l-3 -14l88 -10l124 -33l-42 -216l-410 149l44 234l469 149l-42 -216z" />
    <glyph glyph-name="equal" unicode="=" horiz-adv-x="606" 
d="M533 482v-182h-471v182h471zM533 258v-183h-471v183h471z" />
    <glyph glyph-name="greater" unicode="&#x3e;" horiz-adv-x="505" 
d="M167 255l92 10l3 14l-88 10l-124 33l42 216l411 -149l-45 -234l-468 -149l41 216z" />
    <glyph glyph-name="question" unicode="?" horiz-adv-x="487" 
d="M327 223h-247q7 94 66 167q26 30 74 72q46 40 51 51q5 13 5 16q0 36 -73 36q-62 0 -158 -24l42 216q145 19 240 19q61 0 112 -19q52 -17 79.5 -55.5t27.5 -85.5q0 -61 -35 -117q-15 -25 -70 -76q-56 -52 -69 -70q-31 -41 -40 -85q-4 -16 -5 -45zM288 0h-251l32 163h251z
" />
    <glyph glyph-name="at" unicode="@" horiz-adv-x="881" 
d="M459 335q-14 5 -33 -25.5t-18 -58.5q0 -17 28 -17l34 99q-6 2 -11 2zM679 393l-65 -186l41 -6l72 206q-30 36 -96.5 65.5t-134.5 28.5q-112 0 -194 -59q-128 -89 -128 -249q0 -82 55.5 -124.5t160.5 -42.5q70 0 143 16l-6 -161q-87 -28 -208 -28q-107 0 -197 49
q-63 35 -101 100t-38 153q0 211 160 365q81 78 183 116.5t209 38.5q152 2 257.5 -78t103.5 -195q2 -128 -97.5 -230.5t-232.5 -100.5q-99 0 -106 65l-10 2q-46 -49 -116 -49q-51 0 -83.5 30t-32.5 83q0 103 81.5 182t189.5 79q52 1 106 -21t84 -49z" />
    <glyph glyph-name="A" unicode="A" horiz-adv-x="752" 
d="M241 108l-47 -108h-267l360 721h337l80 -721h-265l-7 108h-191zM332 318h83v127v52h-10l-17 -52z" />
    <glyph glyph-name="B" unicode="B" horiz-adv-x="695" 
d="M129 720h347q105 0 163.5 -47.5t58.5 -119.5q0 -44 -24 -98q-22 -52 -67 -86l-1 -5q59 -41 59 -107q0 -106 -79 -175q-96 -82 -249 -82h-346zM384 514h-39l-17 -88h39q66 0 66 56q0 32 -49 32zM342 294h-39l-17 -88h39q65 0 65 57q0 31 -48 31z" />
    <glyph glyph-name="C" unicode="C" horiz-adv-x="627" 
d="M672 710l-45 -223q-91 21 -157 21q-90 0 -137 -49t-47 -142q0 -106 115 -106q76 0 181 32l-43 -221q-81 -34 -222 -34q-154 0 -228 63t-74 190q0 137 54 250q56 113 158 177q103 64 233 64q136 0 212 -22z" />
    <glyph glyph-name="D" unicode="D" horiz-adv-x="727" 
d="M731 461q1 -88 -28 -171t-82 -148t-133 -104t-173 -38h-324l138 720h325q131 0 204 -67t73 -192zM381 497h-39l-53 -274h39q68 0 104.5 52t36.5 150q0 38 -20.5 55t-67.5 17z" />
    <glyph glyph-name="E" unicode="E" horiz-adv-x="637" 
d="M543 0h-552l138 720h559l-43 -223h-303l-9 -48h214l-35 -178h-214l-9 -48h297z" />
    <glyph glyph-name="F" unicode="F" horiz-adv-x="613" 
d="M246 0h-255l138 720h550l-43 -223h-294l-16 -85h246l-42 -213h-246z" />
    <glyph glyph-name="G" unicode="G" horiz-adv-x="719" 
d="M470 408h238l-71 -365q-173 -55 -328 -55q-295 0 -295 254q0 102 32 190t92.5 155.5t156.5 106t217 38.5q150 0 236 -25l-45 -230q-43 11 -105 21q-57 10 -93 10q-124 -1 -173.5 -48t-52.5 -159q0 -49 26 -69.5t84 -20.5q21 0 43 3z" />
    <glyph glyph-name="H" unicode="H" horiz-adv-x="794" 
d="M-9 0l138 720h256l-49 -255h181l49 255h257l-139 -720h-257l47 242h-181l-47 -242h-255z" />
    <glyph glyph-name="I" unicode="I" horiz-adv-x="356" 
d="M385 720l-139 -720h-255l138 720h256z" />
    <glyph glyph-name="J" unicode="J" horiz-adv-x="359" 
d="M390 720l-114 -586q-38 -194 -269 -354l-116 162q109 86 125 170l118 608h256z" />
    <glyph glyph-name="K" unicode="K" horiz-adv-x="759" 
d="M303 270l-57 -270h-255l139 720h256l-51 -259q86 10 128 73t53 186h257q-8 -260 -209 -367q3 -73 40 -106t112 -33l-26 -214q-50 -5 -77 -5q-123 0 -185 66t-74 207z" />
    <glyph glyph-name="L" unicode="L" horiz-adv-x="592" 
d="M567 223l-43 -223h-533l138 720h256l-96 -497h278z" />
    <glyph glyph-name="M" unicode="M" horiz-adv-x="1001" 
d="M706 339h-13l-132 -340h-242v340h-12l-66 -339h-250l139 720h337l32 -403h10l186 403h336l-140 -720h-251z" />
    <glyph glyph-name="N" unicode="N" horiz-adv-x="785" 
d="M675 0h-246l-124 291l-6 -3l-14 -86l-39 -202h-255l138 720h254l115 -299l7 3l11 78l42 218h256z" />
    <glyph glyph-name="O" unicode="O" horiz-adv-x="755" 
d="M16 253q0 129 50.5 236.5t153.5 175t240 67.5q147 0 223.5 -67.5t76.5 -198.5q0 -129 -51 -236t-154 -174.5t-240 -67.5q-146 0 -222.5 67.5t-76.5 197.5zM416 508q-69 0 -103 -62t-34 -157q0 -42 19.5 -59.5t60.5 -17.5q53 0 95.5 54t42.5 163q0 43 -19.5 61t-61.5 18z
" />
    <glyph glyph-name="P" unicode="P" horiz-adv-x="668" 
d="M-9 0l138 720h354q39 0 75.5 -11.5t69 -35t52.5 -66.5t20 -100q3 -136 -94 -239.5t-222 -101.5h-106l-32 -166h-255zM386 502h-43l-23 -118h43q39 0 56 24t17 52q0 42 -50 42z" />
    <glyph glyph-name="Q" unicode="Q" horiz-adv-x="755" 
d="M15 253q0 147 65 263q51 94 150.5 155.5t229.5 60.5q145 0 222 -67.5t77 -196.5q0 -130 -51 -240q-57 -123 -162 -184q36 -19 68.5 -61.5t44.5 -94.5h-303q-2 32 -18.5 59.5t-37.5 40.5q-139 4 -212 71.5t-73 193.5zM416 508q-68 0 -103 -62t-35 -156q0 -43 19 -60.5
t61 -17.5q68 0 103 62t35 156q0 43 -19.5 60.5t-60.5 17.5z" />
    <glyph glyph-name="R" unicode="R" horiz-adv-x="725" 
d="M717 514q0 -167 -129 -254l-1 -8q0 -71 88 -71l-28 -181q-49 -6 -92 -6q-218 0 -218 171l2 36h-54l-39 -201h-255l138 720h348q117 0 178.5 -54t61.5 -152zM396 504h-53l-23 -120h53q80 0 80 80q0 40 -57 40z" />
    <glyph glyph-name="S" unicode="S" horiz-adv-x="635" 
d="M50 432q0 100 54.5 169.5t141 100t197.5 30.5q76 0 207 -14l-42 -219q-52 9 -99 13q-62 5 -97 5q-52 0 -73 -6.5t-21 -23.5q0 -12 11 -20q10 -7 26 -10q13 -3 81 -12q103 -14 140 -51q36 -36 36 -96q0 -150 -102.5 -230t-267.5 -80q-51 0 -129 8q-75 8 -127 19l42 218
q36 -10 113 -21q73 -10 122 -10q44 0 60.5 5.5t16.5 22.5q0 13 -17 21q-17 7 -63 12t-65 9q-145 28 -145 160z" />
    <glyph glyph-name="T" unicode="T" 
d="M726 720l-43 -224h-193l-96 -496h-256l96 497h-193l43 223h642z" />
    <glyph glyph-name="U" unicode="U" horiz-adv-x="753" 
d="M790 720l-82 -421q-30 -154 -135 -232.5t-259 -78.5q-133 0 -206.5 57.5t-73.5 172.5q0 39 8 81l82 421h256l-82 -422q-4 -17 -4 -36q0 -51 64 -51q42 0 63 19.5t31 67.5l82 422h256z" />
    <glyph glyph-name="V" unicode="V" horiz-adv-x="760" 
d="M371 227l17 52l185 441h275l-354 -720h-337l-96 720h300v-493h10z" />
    <glyph glyph-name="W" unicode="W" horiz-adv-x="1080" 
d="M746 273h6l143 447h256l-275 -720h-329v303h-14l-107 -303h-340v720h255v-447h6l151 447h248v-447z" />
    <glyph glyph-name="X" unicode="X" horiz-adv-x="772" 
d="M563 720h292l-252 -354l132 -366h-297l-75 193h-14l-131 -193h-284l256 363l-129 357h299l63 -194h14z" />
    <glyph glyph-name="Y" unicode="Y" horiz-adv-x="720" 
d="M813 720l-345 -497l-43 -223h-254l43 223l-153 497h277l49 -241h9l140 241h277z" />
    <glyph glyph-name="Z" unicode="Z" horiz-adv-x="669" 
d="M103 720h607l-38 -196l-307 -301h265l-43 -223h-610l36 193l309 304h-262z" />
    <glyph glyph-name="bracketleft" unicode="[" horiz-adv-x="351" 
d="M-55 -204l186 967h275l-34 -178h-59l-119 -610h59l-34 -179h-274z" />
    <glyph glyph-name="backslash" unicode="\" horiz-adv-x="427" 
d="M343 -250h-220l-68 1000h216z" />
    <glyph glyph-name="bracketright" unicode="]" horiz-adv-x="352" 
d="M396 763l-187 -967h-274l34 178h58l119 610h-59l34 179h275z" />
    <glyph glyph-name="asciicircum" unicode="^" horiz-adv-x="628" 
d="M245 467l-64 -114h-222l215 317h215l98 -317h-217l-21 114h-4z" />
    <glyph glyph-name="underscore" unicode="_" horiz-adv-x="541" 
d="M449 -7h-476l29 154h476z" />
    <glyph glyph-name="grave" unicode="`" horiz-adv-x="500" 
d="M359 615h-185l-87 174h251z" />
    <glyph glyph-name="a" unicode="a" 
d="M650 519l-99 -519h-197l-20 63q-72 -72 -165 -72q-77 0 -122 53t-45 140q0 184 100 285t274 101q124 0 274 -51zM375 379l-23 2q-44 -2 -67 -47q-24 -45 -24 -102q0 -22 11 -35.5t29 -13.5t36 8z" />
    <glyph glyph-name="b" unicode="b" horiz-adv-x="645" 
d="M301 371l-37 -192q12 -3 22 -3q22 0 44 17q21 17 34.5 56.5t13.5 77.5q0 51 -38 51q-19 0 -39 -7zM-15 24l143 739h250l-46 -229q63 36 131 36q70 3 122.5 -46t49.5 -130q0 -181 -103 -293.5t-273 -112.5q-136 0 -274 36z" />
    <glyph glyph-name="c" unicode="c" horiz-adv-x="521" 
d="M2 197q0 160 99 266.5t263 106.5q96 0 174 -23l-36 -181q-71 20 -130 20q-54 0 -83 -41t-29 -110q0 -31 15 -47t56 -16q58 0 138 20l-36 -181q-86 -23 -182 -23q-124 0 -186.5 54t-62.5 155z" />
    <glyph glyph-name="d" unicode="d" horiz-adv-x="656" 
d="M701 763l-148 -763h-197l-20 63q-75 -73 -167 -73q-76 0 -120 53t-44 140q0 164 87 275.5t235 111.5q38 0 88 -10l42 203h244zM377 380l-21 2q-20 0 -40 -12q-21 -12 -36 -48.5t-15 -81.5q0 -57 37 -57q17 0 38 8z" />
    <glyph glyph-name="e" unicode="e" horiz-adv-x="585" 
d="M520 206l-21 -191q-117 -28 -216 -28q-146 0 -214.5 55.5t-68.5 168.5q-2 146 101.5 253.5t264.5 105.5q90 0 150 -41q66 -44 66 -124q0 -88 -57.5 -138t-156.5 -50q-51 0 -105 17l-1 -10q0 -51 88 -51q82 0 170 33zM277 346l14 -1q67 0 67 47q0 20 -22 20t-39.5 -20
t-19.5 -46z" />
    <glyph glyph-name="f" unicode="f" horiz-adv-x="461" 
d="M549 765l-32 -163q-48 6 -73 6q-42 0 -56 -10t-14 -33v-7h123l-35 -177h-116l-115 -586h-246l114 586h-66l31 162l69 12l10 50q21 93 76.5 131t174.5 39q65 0 155 -10z" />
    <glyph glyph-name="g" unicode="g" horiz-adv-x="656" 
d="M652 518l-94 -490q-19 -112 -111.5 -180.5t-252.5 -65.5q-92 0 -214 24l39 182q102 -29 183 -29q126 0 143 74l-6 29h-4q-71 -71 -164 -71q-77 0 -122 53t-45 140q0 184 100 284.5t274 100.5q124 0 274 -51zM377 379l-23 2q-44 -2 -67 -47q-24 -45 -24 -102
q0 -22 11 -35.5t29 -13.5t36 8z" />
    <glyph glyph-name="h" unicode="h" horiz-adv-x="659" 
d="M304 367l-72 -367h-249l148 763h250l-46 -237q74 44 162 44q70 0 109 -39q46 -44 28 -136l-77 -395h-250l69 354q6 32 -22 32q-18 0 -50 -19z" />
    <glyph glyph-name="i" unicode="i" horiz-adv-x="369" 
d="M350 600h-256l32 163h256zM18 190l72 368h251l-74 -372q-3 -16 7 -23t61 -10l-26 -151q-26 -5 -67 -6q-40 -3 -66 -3q-103 0 -140 49t-18 148z" />
    <glyph glyph-name="j" unicode="j" horiz-adv-x="336" 
d="M92 558h250l-96 -494q-18 -91 -97.5 -173t-224.5 -131l-61 144q57 28 89 60q30 30 47 115zM353 600h-256l32 163h256z" />
    <glyph glyph-name="k" unicode="k" horiz-adv-x="643" 
d="M268 198l-38 -198h-249l147 763h250l-75 -400q55 11 66 29q13 19 13 46q0 25 -10 78l237 57q28 -39 28 -95q0 -60 -38 -116q-38 -57 -98 -85v-6q0 -35 20.5 -47t78.5 -12l-42 -216q-85 -8 -96 -8q-40 -1 -76.5 14t-63 52.5t-24.5 91.5q0 33 7 62z" />
    <glyph glyph-name="l" unicode="l" horiz-adv-x="376" 
d="M17 188l112 575h250l-107 -554q-5 -21 9.5 -31.5t40.5 -10.5l22 1l-26 -168q-23 -3 -71 -6q-47 -3 -72 -3q-196 0 -158 197z" />
    <glyph glyph-name="m" unicode="m" horiz-adv-x="964" 
d="M618 367l-71 -367h-250l69 354q6 32 -22 32q-15 0 -41 -19l-71 -367h-249l108 558h212l10 -44q93 56 183 56q48 0 81 -16.5t45 -42.5l20 13q68 46 160 46q70 0 109 -39q46 -44 28 -136l-77 -395h-250l69 354q6 32 -22 32q-19 0 -41 -19z" />
    <glyph glyph-name="n" unicode="n" horiz-adv-x="659" 
d="M303 367l-71 -367h-249l108 558h209l15 -41h5q80 53 177 53q70 0 109 -39q46 -44 28 -136l-77 -395h-250l69 354q6 32 -22 32q-17 0 -51 -19z" />
    <glyph glyph-name="o" unicode="o" horiz-adv-x="634" 
d="M367 570q123 0 188 -56t65 -160q0 -167 -103.5 -266.5t-262.5 -99.5q-123 0 -187.5 55t-64.5 158q0 162 102.5 265.5t262.5 103.5zM255 205q0 -40 34 -40q17 0 34 17q17 18 31 67q14 53 14 103q0 41 -34 41q-17 0 -34 -17q-18 -18 -31 -68q-14 -53 -14 -103z" />
    <glyph glyph-name="p" unicode="p" horiz-adv-x="656" 
d="M-57 -205l148 763h197l20 -61q75 73 167 73q76 0 120 -53t44 -140q0 -108 -41 -201q-40 -90 -113.5 -139t-167.5 -49q-38 0 -88 10l-42 -203h-244zM267 178l21 -2q20 0 40 11q21 12 36 49t15 81q0 60 -37 60q-17 0 -38 -8z" />
    <glyph glyph-name="q" unicode="q" horiz-adv-x="646" 
d="M333 191l37 188q-12 3 -22 3q-22 0 -45 -18q-20 -16 -34 -57q-13 -39 -13 -76q0 -47 38 -47q19 0 39 7zM649 534l-143 -739h-250l46 233q-63 -36 -131 -36q-70 -3 -122.5 46t-49.5 130q0 180 103 291t273 111q136 0 274 -36z" />
    <glyph glyph-name="r" unicode="r" horiz-adv-x="465" 
d="M498 560l-46 -234l-163 -34l-57 -292h-249l108 558h234l-19 -101h7q23 49 66 76t119 27z" />
    <glyph glyph-name="s" unicode="s" horiz-adv-x="530" 
d="M340 570q35 0 93 -5q55 -5 92 -12l-43 -178q-22 5 -72 10q-52 5 -76 5q-49 0 -49 -19q0 -5 9 -10q9 -4 50 -9q41 -4 70 -12q81 -24 81 -109q0 -107 -77 -175t-244 -68q-51 0 -104 4q-63 3 -96 10l40 178q36 -7 87 -11q63 -5 94 -5q22 0 32 4t10 20q0 2 -5 7t-64 11
q-80 8 -110.5 39t-30.5 78q0 119 90 183t223 64z" />
    <glyph glyph-name="t" unicode="t" horiz-adv-x="479" 
d="M479 381h-143l-29 -151l-2 -14q0 -39 54 -39q17 0 60 8l-34 -178q-45 -9 -97 -13q-58 -6 -102 -6q-145 0 -145 133q0 25 6 60l39 200h-54l35 171q73 4 121.5 34.5t96.5 96.5h111l-24 -125h142z" />
    <glyph glyph-name="u" unicode="u" horiz-adv-x="661" 
d="M19 190l71 368h250l-68 -354l-2 -13q0 -19 24 -19q20 0 50 18l72 368h250l-108 -558h-187l-10 63l-33 -22q-76 -52 -160 -52q-65 0 -109.5 38.5t-44.5 111.5q0 26 5 51z" />
    <glyph glyph-name="v" unicode="v" horiz-adv-x="627" 
d="M38 558h257l4 -245l-9 -90h14l78 175q15 41 15 160h246v-20q0 -115 -34 -184l-174 -355h-335z" />
    <glyph glyph-name="w" unicode="w" horiz-adv-x="979" 
d="M88 558h250l-69 -354q-3 -14 5.5 -23t23.5 -9q9 0 30 6t32 13l71 367h234l-68 -349q-7 -37 30 -37q16 0 29 11.5t17 31.5l67 343h250l-69 -354q-21 -106 -105.5 -161t-226.5 -55q-140 0 -204 73q-33 -33 -87 -53t-109 -20q-70 0 -123 39.5t-53 122.5q0 24 6 54z" />
    <glyph glyph-name="x" unicode="x" horiz-adv-x="660" 
d="M226 0h-252q0 18 9 48q9 31 60 98l103 137l-126 275h297l31 -117v-37h8l13 37l36 59q14 26 14 58h256q0 -59 -66 -142l-110 -136l126 -280h-300l-30 88v39h-7l-15 -39l-32 -46q-14 -19 -15 -42z" />
    <glyph glyph-name="y" unicode="y" horiz-adv-x="667" 
d="M406 -205h-276q-2 48 17 111.5t45 92.5h-93l-61 559h270l8 -245l-7 -90h9l59 136q48 107 48 199h266q0 -96 -59 -211l-186 -361q-14 -28 -27 -67t-13 -124z" />
    <glyph glyph-name="z" unicode="z" horiz-adv-x="592" 
d="M239 381h-201l35 177h538l-27 -140l-236 -241h194l-35 -177h-539l27 141z" />
    <glyph glyph-name="braceleft" unicode="{" horiz-adv-x="432" 
d="M259 261q29 -29 29 -72q0 -46 -31 -112q-33 -72 -35 -79q-5 -15 -5 -24q0 -22 29 -22q24 0 96 19l-30 -203q-73 -18 -149 -18q-167 0 -167 143q0 37 10 76q10 40 35 97q24 57 24 72q0 23 -34 23h-51l38 202l37 -3q31 0 47.5 13t16.5 49l-4 76q0 132 65 204t182 72
q75 0 143 -18l-50 -203q-70 19 -88 19q-43 0 -43 -55l5 -98q0 -106 -70 -158z" />
    <glyph glyph-name="bar" unicode="|" horiz-adv-x="336" 
d="M133 774h251l-201 -1035h-250z" />
    <glyph glyph-name="braceright" unicode="}" horiz-adv-x="432" 
d="M154 263q-29 29 -29 71q0 46 42 138q22 45 25 58q4 12 4 20q0 22 -29 22q-24 0 -96 -19l30 203q73 18 149 18q167 0 167 -142q0 -33 -11 -77q-12 -45 -34 -98q-24 -55 -24 -71q0 -23 34 -23h52l-39 -202q-61 4 -80.5 -7t-19.5 -49l3 -80q0 -132 -65 -203.5t-182 -71.5
q-74 0 -142 18l50 203q55 -15 64 -16q14 -3 23 -3q21 0 32 11.5t11 42.5q0 11 -3 46q-3 34 -3 53q0 105 71 158z" />
    <glyph glyph-name="asciitilde" unicode="~" horiz-adv-x="529" 
d="M502 386l-15 -139q-57 -25 -113 -25q-43 0 -118 19t-115 19q-57 0 -115 -29l19 143q69 31 137 31q46 0 121 -19q77 -18 112 -18q43 0 87 18z" />
    <glyph glyph-name="uni00A0" unicode="&#xa0;" horiz-adv-x="183" 
 />
    <glyph glyph-name="exclamdown" unicode="&#xa1;" horiz-adv-x="362" 
d="M200 -221h-244l96 498h245zM86 500h265l-33 -168h-265z" />
    <glyph glyph-name="cent" unicode="&#xa2;" horiz-adv-x="534" 
d="M11 197q0 126 64 223.5t175 131.5l16 82h198l-14 -68q51 -5 97 -19l-36 -181q-71 20 -130 20q-54 0 -83 -41t-29 -110q0 -31 15 -47t56 -16q58 0 138 20l-36 -181q-50 -14 -104 -19l-13 -68h-198l16 80q-132 43 -132 193z" />
    <glyph glyph-name="sterling" unicode="&#xa3;" horiz-adv-x="551" 
d="M482 190l-37 -190h-494l60 179q46 0 72.5 12.5t32.5 48.5h-62l37 192h66q24 118 128 185.5t263 75.5l-9 -185q-141 -11 -156 -76h105l-37 -192h-116q-2 -12 -15.5 -28.5t-28.5 -26.5l2 -5q33 10 67 10h122z" />
    <glyph glyph-name="currency" unicode="&#xa4;" horiz-adv-x="551" 
d="M263 206q18 0 30 13.5t12 32.5t-12 32.5t-30 13.5t-30.5 -13.5t-12.5 -32.5t12.5 -32.5t30.5 -13.5zM395 471l91 -91l-79 -78q9 -27 9 -50q0 -27 -9 -50l81 -79l-91 -91l-81 79q-24 -9 -53 -9t-53 8l-80 -79l-91 91l79 78q-8 27 -8 52q0 28 9 52l-78 77l91 91l80 -79
q27 9 51 9t53 -9z" />
    <glyph glyph-name="yen" unicode="&#xa5;" horiz-adv-x="807" 
d="M665 183l-35 -183h-570l35 183h158l6 32h-158l36 182h71l-100 323h277l49 -241h9l140 241h277l-224 -323h71l-36 -182h-158l-6 -32h158z" />
    <glyph glyph-name="brokenbar" unicode="&#xa6;" horiz-adv-x="341" 
d="M-54 -206l89 451h251l-89 -451h-251zM384 763l-84 -440h-251l84 440h251z" />
    <glyph glyph-name="section" unicode="&#xa7;" horiz-adv-x="557" 
d="M485 267l-187 84l-63 27q-50 21 -87 44q-68 41 -68 114q0 99 83.5 163t222.5 64q47 0 102 -7q60 -6 87 -15l-50 -158q-13 6 -58 14q-44 10 -85 10q-66 0 -66 -27q0 -18 60 -37q68 -22 82 -29q34 -15 54 -32q34 -30 34 -74q0 -71 -61 -141zM28 283q0 31 15.5 66t40.5 58
l201 -98l16 -8l78 -37q66 -31 91 -56t25 -60q0 -97 -86 -156q-47 -33 -112 -47q-67 -14 -121 -14q-42 0 -105 6q-60 4 -99 14l43 157q19 -6 71 -16q50 -8 84 -8q51 0 68.5 6t17.5 20t-51 30l-63 22q-114 46 -114 121z" />
    <glyph glyph-name="dieresis" unicode="&#xa8;" horiz-adv-x="833" 
d="M424 609h-202l35 179h202zM664 609h-202l35 179h202z" />
    <glyph glyph-name="copyright" unicode="&#xa9;" horiz-adv-x="925" 
d="M31 271q0 127 64 239q65 113 186 182q121 70 270 70q162 0 263 -83t101 -228q0 -142 -73 -254q-74 -113 -192 -171q-117 -58 -254 -58q-165 0 -265 78t-100 225zM543 452l93 -6l25 125q-76 14 -125 14q-121 0 -192.5 -77.5t-71.5 -202.5q0 -72 42 -110t122 -38
q63 0 150 24l19 114q-72 -8 -88 -8q-34 0 -50 12.5t-16 41.5q0 111 92 111z" />
    <glyph glyph-name="ordfeminine" unicode="&#xaa;" horiz-adv-x="410" 
d="M238 412l7 39h-17q-31 0 -35 -22q-5 -23 19 -23q10 0 26 6zM34 414q5 25 13.5 42.5t27 34.5t54 26t87.5 9h44l1 9q3 13 -6.5 20t-40.5 7q-66 0 -124 -16l22 117q92 19 164 19q172 0 144 -150l-44 -224h-121l-3 31h-3q-52 -43 -116 -43q-20 0 -38.5 5.5t-35.5 17.5
t-24.5 36.5t-0.5 58.5z" />
    <glyph glyph-name="guillemotleft" unicode="&#xab;" horiz-adv-x="566" 
d="M247 267l188 244l138 -83l-131 -161l67 -160l-168 -83zM-2 267l188 244l138 -83l-131 -161l67 -160l-168 -83z" />
    <glyph glyph-name="logicalnot" unicode="&#xac;" horiz-adv-x="630" 
d="M37 356h517v-296l-180 15v107h-337v174z" />
    <glyph glyph-name="uni00AD" unicode="&#xad;" horiz-adv-x="413" 
d="M352 173h-342l35 185h342z" />
    <glyph glyph-name="registered" unicode="&#xae;" horiz-adv-x="925" 
d="M648 169l-39 139q38 23 60.5 65.5t22.5 90.5q0 45 -27 73q-39 42 -123 42h-206l-80 -410h162l21 108h23l18 -108h168zM479 382h-19l16 82h19q24 0 24 -25q0 -57 -40 -57zM31 271q0 127 64 239q65 113 186 182q121 70 270 70q162 0 263 -83t101 -228q0 -142 -73 -254
q-74 -113 -192 -171q-117 -58 -254 -58q-165 0 -265 78t-100 225z" />
    <glyph glyph-name="macron" unicode="&#xaf;" horiz-adv-x="601" 
d="M426 636h-401l29 153h401z" />
    <glyph glyph-name="degree" unicode="&#xb0;" horiz-adv-x="288" 
d="M168 443q-48 0 -80.5 29.5t-32.5 75.5q-2 59 49 108.5t115 49.5q37 4 76 -26t38 -79q0 -64 -48.5 -111t-116.5 -47zM188 538q18 0 31.5 12t13.5 34q0 14 -9 21.5t-21 7.5q-17 0 -30.5 -13.5t-13.5 -35.5q0 -26 29 -26z" />
    <glyph glyph-name="plusminus" unicode="&#xb1;" horiz-adv-x="608" 
d="M527 185v-185h-471v185h471zM527 412v-184h-471v184h137v145h197v-145h137z" />
    <glyph glyph-name="twosuperior" unicode="&#xb2;" horiz-adv-x="430" 
d="M402 295h-373l22 118q85 39 132.5 79.5t47.5 73.5q0 32 -42 32q-22 0 -104 -20l26 134q98 32 181 32q35 1 67 -6.5t59 -33t25 -65.5q0 -59 -35 -108t-122 -100h142z" />
    <glyph glyph-name="threesuperior" unicode="&#xb3;" horiz-adv-x="421" 
d="M89 584l26 141q83 18 166 18q36 2 75 -9t69 -37.5t28 -62.5q0 -37 -18.5 -70.5t-49.5 -53.5q43 -14 43 -64q0 -74 -74 -121t-194 -47q-88 0 -130 7l25 135q61 -10 100 -10q59 0 59 35q0 10 -9 14t-38 4h-41l17 86h41q31 0 43.5 7t12.5 26q0 21 -42 21q-49 0 -109 -19z
" />
    <glyph glyph-name="acute" unicode="&#xb4;" horiz-adv-x="424" 
d="M146 789h251l-153 -174h-185z" />
    <glyph glyph-name="mu" unicode="&#xb5;" horiz-adv-x="647" 
d="M334 191l71 367h250l-109 -558h-213l-11 41h-5q-41 -29 -96 -42l-48 -248h-249l156 807h250l-69 -354q-6 -32 22 -32q17 0 51 19z" />
    <glyph glyph-name="paragraph" unicode="&#xb6;" horiz-adv-x="694" 
d="M453 670h251l-122 -625q-31 -145 -121.5 -201.5t-276.5 -60.5q-43 0 -91 3l41 214l35 -1q101 0 132 25t43 88zM345 670h57l-96 -493h-65q-101 0 -160.5 51t-59.5 140q0 139 94 220.5t230 81.5z" />
    <glyph glyph-name="periodcentered" unicode="&#xb7;" horiz-adv-x="300" 
d="M232 170h-217l37 194h217z" />
    <glyph glyph-name="cedilla" unicode="&#xb8;" horiz-adv-x="467" 
d="M85 -257l19 96l22 -1q44 0 59 12.5t24 58.5h-46v50l44 41h118l-47 -45q78 -15 78 -74q0 -65 -49.5 -103.5t-138.5 -38.5q-60 0 -83 4z" />
    <glyph glyph-name="onesuperior" unicode="&#xb9;" horiz-adv-x="402" 
d="M302 289h-199l59 288l-62 -9l23 127l139 31h120z" />
    <glyph glyph-name="ordmasculine" unicode="&#xba;" horiz-adv-x="438" 
d="M289 680q82 0 126.5 -39t44.5 -109q0 -113 -70 -178t-178 -65q-84 0 -127 36.5t-43 106.5q0 109 68.5 178.5t178.5 69.5zM265 557q-24 4 -42 -30.5t-16 -74.5q0 -37 30 -37q24 -3 42 30t16 72q0 40 -30 40z" />
    <glyph glyph-name="guillemotright" unicode="&#xbb;" horiz-adv-x="565" 
d="M302 268l-188 -244l-137 83l130 161l-67 160l168 83zM551 268l-188 -244l-138 83l131 161l-67 160l168 83z" />
    <glyph glyph-name="onequarter" unicode="&#xbc;" horiz-adv-x="969" 
d="M750 763l-490 -763h-165l488 763h167zM474 215l126 212h179l-123 -212h44l4 19l59 109h158l-25 -128h46l-26 -136h-46l-16 -79h-196l16 79h-226zM241 289h-199l59 288l-62 -9l23 127l139 31h120z" />
    <glyph glyph-name="onehalf" unicode="&#xbd;" horiz-adv-x="941" 
d="M854 0h-374l23 118q94 47 137 83.5t43 69.5q0 32 -42 32q-22 0 -104 -20l26 134q98 32 182 32q25 0 49.5 -4t49 -15t39 -33.5t13.5 -53.5q0 -39 -15 -72q-15 -36 -46.5 -66.5t-95.5 -68.5h142zM741 763l-490 -763h-165l488 763h167zM232 289h-199l59 288l-62 -9l23 127
l139 31h120z" />
    <glyph glyph-name="threequarters" unicode="&#xbe;" horiz-adv-x="1088" 
d="M93 584l26 141q83 18 166 18q36 2 75 -9t69 -37.5t28 -62.5q0 -37 -18.5 -70.5t-50.5 -53.5q44 -14 44 -64q0 -74 -74 -121t-194 -47q-88 0 -131 7l26 135q61 -10 100 -10q59 0 59 35q0 10 -9 14t-38 4h-41l17 86h41q31 0 43.5 7t12.5 27t-43 20q-48 0 -108 -19zM857 763
l-490 -763h-165l488 763h167zM581 215l126 212h179l-123 -212h44l4 19l59 109h158l-25 -128h46l-26 -136h-46l-16 -79h-196l16 79h-226z" />
    <glyph glyph-name="questiondown" unicode="&#xbf;" horiz-adv-x="468" 
d="M142 292h247q-7 -95 -67 -167q-23 -29 -73 -72q-48 -42 -52 -52q-4 -9 -4 -15q0 -36 73 -36q62 0 158 24l-43 -216q-145 -19 -239 -19q-99 0 -158.5 42.5t-59.5 116.5q0 48 17.5 90t77.5 100q45 45 60 63q17 21 27 37q30 50 36 104zM181 515h251l-32 -163h-251z" />
    <glyph glyph-name="Agrave" unicode="&#xc0;" horiz-adv-x="752" 
d="M241 108l-47 -108h-267l360 721h337l80 -721h-265l-7 108h-191zM332 318h83v127v52h-10l-17 -52zM541 769h-185l-87 174h251z" />
    <glyph glyph-name="Aacute" unicode="&#xc1;" horiz-adv-x="752" 
d="M241 108l-47 -108h-267l360 721h337l80 -721h-265l-7 108h-191zM332 318h83v127v52h-10l-17 -52zM463 943h251l-153 -174h-185z" />
    <glyph glyph-name="Acircumflex" unicode="&#xc2;" horiz-adv-x="752" 
d="M241 108l-47 -108h-267l360 721h337l80 -721h-265l-7 108h-191zM332 318h83v127v52h-10l-17 -52zM421 784h-202l112 174h321l47 -174h-202l-19 99z" />
    <glyph glyph-name="Atilde" unicode="&#xc3;" horiz-adv-x="752" 
d="M241 108l-47 -108h-267l360 721h337l80 -721h-265l-7 108h-191zM332 318h83v127v52h-10l-17 -52zM734 994l-33 -170q-80 -56 -144 -56q-39 0 -97 24q-56 23 -83 28q-21 4 -39 4q-66 0 -148 -49l32 167q80 49 149 49q43 0 111 -27q69 -27 107 -27q67 0 145 57z" />
    <glyph glyph-name="Adieresis" unicode="&#xc4;" horiz-adv-x="752" 
d="M241 108l-47 -108h-267l360 721h337l80 -721h-265l-7 108h-191zM332 318h83v127v52h-10l-17 -52zM449 787h-202l35 179h202zM689 787h-202l35 179h202z" />
    <glyph glyph-name="Aring" unicode="&#xc5;" horiz-adv-x="752" 
d="M241 108l-47 -108h-267l360 721h337l80 -721h-265l-7 108h-191zM332 318h83v127v52h-10l-17 -52zM625 885q0 -61 -47 -94t-117 -33q-118 0 -118 76q0 62 40 96t119 34q123 0 123 -79zM486 882q-8 0 -16.5 -8t-8.5 -18q0 -6 4.5 -11t11.5 -5q11 0 19 8t8 18q0 6 -5 11
t-13 5z" />
    <glyph glyph-name="AE" unicode="&#xc6;" horiz-adv-x="1080" 
d="M986 0h-547l21 108h-167l-65 -108h-298l451 720h750l-43 -223h-302l-9 -48h213l-35 -178h-213l-9 -48h296zM536 503h-21l-107 -185h92z" />
    <glyph glyph-name="Ccedilla" unicode="&#xc7;" horiz-adv-x="627" 
d="M139 -257l19 96l22 -1q44 0 59 12.5t24 58.5h-46v50l34 32q-236 25 -236 250q0 137 54 250q56 113 158 177q103 64 233 64q136 0 212 -22l-45 -223l-54 9q-61 12 -103 12q-90 0 -137 -49t-47 -142q0 -106 115 -106q55 0 181 32l-43 -221q-77 -29 -172 -33l-35 -34
q78 -15 78 -74q0 -65 -49.5 -103.5t-138.5 -38.5q-60 0 -83 4z" />
    <glyph glyph-name="Egrave" unicode="&#xc8;" horiz-adv-x="637" 
d="M543 0h-552l138 720h559l-43 -223h-303l-9 -48h214l-35 -178h-214l-9 -48h297zM518 769h-185l-87 174h251z" />
    <glyph glyph-name="Eacute" unicode="&#xc9;" horiz-adv-x="637" 
d="M543 0h-552l138 720h559l-43 -223h-303l-9 -48h214l-35 -178h-214l-9 -48h297zM409 959h251l-153 -174h-185z" />
    <glyph glyph-name="Ecircumflex" unicode="&#xca;" horiz-adv-x="637" 
d="M543 0h-552l138 720h559l-43 -223h-303l-9 -48h214l-35 -178h-214l-9 -48h297zM380 782h-202l112 174h321l47 -174h-202l-19 99z" />
    <glyph glyph-name="Edieresis" unicode="&#xcb;" horiz-adv-x="637" 
d="M543 0h-552l138 720h559l-43 -223h-303l-9 -48h214l-35 -178h-214l-9 -48h297zM407 787h-202l35 179h202zM647 787h-202l35 179h202z" />
    <glyph glyph-name="Igrave" unicode="&#xcc;" horiz-adv-x="356" 
d="M385 720l-139 -720h-255l138 720h256zM349 769h-185l-87 174h251z" />
    <glyph glyph-name="Iacute" unicode="&#xcd;" horiz-adv-x="356" 
d="M385 720l-139 -720h-255l138 720h256zM265 943h251l-153 -174h-185z" />
    <glyph glyph-name="Icircumflex" unicode="&#xce;" horiz-adv-x="356" 
d="M385 720l-139 -720h-255l138 720h256zM223 784h-202l112 174h321l47 -174h-202l-19 99z" />
    <glyph glyph-name="Idieresis" unicode="&#xcf;" horiz-adv-x="356" 
d="M385 720l-139 -720h-255l138 720h256zM243 787h-202l35 179h202zM483 787h-202l35 179h202z" />
    <glyph glyph-name="Eth" unicode="&#xd0;" horiz-adv-x="779" 
d="M92 260h-91l36 190h92l52 270h325q131 0 204 -67t73 -192q1 -88 -28 -171t-82 -148t-133 -104t-173 -38h-325zM433 497h-39l-53 -274h39q68 0 104.5 52t36.5 150q0 38 -20.5 55t-67.5 17z" />
    <glyph glyph-name="Ntilde" unicode="&#xd1;" horiz-adv-x="785" 
d="M675 0h-246l-124 291l-6 -3l-14 -86l-39 -202h-255l138 720h254l115 -299l7 3l11 78l42 218h256zM770 982l-33 -170q-80 -56 -144 -56q-39 0 -97 24q-56 23 -83 28q-21 4 -39 4q-66 0 -148 -49l32 167q80 49 149 49q43 0 111 -27q69 -27 107 -27q67 0 145 57z" />
    <glyph glyph-name="Ograve" unicode="&#xd2;" horiz-adv-x="755" 
d="M16 253q0 129 50.5 236.5t153.5 175t240 67.5q147 0 223.5 -67.5t76.5 -198.5q0 -129 -51 -236t-154 -174.5t-240 -67.5q-146 0 -222.5 67.5t-76.5 197.5zM416 508q-69 0 -103 -62t-34 -157q0 -42 19.5 -59.5t60.5 -17.5q53 0 95.5 54t42.5 163q0 43 -19.5 61t-61.5 18z
M572 769h-185l-87 174h251z" />
    <glyph glyph-name="Oacute" unicode="&#xd3;" horiz-adv-x="755" 
d="M16 253q0 129 50.5 236.5t153.5 175t240 67.5q147 0 223.5 -67.5t76.5 -198.5q0 -129 -51 -236t-154 -174.5t-240 -67.5q-146 0 -222.5 67.5t-76.5 197.5zM416 508q-69 0 -103 -62t-34 -157q0 -42 19.5 -59.5t60.5 -17.5q53 0 95.5 54t42.5 163q0 43 -19.5 61t-61.5 18z
M459 944h251l-153 -174h-185z" />
    <glyph glyph-name="Ocircumflex" unicode="&#xd4;" horiz-adv-x="755" 
d="M16 253q0 129 50.5 236.5t153.5 175t240 67.5q147 0 223.5 -67.5t76.5 -198.5q0 -129 -51 -236t-154 -174.5t-240 -67.5q-146 0 -222.5 67.5t-76.5 197.5zM416 508q-69 0 -103 -62t-34 -157q0 -42 19.5 -59.5t60.5 -17.5q53 0 95.5 54t42.5 163q0 43 -19.5 61t-61.5 18z
M421 782h-202l112 174h321l47 -174h-202l-19 99z" />
    <glyph glyph-name="Otilde" unicode="&#xd5;" horiz-adv-x="755" 
d="M16 253q0 129 50.5 236.5t153.5 175t240 67.5q147 0 223.5 -67.5t76.5 -198.5q0 -129 -51 -236t-154 -174.5t-240 -67.5q-146 0 -222.5 67.5t-76.5 197.5zM416 508q-69 0 -103 -62t-34 -157q0 -42 19.5 -59.5t60.5 -17.5q53 0 95.5 54t42.5 163q0 43 -19.5 61t-61.5 18z
M741 994l-33 -170q-80 -56 -144 -56q-38 0 -97 24q-56 23 -83 28q-21 4 -39 4q-66 0 -148 -49l32 167q80 49 149 49q44 0 111 -27q69 -27 107 -27q67 0 145 57z" />
    <glyph glyph-name="Odieresis" unicode="&#xd6;" horiz-adv-x="755" 
d="M16 253q0 129 50.5 236.5t153.5 175t240 67.5q147 0 223.5 -67.5t76.5 -198.5q0 -129 -51 -236t-154 -174.5t-240 -67.5q-146 0 -222.5 67.5t-76.5 197.5zM416 508q-69 0 -103 -62t-34 -157q0 -42 19.5 -59.5t60.5 -17.5q53 0 95.5 54t42.5 163q0 43 -19.5 61t-61.5 18z
M452 788h-202l35 179h202zM692 788h-202l35 179h202z" />
    <glyph glyph-name="multiply" unicode="&#xd7;" horiz-adv-x="524" 
d="M367 515l126 -126l-104 -105l103 -103l-139 -140l-103 104l-93 -94l-126 126l93 94l-106 106l140 139l105 -106z" />
    <glyph glyph-name="Oslash" unicode="&#xd8;" horiz-adv-x="750" 
d="M13 253q0 129 50.5 236.5t153.5 175t240 67.5q52 0 102 -10l32 52h90l-48 -79q124 -63 124 -229q0 -129 -51 -236t-154 -174.5t-240 -67.5q-59 0 -100 10l-32 -53h-86l46 76q-127 62 -127 232zM431 507l-18 1q-69 0 -103 -62t-34 -157q0 -23 4 -34zM494 429q0 18 -3 30
l-149 -247h14q53 0 95.5 54t42.5 163z" />
    <glyph glyph-name="Ugrave" unicode="&#xd9;" horiz-adv-x="753" 
d="M790 720l-82 -421q-30 -154 -135 -232.5t-259 -78.5q-133 0 -206.5 57.5t-73.5 172.5q0 39 8 81l82 421h256l-82 -422q-4 -17 -4 -36q0 -51 64 -51q42 0 63 19.5t31 67.5l82 422h256zM547 769h-185l-87 174h251z" />
    <glyph glyph-name="Uacute" unicode="&#xda;" horiz-adv-x="753" 
d="M790 720l-82 -421q-30 -154 -135 -232.5t-259 -78.5q-133 0 -206.5 57.5t-73.5 172.5q0 39 8 81l82 421h256l-82 -422q-4 -17 -4 -36q0 -51 64 -51q42 0 63 19.5t31 67.5l82 422h256zM475 943h251l-153 -174h-185z" />
    <glyph glyph-name="Ucircumflex" unicode="&#xdb;" horiz-adv-x="753" 
d="M790 720l-82 -421q-30 -154 -135 -232.5t-259 -78.5q-133 0 -206.5 57.5t-73.5 172.5q0 39 8 81l82 421h256l-82 -422q-4 -17 -4 -36q0 -51 64 -51q42 0 63 19.5t31 67.5l82 422h256zM422 782h-202l112 174h321l47 -174h-202l-19 99z" />
    <glyph glyph-name="Udieresis" unicode="&#xdc;" horiz-adv-x="753" 
d="M790 720l-82 -421q-30 -154 -135 -232.5t-259 -78.5q-133 0 -206.5 57.5t-73.5 172.5q0 39 8 81l82 421h256l-82 -422q-4 -17 -4 -36q0 -51 64 -51q42 0 63 19.5t31 67.5l82 422h256zM449 787h-202l35 179h202zM689 787h-202l35 179h202z" />
    <glyph glyph-name="Yacute" unicode="&#xdd;" horiz-adv-x="720" 
d="M813 720l-345 -497l-43 -223h-254l43 223l-153 497h277l49 -241h9l140 241h277zM443 943h251l-153 -174h-185z" />
    <glyph glyph-name="Thorn" unicode="&#xde;" horiz-adv-x="670" 
d="M139 764h256l-21 -107h98q87 0 148 -49q68 -55 68 -163q3 -136 -94 -240t-222 -102h-106l-20 -103h-255zM374 439h-42l-23 -118h43q31 0 51.5 20.5t20.5 57.5q0 40 -50 40z" />
    <glyph glyph-name="germandbls" unicode="&#xdf;" horiz-adv-x="728" 
d="M436 775q124 0 191.5 -52.5t67.5 -132.5q0 -65 -39 -122.5t-105 -81.5l-2 -8q60 -8 94.5 -42.5t34.5 -89.5q0 -111 -80 -178q-89 -75 -234 -75q-49 0 -104 11l28 147q18 -2 36 -2q48 0 75 27.5t27 71.5q0 56 -102 56l22 116q43 0 67 29.5t24 87.5q0 49 -44 49
q-29 0 -48.5 -20.5t-26.5 -56.5l-137 -714h-250l134 701q25 133 121 206t250 73z" />
    <glyph glyph-name="agrave" unicode="&#xe0;" 
d="M650 519l-99 -519h-197l-20 63q-72 -72 -165 -72q-77 0 -122 53t-45 140q0 184 100 285t274 101q124 0 274 -51zM375 379l-23 2q-44 -2 -67 -47q-24 -45 -24 -102q0 -22 11 -35.5t29 -13.5t36 8zM478 615h-185l-87 174h251z" />
    <glyph glyph-name="aacute" unicode="&#xe1;" 
d="M650 519l-99 -519h-197l-20 63q-72 -72 -165 -72q-77 0 -122 53t-45 140q0 184 100 285t274 101q124 0 274 -51zM375 379l-23 2q-44 -2 -67 -47q-24 -45 -24 -102q0 -22 11 -35.5t29 -13.5t36 8zM366 789h251l-153 -174h-185z" />
    <glyph glyph-name="acircumflex" unicode="&#xe2;" 
d="M650 519l-99 -519h-197l-20 63q-72 -72 -165 -72q-77 0 -122 53t-45 140q0 184 100 285t274 101q124 0 274 -51zM375 379l-23 2q-44 -2 -67 -47q-24 -45 -24 -102q0 -22 11 -35.5t29 -13.5t36 8zM330 631h-202l112 174h321l47 -174h-202l-19 99z" />
    <glyph glyph-name="atilde" unicode="&#xe3;" 
d="M650 519l-99 -519h-197l-20 63q-72 -72 -165 -72q-77 0 -122 53t-45 140q0 184 100 285t274 101q124 0 274 -51zM375 379l-23 2q-44 -2 -67 -47q-24 -45 -24 -102q0 -22 11 -35.5t29 -13.5t36 8zM706 832l-33 -170q-80 -56 -144 -56q-39 0 -97 24q-56 23 -83 28
q-21 4 -39 4q-66 0 -148 -49l32 167q80 49 149 49q43 0 111 -27q69 -27 107 -27q67 0 145 57z" />
    <glyph glyph-name="adieresis" unicode="&#xe4;" 
d="M650 519l-99 -519h-197l-20 63q-72 -72 -165 -72q-77 0 -122 53t-45 140q0 184 100 285t274 101q124 0 274 -51zM375 379l-23 2q-44 -2 -67 -47q-24 -45 -24 -102q0 -22 11 -35.5t29 -13.5t36 8zM375 635h-202l35 179h202zM615 635h-202l35 179h202z" />
    <glyph glyph-name="aring" unicode="&#xe5;" 
d="M650 519l-99 -519h-197l-20 63q-72 -72 -165 -72q-77 0 -122 53t-45 140q0 184 100 285t274 101q124 0 274 -51zM375 379l-23 2q-44 -2 -67 -47q-24 -45 -24 -102q0 -22 11 -35.5t29 -13.5t36 8zM553 722q0 -61 -47 -94t-117 -33q-118 0 -118 76q0 62 40 96t119 34
q123 0 123 -79zM414 719q-8 0 -16.5 -8.5t-8.5 -17.5q0 -6 4.5 -11t11.5 -5q11 0 19 8t8 18q0 6 -5 11t-13 5z" />
    <glyph glyph-name="ae" unicode="&#xe6;" horiz-adv-x="922" 
d="M856 206l-21 -191q-117 -28 -216 -28q-187 0 -249 93q-40 -34 -59 -48t-58 -28t-84 -13q-77 0 -122 53t-45 140q0 184 100 284.5t274 100.5q83 0 167 -31q74 32 159 32q90 0 150 -41q66 -44 66 -124q0 -88 -57.5 -138t-156.5 -50q-51 0 -105 17l-1 -10q0 -51 88 -51
q82 0 170 33zM375 379l-23 2q-44 -2 -67 -47q-24 -45 -24 -102q0 -22 11 -35.5t29 -13.5t36 8zM613 346l14 -1q67 0 67 47q0 20 -22 20t-39.5 -20t-19.5 -46z" />
    <glyph glyph-name="ccedilla" unicode="&#xe7;" horiz-adv-x="520" 
d="M61 -257l19 96l22 -1q44 0 59 12.5t24 58.5h-46v50l37 35q-81 13 -128 62.5t-47 140.5q0 160 99 266.5t263 106.5q96 0 174 -23l-36 -181q-71 20 -130 20q-54 0 -83 -41t-29 -110q0 -31 15 -47t56 -16q58 0 138 20l-36 -181q-71 -19 -143 -22l-35 -34q78 -15 78 -74
q0 -65 -49.5 -103.5t-138.5 -38.5q-60 0 -83 4z" />
    <glyph glyph-name="egrave" unicode="&#xe8;" horiz-adv-x="586" 
d="M520 206l-21 -191q-117 -28 -216 -28q-146 0 -214.5 55.5t-68.5 168.5q-2 146 101.5 253.5t264.5 105.5q90 0 150 -41q66 -44 66 -124q0 -88 -57.5 -138t-156.5 -50q-51 0 -105 17l-1 -10q0 -51 88 -51q82 0 170 33zM277 346l14 -1q67 0 67 47q0 20 -22 20t-39.5 -20
t-19.5 -46zM456 615h-185l-87 174h251z" />
    <glyph glyph-name="eacute" unicode="&#xe9;" horiz-adv-x="586" 
d="M520 206l-21 -191q-117 -28 -216 -28q-146 0 -214.5 55.5t-68.5 168.5q-2 146 101.5 253.5t264.5 105.5q90 0 150 -41q66 -44 66 -124q0 -88 -57.5 -138t-156.5 -50q-51 0 -105 17l-1 -10q0 -51 88 -51q82 0 170 33zM277 346l14 -1q67 0 67 47q0 20 -22 20t-39.5 -20
t-19.5 -46zM376 789h251l-153 -174h-185z" />
    <glyph glyph-name="ecircumflex" unicode="&#xea;" horiz-adv-x="586" 
d="M520 206l-21 -191q-117 -28 -216 -28q-146 0 -214.5 55.5t-68.5 168.5q-2 146 101.5 253.5t264.5 105.5q90 0 150 -41q66 -44 66 -124q0 -88 -57.5 -138t-156.5 -50q-51 0 -105 17l-1 -10q0 -51 88 -51q82 0 170 33zM277 346l14 -1q67 0 67 47q0 20 -22 20t-39.5 -20
t-19.5 -46zM322 615h-202l112 174h321l47 -174h-202l-19 99z" />
    <glyph glyph-name="edieresis" unicode="&#xeb;" horiz-adv-x="586" 
d="M520 206l-21 -191q-117 -28 -216 -28q-146 0 -214.5 55.5t-68.5 168.5q-2 146 101.5 253.5t264.5 105.5q90 0 150 -41q66 -44 66 -124q0 -88 -57.5 -138t-156.5 -50q-51 0 -105 17l-1 -10q0 -51 88 -51q82 0 170 33zM277 346l14 -1q67 0 67 47q0 20 -22 20t-39.5 -20
t-19.5 -46zM341 609h-202l35 179h202zM581 609h-202l35 179h202z" />
    <glyph glyph-name="igrave" unicode="&#xec;" horiz-adv-x="376" 
d="M18 188l72 370h251l-74 -374q-3 -15 8 -23q11 -7 65 -10l-21 -151q-23 -3 -71 -6q-46 -3 -72 -3q-103 0 -140 49t-18 148zM313 615h-185l-87 174h251z" />
    <glyph glyph-name="iacute" unicode="&#xed;" horiz-adv-x="376" 
d="M18 188l72 370h251l-74 -374q-3 -15 8 -23q11 -7 65 -10l-21 -151q-23 -3 -71 -6q-46 -3 -72 -3q-103 0 -140 49t-18 148zM212 789h251l-153 -174h-185z" />
    <glyph glyph-name="icircumflex" unicode="&#xee;" horiz-adv-x="376" 
d="M18 188l72 370h251l-74 -374q-3 -15 8 -23q11 -7 65 -10l-21 -151q-23 -3 -71 -6q-46 -3 -72 -3q-103 0 -140 49t-18 148zM177 615h-202l112 174h321l47 -174h-202l-19 99z" />
    <glyph glyph-name="idieresis" unicode="&#xef;" horiz-adv-x="376" 
d="M18 188l72 370h251l-74 -374q-3 -15 8 -23q11 -7 65 -10l-21 -151q-23 -3 -71 -6q-46 -3 -72 -3q-103 0 -140 49t-18 148zM197 609h-202l35 179h202zM437 609h-202l35 179h202z" />
    <glyph glyph-name="eth" unicode="&#xf0;" horiz-adv-x="609" 
d="M189 610l150 177q42 -15 117 -67l56 56l99 -96l-64 -65q60 -83 60 -207q1 -63 -14.5 -124.5t-47 -115t-75.5 -94.5t-105 -64t-131 -22q-40 0 -80.5 11.5t-78.5 34t-61.5 63t-23.5 92.5q0 122 81 201t201 79q45 0 93 -15q-17 38 -50 70q-33 34 -126 86zM309 291
q-32 0 -49 -26.5t-17 -52.5q0 -18 11.5 -29t27.5 -11q31 -3 55 30t23 76q-23 13 -51 13z" />
    <glyph glyph-name="ntilde" unicode="&#xf1;" horiz-adv-x="659" 
d="M303 367l-71 -367h-249l108 558h209l15 -41h5q80 53 177 53q70 0 109 -39q46 -44 28 -136l-77 -395h-250l69 354q6 32 -22 32q-17 0 -51 -19zM671 824l-33 -170q-80 -56 -144 -56q-38 0 -97 24q-56 23 -83 28q-21 4 -39 4q-66 0 -148 -49l32 167q80 49 149 49
q44 0 111 -27q69 -27 107 -27q67 0 145 57z" />
    <glyph glyph-name="ograve" unicode="&#xf2;" horiz-adv-x="634" 
d="M367 570q123 0 188 -56t65 -160q0 -167 -103.5 -266.5t-262.5 -99.5q-123 0 -187.5 55t-64.5 158q0 162 102.5 265.5t262.5 103.5zM255 205q0 -40 34 -40q17 0 34 17q17 18 31 67q14 53 14 103q0 41 -34 41q-17 0 -34 -17q-18 -18 -31 -68q-14 -53 -14 -103zM462 615
h-185l-87 174h251z" />
    <glyph glyph-name="oacute" unicode="&#xf3;" horiz-adv-x="634" 
d="M367 570q123 0 188 -56t65 -160q0 -167 -103.5 -266.5t-262.5 -99.5q-123 0 -187.5 55t-64.5 158q0 162 102.5 265.5t262.5 103.5zM255 205q0 -40 34 -40q17 0 34 17q17 18 31 67q14 53 14 103q0 41 -34 41q-17 0 -34 -17q-18 -18 -31 -68q-14 -53 -14 -103zM378 789h251
l-153 -174h-185z" />
    <glyph glyph-name="ocircumflex" unicode="&#xf4;" horiz-adv-x="634" 
d="M367 570q123 0 188 -56t65 -160q0 -167 -103.5 -266.5t-262.5 -99.5q-123 0 -187.5 55t-64.5 158q0 162 102.5 265.5t262.5 103.5zM255 205q0 -40 34 -40q17 0 34 17q17 18 31 67q14 53 14 103q0 41 -34 41q-17 0 -34 -17q-18 -18 -31 -68q-14 -53 -14 -103zM322 615
h-202l112 174h321l47 -174h-202l-19 99z" />
    <glyph glyph-name="otilde" unicode="&#xf5;" horiz-adv-x="634" 
d="M367 570q123 0 188 -56t65 -160q0 -167 -103.5 -266.5t-262.5 -99.5q-123 0 -187.5 55t-64.5 158q0 162 102.5 265.5t262.5 103.5zM255 205q0 -40 34 -40q17 0 34 17q17 18 31 67q14 53 14 103q0 41 -34 41q-17 0 -34 -17q-18 -18 -31 -68q-14 -53 -14 -103zM671 824
l-33 -170q-80 -56 -144 -56q-38 0 -97 24q-56 23 -83 28q-21 4 -39 4q-66 0 -148 -49l32 167q80 49 149 49q44 0 111 -27q69 -27 107 -27q67 0 145 57z" />
    <glyph glyph-name="odieresis" unicode="&#xf6;" horiz-adv-x="634" 
d="M367 570q123 0 188 -56t65 -160q0 -167 -103.5 -266.5t-262.5 -99.5q-123 0 -187.5 55t-64.5 158q0 162 102.5 265.5t262.5 103.5zM255 205q0 -40 34 -40q17 0 34 17q17 18 31 67q14 53 14 103q0 41 -34 41q-17 0 -34 -17q-18 -18 -31 -68q-14 -53 -14 -103zM357 609
h-202l35 179h202zM597 609h-202l35 179h202z" />
    <glyph glyph-name="divide" unicode="&#xf7;" horiz-adv-x="526" 
d="M493 370v-178h-471v178h471zM341 520v-135h-170v135h170zM171 44v132h170v-132h-170z" />
    <glyph glyph-name="oslash" unicode="&#xf8;" horiz-adv-x="635" 
d="M2 201q0 157 100.5 263t264.5 106q40 0 73 -6l44 70h102l-62 -99q96 -55 96 -181q0 -167 -103.5 -266.5t-262.5 -99.5q-28 0 -65 5l-43 -69h-103l61 94q-54 28 -78 78t-24 105zM344 392l-10 1q-30 0 -50.5 -41t-26.5 -111zM281 165h8q31 0 51 42.5t26 106.5z" />
    <glyph glyph-name="ugrave" unicode="&#xf9;" horiz-adv-x="661" 
d="M19 190l71 368h250l-68 -354l-2 -13q0 -19 24 -19q20 0 50 18l72 368h250l-108 -558h-187l-10 63l-33 -22q-76 -52 -160 -52q-65 0 -109.5 38.5t-44.5 111.5q0 26 5 51zM469 615h-185l-87 174h251z" />
    <glyph glyph-name="uacute" unicode="&#xfa;" horiz-adv-x="661" 
d="M19 190l71 368h250l-68 -354l-2 -13q0 -19 24 -19q20 0 50 18l72 368h250l-108 -558h-187l-10 63l-33 -22q-76 -52 -160 -52q-65 0 -109.5 38.5t-44.5 111.5q0 26 5 51zM384 789h251l-153 -174h-185z" />
    <glyph glyph-name="ucircumflex" unicode="&#xfb;" horiz-adv-x="661" 
d="M19 190l71 368h250l-68 -354l-2 -13q0 -19 24 -19q20 0 50 18l72 368h250l-108 -558h-187l-10 63l-33 -22q-76 -52 -160 -52q-65 0 -109.5 38.5t-44.5 111.5q0 26 5 51zM349 615h-202l112 174h321l47 -174h-202l-19 99z" />
    <glyph glyph-name="udieresis" unicode="&#xfc;" horiz-adv-x="661" 
d="M19 190l71 368h250l-68 -354l-2 -13q0 -19 24 -19q20 0 50 18l72 368h250l-108 -558h-187l-10 63l-33 -22q-76 -52 -160 -52q-65 0 -109.5 38.5t-44.5 111.5q0 26 5 51zM367 609h-202l35 179h202zM607 609h-202l35 179h202z" />
    <glyph glyph-name="yacute" unicode="&#xfd;" horiz-adv-x="667" 
d="M406 -205h-276q-2 48 17 111.5t45 92.5h-93l-61 559h270l8 -245l-7 -90h9l59 136q48 107 48 199h266q0 -96 -59 -211l-186 -361q-14 -28 -27 -67t-13 -124zM378 789h251l-153 -174h-185z" />
    <glyph glyph-name="thorn" unicode="&#xfe;" horiz-adv-x="657" 
d="M230 -2l-41 -203h-245l178 925h242l-41 -213q69 60 153 60q76 0 120 -53t44 -140q0 -66 -20.5 -141t-63.5 -131q-42 -58 -110 -87.5t-128 -26.5q-38 0 -88 10zM270 178l19 -2q20 0 40 11q21 12 36 49t15 81q0 57 -37 57q-17 0 -38 -8l-37 -188h2z" />
    <glyph glyph-name="ydieresis" unicode="&#xff;" horiz-adv-x="667" 
d="M406 -205h-276q-2 48 17 111.5t45 92.5h-93l-61 559h270l8 -245l-7 -90h9l59 136q48 107 48 199h266q0 -96 -59 -211l-186 -361q-14 -28 -27 -67t-13 -124zM367 609h-202l35 179h202zM607 609h-202l35 179h202z" />
    <glyph glyph-name="dotlessi" unicode="&#x131;" horiz-adv-x="376" 
d="M18 188l72 370h251l-74 -374q-3 -15 8 -23q11 -7 65 -10l-21 -151q-23 -3 -71 -6q-46 -3 -72 -3q-103 0 -140 49t-18 148z" />
    <glyph glyph-name="Lslash" unicode="&#x141;" horiz-adv-x="647" 
d="M88 227l-96 -42l39 201l96 42l56 292h256l-32 -169l126 56l-40 -201l-125 -56l-25 -127h278l-43 -223h-534z" />
    <glyph glyph-name="lslash" unicode="&#x142;" horiz-adv-x="450" 
d="M80 188l9 50l-92 -45l40 213l94 45l61 312h250l-34 -177l93 46l-41 -213l-94 -46l-31 -164q-4 -21 10.5 -31.5t39.5 -10.5l22 1l-26 -168q-23 -3 -71 -6q-46 -3 -72 -3q-194 0 -158 197z" />
    <glyph glyph-name="OE" unicode="&#x152;" horiz-adv-x="1060" 
d="M17 253q0 98 28.5 183.5t83 152t140 105t192.5 38.5q38 0 134 -12h516l-43 -223h-303l-9 -48h214l-35 -178h-214l-9 -48h297l-43 -223h-537q-53 -12 -113 -12q-146 0 -222.5 67.5t-76.5 197.5zM417 508q-69 0 -103 -62t-34 -157q0 -43 25.5 -60t54.5 -17q39 0 96 11
l53 274q-2 0 -7 1t-11 2l-12 2q-32 6 -62 6z" />
    <glyph glyph-name="oe" unicode="&#x153;" horiz-adv-x="951" 
d="M886 206l-21 -191q-117 -28 -216 -28q-132 0 -203 47q-83 -46 -192 -46q-123 0 -187.5 55t-64.5 158q0 162 102.5 265.5t262.5 103.5q111 0 176 -47q82 47 189 47q90 0 150 -41q66 -44 66 -124q0 -88 -57.5 -138t-156.5 -50q-51 0 -105 17l-1 -10q0 -51 88 -51
q82 0 170 33zM255 205q0 -40 34 -40q17 0 34 17q17 18 31 67q14 53 14 103q0 41 -34 41q-17 0 -34 -17q-18 -18 -31 -68q-14 -53 -14 -103zM643 346l14 -1q67 0 67 47q0 20 -22 20t-39.5 -20t-19.5 -46z" />
    <glyph glyph-name="Scaron" unicode="&#x160;" horiz-adv-x="635" 
d="M50 432q0 100 54.5 169.5t141 100t197.5 30.5q76 0 207 -14l-42 -219q-52 9 -99 13q-62 5 -97 5q-52 0 -73 -6.5t-21 -23.5q0 -12 11 -20q10 -7 26 -10q13 -3 81 -12q103 -14 140 -51q36 -36 36 -96q0 -150 -102.5 -230t-267.5 -80q-51 0 -129 8q-75 8 -127 19l42 218
q36 -10 113 -21q73 -10 122 -10q44 0 60.5 5.5t16.5 22.5q0 13 -17 21q-17 7 -63 12t-65 9q-145 28 -145 160zM505 959h202l-112 -174h-321l-47 174h202l19 -99z" />
    <glyph glyph-name="scaron" unicode="&#x161;" horiz-adv-x="530" 
d="M340 570q35 0 93 -5q55 -5 92 -12l-43 -178q-22 5 -72 10q-52 5 -76 5q-49 0 -49 -19q0 -5 9 -10q9 -4 50 -9q41 -4 70 -12q81 -24 81 -109q0 -107 -77 -175t-244 -68q-51 0 -104 4q-63 3 -96 10l40 178q36 -7 87 -11q63 -5 94 -5q22 0 32 4t10 20q0 2 -5 7t-64 11
q-80 8 -110.5 39t-30.5 78q0 119 90 183t223 64zM400 789h202l-112 -174h-321l-47 174h202l19 -99z" />
    <glyph glyph-name="Ydieresis" unicode="&#x178;" horiz-adv-x="720" 
d="M813 720l-345 -497l-43 -223h-254l43 223l-153 497h277l49 -241h9l140 241h277zM422 761h-202l35 179h202zM662 761h-202l35 179h202z" />
    <glyph glyph-name="Zcaron" unicode="&#x17d;" horiz-adv-x="669" 
d="M103 720h607l-38 -196l-307 -301h265l-43 -223h-610l36 193l309 304h-262zM491 959h202l-112 -174h-321l-47 174h202l19 -99z" />
    <glyph glyph-name="zcaron" unicode="&#x17e;" horiz-adv-x="592" 
d="M239 381h-201l35 177h538l-27 -140l-236 -241h194l-35 -177h-539l27 141zM433 789h202l-112 -174h-321l-47 174h202l19 -99z" />
    <glyph glyph-name="florin" unicode="&#x192;" horiz-adv-x="575" 
d="M83 407h102l21 106q24 124 97 186.5t188 62.5q43 0 87 -4q54 -3 82 -10l-54 -171q-47 14 -102 14q-60 0 -78 -97l-17 -87h139l-32 -167h-136l-50 -253q-24 -124 -97 -186.5t-188 -62.5q-42 0 -86 4q-54 3 -82 10l54 171q47 -14 101 -14q27 0 46 20.5t29 76.5l46 234h-102
z" />
    <glyph glyph-name="circumflex" unicode="&#x2c6;" horiz-adv-x="680" 
d="M285 615h-202l112 174h321l47 -174h-202l-19 99z" />
    <glyph glyph-name="caron" unicode="&#x2c7;" horiz-adv-x="680" 
d="M394 789h202l-112 -174h-321l-47 174h202l19 -99z" />
    <glyph glyph-name="breve" unicode="&#x2d8;" horiz-adv-x="638" 
d="M300 610q-74 0 -128.5 21t-74.5 61l74 111q30 -22 73.5 -35t83.5 -13q88 0 175 48l32 -111q-23 -32 -91.5 -57.5t-143.5 -24.5z" />
    <glyph glyph-name="dotaccent" unicode="&#x2d9;" horiz-adv-x="347" 
d="M246 617h-177l31 162h177z" />
    <glyph glyph-name="ring" unicode="&#x2da;" horiz-adv-x="447" 
d="M364 722q0 -61 -47 -94t-117 -33q-118 0 -118 76q0 62 40 96t119 34q123 0 123 -79zM225 719q-9 0 -17 -8.5t-8 -17.5q0 -6 4.5 -11t11.5 -5q11 0 19 8t8 18q0 6 -5 11t-13 5z" />
    <glyph glyph-name="ogonek" unicode="&#x2db;" horiz-adv-x="463" 
d="M219 0h115q-48 -42 -48 -78q0 -37 50 -37l19 1l-29 -134q-34 -9 -95 -9q-59 0 -93 25t-34 66q0 38 30.5 83t84.5 83z" />
    <glyph glyph-name="tilde" unicode="&#x2dc;" horiz-adv-x="702" 
d="M623 824l-33 -170q-80 -56 -144 -56q-38 0 -97 24q-56 23 -83 28q-21 4 -39 4q-66 0 -148 -49l32 167q80 49 149 49q44 0 111 -27q69 -27 107 -27q67 0 145 57z" />
    <glyph glyph-name="hungarumlaut" unicode="&#x2dd;" horiz-adv-x="808" 
d="M473 789h251l-153 -174h-185zM170 789h251l-153 -174h-185z" />
    <glyph glyph-name="uni0394" unicode="&#x394;" horiz-adv-x="761" 
d="M543 670l130 -670h-704l391 670h183zM453 181l-43 259l-143 -259h186z" />
    <glyph glyph-name="uni03A9" unicode="&#x3a9;" horiz-adv-x="807" 
d="M446 535q-112 0 -137 -131q-27 -137 43 -206l-39 -198h-346l38 193h117q-87 96 -60 237q16 77 68 143q47 64 144 112.5t211 47.5q159 1 246 -89t60 -214q-26 -139 -153 -237h118l-38 -193h-347l39 198q96 67 123 206q26 131 -87 131z" />
    <glyph glyph-name="uni03BC" unicode="&#x3bc;" horiz-adv-x="647" 
d="M334 191l71 367h250l-109 -558h-213l-11 41h-5q-41 -29 -96 -42l-48 -248h-249l156 807h250l-69 -354q-6 -32 22 -32q17 0 51 19z" />
    <glyph glyph-name="pi" unicode="&#x3c0;" horiz-adv-x="873" 
d="M850 381h-143l-29 -151q-11 -53 52 -53q20 0 60 8l-34 -178q-45 -9 -97 -13q-59 -6 -102 -6q-175 0 -138 193l38 200h-54l1 1h-1l-75 -382h-250l75 382h-119l34 176h817z" />
    <glyph glyph-name="endash" unicode="&#x2013;" horiz-adv-x="617" 
d="M559 188h-547l35 185h547z" />
    <glyph glyph-name="emdash" unicode="&#x2014;" horiz-adv-x="832" 
d="M774 188h-762l35 185h762z" />
    <glyph glyph-name="quoteleft" unicode="&#x2018;" horiz-adv-x="273" 
d="M329 763l-35 -168l-36 -187h-210l-1 10q0 161 175 345h107z" />
    <glyph glyph-name="quoteright" unicode="&#x2019;" horiz-adv-x="258" 
d="M51 408l34 168l36 187h211v-10q0 -162 -175 -345h-106z" />
    <glyph glyph-name="quotesinglbase" unicode="&#x201a;" horiz-adv-x="284" 
d="M-56 -162l34 168l36 187h211v-10q0 -164 -175 -345h-106z" />
    <glyph glyph-name="quotedblleft" unicode="&#x201c;" horiz-adv-x="541" 
d="M597 763l-35 -168l-36 -187h-211l-1 10q0 160 176 345h107zM329 763l-35 -168l-36 -187h-210l-1 10q0 161 175 345h107z" />
    <glyph glyph-name="quotedblright" unicode="&#x201d;" horiz-adv-x="526" 
d="M51 408l34 168l36 187h211v-10q0 -162 -175 -345h-106zM318 408l35 168l36 187h211v-10q0 -162 -175 -345h-107z" />
    <glyph glyph-name="quotedblbase" unicode="&#x201e;" horiz-adv-x="552" 
d="M-56 -162l34 168l36 187h211v-10q0 -164 -175 -345h-106zM211 -162l35 168l36 187h211v-10q0 -164 -175 -345h-107z" />
    <glyph glyph-name="dagger" unicode="&#x2020;" horiz-adv-x="537" 
d="M400 339l-59 -305h-251l59 305h-115l38 197h115l32 166h251l-32 -166h115l-38 -197h-115z" />
    <glyph glyph-name="daggerdbl" unicode="&#x2021;" horiz-adv-x="540" 
d="M355 100l-20 -100h-251l20 100h-114l37 197h115l8 42h-115l38 197h115l28 143l229 23h27l-33 -166h116l-38 -197h-116l-8 -42h116l-38 -197h-116z" />
    <glyph glyph-name="bullet" unicode="&#x2022;" horiz-adv-x="328" 
d="M267 211h-244l43 224h244z" />
    <glyph glyph-name="ellipsis" unicode="&#x2026;" horiz-adv-x="834" 
d="M194 0h-217l37 194h217zM466 0h-217l37 194h217zM740 0h-217l37 194h217z" />
    <glyph glyph-name="perthousand" unicode="&#x2030;" horiz-adv-x="1071" 
d="M743 773l15 -242l-235 -185l-22 232zM258 374q-67 3 -103 27.5t-40 90.5q0 83 58 139.5t146 56.5q68 0 106.5 -34t38.5 -91q3 -73 -51.5 -130.5t-154.5 -58.5zM279 482q17 0 27.5 21t10.5 54q0 21 -19 21q-17 0 -27 -21.5t-10 -53.5q0 -21 18 -21zM11 161l242 194
l34 -208l-250 -199zM456 -12q-67 3 -103 27.5t-40 90.5q0 83 58 139.5t146 56.5q68 0 106.5 -34t38.5 -91q3 -73 -51.5 -130.5t-154.5 -58.5zM477 96q17 0 27.5 21t10.5 54q0 21 -19 21q-17 0 -27 -21.5t-10 -53.5q0 -21 18 -21zM819 -12q-67 3 -103 27.5t-40 90.5
q0 83 58 139.5t146 56.5q68 0 106.5 -34t38.5 -91q3 -73 -51.5 -130.5t-154.5 -58.5zM840 96q17 0 27.5 21t10.5 54q0 21 -19 21q-17 0 -27 -21.5t-10 -53.5q0 -21 18 -21z" />
    <glyph glyph-name="guilsinglleft" unicode="&#x2039;" horiz-adv-x="317" 
d="M-2 267l188 244l138 -83l-131 -161l67 -160l-168 -83z" />
    <glyph glyph-name="guilsinglright" unicode="&#x203a;" horiz-adv-x="316" 
d="M302 268l-188 -244l-137 83l130 161l-67 160l168 83z" />
    <glyph glyph-name="fraction" unicode="&#x2044;" horiz-adv-x="418" 
d="M547 740l-549 -856l-127 58l547 854z" />
    <glyph glyph-name="Euro" unicode="&#x20ac;" horiz-adv-x="707" 
d="M570 346l-35 -127h-192q12 -45 102 -45q78 0 172 29l-35 -181q-121 -34 -230 -34q-277 0 -283 231h-73l34 127h52l5 27h-36l35 127h43q103 232 384 232q82 0 190 -20l-35 -181q-100 14 -137 14q-110 0 -131 -45h226l-35 -127h-248l-5 -27h232z" />
    <glyph glyph-name="trademark" unicode="&#x2122;" horiz-adv-x="744" 
d="M367 750l-19 -95h-78l-33 -173h-114l33 173h-77l19 95h269zM647 616h-9l-38 -135h-121l11 135h-8l-26 -134h-114l52 268h167l6 -114h4l50 114h164l-52 -268h-112z" />
    <glyph glyph-name="Omega" unicode="&#x2126;" horiz-adv-x="807" 
d="M446 535q-112 0 -137 -131q-27 -137 43 -206l-39 -198h-346l38 193h117q-87 96 -60 237q16 77 68 143q47 64 144 112.5t211 47.5q159 1 246 -89t60 -214q-26 -139 -153 -237h118l-38 -193h-347l39 198q96 67 123 206q26 131 -87 131z" />
    <glyph glyph-name="partialdiff" unicode="&#x2202;" horiz-adv-x="624" 
d="M133 535l28 181q85 15 150 15q139 0 217 -74t78 -210q0 -151 -66 -268q-107 -191 -308 -191q-104 0 -168 41t-64 134q0 113 71.5 195t185.5 82q52 0 112 -16q0 61 -33 91t-108 30q-49 0 -95 -10zM311 300q-35 0 -52 -31.5t-17 -62.5q0 -17 8.5 -27t21.5 -10q63 0 76 119
q-12 12 -37 12z" />
    <glyph glyph-name="Delta" unicode="&#x2206;" horiz-adv-x="761" 
d="M543 670l130 -670h-704l391 670h183zM453 181l-43 259l-143 -259h186z" />
    <glyph glyph-name="product" unicode="&#x220f;" horiz-adv-x="990" 
d="M851 821v-1071h-251v867h-225v-868h-250l-1 1072h727z" />
    <glyph glyph-name="summation" unicode="&#x2211;" horiz-adv-x="851" 
d="M743 -25l10 -194h-592v193l246 327l-247 326v194h601l-10 -194l-329 -1l251 -325l-251 -326h321z" />
    <glyph glyph-name="minus" unicode="&#x2212;" horiz-adv-x="562" 
d="M511 370v-178h-471v178h471z" />
    <glyph glyph-name="uni2219" unicode="&#x2219;" horiz-adv-x="300" 
d="M232 170h-217l37 194h217z" />
    <glyph glyph-name="radical" unicode="&#x221a;" horiz-adv-x="1027" 
d="M52 566h364l124 -477l157 736h289l-268 -1002h-348l-150 505h-168v238z" />
    <glyph glyph-name="infinity" unicode="&#x221e;" horiz-adv-x="1069" 
d="M777 47q-125 0 -250 108q-123 -108 -249 -108q-109 0 -180.5 62.5t-71.5 165.5q0 102 70.5 164.5t181.5 62.5q123 0 251 -107q128 107 248 107q111 0 181.5 -62.5t70.5 -164.5q0 -103 -70.5 -165.5t-181.5 -62.5zM770 318q-11 0 -33 -5q-21 -5 -67 -38q59 -42 100 -42
q44 0 44 42q0 43 -44 43zM285 232q23 0 41 7q21 8 62 36q-35 24 -56 33.5t-47 9.5q-20 0 -30.5 -9t-10.5 -34q0 -22 9 -32.5t32 -10.5z" />
    <glyph glyph-name="uni2224" unicode="&#x2224;" horiz-adv-x="300" 
d="M232 170h-217l37 194h217z" />
    <glyph glyph-name="logicaland" unicode="&#x2227;" horiz-adv-x="300" 
d="M232 170h-217l37 194h217z" />
    <glyph glyph-name="integral" unicode="&#x222b;" horiz-adv-x="421" 
d="M82 41v500q0 248 245 248q48 0 61 -1q20 -2 75 -12l-17 -173l-41 6q-14 2 -26 2q-32 0 -42.5 -20t-10.5 -76v-500q0 -248 -245 -248q-48 0 -61 1q-19 1 -73 12l16 173q48 -8 66 -8q32 0 42.5 20t10.5 76z" />
    <glyph glyph-name="approxequal" unicode="&#x2248;" horiz-adv-x="650" 
d="M391 471q50 0 102 34l60 -165q-66 -57 -131 -57q-25 0 -91 17q-64 18 -106 18q-48 0 -98 -29l-74 162q79 55 141 55q42 0 107 -18q66 -17 90 -17zM424 253q50 0 102 34l60 -165q-66 -57 -131 -57q-25 0 -91 17q-65 18 -106 18q-48 0 -98 -29l-74 162q79 55 141 55
q43 0 107 -18q66 -17 90 -17z" />
    <glyph glyph-name="notequal" unicode="&#x2260;" horiz-adv-x="537" 
d="M157 75l-34 -46h-101l33 46h-67l34 183h167l30 42h-189l36 182h287l36 49h102l-36 -49h82l-36 -182h-180l-31 -42h203l-35 -183h-301z" />
    <glyph glyph-name="lessequal" unicode="&#x2264;" horiz-adv-x="592" 
d="M363 319l-90 -10v-14l90 -10l144 -33v-157l-454 164v160l454 149v-216zM507 61v-61h-453l-1 229z" />
    <glyph glyph-name="greaterequal" unicode="&#x2265;" horiz-adv-x="621" 
d="M226 285l90 10v14l-90 10l-144 33v216l454 -149v-160l-454 -164v157zM536 229v-229h-453v61z" />
    <glyph glyph-name="dotmath" unicode="&#x22c5;" horiz-adv-x="300" 
d="M232 170h-217l37 194h217z" />
    <glyph glyph-name="lozenge" unicode="&#x25ca;" horiz-adv-x="641" 
d="M241 0l-208 339l208 332h168l209 -339l-209 -332h-168zM369 335l-44 68l-42 -67l41 -68z" />
    <glyph glyph-name="g.salt" horiz-adv-x="657" 
d="M656 518l-94 -490q-47 -246 -364 -246q-92 0 -214 24l39 182q102 -29 183 -29q126 0 143 74l-9 30l-1 -1q-71 -71 -164 -71q-77 0 -122 53t-45 140q0 184 100 284.5t274 100.5q124 0 274 -51zM381 379l-23 2q-44 -2 -67 -47q-24 -45 -24 -102q0 -22 11 -35.5t29 -13.5
t36 8z" />
    <glyph glyph-name="R.salt" horiz-adv-x="725" 
d="M717 514q0 -167 -129 -254l-1 -8q0 -71 88 -71l-28 -181q-49 -6 -92 -6q-218 0 -218 171l2 36h-54l-39 -201h-255l138 720h348q117 0 178.5 -54t61.5 -152zM396 504h-53l-23 -120h53q80 0 80 80q0 40 -57 40z" />
    </font>
</defs>
</svg>
