<?xml version="1.0" standalone="no"?>
<!DOCTYPE svg PUBLIC "-//W3C//DTD SVG 1.1//EN" "http://www.w3.org/Graphics/SVG/1.1/DTD/svg11.dtd" >
<svg xmlns="http://www.w3.org/2000/svg" xmlns:xlink="http://www.w3.org/1999/xlink" version="1.1">
<metadata>
Created by FontForge 20170731 at Sun Mar 24 20:01:26 2019
 By Aleksey,,,
Copyright (c) 2013 by PSTL. All rights reserved. |DCNT
</metadata>
<defs>
<font id="Quatro-Book" horiz-adv-x="606" >
  <font-face 
    font-family="Quatro Book"
    font-weight="350"
    font-stretch="normal"
    units-per-em="1000"
    panose-1="2 11 5 3 0 0 0 2 0 4"
    ascent="742"
    descent="-258"
    x-height="539"
    cap-height="720"
    bbox="-37 -258 1034 927"
    underline-thickness="50"
    underline-position="-275"
    unicode-range="U+000D-FB02"
  />
<missing-glyph horiz-adv-x="570" 
d="M490 670v-670h-410v670h410zM149 69h272v532h-272v-532z" />
    <glyph glyph-name="fi" unicode="fi" horiz-adv-x="578" 
d="M426 539h74v-539h-74v539zM425 729h77v-100h-77v100zM372 764v-63q-55 11 -95 11q-55 0 -78.5 -25.5t-23.5 -85.5v-62h168v-65h-166v-474h-74v474h-67v55l67 11v78q0 79 38.5 118t121.5 39q51 0 109 -11z" />
    <glyph glyph-name="fl" unicode="fl" horiz-adv-x="582" 
d="M425 763h73v-763h-73v763zM372 764v-63q-55 11 -95 11q-55 0 -78.5 -25.5t-23.5 -85.5v-62h168v-65h-166v-474h-74v474h-67v55l67 11v78q0 79 38.5 118t121.5 39q51 0 109 -11z" />
    <glyph glyph-name=".notdef" horiz-adv-x="570" 
d="M490 670v-670h-410v670h410zM149 69h272v532h-272v-532z" />
    <glyph glyph-name=".null" horiz-adv-x="0" 
 />
    <glyph glyph-name="nonmarkingreturn" horiz-adv-x="333" 
 />
    <glyph glyph-name="CR" unicode="&#xd;" horiz-adv-x="230" 
 />
    <glyph glyph-name="space" unicode=" " horiz-adv-x="260" 
 />
    <glyph glyph-name="exclam" unicode="!" horiz-adv-x="264" 
d="M172 0h-79v99h79v-99zM95 720h74v-497h-74v497z" />
    <glyph glyph-name="quotedbl" unicode="&#x22;" horiz-adv-x="316" 
d="M246 518h-56v201h56v-201zM126 518h-56v201h56v-201z" />
    <glyph glyph-name="numbersign" unicode="#" horiz-adv-x="695" 
d="M204 386h-121l12 66h122l34 174h72l-34 -174h177l33 174h71l-33 -174h118l-12 -66h-119l-32 -156h122l-12 -64h-123l-35 -169h-72l35 169h-177l-35 -169h-72l36 169h-121l13 64h121zM452 386h-177l-32 -156h177z" />
    <glyph glyph-name="dollar" unicode="$" horiz-adv-x="563" 
d="M253 57q185 0 185 152q0 35 -15 58q-13 23 -45 40q-29 16 -120 31q-69 10 -113 30q-93 45 -93 165q0 175 204 195v92h68v-89q7 0 39 -2l119 -9v-71q-107 14 -168 14q-96 0 -139 -30.5t-43 -97.5q0 -36 13 -59q15 -25 40 -40q26 -15 109 -29q84 -14 119 -28q37 -15 60 -39
q45 -45 45 -131q0 -90 -50 -146t-144 -70v-84h-68v79q-90 0 -195 17v73q119 -21 192 -21z" />
    <glyph glyph-name="percent" unicode="%" horiz-adv-x="746" 
d="M173 0l339 720h60l-340 -720h-59zM37 560q0 77 33 124.5t101 47.5q59 0 96.5 -41.5t37.5 -130.5q0 -77 -33 -124.5t-101 -47.5q-59 0 -96.5 41.5t-37.5 130.5zM250 560q0 126 -79 126t-79 -126t79 -126t79 126zM438 165q0 77 33 124.5t101 47.5q59 0 96.5 -41.5
t37.5 -130.5q0 -77 -33 -124.5t-101 -47.5q-59 0 -96.5 41.5t-37.5 130.5zM651 165q0 126 -79 126t-79 -126t79 -126t79 126z" />
    <glyph glyph-name="ampersand" unicode="&#x26;" horiz-adv-x="708" 
d="M167 529q0 -57 43 -94q44 -38 102 -38h351v-62h-114l99 -335h-72l-24 78q-128 -90 -262 -90q-104 -4 -172.5 55.5t-63.5 142.5q-2 66 45 117t101 65q-51 24 -82 71t-31 99q0 89 73.5 141.5t182.5 52.5q96 0 198 -28v-73q-27 12 -87 23q-57 11 -105 11q-80 0 -131 -36.5
t-51 -99.5zM534 141l-58 194h-174q-77 0 -124 -41t-47 -101q-4 -63 49 -103.5t119 -37.5q56 -2 129 27.5t106 61.5z" />
    <glyph glyph-name="quotesingle" unicode="'" horiz-adv-x="195" 
d="M125 518h-55v201h55v-201z" />
    <glyph glyph-name="parenleft" unicode="(" horiz-adv-x="294" 
d="M51 279q0 254 149 484h78q-71 -106 -114 -232t-43 -252t43 -252t114 -232h-78q-149 230 -149 484z" />
    <glyph glyph-name="parenright" unicode=")" horiz-adv-x="294" 
d="M243 279q0 -254 -149 -484h-78q69 102 113 232q44 129 44 252t-44 252q-44 130 -113 232h78q149 -230 149 -484z" />
    <glyph glyph-name="asterisk" unicode="*" horiz-adv-x="468" 
d="M368 409l-42 -30l-93 123l-89 -124l-44 30l95 128l-147 47l15 47l144 -50v154h51v-154l146 50l15 -46l-148 -48z" />
    <glyph glyph-name="plus" unicode="+" horiz-adv-x="565" 
d="M250 245h-204v64h204v201h63v-201h205v-64h-205v-201h-63v201z" />
    <glyph glyph-name="comma" unicode="," horiz-adv-x="208" 
d="M104 -96h-33v199h63q6 -24 6 -54q0 -33 -10.5 -75t-25.5 -70z" />
    <glyph glyph-name="hyphen" unicode="-" horiz-adv-x="519" 
d="M446 234h-373v65h373v-65z" />
    <glyph glyph-name="period" unicode="." horiz-adv-x="209" 
d="M71 103h67v-103h-67v103z" />
    <glyph glyph-name="slash" unicode="/" horiz-adv-x="395" 
d="M103 -207h-69l258 969h70z" />
    <glyph glyph-name="zero" unicode="0" horiz-adv-x="657" 
d="M141 360q0 -301 188 -301q186 0 186 301q0 300 -186 300q-188 0 -188 -300zM61 360q0 372 268 372q267 0 267 -372t-267 -372q-268 0 -268 372z" />
    <glyph glyph-name="one" unicode="1" horiz-adv-x="335" 
d="M243 720v-720h-75v634l-136 -64v73l157 77h54z" />
    <glyph glyph-name="two" unicode="2" horiz-adv-x="538" 
d="M491 0h-444v68q105 89 163 142q61 58 99 107q76 98 76 185q0 75 -46 117.5t-126 42.5q-62 0 -154 -23v72q91 21 167 21q110 0 173.5 -57t63.5 -170q0 -100 -73 -197q-69 -94 -242 -239h343v-69z" />
    <glyph glyph-name="three" unicode="3" horiz-adv-x="536" 
d="M65 639v69q41 12 89 17q52 6 90 6q94 0 156.5 -48.5t62.5 -129.5q0 -26 -14 -65q-13 -37 -46 -71t-72 -49q64 -14 104 -63q42 -50 42 -107q0 -95 -70 -152.5t-182 -57.5q-38 0 -85 4q-47 3 -88 8l1 67q71 -11 165 -11q84 0 132 37.5t48 105.5q0 58 -49.5 94.5
t-120.5 36.5h-91v65h88q66 0 113.5 45t47.5 103t-42 88.5t-115 30.5q-32 0 -88 -8q-52 -7 -76 -15z" />
    <glyph glyph-name="four" unicode="4" horiz-adv-x="622" 
d="M37 252l167 468h76l-165 -461h286v104l16 141h58v-244h115v-69h-115v-191h-74v191h-364v61z" />
    <glyph glyph-name="five" unicode="5" horiz-adv-x="540" 
d="M408 218q0 72 -39 107.5t-120 35.5h-172v359h386v-69h-314v-223h115q109 0 166.5 -53.5t57.5 -149.5q0 -109 -70.5 -172.5t-194.5 -63.5q-29 0 -81 5q-53 5 -76 10v70q33 -8 79 -12q52 -5 76 -5q46 -1 88 14.5t71.5 54t27.5 92.5z" />
    <glyph glyph-name="six" unicode="6" horiz-adv-x="601" 
d="M509 721v-68q-53 11 -106 11q-124 0 -194.5 -85.5t-70.5 -215.5q122 55 217 55q88 0 143.5 -51t55.5 -154q0 -91 -55 -154q-64 -71 -183 -71q-116 0 -186.5 84t-70.5 252q0 185 86 296.5t250 111.5q48 0 114 -11zM475 212q2 60 -34 100t-105 38q-92 0 -196 -50
q2 -125 50.5 -184.5t127.5 -59.5q71 0 114 41t43 115z" />
    <glyph glyph-name="seven" unicode="7" horiz-adv-x="493" 
d="M230 0h-75q1 188 63 357q63 169 171 294h-362v69h445v-71q-120 -139 -179 -297q-57 -154 -63 -352z" />
    <glyph glyph-name="eight" unicode="8" horiz-adv-x="593" 
d="M300 -12q-47 0 -88.5 10.5t-77 32t-56 59t-20.5 87.5q0 56 34 111t96 89q-37 18 -62 44t-34.5 52t-12.5 42.5t-2 27.5q0 78 61 133.5t160 55.5t158 -52q61 -51 61 -130q0 -105 -110 -194q67 -32 97.5 -73t30.5 -98q0 -76 -53 -133q-61 -64 -182 -64zM300 54q71 0 114 37
t43 97q0 65 -75 103q-33 18 -55 26q-17 7 -84 29q-48 -29 -77 -73t-29 -89t29 -79q47 -51 134 -51zM297 667q-57 0 -99 -34.5t-42 -92.5q0 -56 44 -90.5t148 -64.5q41 29 66 71t25 83q0 30 -13 57q-13 31 -49 51t-80 20z" />
    <glyph glyph-name="nine" unicode="9" horiz-adv-x="601" 
d="M92 -1v68q53 -11 106 -11q124 0 194 84t70 215q-123 -54 -216 -54q-95 0 -147 53.5t-52 151.5q0 92 55 153q63 72 183 72q115 0 186 -84.5t71 -251.5q0 -185 -86 -296t-251 -111q-47 0 -113 11zM125 508q0 -71 38 -105.5t102 -34.5q93 0 195 51q-1 119 -47 181.5
t-130 62.5q-76 0 -117 -42t-41 -113z" />
    <glyph glyph-name="colon" unicode=":" horiz-adv-x="213" 
d="M73 103h67v-103h-67v103zM73 438h67v-104h-67v104z" />
    <glyph glyph-name="semicolon" unicode=";" horiz-adv-x="215" 
d="M74 437h67v-103h-67v103zM107 -96h-33v199h63q6 -24 6 -54q0 -33 -10.5 -75t-25.5 -70z" />
    <glyph glyph-name="less" unicode="&#x3c;" horiz-adv-x="584" 
d="M516 23l-472 194v84l472 194v-74l-413 -162l413 -162v-74z" />
    <glyph glyph-name="equal" unicode="=" horiz-adv-x="624" 
d="M548 351h-472v64h472v-64zM548 130h-472v65h472v-65z" />
    <glyph glyph-name="greater" unicode="&#x3e;" horiz-adv-x="584" 
d="M68 495l472 -194v-84l-472 -194v74l413 162l-413 162v74z" />
    <glyph glyph-name="question" unicode="?" horiz-adv-x="447" 
d="M127 248q0 36 9 67q10 36 32.5 67t70.5 73q50 44 64 63q28 40 28 78q0 105 -156 105q-59 0 -137 -23v72q84 23 162 23q99 0 156.5 -46.5t57.5 -125.5q0 -35 -16 -68q-17 -36 -74 -90q-60 -57 -72 -70q-53 -61 -53 -124q0 -21 8 -55h-74q-6 36 -6 54zM216 0h-79v99h79v-99
z" />
    <glyph glyph-name="at" unicode="@" horiz-adv-x="937" 
d="M694 37q-57 0 -94.5 27t-41.5 74q-55 -61 -130 -61q-44 -4 -84.5 32.5t-38.5 107.5q0 93 53.5 151t143.5 58q70 0 140 -39l-23 -183q-7 -59 11 -83.5t64 -24.5q139 0 139 213q0 129 -101 205t-247 76q-163 1 -266 -103.5t-101 -255.5q0 -169 98.5 -265t275.5 -96
q97 0 175 23l7 -62q-88 -25 -197 -25q-187 -2 -306.5 111.5t-117.5 313.5q0 132 61 229q62 99 161 145q102 47 212 47q184 2 299 -93.5t113 -248.5q0 -128 -57 -201q-56 -72 -148 -72zM555 188l22 167q-38 19 -79 19q-44 4 -87 -34t-41 -108q0 -102 74 -102q62 0 111 58z
" />
    <glyph glyph-name="A" unicode="A" horiz-adv-x="658" 
d="M100 0h-83l255 721h113l257 -721h-84l-59 169h-340zM335 653h-15l-143 -415h302z" />
    <glyph glyph-name="B" unicode="B" horiz-adv-x="637" 
d="M90 720h262q92 0 150 -48.5t58 -129.5q0 -119 -112 -174q54 -9 98 -56.5t42 -114.5q0 -76 -50 -131q-58 -66 -170 -66h-278v720zM167 68h197q64 -3 104.5 38t38.5 97q0 57 -41.5 92t-110.5 35h-188v-262zM167 651v-254h181q56 0 96 39q40 40 40 96q0 54 -39 86.5
t-103 32.5h-175z" />
    <glyph glyph-name="C" unicode="C" horiz-adv-x="608" 
d="M56 361q0 174 82 272.5t240 98.5q85 0 183 -23v-73q-94 27 -172 27q-253 0 -253 -300q0 -149 63 -227.5t184 -78.5q95 0 179 30v-72q-30 -8 -69 -16q-53 -11 -114 -11q-161 0 -242 98.5t-81 274.5z" />
    <glyph glyph-name="D" unicode="D" horiz-adv-x="711" 
d="M318 0h-228v720h228q151 0 244.5 -94.5t93.5 -266.5t-93.5 -265.5t-244.5 -93.5zM577 359q0 132 -71.5 212t-195.5 80h-143v-582h143q124 0 195.5 79t71.5 211z" />
    <glyph glyph-name="E" unicode="E" horiz-adv-x="597" 
d="M90 0v720h455v-69h-378v-256h332v-68h-332v-258h377v-69h-454z" />
    <glyph glyph-name="F" unicode="F" horiz-adv-x="577" 
d="M90 0v720h455v-69h-378v-275h336v-68h-336v-308h-77z" />
    <glyph glyph-name="G" unicode="G" horiz-adv-x="705" 
d="M136 361q0 -152 73.5 -228t199.5 -76q77 0 158 25v269h76v-319q-127 -44 -247 -44q-166 0 -253.5 97t-87.5 277q0 168 96.5 269t270.5 101q89 0 190 -23v-72q-95 26 -189 26q-119 0 -199 -71q-38 -32 -59.5 -87t-25.5 -88.5t-3 -55.5z" />
    <glyph glyph-name="H" unicode="H" horiz-adv-x="744" 
d="M90 0v720h77v-320h409v320h78v-720h-78v333h-409v-333h-77z" />
    <glyph glyph-name="I" unicode="I" horiz-adv-x="257" 
d="M167 0h-77v720h77v-720z" />
    <glyph glyph-name="J" unicode="J" horiz-adv-x="258" 
d="M91 720h77v-637q0 -158 -146 -292l-48 59q112 97 117 236v634z" />
    <glyph glyph-name="K" unicode="K" horiz-adv-x="637" 
d="M401 130l-107 201l-127 -46v-285h-77v720h77v-360l149 56q83 31 121.5 91.5t38.5 166.5l-2 46h78l1 -63q0 -204 -187 -298l108 -200q27 -50 57.5 -71t84.5 -21v-69l-30 -1q-61 0 -104 31.5t-81 101.5z" />
    <glyph glyph-name="L" unicode="L" horiz-adv-x="529" 
d="M90 0v720h77v-651h351v-69h-428z" />
    <glyph glyph-name="M" unicode="M" horiz-adv-x="901" 
d="M732 633l-239 -636h-86l-236 636h-6v-633h-75v720h129l233 -634l232 634h127v-720h-74v633h-5z" />
    <glyph glyph-name="N" unicode="N" horiz-adv-x="744" 
d="M654 0h-87l-400 596v-596h-77v720h86l401 -602v602h77v-720z" />
    <glyph glyph-name="O" unicode="O" horiz-adv-x="740" 
d="M604 361q0 302 -234 302q-233 0 -233 -302q0 -305 233 -305q234 0 234 305zM57 361q0 177 78 274t237 97t235 -96.5t76 -274.5q0 -373 -311 -373q-159 0 -237 97.5t-78 275.5z" />
    <glyph glyph-name="P" unicode="P" horiz-adv-x="596" 
d="M333 244h-166v-244h-77v720h241q88 4 157.5 -60.5t69.5 -178.5q0 -98 -61 -167.5t-164 -69.5zM324 651h-157v-339h157q74 0 114 51t40 119q2 66 -41 119.5t-113 49.5z" />
    <glyph glyph-name="Q" unicode="Q" horiz-adv-x="741" 
d="M57 360q0 178 77.5 275t237.5 97t236 -97t76 -275q0 -287 -186 -353l123 -139h-98l-110 124l-33 -2q-323 0 -323 370zM605 360q0 303 -235 303q-112 0 -172.5 -74t-60.5 -229q0 -64 11 -115.5t36.5 -95.5t72.5 -68.5t113 -24.5q235 0 235 304z" />
    <glyph glyph-name="R" unicode="R" horiz-adv-x="618" 
d="M90 0v720h217q115 0 179 -61t64 -168q1 -62 -32.5 -121.5t-81.5 -81.5l148 -288h-86l-137 265q-1 0 -10.5 -0.5t-23.5 -1.5t-27 -1h-133v-262h-77zM313 651h-146v-321h152q69 -3 111.5 47.5t39.5 115.5q1 63 -40.5 112t-116.5 46z" />
    <glyph glyph-name="S" unicode="S" horiz-adv-x="562" 
d="M253 57q185 0 185 152q0 35 -15 58q-13 23 -45 40q-29 16 -120 31q-69 10 -113 30q-93 45 -93 165q0 198 263 198q54 0 167 -11v-71q-107 14 -168 14q-96 0 -139 -30.5t-43 -97.5q0 -36 13 -59q15 -25 40 -40q26 -15 109 -29q84 -14 119 -28q37 -15 60 -39
q45 -45 45 -131q0 -105 -68 -163t-192 -58q-90 0 -197 17v73q119 -21 192 -21z" />
    <glyph glyph-name="T" unicode="T" horiz-adv-x="611" 
d="M11 720h589v-69h-256v-651h-77v651h-256v69z" />
    <glyph glyph-name="U" unicode="U" horiz-adv-x="712" 
d="M627 720v-492q0 -47 -14.5 -88t-45 -76t-85 -55.5t-126.5 -20.5q-123 0 -197 62t-74 179v491h77v-497q0 -80 59 -123t135 -43q74 -3 136 43.5t58 122.5v497h77z" />
    <glyph glyph-name="V" unicode="V" horiz-adv-x="652" 
d="M552 720h84l-253 -720h-114l-253 720h83l221 -639h16z" />
    <glyph glyph-name="W" unicode="W" horiz-adv-x="965" 
d="M755 -4h-101l-169 583h-6l-168 -583h-101l-181 724h80l154 -620h4l175 620h85l175 -620h4l151 620h79z" />
    <glyph glyph-name="X" unicode="X" horiz-adv-x="609" 
d="M486 720h88l-217 -353l244 -367h-93l-205 313l-201 -313h-89l241 373l-227 347h90l191 -297z" />
    <glyph glyph-name="Y" unicode="Y" horiz-adv-x="595" 
d="M336 260v-260h-77v260l-245 460h89l195 -379l195 379h88z" />
    <glyph glyph-name="Z" unicode="Z" horiz-adv-x="631" 
d="M41 720h536v-74l-438 -577h457v-69h-549v75l436 576h-442v69z" />
    <glyph glyph-name="bracketleft" unicode="[" horiz-adv-x="263" 
d="M87 -205v968h127v-68h-59v-833h59v-67h-127z" />
    <glyph glyph-name="backslash" unicode="\" horiz-adv-x="396" 
d="M362 -205h-69l-259 969h70z" />
    <glyph glyph-name="bracketright" unicode="]" horiz-adv-x="264" 
d="M177 763v-968h-128v67h59v833h-59v68h128z" />
    <glyph glyph-name="asciicircum" unicode="^" horiz-adv-x="460" 
d="M48 387l154 317h56l155 -317h-75l-106 220h-4l-104 -220h-76z" />
    <glyph glyph-name="underscore" unicode="_" horiz-adv-x="509" 
d="M440 -4h-371v60h371v-60z" />
    <glyph glyph-name="grave" unicode="`" horiz-adv-x="500" 
d="M303 617h-61l-87 142h83z" />
    <glyph glyph-name="a" unicode="a" horiz-adv-x="546" 
d="M228 311h168v65q0 110 -132 110q-34 0 -90 -8q-60 -9 -89 -17v66q33 7 97 16q59 8 98 8q91 0 141 -46t50 -133v-372h-64l-6 70q-107 -75 -195 -75q-69 -3 -119.5 40t-47.5 116q0 77 50.5 118.5t138.5 41.5zM396 127v129h-161q-58 0 -89 -26.5t-31 -74.5q0 -47 30 -72.5
t82 -25.5q39 0 87 20t82 50z" />
    <glyph glyph-name="b" unicode="b" horiz-adv-x="603" 
d="M279 -12q-99 0 -202 27v748h74v-283q110 71 204 71q86 0 142 -68t56 -204q0 -143 -70.5 -217t-203.5 -74zM475 275q0 104 -37.5 157t-107.5 53q-73 0 -179 -70v-347q65 -16 127 -16q197 0 197 223z" />
    <glyph glyph-name="c" unicode="c" horiz-adv-x="530" 
d="M322 55q72 0 161 27v-68q-87 -26 -171 -26q-52 0 -96.5 14t-83 45t-61 88t-22.5 134q0 78 22.5 135t61 88t83 45t96.5 14q86 0 171 -28v-68q-90 29 -161 29q-96 0 -146 -55t-50 -160q0 -106 52.5 -160t143.5 -54z" />
    <glyph glyph-name="d" unicode="d" horiz-adv-x="604" 
d="M51 258q0 155 70.5 224t191.5 69q54 0 137 -17v229h74v-763h-61l-8 56q-106 -67 -202 -67q-90 0 -146 64.5t-56 204.5zM128 261q0 -66 16 -114q19 -45 45.5 -68t81.5 -25q84 0 179 65v351q-74 16 -133 16q-97 0 -143 -55t-46 -170z" />
    <glyph glyph-name="e" unicode="e" horiz-adv-x="572" 
d="M510 90v-67q-103 -35 -201 -35q-130 0 -194.5 69t-64.5 214q0 136 63 208t183 72q114 0 170 -65t56 -200v-36h-394q1 -101 50 -148t146 -47q88 0 186 35zM128 307h316q0 182 -151 182q-80 0 -122.5 -48.5t-42.5 -133.5z" />
    <glyph glyph-name="f" unicode="f" horiz-adv-x="358" 
d="M372 764v-63q-55 11 -95 11q-47 0 -74 -21q-26 -21 -26 -90v-62h166v-65h-166v-474h-74v474h-67v55l67 11v78q0 79 38.5 118t121.5 39q51 0 109 -11z" />
    <glyph glyph-name="g" unicode="g" horiz-adv-x="566" 
d="M48 359q0 89 59 140t159 51q28 0 87 -6t84 -6q60 0 108 9v-64h-117q58 -43 58 -126q0 -86 -57 -134t-162 -48q-46 0 -85 12q-23 -31 -23 -64q0 -22 14.5 -35t40.5 -13h168q68 0 110 -34t42 -99q0 -159 -270 -159q-223 0 -223 125q0 42 25.5 75.5t67.5 50.5q-43 34 -43 72
q0 51 43 99q-40 21 -63 61t-23 93zM411 360q0 62 -36.5 96.5t-106.5 34.5q-71 0 -107.5 -34.5t-36.5 -96.5q0 -130 144 -130q143 0 143 130zM364 13h-157q-38 -9 -64 -35t-26 -61q0 -41 37 -59t117 -18q98 0 142 21.5t44 74.5q0 36 -27 56.5t-66 20.5z" />
    <glyph glyph-name="h" unicode="h" 
d="M530 399v-399h-74v386q0 46 -26 71.5t-74 25.5q-28 0 -75 -14q-41 -13 -127 -58v-411h-74v763h74v-291q135 79 222 79q75 0 114.5 -39.5t39.5 -112.5z" />
    <glyph glyph-name="i" unicode="i" horiz-adv-x="234" 
d="M80 539h74v-539h-74v539zM78 728h77v-99h-77v99z" />
    <glyph glyph-name="j" unicode="j" horiz-adv-x="234" 
d="M80 539h74v-495q0 -91 -28 -145.5t-101 -105.5l-37 55q53 39 72.5 80t19.5 132v479zM79 728h77v-99h-77v99z" />
    <glyph glyph-name="k" unicode="k" horiz-adv-x="538" 
d="M391 539h73v-14q0 -175 -141 -245l59 -107q33 -60 63 -86.5t69 -26.5v-64q-12 -2 -26 -2q-91 0 -163 130l-69 126l-102 -42v-208h-74v763h74v-488l97 39q73 30 106.5 77.5t33.5 125.5v22z" />
    <glyph glyph-name="l" unicode="l" horiz-adv-x="242" 
d="M84 763h74v-763h-74v763z" />
    <glyph glyph-name="m" unicode="m" horiz-adv-x="955" 
d="M726 550q74 0 113.5 -39.5t39.5 -116.5v-394h-74v386q0 96 -101 96q-73 0 -189 -73l1 -42v-367h-74v386q0 96 -100 96q-32 0 -72 -13q-45 -15 -116 -59v-410h-74v539h70v-68q127 79 213 79q110 0 142 -85q125 85 221 85z" />
    <glyph glyph-name="n" unicode="n" 
d="M530 399v-399h-74v386q0 97 -100 97q-75 0 -202 -73v-410h-74v539h70v-68q140 80 226 80q76 0 115 -39t39 -113z" />
    <glyph glyph-name="o" unicode="o" horiz-adv-x="626" 
d="M126 269q0 -109 50 -162.5t138 -53.5q91 0 138.5 56.5t47.5 159.5t-47.5 159.5t-138.5 56.5q-81 0 -134.5 -50.5t-53.5 -165.5zM49 269q0 136 70.5 209t193.5 73q53 0 99 -15.5t84 -48t59.5 -88.5t21.5 -130t-21.5 -130t-59.5 -88t-83.5 -47.5t-99.5 -15.5
q-114 0 -189 68.5t-75 212.5z" />
    <glyph glyph-name="p" unicode="p" horiz-adv-x="605" 
d="M154 9v-214h-74v744h74v-64q109 76 206 76q91 0 142.5 -71t51.5 -198q0 -292 -255 -292q-74 0 -145 19zM476 278q0 102 -36 154t-101 52q-84 0 -185 -71v-340q94 -20 140 -20q182 0 182 225z" />
    <glyph glyph-name="q" unicode="q" horiz-adv-x="607" 
d="M324 551q94 0 204 -28v-728h-74v264q-110 -71 -202 -71q-87 0 -144 68t-57 204q0 144 70.5 217.5t202.5 73.5zM128 263q0 -100 39.5 -154t106.5 -54q37 0 86.5 18.5t93.5 49.5v348q-66 15 -128 15q-100 0 -149 -53.5t-49 -169.5z" />
    <glyph glyph-name="r" unicode="r" horiz-adv-x="386" 
d="M371 543v-78q-46 -8 -84 -23q-45 -17 -133 -67v-375h-74v539h72v-99l49 32q96 62 170 71z" />
    <glyph glyph-name="s" unicode="s" horiz-adv-x="480" 
d="M229 53q132 0 132 101q0 31 -15 50q-9 11 -29 20q-17 9 -90 20q-101 13 -137 47.5t-40 103.5q0 75 52.5 115.5t158.5 40.5q71 0 148 -13v-68q-91 15 -141 15q-141 0 -141 -86q0 -21 7 -38q8 -17 30 -30q24 -12 95 -21q94 -12 135 -42.5t44 -110.5q0 -82 -52 -125.5
t-152 -43.5q-78 0 -182 11v70q106 -16 177 -16z" />
    <glyph glyph-name="t" unicode="t" horiz-adv-x="366" 
d="M354 473h-175v-355q0 -29 17.5 -46t52.5 -17q39 0 85 15v-66q-76 -15 -118 -15q-59 0 -85.5 28.5t-26.5 87.5v368h-77v46l17 19h60v72l45 47h30v-119h175v-65z" />
    <glyph glyph-name="u" unicode="u" 
d="M76 139v400h74v-386q0 -51 29 -74.5t71 -23.5q81 0 202 73v411h74v-539h-62l-7 67q-133 -79 -226 -79q-75 0 -115 39t-40 112z" />
    <glyph glyph-name="v" unicode="v" horiz-adv-x="535" 
d="M221 -1l-189 540h80l155 -458h4l154 458h79l-191 -540h-92z" />
    <glyph glyph-name="w" unicode="w" horiz-adv-x="928" 
d="M76 156v383h74v-389q0 -45 27.5 -70t78.5 -25q75 0 174 75q-4 19 -4 58v351h71v-368q-4 -47 34 -82.5t106 -33.5q62 0 101.5 31t39.5 87v366h75v-368q0 -88 -58 -135.5t-160 -47.5q-65 -1 -115.5 26.5t-70.5 65.5q-115 -92 -206 -92q-167 0 -167 168z" />
    <glyph glyph-name="x" unicode="x" horiz-adv-x="539" 
d="M425 539h94l-201 -265l201 -274h-90l-162 219l-158 -219h-90l200 270l-198 269h94l155 -214z" />
    <glyph glyph-name="y" unicode="y" horiz-adv-x="535" 
d="M260 -205h-79l68 205h-39l-179 539h81l148 -460h13l148 460h81z" />
    <glyph glyph-name="z" unicode="z" horiz-adv-x="525" 
d="M370 473h-330v66h427v-58l-322 -416h347v-65h-446v58z" />
    <glyph glyph-name="braceleft" unicode="{" horiz-adv-x="455" 
d="M198 382q0 -100 -56 -118v-5q56 -16 56 -116q0 -34 -10 -101q-10 -66 -10 -97q0 -52 29.5 -89.5t104.5 -37.5q52 0 113 18v-69q-63 -16 -122 -16q-196 0 -196 192q0 40 10 106q10 67 10 93q0 85 -70 85l-21 -1v72l21 -1q70 0 70 85q0 27 -10 94q-9 70 -9 108
q0 191 195 191q59 0 122 -16v-69q-67 18 -113 18q-70 0 -102 -32t-32 -96q0 -31 10 -97t10 -101z" />
    <glyph glyph-name="bar" unicode="|" horiz-adv-x="249" 
d="M87 -205v968h75v-968h-75z" />
    <glyph glyph-name="braceright" unicode="}" horiz-adv-x="455" 
d="M258 144q0 99 55 118v5q-24 5 -40 39t-15 77q0 31 9 100q10 67 10 98q0 32 -9 58t-40.5 47.5t-83.5 21.5t-114 -18v69q61 16 123 16q196 0 196 -192q0 -40 -10 -107q-10 -66 -10 -92q0 -85 70 -85l20 1v-72l-20 1q-70 0 -70 -85q0 -23 9 -94q10 -67 10 -108
q0 -191 -195 -191q-62 0 -123 16v69q68 -18 114 -18q133 0 133 128q0 31 -10 97q-9 69 -9 101z" />
    <glyph glyph-name="asciitilde" unicode="~" horiz-adv-x="612" 
d="M527 344l12 -56q-51 -24 -103 -24q-49 0 -126 19q-82 20 -115 20q-57 0 -113 -29l-9 59q64 31 124 31q47 0 129 -20q77 -19 112 -19q50 0 89 19z" />
    <glyph glyph-name="uni00A0" unicode="&#xa0;" horiz-adv-x="260" 
 />
    <glyph glyph-name="exclamdown" unicode="&#xa1;" horiz-adv-x="244" 
d="M83 515h79v-99h-79v99zM159 -206h-74v498h74v-498z" />
    <glyph glyph-name="cent" unicode="&#xa2;" horiz-adv-x="526" 
d="M310 55q73 0 160 28v-69q-69 -21 -140 -24v-159h-68v160q-98 9 -161.5 75.5t-63.5 202.5q0 128 59.5 197.5t165.5 80.5v160h68v-158q72 -3 140 -26v-68q-87 28 -160 28q-96 0 -145.5 -54.5t-49.5 -159.5q0 -101 50 -157.5t145 -56.5z" />
    <glyph glyph-name="sterling" unicode="&#xa3;" horiz-adv-x="526" 
d="M393 729l10 -68q-91 -20 -128 -77q-37 -56 -37 -183h191v-69h-194v-56q0 -89 -14 -137t-57 -78q63 7 184 7h138v-68h-454l9 63q66 11 92.5 53.5t25.5 159.5v56h-86v69h86l2 69q5 105 65 174.5t167 84.5z" />
    <glyph glyph-name="yen" unicode="&#xa5;" horiz-adv-x="644" 
d="M284 254h-210v65h178l-213 401h89l195 -379l194 379h88l-214 -401h180v-65h-210v-75h210v-65h-210v-114h-77v114h-210v65h210v75z" />
    <glyph glyph-name="brokenbar" unicode="&#xa6;" horiz-adv-x="253" 
d="M89 -205v450h75v-450h-75zM164 763v-450h-75v450h75z" />
    <glyph glyph-name="section" unicode="&#xa7;" horiz-adv-x="516" 
d="M242 195q-69 13 -107 31q-67 36 -67 115q0 80 59 141q-62 35 -62 117q0 77 54.5 117t156.5 40q71 0 152 -13l-1 -68q-85 13 -142 13q-71 0 -105.5 -20t-34.5 -66q0 -29 17 -46q17 -16 40 -25q29 -10 97 -26q77 -18 105 -39q54 -39 54 -107q0 -75 -55 -147q51 -33 51 -106
q0 -81 -52 -124t-152 -43q-72 0 -181 12v68q103 -15 177 -15q65 0 97 22.5t32 75.5q0 40 -28.5 60t-104.5 33zM145 349q0 -43 36 -63q21 -13 80 -25q62 -13 82 -19q41 58 41 101q0 39 -22 58q-24 21 -87 34q-73 17 -88 22q-42 -59 -42 -108z" />
    <glyph glyph-name="dieresis" unicode="&#xa8;" horiz-adv-x="833" 
d="M530 713h67v-96h-67v96zM308 713h68v-96h-68v96z" />
    <glyph glyph-name="copyright" unicode="&#xa9;" horiz-adv-x="865" 
d="M432 35q134 -2 231.5 95t96.5 231q0 85 -40 157q-31 67 -111.5 119t-176.5 51q-134 2 -231.5 -95.5t-95.5 -231.5q-2 -134 95.5 -231t231.5 -95zM810 361q1 -100 -50.5 -186.5t-139 -137t-188.5 -49.5q-100 -1 -187.5 49.5t-139 137t-50.5 186.5q-1 153 111.5 264.5
t265.5 109.5q154 2 266.5 -109.5t111.5 -264.5zM279 365q0 81 45.5 125.5t122.5 44.5q36 0 85 -11v-51q-44 11 -80 11q-117 0 -117 -119t117 -119q36 0 80 11v-51q-49 -11 -85 -11q-77 0 -122.5 44.5t-45.5 125.5z" />
    <glyph glyph-name="ordfeminine" unicode="&#xaa;" horiz-adv-x="429" 
d="M301 386v99h-93q-96 0 -96 -68q0 -30 21.5 -47t58.5 -17q54 0 109 33zM56 415q0 109 145 109h100v25q0 42 -23 62.5t-74 20.5q-59 0 -123 -16v49q79 17 128 17q75 0 110.5 -32t35.5 -101v-241h-42l-5 41q-64 -42 -133 -42q-52 0 -85.5 29t-33.5 79z" />
    <glyph glyph-name="guillemotleft" unicode="&#xab;" horiz-adv-x="496" 
d="M258 35h-74l-138 236l137 236h75l-140 -236zM449 35h-74l-138 236l137 236h75l-140 -236z" />
    <glyph glyph-name="logicalnot" unicode="&#xac;" horiz-adv-x="620" 
d="M76 306h466v-232l-59 6v158h-407v68z" />
    <glyph glyph-name="registered" unicode="&#xae;" horiz-adv-x="537" 
d="M201 420v212h76q36 0 56 -20t20 -51q0 -19 -10 -36t-25 -25l40 -80h-43l-36 72h-39v-72h-39zM270 601h-30v-77h31q42 0 42 40q0 37 -43 37zM269 338q68 -4 126 53.5t54 126.5q0 74 -53.5 127t-126.5 53q-63 0 -118 -44q-29 -24 -45.5 -61.5t-16.5 -74.5
q-4 -69 53.5 -126.5t126.5 -53.5zM484 518q0 -53 -29 -106q-27 -50 -78.5 -78.5t-107.5 -28.5q-55 0 -107 28q-51 27 -80 78.5t-29 106.5t26 102q21 45 74 79t116 33q78 0 140 -52q36 -29 55.5 -73.5t19.5 -88.5z" />
    <glyph glyph-name="macron" unicode="&#xaf;" horiz-adv-x="601" 
d="M501 630h-401v63h401v-63z" />
    <glyph glyph-name="degree" unicode="&#xb0;" horiz-adv-x="316" 
d="M53 610q-3 36 27.5 71t77.5 34q35 3 70.5 -26t34.5 -79q0 -47 -29.5 -76t-75.5 -29t-75.5 29t-29.5 76zM221 610q0 30 -17.5 47.5t-45.5 17.5t-45.5 -17.5t-17.5 -47.5t17.5 -47.5t45.5 -17.5t45.5 17.5t17.5 47.5z" />
    <glyph glyph-name="plusminus" unicode="&#xb1;" horiz-adv-x="600" 
d="M268 319h-204v64h204v201h63v-201h205v-64h-205v-201h-63v201zM536 64v-64h-472v64h472z" />
    <glyph glyph-name="twosuperior" unicode="&#xb2;" horiz-adv-x="412" 
d="M349 289h-288v50q109 75 158.5 135.5t49.5 115.5q0 80 -101 80q-44 0 -95 -14v56q64 14 111 14q70 0 109 -32.5t39 -98.5q0 -121 -178 -250h195v-56z" />
    <glyph glyph-name="threesuperior" unicode="&#xb3;" horiz-adv-x="402" 
d="M71 655v55q64 16 115 16q25 1 49.5 -4t49 -16.5t39 -35.5t13.5 -56q0 -33 -21.5 -62.5t-59.5 -41.5q39 -9 63 -37t24 -63q3 -63 -49 -97.5t-129 -32.5q-42 0 -101 10v55q54 -9 97 -9q116 0 116 78q0 37 -31 54t-65 17h-61v47h57q40 -1 69 22t26 51q0 65 -97 65
q-44 0 -104 -15z" />
    <glyph glyph-name="acute" unicode="&#xb4;" horiz-adv-x="424" 
d="M195 759h83l-87 -142h-61z" />
    <glyph glyph-name="paragraph" unicode="&#xb6;" horiz-adv-x="527" 
d="M257 720h68v-435h-73q-98 0 -159 61t-61 157t62.5 156.5t162.5 60.5zM366 720h76v-696q0 -126 -53.5 -181.5t-175.5 -55.5q-38 0 -89 6v69q50 -7 86 -7q83 0 119.5 38t36.5 130v697z" />
    <glyph glyph-name="periodcentered" unicode="&#xb7;" horiz-adv-x="215" 
d="M73 321h69v-104h-69v104z" />
    <glyph glyph-name="cedilla" unicode="&#xb8;" horiz-adv-x="467" 
d="M113 -209v47q46 -8 76 -8q83 0 83 45q0 40 -88 40h-30v15l42 70h53l-34 -54q115 0 115 -73q2 -46 -40.5 -69t-92.5 -21q-39 0 -84 8z" />
    <glyph glyph-name="onesuperior" unicode="&#xb9;" horiz-adv-x="265" 
d="M186 721v-432h-61v364l-87 -36v59l108 45h40z" />
    <glyph glyph-name="ordmasculine" unicode="&#xba;" horiz-adv-x="463" 
d="M410 490q0 -85 -45 -138t-134 -53q-83 0 -130.5 49t-47.5 142q0 91 48 141.5t130 50.5q84 0 131.5 -50t47.5 -142zM353 490q0 142 -122 142q-121 0 -121 -142q0 -141 121 -141q122 0 122 141z" />
    <glyph glyph-name="guillemotright" unicode="&#xbb;" horiz-adv-x="496" 
d="M238 507h74l138 -236l-137 -236h-75l140 236zM47 507h74l138 -236l-137 -236h-75l140 236z" />
    <glyph glyph-name="onequarter" unicode="&#xbc;" horiz-adv-x="806" 
d="M185 721v-432h-61v364l-87 -36v59l109 45h39zM428 157l101 274h62l-101 -272h157v75l13 78h48v-154h67v-53h-67v-105h-61v105h-219v52zM148 -93h-69l441 856h68z" />
    <glyph glyph-name="onehalf" unicode="&#xbd;" horiz-adv-x="794" 
d="M756 0h-288v50q108 75 157.5 135t49.5 116q0 80 -101 80q-44 0 -95 -14v55q58 15 111 15q70 0 109 -32.5t39 -98.5q0 -126 -178 -250h196v-56zM182 721v-432h-61v364l-87 -36v59l109 45h39zM145 -93h-69l441 856h68z" />
    <glyph glyph-name="threequarters" unicode="&#xbe;" horiz-adv-x="899" 
d="M58 655v55q27 7 56 11q38 5 58 5q25 1 49.5 -4t49 -16.5t39 -35.5t13.5 -56q0 -32 -21.5 -62t-58.5 -42q38 -9 62.5 -37.5t24.5 -62.5q4 -63 -48.5 -97.5t-130.5 -32.5q-44 0 -100 10v55q52 -9 95 -9q118 0 118 78q3 28 -25.5 50.5t-71.5 20.5h-61v47h57q40 -1 69 22
t26 51q0 65 -98 65q-34 0 -102 -15zM522 156l101 275h62l-101 -272h157v75l13 78h48v-154h66v-54h-66v-104h-61v104h-219v52zM242 -93h-69l441 856h68z" />
    <glyph glyph-name="questiondown" unicode="&#xbf;" horiz-adv-x="440" 
d="M317 267q0 -37 -10 -68q-10 -35 -32 -66t-70 -74q-49 -41 -64 -62q-28 -40 -28 -78q0 -105 156 -105q59 0 137 23v-72q-84 -23 -162 -23q-99 0 -156.5 46.5t-57.5 125.5q0 35 16 68q17 36 73 89q62 59 72 71q54 58 54 124q0 22 -8 56h74q6 -36 6 -55zM228 515h79v-99h-79
v99z" />
    <glyph glyph-name="Agrave" unicode="&#xc0;" horiz-adv-x="658" 
d="M100 0h-83l255 721h113l257 -721h-84l-59 169h-340zM335 653h-15l-143 -415h302zM356 775h-61l-87 142h83z" />
    <glyph glyph-name="Aacute" unicode="&#xc1;" horiz-adv-x="658" 
d="M100 0h-83l255 721h113l257 -721h-84l-59 169h-340zM335 653h-15l-143 -415h302zM371 917h83l-87 -142h-61z" />
    <glyph glyph-name="Acircumflex" unicode="&#xc2;" horiz-adv-x="658" 
d="M100 0h-83l255 721h113l257 -721h-84l-59 169h-340zM335 653h-15l-143 -415h302zM415 775l-85 119l-86 -119h-69l109 152h91l109 -152h-69z" />
    <glyph glyph-name="Atilde" unicode="&#xc3;" horiz-adv-x="658" 
d="M100 0h-83l255 721h113l257 -721h-84l-59 169h-340zM335 653h-15l-143 -415h302zM114 786v74q48 48 114 48q47 0 102 -34q56 -33 76 -38q19 -4 35 -4q54 0 115 57v-74q-48 -48 -114 -48q-48 0 -103 33q-53 33 -76 38q-22 5 -34 5q-53 0 -115 -57z" />
    <glyph glyph-name="Adieresis" unicode="&#xc4;" horiz-adv-x="658" 
d="M100 0h-83l255 721h113l257 -721h-84l-59 169h-340zM335 653h-15l-143 -415h302zM407 871h67v-96h-67v96zM185 871h68v-96h-68v96z" />
    <glyph glyph-name="Aring" unicode="&#xc5;" horiz-adv-x="657" 
d="M225 771q0 43 28.5 70t75.5 27q38 3 72 -24.5t33 -72.5q0 -50 -41 -71l248 -700h-82l-59 169h-342l-57 -169h-84l249 699q-41 20 -41 72zM336 652h-15l-143 -415h302zM269 771q0 -26 15.5 -42t44.5 -16t44.5 16t15.5 42t-15.5 42.5t-44.5 16.5t-44.5 -16.5t-15.5 -42.5z
" />
    <glyph glyph-name="AE" unicode="&#xc6;" horiz-adv-x="993" 
d="M7 0l395 720h539v-70h-377v-254h332v-70h-332v-257h377v-69h-454v169h-297l-93 -169h-90zM487 650h-41l-223 -413h264v413z" />
    <glyph glyph-name="Ccedilla" unicode="&#xc7;" horiz-adv-x="608" 
d="M242 -209v47q46 -8 76 -8q83 0 83 45q0 40 -88 40h-30v15l37 62q-131 18 -197.5 112.5t-66.5 256.5q0 174 82 272.5t240 98.5q85 0 183 -23v-73q-94 27 -172 27q-253 0 -253 -300q0 -149 63 -227.5t184 -78.5q95 0 179 30v-72q-30 -8 -69 -16q-53 -11 -114 -11l-9 1
l-26 -43q115 0 115 -73q2 -46 -40.5 -69t-92.5 -21q-39 0 -84 8z" />
    <glyph glyph-name="Egrave" unicode="&#xc8;" horiz-adv-x="597" 
d="M90 0v720h455v-69h-378v-256h332v-68h-332v-258h377v-69h-454zM358 775h-61l-87 142h83z" />
    <glyph glyph-name="Eacute" unicode="&#xc9;" horiz-adv-x="597" 
d="M90 0v720h455v-69h-378v-256h332v-68h-332v-258h377v-69h-454zM348 917h83l-87 -142h-61z" />
    <glyph glyph-name="Ecircumflex" unicode="&#xca;" horiz-adv-x="597" 
d="M90 0v720h455v-69h-378v-256h332v-68h-332v-258h377v-69h-454zM401 775l-85 119l-86 -119h-69l109 152h91l109 -152h-69z" />
    <glyph glyph-name="Edieresis" unicode="&#xcb;" horiz-adv-x="597" 
d="M90 0v720h455v-69h-378v-256h332v-68h-332v-258h377v-69h-454zM402 871h67v-96h-67v96zM180 871h68v-96h-68v96z" />
    <glyph glyph-name="Igrave" unicode="&#xcc;" horiz-adv-x="257" 
d="M167 0h-77v720h77v-720zM156 775h-61l-87 142h83z" />
    <glyph glyph-name="Iacute" unicode="&#xcd;" horiz-adv-x="257" 
d="M167 0h-77v720h77v-720zM165 917h83l-87 -142h-61z" />
    <glyph glyph-name="Icircumflex" unicode="&#xce;" horiz-adv-x="257" 
d="M167 0h-77v720h77v-720zM214 775l-85 119l-86 -119h-69l109 152h91l109 -152h-69z" />
    <glyph glyph-name="Idieresis" unicode="&#xcf;" horiz-adv-x="257" 
d="M167 0h-77v720h77v-720zM206 871h67v-96h-67v96zM-16 871h68v-96h-68v96z" />
    <glyph glyph-name="Eth" unicode="&#xd0;" horiz-adv-x="754" 
d="M133 321h-127v69h127v330h228q151 0 244.5 -94.5t93.5 -266.5t-93.5 -265.5t-244.5 -93.5h-228v321zM619 359q0 131 -71.5 211t-194.5 80h-143v-260h153v-69h-153v-252h143q123 0 194.5 79t71.5 211z" />
    <glyph glyph-name="Ntilde" unicode="&#xd1;" horiz-adv-x="744" 
d="M654 0h-87l-400 596v-596h-77v720h86l401 -602v602h77v-720zM148 785v74q48 48 114 48q47 0 102 -34q56 -33 76 -38q19 -4 35 -4q53 0 115 57v-74q-48 -48 -114 -48q-48 0 -103 33q-53 33 -76 38q-22 5 -34 5q-53 0 -115 -57z" />
    <glyph glyph-name="Ograve" unicode="&#xd2;" horiz-adv-x="740" 
d="M604 361q0 302 -234 302q-233 0 -233 -302q0 -305 233 -305q234 0 234 305zM57 361q0 177 78 274t237 97t235 -96.5t76 -274.5q0 -373 -311 -373q-159 0 -237 97.5t-78 275.5zM391 775h-61l-87 142h83z" />
    <glyph glyph-name="Oacute" unicode="&#xd3;" horiz-adv-x="740" 
d="M604 361q0 302 -234 302q-233 0 -233 -302q0 -305 233 -305q234 0 234 305zM57 361q0 177 78 274t237 97t235 -96.5t76 -274.5q0 -373 -311 -373q-159 0 -237 97.5t-78 275.5zM411 917h83l-87 -142h-61z" />
    <glyph glyph-name="Ocircumflex" unicode="&#xd4;" horiz-adv-x="740" 
d="M604 361q0 302 -234 302q-233 0 -233 -302q0 -305 233 -305q234 0 234 305zM57 361q0 177 78 274t237 97t235 -96.5t76 -274.5q0 -373 -311 -373q-159 0 -237 97.5t-78 275.5zM456 775l-85 119l-86 -119h-69l109 152h91l109 -152h-69z" />
    <glyph glyph-name="Otilde" unicode="&#xd5;" horiz-adv-x="740" 
d="M604 361q0 302 -234 302q-233 0 -233 -302q0 -305 233 -305q234 0 234 305zM57 361q0 177 78 274t237 97t235 -96.5t76 -274.5q0 -373 -311 -373q-159 0 -237 97.5t-78 275.5zM149 786v74q48 48 114 48q47 0 102 -34q56 -33 76 -38q19 -4 35 -4q54 0 115 57v-74
q-48 -48 -114 -48q-47 0 -103 33q-53 33 -76 38q-22 5 -34 5q-54 0 -115 -57z" />
    <glyph glyph-name="Odieresis" unicode="&#xd6;" horiz-adv-x="740" 
d="M604 361q0 302 -234 302q-233 0 -233 -302q0 -305 233 -305q234 0 234 305zM57 361q0 177 78 274t237 97t235 -96.5t76 -274.5q0 -373 -311 -373q-159 0 -237 97.5t-78 275.5zM448 871h67v-96h-67v96zM226 871h68v-96h-68v96z" />
    <glyph glyph-name="multiply" unicode="&#xd7;" horiz-adv-x="504" 
d="M251 232l-144 -144l-45 45l145 144l-142 142l44 45l142 -142l145 145l45 -45l-145 -146l143 -142l-45 -44z" />
    <glyph glyph-name="Oslash" unicode="&#xd8;" horiz-adv-x="740" 
d="M57 361q0 177 78 274t237 97q97 0 165 -38l41 69h73l-63 -106q95 -95 95 -296q0 -373 -311 -373q-94 0 -159 34l-38 -65h-72l58 100q-104 92 -104 304zM137 361q0 -159 65 -236l297 504q-53 34 -129 34q-233 0 -233 -302zM604 361q0 150 -58 224l-296 -500
q49 -29 120 -29q234 0 234 305z" />
    <glyph glyph-name="Ugrave" unicode="&#xd9;" horiz-adv-x="712" 
d="M627 720v-492q0 -47 -14.5 -88t-45 -76t-85 -55.5t-126.5 -20.5q-123 0 -197 62t-74 179v491h77v-497q0 -80 59 -123t135 -43q74 -3 136 43.5t58 122.5v497h77zM399 775h-61l-87 142h83z" />
    <glyph glyph-name="Uacute" unicode="&#xda;" horiz-adv-x="712" 
d="M627 720v-492q0 -47 -14.5 -88t-45 -76t-85 -55.5t-126.5 -20.5q-123 0 -197 62t-74 179v491h77v-497q0 -80 59 -123t135 -43q74 -3 136 43.5t58 122.5v497h77zM383 917h83l-87 -142h-61z" />
    <glyph glyph-name="Ucircumflex" unicode="&#xdb;" horiz-adv-x="712" 
d="M627 720v-492q0 -47 -14.5 -88t-45 -76t-85 -55.5t-126.5 -20.5q-123 0 -197 62t-74 179v491h77v-497q0 -80 59 -123t135 -43q74 -3 136 43.5t58 122.5v497h77zM442 775l-85 119l-86 -119h-69l109 152h91l109 -152h-69z" />
    <glyph glyph-name="Udieresis" unicode="&#xdc;" horiz-adv-x="712" 
d="M627 720v-492q0 -47 -14.5 -88t-45 -76t-85 -55.5t-126.5 -20.5q-123 0 -197 62t-74 179v491h77v-497q0 -80 59 -123t135 -43q74 -3 136 43.5t58 122.5v497h77zM434 871h67v-96h-67v96zM212 871h68v-96h-68v96z" />
    <glyph glyph-name="Yacute" unicode="&#xdd;" horiz-adv-x="595" 
d="M336 260v-260h-77v260l-245 460h89l195 -379l195 379h88zM338 917h83l-87 -142h-61z" />
    <glyph glyph-name="Thorn" unicode="&#xde;" horiz-adv-x="602" 
d="M334 127h-167v-127h-77v734h77v-131h164q88 4 157.5 -60t69.5 -178q0 -98 -60.5 -168t-163.5 -70zM324 534h-157v-337h157q70 -4 113 49t41 119q2 66 -41 119.5t-113 49.5z" />
    <glyph glyph-name="germandbls" unicode="&#xdf;" horiz-adv-x="580" 
d="M237 354v71q71 5 124 49t50 116q4 39 -31.5 79t-88.5 39q-62 0 -100 -41.5t-38 -117.5v-549h-73v554q0 96 56 158.5t157 62.5q33 0 64 -9t61 -28.5t48 -56t18 -85.5q0 -71 -43.5 -126.5t-122.5 -72.5q219 -30 219 -197q0 -98 -59 -154t-154 -56q-61 0 -127 15v65
q65 -17 115 -17q72 -3 112 41t37 108q0 146 -224 152z" />
    <glyph glyph-name="agrave" unicode="&#xe0;" horiz-adv-x="546" 
d="M228 311h168v65q0 110 -132 110q-34 0 -90 -8q-60 -9 -89 -17v66q33 7 97 16q59 8 98 8q91 0 141 -46t50 -133v-372h-64l-6 70q-107 -75 -195 -75q-69 -3 -119.5 40t-47.5 116q0 77 50.5 118.5t138.5 41.5zM396 127v129h-161q-58 0 -89 -26.5t-31 -74.5q0 -47 30 -72.5
t82 -25.5q39 0 87 20t82 50zM307 617h-61l-87 142h83z" />
    <glyph glyph-name="aacute" unicode="&#xe1;" horiz-adv-x="546" 
d="M228 311h168v65q0 110 -132 110q-34 0 -90 -8q-60 -9 -89 -17v66q33 7 97 16q59 8 98 8q91 0 141 -46t50 -133v-372h-64l-6 70q-107 -75 -195 -75q-69 -3 -119.5 40t-47.5 116q0 77 50.5 118.5t138.5 41.5zM396 127v129h-161q-58 0 -89 -26.5t-31 -74.5q0 -47 30 -72.5
t82 -25.5q39 0 87 20t82 50zM290 759h83l-87 -142h-61z" />
    <glyph glyph-name="acircumflex" unicode="&#xe2;" horiz-adv-x="546" 
d="M228 311h168v65q0 110 -132 110q-34 0 -90 -8q-60 -9 -89 -17v66q33 7 97 16q59 8 98 8q91 0 141 -46t50 -133v-372h-64l-6 70q-107 -75 -195 -75q-69 -3 -119.5 40t-47.5 116q0 77 50.5 118.5t138.5 41.5zM396 127v129h-161q-58 0 -89 -26.5t-31 -74.5q0 -47 30 -72.5
t82 -25.5q39 0 87 20t82 50zM355 617l-85 119l-86 -119h-69l109 152h91l109 -152h-69z" />
    <glyph glyph-name="atilde" unicode="&#xe3;" horiz-adv-x="546" 
d="M228 311h168v65q0 110 -132 110q-34 0 -90 -8q-60 -9 -89 -17v66q33 7 97 16q59 8 98 8q91 0 141 -46t50 -133v-372h-64l-6 70q-107 -75 -195 -75q-69 -3 -119.5 40t-47.5 116q0 77 50.5 118.5t138.5 41.5zM396 127v129h-161q-58 0 -89 -26.5t-31 -74.5q0 -47 30 -72.5
t82 -25.5q39 0 87 20t82 50zM57 627v74q48 48 114 48q47 0 102 -34q56 -33 76 -38q19 -4 35 -4q54 0 115 57v-74q-48 -48 -114 -48q-47 0 -103 33q-53 33 -76 38q-22 5 -34 5q-53 0 -115 -57z" />
    <glyph glyph-name="adieresis" unicode="&#xe4;" horiz-adv-x="546" 
d="M228 311h168v65q0 110 -132 110q-34 0 -90 -8q-60 -9 -89 -17v66q33 7 97 16q59 8 98 8q91 0 141 -46t50 -133v-372h-64l-6 70q-107 -75 -195 -75q-69 -3 -119.5 40t-47.5 116q0 77 50.5 118.5t138.5 41.5zM396 127v129h-161q-58 0 -89 -26.5t-31 -74.5q0 -47 30 -72.5
t82 -25.5q39 0 87 20t82 50zM353 713h67v-96h-67v96zM131 713h68v-96h-68v96z" />
    <glyph glyph-name="aring" unicode="&#xe5;" horiz-adv-x="546" 
d="M228 311h168v65q0 110 -132 110q-34 0 -90 -8q-60 -9 -89 -17v66q33 7 97 16q59 8 98 8q91 0 141 -46t50 -133v-372h-64l-6 70q-107 -75 -195 -75q-69 -3 -119.5 40t-47.5 116q0 77 50.5 118.5t138.5 41.5zM396 127v129h-161q-58 0 -89 -26.5t-31 -74.5q0 -47 30 -72.5
t82 -25.5q39 0 87 20t82 50zM207 698q0 -26 15.5 -42.5t44.5 -16.5t44.5 16.5t15.5 42.5q0 25 -15.5 41.5t-44.5 16.5t-44.5 -16.5t-15.5 -41.5zM163 698q0 43 28.5 70t75.5 27t75.5 -27t28.5 -70t-28.5 -70.5t-75.5 -27.5t-75.5 27.5t-28.5 70.5z" />
    <glyph glyph-name="ae" unicode="&#xe6;" horiz-adv-x="914" 
d="M853 89v-66q-105 -35 -202 -35q-160 0 -218 100q-103 -93 -228 -93q-67 -2 -118 39t-49 115q0 157 236 157h119v74q0 106 -133 106q-77 0 -175 -24v65q101 22 193 22q134 0 168 -100q55 100 193 100q108 0 166 -59.5t58 -202.5v-37h-392q0 -198 195 -198q78 0 187 37z
M470 306h319q0 98 -39 140.5t-113 42.5q-72 0 -119.5 -44t-47.5 -139zM393 250h-128q-80 0 -116 -22t-36 -74q-3 -38 28.5 -69t88.5 -30q94 0 179 82q-15 50 -16 113z" />
    <glyph glyph-name="ccedilla" unicode="&#xe7;" horiz-adv-x="531" 
d="M191 -209v47q46 -8 76 -8q83 0 83 45q0 40 -88 40h-30v15l36 61q-107 13 -162.5 85t-55.5 193q0 78 22.5 135t61 88t83 45t96.5 14q86 0 171 -28v-68q-90 29 -161 29q-96 0 -146 -55t-50 -160q0 -106 52.5 -160t143.5 -54q73 0 161 27v-68q-79 -24 -165 -26l-26 -42
q115 0 115 -73q2 -46 -40.5 -69t-92.5 -21q-39 0 -84 8z" />
    <glyph glyph-name="egrave" unicode="&#xe8;" horiz-adv-x="572" 
d="M510 90v-67q-103 -35 -201 -35q-130 0 -194.5 69t-64.5 214q0 136 63 208t183 72q114 0 170 -65t56 -200v-36h-394q1 -101 50 -148t146 -47q88 0 186 35zM128 307h316q0 182 -151 182q-80 0 -122.5 -48.5t-42.5 -133.5zM328 617h-61l-87 142h83z" />
    <glyph glyph-name="eacute" unicode="&#xe9;" horiz-adv-x="572" 
d="M510 90v-67q-103 -35 -201 -35q-130 0 -194.5 69t-64.5 214q0 136 63 208t183 72q114 0 170 -65t56 -200v-36h-394q1 -101 50 -148t146 -47q88 0 186 35zM128 307h316q0 182 -151 182q-80 0 -122.5 -48.5t-42.5 -133.5zM330 759h83l-87 -142h-61z" />
    <glyph glyph-name="ecircumflex" unicode="&#xea;" horiz-adv-x="572" 
d="M510 90v-67q-103 -35 -201 -35q-130 0 -194.5 69t-64.5 214q0 136 63 208t183 72q114 0 170 -65t56 -200v-36h-394q1 -101 50 -148t146 -47q88 0 186 35zM128 307h316q0 182 -151 182q-80 0 -122.5 -48.5t-42.5 -133.5zM375 617l-85 119l-86 -119h-69l109 152h91
l109 -152h-69z" />
    <glyph glyph-name="edieresis" unicode="&#xeb;" horiz-adv-x="572" 
d="M510 90v-67q-103 -35 -201 -35q-130 0 -194.5 69t-64.5 214q0 136 63 208t183 72q114 0 170 -65t56 -200v-36h-394q1 -101 50 -148t146 -47q88 0 186 35zM128 307h316q0 182 -151 182q-80 0 -122.5 -48.5t-42.5 -133.5zM366 713h67v-96h-67v96zM144 713h68v-96h-68v96z
" />
    <glyph glyph-name="igrave" unicode="&#xec;" horiz-adv-x="234" 
d="M147 617h-61l-87 142h83zM80 539h74v-539h-74v539z" />
    <glyph glyph-name="iacute" unicode="&#xed;" horiz-adv-x="234" 
d="M154 759h83l-87 -142h-61zM80 539h74v-539h-74v539z" />
    <glyph glyph-name="icircumflex" unicode="&#xee;" horiz-adv-x="234" 
d="M80 539h74v-539h-74v539zM203 617l-85 119l-86 -119h-69l109 152h91l109 -152h-69z" />
    <glyph glyph-name="idieresis" unicode="&#xef;" horiz-adv-x="234" 
d="M195 713h67v-96h-67v96zM-27 713h68v-96h-68v96zM80 539h74v-539h-74v539z" />
    <glyph glyph-name="eth" unicode="&#xf0;" horiz-adv-x="628" 
d="M271 607l-26 42l59 33q-35 36 -91 81h93l54 -49l64 35l25 -40l-54 -31q41 -44 79.5 -101t72 -143.5t31.5 -164.5q4 -121 -66.5 -202t-198.5 -79q-114 0 -189 68.5t-75 212.5q0 136 70.5 209t193.5 73q68 0 120 -34q-32 60 -94 129zM127 269q0 -103 47.5 -159.5
t138.5 -56.5q88 0 138 53.5t50 162.5t-50 162.5t-138 53.5q-91 0 -138.5 -56.5t-47.5 -159.5z" />
    <glyph glyph-name="ntilde" unicode="&#xf1;" 
d="M530 399v-399h-74v386q0 97 -100 97q-75 0 -202 -73v-410h-74v539h70v-68q140 80 226 80q76 0 115 -39t39 -113zM93 626v74q48 48 114 48q47 0 102 -34q56 -33 76 -38q19 -4 35 -4q54 0 115 57v-74q-48 -48 -114 -48q-47 0 -103 33q-53 33 -76 38q-22 5 -34 5
q-54 0 -115 -57z" />
    <glyph glyph-name="ograve" unicode="&#xf2;" horiz-adv-x="626" 
d="M126 269q0 -109 50 -162.5t138 -53.5q91 0 138.5 56.5t47.5 159.5t-47.5 159.5t-138.5 56.5q-81 0 -134.5 -50.5t-53.5 -165.5zM49 269q0 136 70.5 209t193.5 73q53 0 99 -15.5t84 -48t59.5 -88.5t21.5 -130t-21.5 -130t-59.5 -88t-83.5 -47.5t-99.5 -15.5
q-114 0 -189 68.5t-75 212.5zM346 617h-61l-87 142h83z" />
    <glyph glyph-name="oacute" unicode="&#xf3;" horiz-adv-x="626" 
d="M126 269q0 -109 50 -162.5t138 -53.5q91 0 138.5 56.5t47.5 159.5t-47.5 159.5t-138.5 56.5q-81 0 -134.5 -50.5t-53.5 -165.5zM49 269q0 136 70.5 209t193.5 73q53 0 99 -15.5t84 -48t59.5 -88.5t21.5 -130t-21.5 -130t-59.5 -88t-83.5 -47.5t-99.5 -15.5
q-114 0 -189 68.5t-75 212.5zM343 759h83l-87 -142h-61z" />
    <glyph glyph-name="ocircumflex" unicode="&#xf4;" horiz-adv-x="626" 
d="M126 269q0 -109 50 -162.5t138 -53.5q91 0 138.5 56.5t47.5 159.5t-47.5 159.5t-138.5 56.5q-81 0 -134.5 -50.5t-53.5 -165.5zM49 269q0 136 70.5 209t193.5 73q53 0 99 -15.5t84 -48t59.5 -88.5t21.5 -130t-21.5 -130t-59.5 -88t-83.5 -47.5t-99.5 -15.5
q-114 0 -189 68.5t-75 212.5zM399 617l-85 119l-86 -119h-69l109 152h91l109 -152h-69z" />
    <glyph glyph-name="otilde" unicode="&#xf5;" horiz-adv-x="626" 
d="M126 269q0 -109 50 -162.5t138 -53.5q91 0 138.5 56.5t47.5 159.5t-47.5 159.5t-138.5 56.5q-81 0 -134.5 -50.5t-53.5 -165.5zM49 269q0 136 70.5 209t193.5 73q53 0 99 -15.5t84 -48t59.5 -88.5t21.5 -130t-21.5 -130t-59.5 -88t-83.5 -47.5t-99.5 -15.5
q-114 0 -189 68.5t-75 212.5zM98 626v74q48 48 114 48q47 0 102 -34q56 -33 76 -38q19 -4 35 -4q53 0 115 57v-74q-48 -48 -114 -48q-48 0 -103 33q-53 33 -76 38q-22 5 -34 5q-54 0 -115 -57z" />
    <glyph glyph-name="odieresis" unicode="&#xf6;" horiz-adv-x="626" 
d="M126 269q0 -109 50 -162.5t138 -53.5q91 0 138.5 56.5t47.5 159.5t-47.5 159.5t-138.5 56.5q-81 0 -134.5 -50.5t-53.5 -165.5zM49 269q0 136 70.5 209t193.5 73q53 0 99 -15.5t84 -48t59.5 -88.5t21.5 -130t-21.5 -130t-59.5 -88t-83.5 -47.5t-99.5 -15.5
q-114 0 -189 68.5t-75 212.5zM392 713h67v-96h-67v96zM170 713h68v-96h-68v96z" />
    <glyph glyph-name="divide" unicode="&#xf7;" horiz-adv-x="613" 
d="M271 33v101h62v-101h-62zM333 501v-96h-62v96h62zM70 237v64h472v-64h-472z" />
    <glyph glyph-name="oslash" unicode="&#xf8;" horiz-adv-x="625" 
d="M137 -116h-71l82 151q-99 71 -99 234q0 136 70.5 209t193.5 73q57 0 106 -18l66 121h71l-81 -150q51 -36 76.5 -99t25.5 -136q4 -121 -66 -202t-198 -79q-63 0 -109 20zM500 269q0 113 -64 165l-198 -364q27 -15 76 -15q80 0 133 49.5t53 164.5zM126 269q0 -111 61 -165
l199 367q-39 14 -72 14q-88 0 -138 -53.5t-50 -162.5z" />
    <glyph glyph-name="ugrave" unicode="&#xf9;" 
d="M76 139v400h74v-386q0 -51 29 -74.5t71 -23.5q81 0 202 73v411h74v-539h-62l-7 67q-133 -79 -226 -79q-75 0 -115 39t-40 112zM347 617h-61l-87 142h83z" />
    <glyph glyph-name="uacute" unicode="&#xfa;" 
d="M76 139v400h74v-386q0 -51 29 -74.5t71 -23.5q81 0 202 73v411h74v-539h-62l-7 67q-133 -79 -226 -79q-75 0 -115 39t-40 112zM333 759h83l-87 -142h-61z" />
    <glyph glyph-name="ucircumflex" unicode="&#xfb;" 
d="M76 139v400h74v-386q0 -51 29 -74.5t71 -23.5q81 0 202 73v411h74v-539h-62l-7 67q-133 -79 -226 -79q-75 0 -115 39t-40 112zM386 617l-85 119l-86 -119h-69l109 152h91l109 -152h-69z" />
    <glyph glyph-name="udieresis" unicode="&#xfc;" 
d="M76 139v400h74v-386q0 -51 29 -74.5t71 -23.5q81 0 202 73v411h74v-539h-62l-7 67q-133 -79 -226 -79q-75 0 -115 39t-40 112zM384 713h67v-96h-67v96zM162 713h68v-96h-68v96z" />
    <glyph glyph-name="yacute" unicode="&#xfd;" horiz-adv-x="535" 
d="M260 -205h-79l68 205h-39l-179 539h81l148 -460h13l148 460h81zM299 759h83l-87 -142h-61z" />
    <glyph glyph-name="thorn" unicode="&#xfe;" horiz-adv-x="605" 
d="M154 9v-214h-74v925h74v-245q109 76 206 76q91 0 142.5 -71t51.5 -198q0 -292 -255 -292q-74 0 -145 19zM476 278q0 102 -36 154t-101 52q-84 0 -185 -71v-340q94 -20 140 -20q182 0 182 225z" />
    <glyph glyph-name="ydieresis" unicode="&#xff;" horiz-adv-x="535" 
d="M260 -205h-79l68 205h-39l-179 539h81l148 -460h13l148 460h81zM345 713h67v-96h-67v96zM123 713h68v-96h-68v96z" />
    <glyph glyph-name="dotlessi" unicode="&#x131;" horiz-adv-x="234" 
d="M80 539h74v-539h-74v539z" />
    <glyph glyph-name="Lslash" unicode="&#x141;" horiz-adv-x="557" 
d="M117 296l-113 -58v71l113 57v354h78v-316l194 99v-72l-194 -98v-264h350v-69h-428v296z" />
    <glyph glyph-name="lslash" unicode="&#x142;" horiz-adv-x="351" 
d="M204 436l126 67v-71l-126 -67v-365h-75v326l-107 -57v70l107 57v367h75v-327z" />
    <glyph glyph-name="OE" unicode="&#x152;" horiz-adv-x="1016" 
d="M509 720h455v-70h-378v-254h333v-70h-333v-257h377v-69h-452q-65 -12 -139 -12q-159 0 -237 97.5t-78 275.5q0 177 78 274t237 97q65 0 137 -12zM137 361q0 -304 243 -304q61 0 129 16v572q-66 18 -130 18q-242 0 -242 -302z" />
    <glyph glyph-name="oe" unicode="&#x153;" horiz-adv-x="1024" 
d="M580 307h316q0 183 -151 183q-77 0 -121 -46.5t-44 -136.5zM538 421q22 53 73.5 91.5t136.5 38.5q108 0 166.5 -60t58.5 -204v-37h-393q1 -107 52 -151t143 -44q82 0 187 35v-67q-103 -35 -201 -35q-173 0 -224 129q-15 -34 -45 -64q-29 -29 -77.5 -46t-101.5 -17
q-115 0 -189.5 68t-74.5 212t75 212.5t189 68.5q37 1 77 -8t84.5 -40.5t63.5 -81.5zM500 270q0 102 -46.5 159t-139.5 57q-88 0 -137.5 -53.5t-49.5 -162.5t49.5 -162t137.5 -53q89 0 137.5 53t48.5 162z" />
    <glyph glyph-name="Scaron" unicode="&#x160;" horiz-adv-x="562" 
d="M253 57q185 0 185 152q0 35 -15 58q-13 23 -45 40q-29 16 -120 31q-69 10 -113 30q-93 45 -93 165q0 198 263 198q54 0 167 -11v-71q-107 14 -168 14q-96 0 -139 -30.5t-43 -97.5q0 -36 13 -59q15 -25 40 -40q26 -15 109 -29q84 -14 119 -28q37 -15 60 -39
q45 -45 45 -131q0 -105 -68 -163t-192 -58q-90 0 -197 17v73q119 -21 192 -21zM200 927l86 -120l85 120h69l-107 -152h-94l-108 152h69z" />
    <glyph glyph-name="scaron" unicode="&#x161;" horiz-adv-x="480" 
d="M229 53q132 0 132 101q0 31 -15 50q-9 11 -29 20q-17 9 -90 20q-101 13 -137 47.5t-40 103.5q0 75 52.5 115.5t158.5 40.5q71 0 148 -13v-68q-91 15 -141 15q-141 0 -141 -86q0 -21 7 -38q8 -17 30 -30q24 -12 95 -21q94 -12 135 -42.5t44 -110.5q0 -82 -52 -125.5
t-152 -43.5q-78 0 -182 11v70q106 -16 177 -16zM160 769l86 -120l85 120h69l-107 -152h-94l-108 152h69z" />
    <glyph glyph-name="Ydieresis" unicode="&#x178;" horiz-adv-x="595" 
d="M336 260v-260h-77v260l-245 460h89l195 -379l195 379h88zM376 871h67v-96h-67v96zM154 871h68v-96h-68v96z" />
    <glyph glyph-name="Zcaron" unicode="&#x17d;" horiz-adv-x="631" 
d="M41 720h536v-74l-438 -577h457v-69h-549v75l436 576h-442v69zM237 927l86 -120l85 120h69l-107 -152h-94l-108 152h69z" />
    <glyph glyph-name="zcaron" unicode="&#x17e;" horiz-adv-x="525" 
d="M370 473h-330v66h427v-58l-322 -416h347v-65h-446v58zM179 767l86 -120l85 120h69l-107 -152h-94l-108 152h69z" />
    <glyph glyph-name="florin" unicode="&#x192;" horiz-adv-x="582" 
d="M325 322v-319q0 -246 -209 -246q-53 0 -89 7q6 32 6 65q35 -7 69 -7q81 0 116.5 44.5t35.5 143.5v312h-121v65h121v124q0 127 52 189t160 62q43 0 85 -7l-6 -66q-34 8 -69 8q-80 0 -116 -45t-36 -144v-121h167v-65h-166z" />
    <glyph glyph-name="circumflex" unicode="&#x2c6;" horiz-adv-x="680" 
d="M424 617l-85 119l-86 -119h-69l109 152h91l109 -152h-69z" />
    <glyph glyph-name="caron" unicode="&#x2c7;" horiz-adv-x="680" 
d="M253 767l86 -120l85 120h69l-107 -152h-94l-108 152h69z" />
    <glyph glyph-name="breve" unicode="&#x2d8;" horiz-adv-x="638" 
d="M319 612q-105 0 -170 52l12 50q81 -45 158 -45t158 45l12 -50q-29 -24 -75.5 -38t-94.5 -14z" />
    <glyph glyph-name="dotaccent" unicode="&#x2d9;" horiz-adv-x="347" 
d="M143 711h65v-94h-65v94z" />
    <glyph glyph-name="ring" unicode="&#x2da;" horiz-adv-x="447" 
d="M161 698q0 -26 15.5 -42.5t44.5 -16.5t44.5 16.5t15.5 42.5q0 25 -15.5 41.5t-44.5 16.5t-44.5 -16.5t-15.5 -41.5zM117 698q0 43 28.5 70t75.5 27t75.5 -27t28.5 -70t-28.5 -70.5t-75.5 -27.5t-75.5 27.5t-28.5 70.5z" />
    <glyph glyph-name="ogonek" unicode="&#x2db;" horiz-adv-x="463" 
d="M230 0h63q-43 -29 -66.5 -63t-23.5 -66t25 -51t66 -19q26 0 57 9v-50q-45 -12 -80 -12q-56 0 -93 29t-37 81q-2 39 27 82t62 60z" />
    <glyph glyph-name="tilde" unicode="&#x2dc;" horiz-adv-x="702" 
d="M132 626v74q48 48 114 48q47 0 102 -34q56 -33 76 -38q19 -4 35 -4q53 0 115 57v-74q-48 -48 -114 -48q-48 0 -103 33q-53 33 -76 38q-22 5 -34 5q-53 0 -115 -57z" />
    <glyph glyph-name="hungarumlaut" unicode="&#x2dd;" horiz-adv-x="808" 
d="M232 759h82l-95 -142h-62zM421 759h83l-96 -142h-61z" />
    <glyph glyph-name="uni03A9" unicode="&#x3a9;" horiz-adv-x="763" 
d="M381 628q-63 0 -122 -32q-56 -30 -88 -88.5t-32 -124.5q-4 -83 58.5 -179.5t138.5 -132.5v-71h-280v72h186q-78 49 -129 136.5t-51 181.5q0 130 91 220t228 90t228.5 -90t91.5 -220q0 -90 -49 -178t-130 -140h184v-72h-280v71q87 46 142 136.5t55 175.5q0 103 -70 174
t-172 71z" />
    <glyph glyph-name="uni03BC" unicode="&#x3bc;" horiz-adv-x="610" 
d="M80 -205v744h74v-391q0 -43 26 -68t74 -25q81 0 202 73v411h74v-539h-63l-7 67q-133 -79 -226 -79q-52 0 -80 27v-220h-74z" />
    <glyph glyph-name="pi" unicode="&#x3c0;" horiz-adv-x="731" 
d="M226 476v-476h-73v476h-133v63h674v-63h-168v-355q0 -63 69 -63q35 0 85 15v-68q-70 -15 -109 -15q-63 0 -91.5 34.5t-28.5 102.5v349h-225z" />
    <glyph glyph-name="endash" unicode="&#x2013;" horiz-adv-x="594" 
d="M521 232h-448v70h448v-70z" />
    <glyph glyph-name="emdash" unicode="&#x2014;" horiz-adv-x="817" 
d="M744 232h-671v70h671v-70z" />
    <glyph glyph-name="quoteleft" unicode="&#x2018;" horiz-adv-x="203" 
d="M100 740h33v-199h-64q-5 22 -5 55q0 77 36 144z" />
    <glyph glyph-name="quoteright" unicode="&#x2019;" horiz-adv-x="198" 
d="M103 533h-33v198h64q6 -23 6 -52q0 -80 -37 -146z" />
    <glyph glyph-name="quotesinglbase" unicode="&#x201a;" horiz-adv-x="209" 
d="M104 -96h-33v199h64q6 -24 6 -53q0 -74 -37 -146z" />
    <glyph glyph-name="quotedblleft" unicode="&#x201c;" horiz-adv-x="332" 
d="M229 739h33v-198h-64q-5 20 -5 53q0 82 36 145zM100 739h34v-198h-64q-6 23 -6 53q0 82 36 145z" />
    <glyph glyph-name="quotedblright" unicode="&#x201d;" horiz-adv-x="326" 
d="M103 533h-33v198h64q5 -20 5 -53q0 -82 -36 -145zM232 533h-34v198h64q6 -23 6 -53q0 -82 -36 -145z" />
    <glyph glyph-name="quotedblbase" unicode="&#x201e;" horiz-adv-x="337" 
d="M104 -96h-33v198h64q5 -20 5 -53q0 -82 -36 -145zM233 -96h-34v198h64q6 -23 6 -53q0 -82 -36 -145z" />
    <glyph glyph-name="dagger" unicode="&#x2020;" horiz-adv-x="453" 
d="M263 432v-398h-75v398h-153v71h153v199h75v-199h155v-71h-155z" />
    <glyph glyph-name="daggerdbl" unicode="&#x2021;" horiz-adv-x="497" 
d="M285 231v-200h-74v200h-154v71h154v129h-154v70h154v201h74v-201h155v-70h-155v-129h155v-71h-155z" />
    <glyph glyph-name="bullet" unicode="&#x2022;" horiz-adv-x="305" 
d="M209 281h-113v111h113v-111z" />
    <glyph glyph-name="ellipsis" unicode="&#x2026;" horiz-adv-x="739" 
d="M71 103h67v-103h-67v103zM349 103h68v-103h-68v103zM602 103h66v-103h-66v103z" />
    <glyph glyph-name="perthousand" unicode="&#x2030;" horiz-adv-x="1070" 
d="M173 0l339 720h60l-340 -720h-59zM37 560q0 77 33 124.5t101 47.5q59 0 96.5 -41.5t37.5 -130.5q0 -77 -33 -124.5t-101 -47.5q-59 0 -96.5 41.5t-37.5 130.5zM250 560q0 126 -79 126t-79 -126t79 -126t79 126zM438 165q0 77 33 124.5t101 47.5q59 0 96.5 -41.5
t37.5 -130.5q0 -77 -33 -124.5t-101 -47.5q-59 0 -96.5 41.5t-37.5 130.5zM651 165q0 126 -79 126t-79 -126t79 -126t79 126zM766 165q0 77 33 124.5t101 47.5q59 0 96.5 -41.5t37.5 -130.5q0 -77 -33 -124.5t-101 -47.5q-59 0 -96.5 41.5t-37.5 130.5zM979 165
q0 126 -79 126t-79 -126t79 -126t79 126z" />
    <glyph glyph-name="guilsinglleft" unicode="&#x2039;" horiz-adv-x="305" 
d="M258 35h-74l-138 236l137 236h75l-140 -236z" />
    <glyph glyph-name="guilsinglright" unicode="&#x203a;" horiz-adv-x="305" 
d="M47 507h74l138 -236l-137 -236h-75l140 236z" />
    <glyph glyph-name="fraction" unicode="&#x2044;" horiz-adv-x="506" 
d="M69 -93h-69l441 856h68z" />
    <glyph glyph-name="Euro" unicode="&#x20ac;" horiz-adv-x="714" 
d="M153 418h-103v66h114q25 119 103.5 183.5t205.5 64.5q90 0 184 -23l-1 -75q-99 25 -172 25q-194 0 -237 -175h274v-66h-288q-3 -24 -3 -56q0 -40 4 -64h287v-66h-270q23 -85 80.5 -128t141.5 -43q89 0 183 27l1 -74q-87 -26 -184 -26q-52 0 -97.5 12t-89 38t-75.5 75.5
t-46 118.5h-115v66h103l-2 64q0 32 2 56z" />
    <glyph glyph-name="trademark" unicode="&#x2122;" horiz-adv-x="715" 
d="M398 720l83 -220h4l82 220h68v-268h-44v214l-83 -215h-52l-82 215v-214h-44v268h68zM287 720v-43h-90v-225h-45v225h-88v43h223z" />
    <glyph glyph-name="minus" unicode="&#x2212;" horiz-adv-x="624" 
d="M548 238h-472v64h472v-64z" />
    <glyph glyph-name="radical" unicode="&#x221a;" horiz-adv-x="655" 
d="M21 498h179l149 -537l207 864h86l-250 -1002h-91l-166 602h-114v73z" />
    <glyph glyph-name="infinity" unicode="&#x221e;" horiz-adv-x="993" 
d="M937 278q0 -69 -44 -120q-51 -59 -145 -59q-56 0 -114 30t-138 101q-142 -136 -251 -131q-78 -4 -135.5 50t-53.5 129q0 79 52 128t137 49q50 2 116 -30.5t135 -99.5q88 79 147 105q57 25 105 25q84 0 136 -49q53 -50 53 -128zM126 278q0 -49 32 -79t88 -30q36 0 75 16
q43 17 134 93q-84 70 -126 89q-45 20 -83 20q-44 3 -83 -27.5t-37 -81.5zM868 278q0 48 -33 78.5t-88 30.5q-24 0 -59 -11q-47 -14 -149 -98q86 -71 125 -88q45 -20 83 -20q45 -3 84 26.5t37 81.5z" />
    <glyph glyph-name="integral" unicode="&#x222b;" horiz-adv-x="377" 
d="M226 631v-713q2 -62 -33.5 -108t-104.5 -43q-45 0 -73 7l4 65q30 -6 61 -6q32 0 51.5 23.5t19.5 67.5v712q0 74 36.5 112.5t100.5 38.5q42 0 74 -6l-5 -66q-30 6 -61 6q-32 0 -51 -23t-19 -67z" />
    <glyph glyph-name="approxequal" unicode="&#x2248;" horiz-adv-x="567" 
d="M466 387q11 -20 24 -55q-53 -44 -111 -44q-26 0 -92 29t-98 29q-36 0 -89 -29l-25 54q62 40 109 40q35 0 101 -29q65 -28 93 -28q43 0 88 33zM468 205l24 -55q-55 -45 -112 -45q-29 0 -83 25q-50 24 -75 29q-22 5 -32 5q-42 0 -89 -29l-25 54q62 40 109 40q35 0 101 -29
q67 -29 93 -29q48 0 89 34z" />
    <glyph glyph-name="notequal" unicode="&#x2260;" horiz-adv-x="607" 
d="M312 351h-245v64h280l60 112h59l-60 -112h133v-64h-168l-84 -156h252v-65h-287l-57 -105h-58l56 105h-126v65h162z" />
    <glyph glyph-name="lessequal" unicode="&#x2264;" horiz-adv-x="599" 
d="M533 64v-64h-472v64h472zM533 90l-472 194v84l472 194v-74l-413 -162l413 -162v-74z" />
    <glyph glyph-name="greaterequal" unicode="&#x2265;" horiz-adv-x="599" 
d="M538 64v-64h-472v64h472zM66 562l472 -194v-84l-472 -194v74l413 162l-413 162v74z" />
    <glyph glyph-name="lozenge" unicode="&#x25ca;" horiz-adv-x="525" 
d="M263 95l150 240l-150 238l-150 -238zM30 335l212 334h42l212 -336l-213 -333h-40z" />
    <glyph glyph-name="NULL" horiz-adv-x="0" 
 />
    </font>
</defs>
</svg>
