<?xml version="1.0" standalone="no"?>
<!DOCTYPE svg PUBLIC "-//W3C//DTD SVG 1.1//EN" "http://www.w3.org/Graphics/SVG/1.1/DTD/svg11.dtd" >
<svg xmlns="http://www.w3.org/2000/svg" xmlns:xlink="http://www.w3.org/1999/xlink" version="1.1">
<metadata>
Created by FontForge 20170731 at Sun Mar 24 20:08:56 2019
 By Aleksey,,,
Copyright (c) 2013 by PSTL. All rights reserved. |DCNT
</metadata>
<defs>
<font id="Quatro-Medium" horiz-adv-x="675" >
  <font-face 
    font-family="Quatro Medium"
    font-weight="500"
    font-stretch="normal"
    units-per-em="1000"
    panose-1="2 11 6 3 0 0 0 2 0 4"
    ascent="742"
    descent="-258"
    x-height="546"
    cap-height="720"
    bbox="-48 -259 1056.1 933"
    underline-thickness="50"
    underline-position="-275"
    unicode-range="U+000D-FB02"
  />
<missing-glyph horiz-adv-x="570" 
d="M490 670v-670h-410v670h410zM149 69h272v532h-272v-532z" />
    <glyph glyph-name="fi" unicode="fi" horiz-adv-x="633" 
d="M443 546h122v-546h-122v546zM441 742h126v-123h-126v123zM391 765v-100q-55 9 -88 9q-51 0 -70.5 -19.5t-19.5 -64.5v-45h156v-104h-152v-441h-122v441h-67v93l67 11v69q0 84 41 122.5t132 38.5q73 0 123 -10z" />
    <glyph glyph-name="fl" unicode="fl" horiz-adv-x="635" 
d="M442 763h122v-763h-122v763zM391 765v-100q-55 9 -88 9q-51 0 -70.5 -19.5t-19.5 -64.5v-45h156v-104h-152v-441h-122v441h-67v93l67 11v69q0 84 41 122.5t132 38.5q73 0 123 -10z" />
    <glyph glyph-name=".notdef" horiz-adv-x="570" 
d="M490 670v-670h-410v670h410zM149 69h272v532h-272v-532z" />
    <glyph glyph-name=".null" horiz-adv-x="0" 
 />
    <glyph glyph-name="nonmarkingreturn" horiz-adv-x="333" 
 />
    <glyph glyph-name="CR" unicode="&#xd;" horiz-adv-x="230" 
 />
    <glyph glyph-name="space" unicode=" " horiz-adv-x="249" 
 />
    <glyph glyph-name="exclam" unicode="!" horiz-adv-x="291" 
d="M211 0h-130v124h130v-124zM84 720h122v-497h-122v497z" />
    <glyph glyph-name="quotedbl" unicode="&#x22;" horiz-adv-x="389" 
d="M324 496h-86v224h86v-224zM150 496h-85v224h85v-224z" />
    <glyph glyph-name="numbersign" unicode="#" horiz-adv-x="711" 
d="M492 633h115l-32 -176h100l-19 -106h-101l-23 -116h106l-19 -104h-105l-33 -166h-117l33 166h-141l-33 -166h-116l34 166h-109l21 104h107l24 116h-109l19 106h109l33 176h115l-33 -176h141zM439 351h-140l-24 -116h141z" />
    <glyph glyph-name="dollar" unicode="$" horiz-adv-x="549" 
d="M340 5v-96h-107v82q-79 0 -178 17v116q121 -26 181 -26q146 0 146 113q0 22 -10 41q-9 19 -33 34q-25 16 -90 32q-64 18 -98 32q-31 13 -55 34q-50 48 -50 134q0 176 187 206v96h107v-89q1 0 39 -2q28 -1 61 -6q10 -1 19 -2.5t13 -2.5h4v-108q-60 9 -95 13q-27 3 -55 3
q-150 0 -150 -95q0 -21 9 -39t32 -32q27 -15 89 -31q64 -16 97 -30.5t57 -38.5q52 -50 52 -145q0 -80 -43 -135t-129 -75z" />
    <glyph glyph-name="percent" unicode="%" horiz-adv-x="751" 
d="M161 0l339 720h90l-340 -720h-89zM32 560q0 80 36 126t107 46q70 3 108 -46.5t36 -125.5q2 -76 -36 -125.5t-108 -46.5q-71 0 -107 46t-36 126zM239 560q0 109 -64 109q-63 0 -63 -109t63 -109q64 0 64 109zM432 165q0 80 36 126t107 46q70 3 108 -46.5t36 -125.5
q2 -76 -36 -125.5t-108 -46.5q-71 0 -107 46t-36 126zM639 165q0 109 -64 109q-63 0 -63 -109t63 -109q64 0 64 109z" />
    <glyph glyph-name="ampersand" unicode="&#x26;" horiz-adv-x="707" 
d="M207 525q0 -50 35 -77t77 -27h348v-103h-99l96 -318h-122l-21 68q-111 -80 -240 -80q-67 0 -120 22q-51 23 -85 69t-34 111q0 133 134 182q-99 60 -99 167q-4 73 64.5 133t192.5 60q101 0 203 -28v-111q-97 33 -195 33q-60 0 -97.5 -26t-37.5 -75zM490 164l-45 154h-151
q-43 4 -84.5 -28.5t-39.5 -81.5q-5 -46 33 -80.5t101 -33.5q49 0 99.5 18.5t86.5 51.5z" />
    <glyph glyph-name="quotesingle" unicode="'" horiz-adv-x="215" 
d="M150 496h-85v224h85v-224z" />
    <glyph glyph-name="parenleft" unicode="(" horiz-adv-x="318" 
d="M42 279q0 253 150 484h119q-157 -240 -157 -484q0 -61 14 -143q15 -77 53 -171q40 -93 90 -170h-119q-150 231 -150 484z" />
    <glyph glyph-name="parenright" unicode=")" horiz-adv-x="318" 
d="M276 279q0 -253 -150 -484h-119q157 240 157 484q0 63 -15 143q-13 78 -53 171q-37 91 -89 170h119q150 -231 150 -484z" />
    <glyph glyph-name="asterisk" unicode="*" horiz-adv-x="457" 
d="M187 597l-1 137h85l-1 -137l126 44l24 -72l-133 -41l87 -110l-68 -50l-78 107l-75 -108l-69 50l86 111l-132 40l24 73z" />
    <glyph glyph-name="plus" unicode="+" horiz-adv-x="552" 
d="M226 227h-186v100h186v183h100v-183h186v-100h-186v-183h-100v183z" />
    <glyph glyph-name="comma" unicode="," horiz-adv-x="239" 
d="M120 -120h-54v256h107q4 -23 4 -56q0 -91 -57 -200z" />
    <glyph glyph-name="hyphen" unicode="-" horiz-adv-x="541" 
d="M476 222h-411v101h411v-101z" />
    <glyph glyph-name="period" unicode="." horiz-adv-x="238" 
d="M65 136h108v-136h-108v136z" />
    <glyph glyph-name="slash" unicode="/" horiz-adv-x="423" 
d="M136 -206h-109l258 969h111z" />
    <glyph glyph-name="zero" unicode="0" horiz-adv-x="677" 
d="M182 360q0 -257 156 -257q157 0 157 257q0 255 -157 255q-156 0 -156 -255zM51 360q0 80 15 144.5t47 117t89.5 81.5t135.5 29t135.5 -29t90 -81.5t47.5 -117t15 -144.5t-15 -144.5t-47.5 -117t-90 -81.5t-135.5 -29t-135.5 29t-89.5 81.5t-47 117t-15 144.5z" />
    <glyph glyph-name="one" unicode="1" horiz-adv-x="362" 
d="M280 720v-720h-124v586l-129 -56v115l158 75h95z" />
    <glyph glyph-name="two" unicode="2" horiz-adv-x="550" 
d="M507 0h-463v91q108 88 170 151q142 144 142 248q2 62 -43.5 98t-112.5 33q-53 0 -147 -20v111q100 20 170 20q127 0 194 -59t67 -173q0 -82 -58 -173q-58 -90 -205 -217h286v-110z" />
    <glyph glyph-name="three" unicode="3" horiz-adv-x="541" 
d="M50 0v107q82 -11 164 -11q72 0 110.5 28.5t38.5 83.5q5 40 -35.5 71t-103.5 30h-94v103h88q41 -4 87.5 27.5t45.5 85.5q0 45 -36.5 70.5t-97.5 25.5q-33 0 -85 -9q-48 -7 -77 -17v110q91 26 192 26q100 0 165 -50.5t65 -136.5q3 -42 -28 -96t-83 -80q60 -16 94.5 -69
t30.5 -92q0 -100 -74.5 -159.5t-195.5 -59.5q-71 0 -171 12z" />
    <glyph glyph-name="four" unicode="4" horiz-adv-x="640" 
d="M33 276l156 444h124l-156 -434h226v75l9 59q10 60 16 84h97v-218h108v-110h-108v-176h-122v176h-350v100z" />
    <glyph glyph-name="five" unicode="5" horiz-adv-x="549" 
d="M376 228q0 113 -136 113h-171v379h411v-109h-291v-163l49 1q137 0 201.5 -54t64.5 -162q0 -117 -73.5 -180t-209.5 -63q-71 0 -160 14l1 110q91 -17 151 -17q73 0 118 31.5t45 99.5z" />
    <glyph glyph-name="six" unicode="6" horiz-adv-x="620" 
d="M534 718v-108q-68 13 -122 13q-222 0 -233 -239q95 44 189 44q93 0 153.5 -51t60.5 -157q0 -104 -71 -169q-71 -63 -186 -63q-126 0 -200.5 84.5t-74.5 264.5q0 181 91 287.5t257 106.5q59 0 136 -13zM454 217q0 53 -32.5 79t-86.5 26q-77 0 -152 -36q1 -82 35 -134
q38 -56 108 -56q58 0 93 32.5t35 88.5z" />
    <glyph glyph-name="seven" unicode="7" horiz-adv-x="510" 
d="M265 0h-126q3 173 61 331t156 280h-333v109h469v-109q-111 -137 -166 -283q-53 -141 -61 -328z" />
    <glyph glyph-name="eight" unicode="8" horiz-adv-x="610" 
d="M306 -12q-125 0 -192 55t-67 146q-2 51 33.5 106t84.5 79q-97 57 -97 161q0 80 65 138.5t172 58.5q109 0 172.5 -55t63.5 -136q0 -97 -95 -177q116 -59 116 -168q0 -97 -68.5 -152.5t-187.5 -55.5zM306 96q56 0 92.5 28.5t36.5 73.5q0 49 -68 83q-16 9 -40 18t-46.5 15.5
t-26.5 8.5q-36 -21 -57.5 -54.5t-21.5 -67.5q0 -45 36 -75t95 -30zM303 629q-37 3 -74 -26t-35 -72q0 -82 160 -122q61 45 61 114q2 48 -35 78.5t-77 27.5z" />
    <glyph glyph-name="nine" unicode="9" horiz-adv-x="621" 
d="M88 1v107q66 -12 121 -12q222 0 233 239q-95 -44 -189 -44q-93 0 -153.5 51t-60.5 157q0 105 71 168q70 64 186 64q126 0 200.5 -84.5t74.5 -264.5q0 -181 -91 -287.5t-257 -106.5q-58 0 -135 13zM167 502q0 -53 32.5 -79t86.5 -26q77 0 152 36q-1 83 -36 134
q-36 56 -107 56q-58 0 -93 -32.5t-35 -88.5z" />
    <glyph glyph-name="colon" unicode=":" horiz-adv-x="238" 
d="M65 136h108v-136h-108v136zM65 454h108v-138h-108v138z" />
    <glyph glyph-name="semicolon" unicode=";" horiz-adv-x="243" 
d="M67 453h109v-137h-109v137zM121 -120h-54v256h107q4 -23 4 -56q0 -91 -57 -200z" />
    <glyph glyph-name="less" unicode="&#x3c;" horiz-adv-x="543" 
d="M481 143v-129l-440 181v141l440 182v-129l-345 -123z" />
    <glyph glyph-name="equal" unicode="=" horiz-adv-x="606" 
d="M539 334h-472v100h472v-100zM539 114h-472v101h472v-101z" />
    <glyph glyph-name="greater" unicode="&#x3e;" horiz-adv-x="543" 
d="M62 389v129l440 -181v-141l-440 -182v129l345 123z" />
    <glyph glyph-name="question" unicode="?" horiz-adv-x="474" 
d="M126 253q0 90 54 155q19 23 68 67q45 40 55 62q10 21 10 39q0 39 -35 61.5t-100 22.5q-62 0 -142 -23v113q90 24 182 24q101 0 163 -50t62 -129q0 -34 -12 -64q-13 -30 -31 -54q-22 -27 -59 -64q-41 -39 -54 -57q-15 -18 -23 -33q-17 -31 -17 -67q0 -20 6 -52h-122
q-5 30 -5 49zM257 0h-124v107h124v-107z" />
    <glyph glyph-name="at" unicode="@" horiz-adv-x="929" 
d="M524 189l21 153q-27 15 -63 15q-47 0 -71 -36t-24 -80q0 -81 63 -81q31 0 74 29zM673 47q-54 0 -90.5 24t-45.5 64h-5q-48 -53 -121 -53q-45 -3 -87 34t-40 110q0 93 55 151.5t146 58.5q78 0 163 -47l-31 -226q21 -16 62 -16q116 0 116 172q0 111 -95 178.5t-220 67.5
q-127 0 -219 -73q-66 -54 -91 -123t-25 -130q0 -134 64 -210q92 -106 274 -106q82 0 164 20l12 -93q-86 -26 -198 -26q-85 0 -159 25t-133 73.5t-93 130t-34 186.5q-3 74 30 162t98 143q60 60 150.5 89.5t163.5 27.5q184 0 298.5 -95t114.5 -244q0 -128 -63 -201.5
t-161 -73.5z" />
    <glyph glyph-name="A" unicode="A" 
d="M138 0h-133l245 721h175l246 -721h-133l-50 151h-300zM342 613h-11l-116 -351h241z" />
    <glyph glyph-name="B" unicode="B" horiz-adv-x="650" 
d="M79 720h286q99 0 159 -50.5t60 -134.5q0 -105 -100 -165q64 -18 95.5 -62t31.5 -106q0 -90 -64.5 -146t-170.5 -56h-297v720zM205 108h164q59 0 86 32.5t27 71.5q3 37 -29.5 67t-90.5 29h-157v-200zM205 611v-196h140q48 -2 83 34t31 71q0 42 -30 66.5t-83 24.5h-141z
" />
    <glyph glyph-name="C" unicode="C" horiz-adv-x="612" 
d="M45 361q0 173 86.5 272t245.5 99q99 0 192 -24v-115q-92 30 -169 30q-226 0 -226 -259q-2 -119 53 -194t166 -73q87 0 178 35v-113q-86 -31 -193 -31q-165 0 -249 97.5t-84 275.5z" />
    <glyph glyph-name="D" unicode="D" horiz-adv-x="716" 
d="M334 0h-255v720h255q152 0 244.5 -94.5t92.5 -266.5q0 -173 -92.5 -266t-244.5 -93zM542 359q0 70 -25 129q-24 59 -77 91t-120 32h-115v-502h115q105 0 163.5 69t58.5 181z" />
    <glyph glyph-name="E" unicode="E" horiz-adv-x="605" 
d="M79 0v720h483v-109h-357v-195h308v-108h-308v-199h355v-109h-481z" />
    <glyph glyph-name="F" unicode="F" horiz-adv-x="587" 
d="M79 0v720h481v-109h-355v-217h311v-109h-311v-285h-126z" />
    <glyph glyph-name="G" unicode="G" horiz-adv-x="709" 
d="M173 360q0 -129 63.5 -196t171.5 -67q49 0 121 18v257h126v-336q-137 -48 -266 -48q-172 0 -258.5 98t-86.5 277q0 166 99.5 267.5t280.5 101.5q50 0 103 -7q54 -6 101 -17l-1 -114q-43 13 -99 20q-57 9 -100 9q-107 0 -181 -66t-74 -197z" />
    <glyph glyph-name="H" unicode="H" horiz-adv-x="757" 
d="M79 0v720h126v-304h347v304h126v-720h-126v307h-347v-307h-126z" />
    <glyph glyph-name="I" unicode="I" horiz-adv-x="284" 
d="M205 0h-126v720h126v-720z" />
    <glyph glyph-name="J" unicode="J" horiz-adv-x="286" 
d="M81 720h126v-619q0 -92 -40 -167.5t-121 -146.5l-74 98q109 98 109 210v625z" />
    <glyph glyph-name="K" unicode="K" horiz-adv-x="667" 
d="M205 0h-126v720h126v-328l98 34q163 58 163 268v26h127v-17q0 -251 -159 -346l-17 -10l85 -148q22 -40 51 -64q30 -24 93 -24v-113q-26 -3 -48 -3q-137 0 -222 160l-77 142l-94 -36v-261z" />
    <glyph glyph-name="L" unicode="L" horiz-adv-x="546" 
d="M79 0v720h126v-611h331v-109h-457z" />
    <glyph glyph-name="M" unicode="M" horiz-adv-x="928" 
d="M535 -2h-146l-182 575h-7v-573h-121v720h205l184 -590l180 590h201v-720h-120v573h-7z" />
    <glyph glyph-name="N" unicode="N" horiz-adv-x="760" 
d="M681 0h-136l-340 511v-511h-126v720h137l339 -523v523h126v-720z" />
    <glyph glyph-name="O" unicode="O" horiz-adv-x="744" 
d="M46 360q0 179 82 275.5t245 96.5t245 -96.5t82 -275.5t-82 -275.5t-245 -96.5t-245 96.5t-82 275.5zM571 360q0 263 -197 263q-199 0 -199 -263t197 -263q199 0 199 263z" />
    <glyph glyph-name="P" unicode="P" horiz-adv-x="617" 
d="M349 215h-144v-215h-126v720h266q109 0 176 -73.5t67 -179.5q0 -104 -66.5 -178t-172.5 -74zM330 611h-125v-287h125q67 -2 99 46t30 97q2 49 -30 97.5t-99 46.5z" />
    <glyph glyph-name="Q" unicode="Q" horiz-adv-x="745" 
d="M46 360q0 179 82 275.5t246 96.5q161 0 243 -95.5t82 -276.5q0 -270 -173 -344l119 -137h-163l-96 111q-173 0 -256.5 92.5t-83.5 277.5zM570 360q0 263 -198 263q-197 0 -197 -263t197 -263q198 0 198 263z" />
    <glyph glyph-name="R" unicode="R" horiz-adv-x="640" 
d="M79 0v720h236q128 0 200 -60.5t72 -181.5q0 -63 -29.5 -117.5t-80.5 -85.5l138 -275h-142l-119 240l-58 -1h-91v-239h-126zM325 611h-120v-263h123q32 0 63 14q30 14 48.5 48t18.5 72q0 53 -37 91t-96 38z" />
    <glyph glyph-name="S" unicode="S" horiz-adv-x="577" 
d="M256 97q155 0 155 114q0 37 -21 59q-10 12 -38 23q-29 12 -106 22q-102 14 -150.5 59.5t-51.5 145.5q0 212 277 212q8 0 50 -2q31 -2 135 -12v-112q-125 17 -183 17q-150 0 -150 -100q0 -39 26 -62q25 -23 117 -36q95 -15 128 -33q33 -16 53 -39q43 -46 43 -137
q0 -46 -14 -85t-44.5 -72t-85.5 -52t-130 -19q-104 0 -213 21v113q131 -25 203 -25z" />
    <glyph glyph-name="T" unicode="T" horiz-adv-x="624" 
d="M11 720h602v-109h-238v-611h-126v611h-238v109z" />
    <glyph glyph-name="U" unicode="U" horiz-adv-x="722" 
d="M649 720v-465q0 -129 -74.5 -198t-213.5 -69q-140 0 -214 68.5t-74 198.5v465h126v-476q-4 -65 47.5 -107.5t114.5 -39.5q48 0 85 19q77 41 77 128v476h126z" />
    <glyph glyph-name="V" unicode="V" horiz-adv-x="668" 
d="M525 720h137l-240 -720h-176l-241 720h136l187 -582h19z" />
    <glyph glyph-name="W" unicode="W" horiz-adv-x="990" 
d="M797 -2h-166l-132 482h-8l-132 -482h-166l-174 722h134l130 -556h4l146 556h133l146 -556h5l125 556h128z" />
    <glyph glyph-name="X" unicode="X" horiz-adv-x="643" 
d="M244 371l-229 349h150l163 -259l153 259h146l-223 -353l234 -367h-154l-166 265l-159 -265h-154z" />
    <glyph glyph-name="Y" unicode="Y" horiz-adv-x="622" 
d="M374 246v-246h-126v246l-246 474h143l167 -343h6l161 343h141z" />
    <glyph glyph-name="Z" unicode="Z" horiz-adv-x="647" 
d="M39 720h556v-119l-392 -492h409v-109h-566v119l394 492h-401v109z" />
    <glyph glyph-name="bracketleft" unicode="[" horiz-adv-x="291" 
d="M78 -205v968h168v-108h-59v-752h59v-108h-168z" />
    <glyph glyph-name="backslash" unicode="\" horiz-adv-x="424" 
d="M26 763h112l258 -968h-110z" />
    <glyph glyph-name="bracketright" unicode="]" horiz-adv-x="291" 
d="M213 763v-968h-168v108h59v751h-59v109h168z" />
    <glyph glyph-name="asciicircum" unicode="^" horiz-adv-x="492" 
d="M41 375l154 317h100l156 -317h-114l-88 187h-6l-86 -187h-116z" />
    <glyph glyph-name="underscore" unicode="_" horiz-adv-x="528" 
d="M464 -8h-400v94h400v-94z" />
    <glyph glyph-name="grave" unicode="`" horiz-adv-x="500" 
d="M323 615h-95l-96 154h129z" />
    <glyph glyph-name="a" unicode="a" horiz-adv-x="563" 
d="M235 331h140v41q0 84 -119 84q-36 0 -92 -8q-59 -8 -87 -17v104q37 7 104 16q55 7 104 7q102 0 157.5 -49.5t55.5 -144.5v-364h-105l-9 61h-4q-94 -68 -179 -68q-80 0 -125 46.5t-45 122.5q0 79 54.5 124t149.5 45zM375 142v102h-122q-98 0 -98 -73q0 -35 23.5 -55.5
t62.5 -20.5q65 0 134 47z" />
    <glyph glyph-name="b" unicode="b" horiz-adv-x="610" 
d="M279 -12q-106 0 -212 31v744h123v-260q94 55 179 55q86 0 143 -68t57 -204q0 -156 -79.5 -227t-210.5 -71zM443 279q0 171 -115 171q-59 0 -138 -46v-304q47 -10 92 -10q83 0 122 46t39 143z" />
    <glyph glyph-name="c" unicode="c" horiz-adv-x="526" 
d="M331 95q72 0 153 25v-107q-82 -25 -172 -25q-55 0 -101.5 14.5t-86 46t-62 88.5t-22.5 136q0 78 22.5 135.5t62.5 89t86.5 46t100.5 14.5q90 0 172 -25v-108q-76 25 -153 25q-166 0 -166 -177q0 -84 42 -131t124 -47z" />
    <glyph glyph-name="d" unicode="d" horiz-adv-x="610" 
d="M41 259q0 141 61 214q70 85 215 85q49 0 102 -10v215h122v-763h-100l-12 41q-85 -51 -174 -51q-93 0 -153.5 66t-60.5 203zM167 265q0 -85 30.5 -128t86.5 -43t134 43v309q-48 9 -88 9q-85 0 -124 -45t-39 -145z" />
    <glyph glyph-name="e" unicode="e" horiz-adv-x="580" 
d="M527 129v-106q-117 -35 -214 -35q-272 0 -272 285q0 139 67.5 212t191.5 73q237 0 237 -262v-56h-367q1 -145 172 -145q76 0 185 34zM168 329h244q-2 132 -119 132q-48 4 -87 -33t-38 -99z" />
    <glyph glyph-name="f" unicode="f" horiz-adv-x="383" 
d="M391 765v-100q-55 9 -88 9q-51 0 -70.5 -19.5t-19.5 -64.5v-45h156v-104h-152v-441h-122v441h-67v93l67 11v69q0 84 41 122.5t132 38.5q73 0 123 -10z" />
    <glyph glyph-name="g" unicode="g" horiz-adv-x="594" 
d="M40 360q0 92 63 145t172 53q30 0 93 -6t90 -6q67 0 117 10v-98l-107 1q43 -37 43 -102q0 -90 -62.5 -136t-174.5 -46q-44 0 -69 4q-16 -20 -16 -45q0 -39 43 -39h163q168 0 168 -139q0 -173 -296 -173q-235 0 -235 131q0 88 92 120v5q-43 25 -43 72q0 55 51 95
q-92 45 -92 154zM388 362q0 48 -28 74.5t-83 26.5q-112 0 -112 -102q0 -100 112 -100q111 0 111 101zM368 1h-130q-80 -11 -80 -72q0 -31 27 -45.5t98 -14.5q80 0 116.5 17t36.5 58q0 57 -68 57z" />
    <glyph glyph-name="h" unicode="h" horiz-adv-x="612" 
d="M546 397v-397h-123v374q0 72 -72 72q-55 0 -159 -54v-392h-123v763h123v-275q118 69 195 69t118 -40t41 -120z" />
    <glyph glyph-name="i" unicode="i" horiz-adv-x="261" 
d="M69 546h123v-546h-123v546zM67 742h126v-122h-126v122z" />
    <glyph glyph-name="j" unicode="j" horiz-adv-x="262" 
d="M70 546h123v-481q4 -187 -161 -277l-59 88q57 39 77 81t20 115v474zM69 742h126v-122h-126v122z" />
    <glyph glyph-name="k" unicode="k" horiz-adv-x="570" 
d="M377 546h123v-16q0 -173 -133 -249l54 -93q46 -81 125 -82v-110q-14 -3 -40 -3q-118 0 -195 137l-55 101l-65 -27v-204h-122v763h122v-453l68 28q118 49 118 185v23z" />
    <glyph glyph-name="l" unicode="l" horiz-adv-x="264" 
d="M71 763h122v-763h-122v763z" />
    <glyph glyph-name="m" unicode="m" horiz-adv-x="939" 
d="M532 392v-392h-122v375q0 72 -75 72q-57 0 -143 -55v-392h-123v546h115v-61h4q107 73 188 73q53 0 89.5 -23t50.5 -56q113 79 201 79q77 0 116.5 -43t39.5 -119v-396h-123v375q0 72 -74 72q-27 0 -69 -16q-42 -15 -75 -39z" />
    <glyph glyph-name="n" unicode="n" horiz-adv-x="611" 
d="M545 397v-397h-122v374q0 73 -73 73q-59 0 -159 -55v-392h-122v546h114v-61h4q121 73 200 73q77 0 117.5 -40.5t40.5 -120.5z" />
    <glyph glyph-name="o" unicode="o" horiz-adv-x="628" 
d="M166 273q0 -180 149 -180q147 0 147 180q0 179 -147 179q-149 0 -149 -179zM40 273q0 141 76 213t198 72q121 0 198 -72.5t77 -212.5t-77 -212.5t-198 -72.5q-130 0 -202 75.5t-72 209.5z" />
    <glyph glyph-name="p" unicode="p" horiz-adv-x="610" 
d="M191 6v-211h-122v751h122v-57q94 68 182 68q85 0 140.5 -69t55.5 -201q0 -144 -65 -220t-193 -76q-55 0 -120 15zM443 280q0 84 -28.5 126.5t-80.5 42.5q-63 0 -143 -56v-286q61 -15 105 -15q147 0 147 188z" />
    <glyph glyph-name="q" unicode="q" horiz-adv-x="611" 
d="M331 558q88 0 212 -31v-732h-123v248q-94 -55 -178 -55q-86 0 -143.5 68t-57.5 204q0 156 79.5 227t210.5 71zM167 267q0 -84 30 -128t85 -44q60 0 138 46v304q-47 10 -92 10q-85 0 -123 -46t-38 -142z" />
    <glyph glyph-name="r" unicode="r" horiz-adv-x="408" 
d="M392 549v-127q-36 -7 -62 -14q-40 -11 -139 -54v-354h-122v546h116v-92l36 24l44 28q65 40 127 43z" />
    <glyph glyph-name="s" unicode="s" horiz-adv-x="495" 
d="M228 92q106 0 106 70q0 29 -24.5 42t-96.5 25q-99 15 -134 55q-36 41 -36 103q0 57 28 97q50 74 199 74q74 0 161 -14l-4 -106q-89 15 -143 15q-115 0 -115 -60q0 -23 19 -38q20 -16 92 -26q47 -8 76 -17.5t54 -27t36.5 -46t13.5 -71.5q0 -179 -226 -179q-90 0 -187 12
l4 109q122 -17 177 -17z" />
    <glyph glyph-name="t" unicode="t" horiz-adv-x="399" 
d="M382 441h-167v-284q0 -30 18.5 -45t49.5 -15q35 0 78 13v-105q-81 -16 -140 -16q-129 0 -129 126v326h-71v76l155 149h40v-121h166v-104z" />
    <glyph glyph-name="u" unicode="u" horiz-adv-x="612" 
d="M66 148v398h123v-374q0 -73 72 -73q63 0 159 54v393h123v-546h-104l-10 60h-4q-119 -72 -200 -72q-77 0 -118 40.5t-41 119.5z" />
    <glyph glyph-name="v" unicode="v" horiz-adv-x="554" 
d="M198 -1l-182 547h130l129 -412h6l129 412h129l-184 -547h-157z" />
    <glyph glyph-name="w" unicode="w" horiz-adv-x="930" 
d="M65 182v364h122v-378q0 -73 86 -73q57 0 137 54q-4 24 -4 66v331h116v-363q-3 -36 26 -62.5t82 -25.5q46 0 79.5 22.5t33.5 68.5v360h123v-363q0 -96 -62.5 -145.5t-175.5 -49.5q-130 0 -191 84q-95 -84 -192 -84q-180 0 -180 194z" />
    <glyph glyph-name="x" unicode="x" horiz-adv-x="575" 
d="M11 0l198 274l-197 272h153l124 -177l122 177h153l-198 -266l198 -280h-147l-131 186l-128 -186h-147z" />
    <glyph glyph-name="y" unicode="y" horiz-adv-x="560" 
d="M543 546l-239 -751h-128l68 205h-52l-176 546h134l125 -414h9l128 414h131z" />
    <glyph glyph-name="z" unicode="z" horiz-adv-x="549" 
d="M334 441h-295v105h457v-88l-285 -353h305v-105h-471v89z" />
    <glyph glyph-name="braceleft" unicode="{" horiz-adv-x="456" 
d="M234 380q0 -88 -53 -117v-6q53 -29 53 -117q0 -28 -11 -97q-10 -63 -10 -90q0 -102 105 -102q42 0 109 18v-107q-63 -16 -130 -16q-98 0 -149.5 50.5t-51.5 145.5q0 39 11 107q12 65 12 84q0 71 -61 71l-26 -1v114l26 -1q61 0 61 71q0 16 -11 84t-11 108q0 95 50.5 145.5
t149.5 50.5q64 0 130 -17v-107q-67 18 -109 18q-105 0 -105 -102q0 -27 10 -90q11 -68 11 -97z" />
    <glyph glyph-name="bar" unicode="|" horiz-adv-x="280" 
d="M78 763h124v-968h-124v968z" />
    <glyph glyph-name="braceright" unicode="}" horiz-adv-x="456" 
d="M222 141q0 88 53 117v6q-53 29 -53 117q0 34 10 97q11 69 11 90q0 102 -105 102q-42 0 -109 -18v107q63 16 130 16q98 0 149.5 -50.5t51.5 -145.5q0 -43 -12 -108q-11 -68 -11 -83q0 -71 61 -71l26 1v-114l-26 1q-61 0 -61 -71q0 -16 11 -84t11 -108q0 -95 -50.5 -145.5
t-149.5 -50.5q-64 0 -130 17v107q67 -18 109 -18q105 0 105 102q0 21 -11 89q-10 63 -10 98z" />
    <glyph glyph-name="asciitilde" unicode="~" horiz-adv-x="597" 
d="M520 359l12 -86q-51 -25 -104 -25q-48 0 -125 19q-82 20 -116 20q-57 0 -112 -29l-9 91q61 30 127 30q50 0 127 -19t113 -19q48 0 87 18z" />
    <glyph glyph-name="uni00A0" unicode="&#xa0;" horiz-adv-x="249" 
 />
    <glyph glyph-name="exclamdown" unicode="&#xa1;" horiz-adv-x="273" 
d="M71 515h131v-126h-131v126zM198 -205h-122v497h122v-497z" />
    <glyph glyph-name="cent" unicode="&#xa2;" horiz-adv-x="529" 
d="M352 -9v-160h-107v163q-95 13 -154 80t-59 198q0 130 59 197t154 83v163h107v-160q59 -3 125 -23v-111q-76 25 -153 25q-84 0 -125 -42t-41 -132q0 -87 43.5 -130.5t122.5 -43.5q72 0 153 25v-110q-60 -19 -125 -22z" />
    <glyph glyph-name="sterling" unicode="&#xa3;" horiz-adv-x="545" 
d="M428 743l15 -112q-81 -13 -119 -59t-38 -136v-18h166v-108h-172v-22q0 -146 -60 -187q66 11 164 11h121v-112h-474l14 104q28 5 42.5 10.5t34 23t27.5 54.5t7 96v22h-79v108h81v16q0 43 7.5 82t26.5 79.5t48.5 71t77.5 51.5t110 25z" />
    <glyph glyph-name="yen" unicode="&#xa5;" horiz-adv-x="685" 
d="M280 244h-203v103h151l-194 373h143l167 -343h7l160 343h141l-195 -373h151v-103h-202v-56h202v-103h-202v-85h-126v85h-203v103h203v56z" />
    <glyph glyph-name="brokenbar" unicode="&#xa6;" horiz-adv-x="282" 
d="M79 -205v450h124v-450h-124zM203 763v-450h-124v450h124z" />
    <glyph glyph-name="section" unicode="&#xa7;" horiz-adv-x="531" 
d="M263 410l-55 14q-25 -40 -25 -71q0 -46 39 -63q26 -9 62 -16q42 -8 60 -12q21 39 21 67q0 45 -40 62q-21 10 -62 19zM476 118q0 -179 -226 -179q-90 0 -187 12l4 109q122 -17 177 -17q106 0 106 70q0 29 -24.5 42t-96.5 25q-99 15 -134 55q-36 41 -36 103q0 76 56 127
q-57 43 -57 120q0 57 28 97q50 74 199 74q74 0 161 -14l-4 -106q-89 15 -143 15q-115 0 -115 -60q0 -23 20 -40q19 -14 102 -31t116 -39q61 -39 61 -122q0 -70 -49 -143q42 -34 42 -98z" />
    <glyph glyph-name="dieresis" unicode="&#xa8;" horiz-adv-x="833" 
d="M513 738h109v-125h-109v125zM267 738h109v-125h-109v125z" />
    <glyph glyph-name="copyright" unicode="&#xa9;" horiz-adv-x="843" 
d="M421 41q133 0 227.5 93.5t94.5 226.5q2 132 -94 227.5t-228 93.5q-131 2 -227 -93.5t-94 -227.5q0 -133 94 -226.5t227 -93.5zM799 361q1 -100 -50.5 -186.5t-139 -137t-188.5 -49.5q-100 -1 -187.5 49.5t-139 137t-50.5 186.5q-1 153 111.5 264.5t265.5 109.5
q154 2 266.5 -109.5t111.5 -264.5zM269 365q0 78 45 123.5t120 45.5q51 0 88 -10v-70q-53 11 -77 11q-49 0 -73 -23.5t-24 -76.5t24 -76.5t73 -23.5q24 0 77 11v-70q-37 -10 -88 -10q-75 0 -120 45.5t-45 123.5z" />
    <glyph glyph-name="ordfeminine" unicode="&#xaa;" horiz-adv-x="430" 
d="M282 397v73h-70q-80 0 -80 -50q0 -48 64 -48q41 0 86 25zM48 412q0 59 37 87t114 28h83v17q0 32 -20.5 47t-64.5 15q-58 0 -122 -16v74q81 18 136 18q154 0 154 -139v-235h-64l-7 38q-64 -43 -126 -43q-52 0 -86 29.5t-34 79.5z" />
    <glyph glyph-name="guillemotleft" unicode="&#xab;" horiz-adv-x="582" 
d="M37 273l153 258h118l-152 -258l152 -259h-117zM275 273l154 258h117l-152 -258l152 -259h-117z" />
    <glyph glyph-name="logicalnot" unicode="&#xac;" horiz-adv-x="620" 
d="M67 324h481v-255l-93 9v139h-388v107z" />
    <glyph glyph-name="registered" unicode="&#xae;" horiz-adv-x="519" 
d="M187 420v212h76q42 0 63.5 -20.5t21.5 -52.5q0 -39 -34 -60l40 -79h-52l-33 68h-34v-68h-48zM262 593h-27v-68h27q38 0 38 35q0 33 -38 33zM260 342q63 0 115 43q29 24 45 60t16 73q0 72 -52.5 124t-123.5 52q-73 0 -125 -52q-51 -51 -51 -124q0 -72 51 -125
q52 -51 125 -51zM475 518q0 -53 -29 -106q-27 -50 -78.5 -78.5t-107.5 -28.5q-55 0 -107 28q-51 27 -80 78.5t-29 106.5t26 102q21 45 74 79t116 33q78 0 140 -52q36 -29 55.5 -73.5t19.5 -88.5z" />
    <glyph glyph-name="macron" unicode="&#xaf;" horiz-adv-x="601" 
d="M501 621h-401v99h401v-99z" />
    <glyph glyph-name="degree" unicode="&#xb0;" horiz-adv-x="319" 
d="M44 610q-4 39 30 77t86 37q38 4 78 -28.5t38 -85.5q1 -53 -39 -86t-77 -29q-37 -4 -77.5 29t-38.5 86zM216 610q0 27 -15.5 43.5t-40.5 16.5q-26 0 -41.5 -16.5t-15.5 -43.5t15.5 -43.5t41.5 -16.5q25 0 40.5 16.5t15.5 43.5z" />
    <glyph glyph-name="plusminus" unicode="&#xb1;" horiz-adv-x="592" 
d="M532 0h-472v89h472v-89zM246 342h-186v100h186v183h100v-183h186v-100h-186v-183h-100v183z" />
    <glyph glyph-name="twosuperior" unicode="&#xb2;" horiz-adv-x="421" 
d="M363 289h-307v71q123 91 158 134q39 46 39 84q0 62 -94 62q-35 0 -90 -12v85q23 4 62 9q42 5 62 5q25 0 50 -5t51.5 -18.5t42 -42.5t14.5 -70q0 -103 -154 -217h166v-85z" />
    <glyph glyph-name="threesuperior" unicode="&#xb3;" horiz-adv-x="404" 
d="M61 287v86q59 -8 97 -8q95 0 95 56q0 24 -20.5 37.5t-54.5 13.5h-66v66h59q32 0 53.5 14.5t21.5 39.5q0 48 -77 48q-47 0 -105 -15v86q62 16 125 16q73 0 115.5 -30t42.5 -85q0 -30 -19.5 -58.5t-52.5 -44.5q36 -10 57.5 -37.5t21.5 -61.5q0 -60 -47 -96t-138 -36
q-53 0 -108 9z" />
    <glyph glyph-name="acute" unicode="&#xb4;" horiz-adv-x="424" 
d="M177 769h129l-96 -154h-95z" />
    <glyph glyph-name="paragraph" unicode="&#xb6;" horiz-adv-x="567" 
d="M255 720h68v-451h-73q-59 0 -112 29q-52 28 -80 82t-28 115q0 85 52 149q29 37 75.5 56.5t97.5 19.5zM361 720h126v-696q0 -118 -58 -177t-193 -59q-27 0 -85 5v113q28 -4 71 -4q75 0 107 30.5t32 99.5v688z" />
    <glyph glyph-name="periodcentered" unicode="&#xb7;" horiz-adv-x="240" 
d="M65 337h110v-138h-110v138z" />
    <glyph glyph-name="cedilla" unicode="&#xb8;" horiz-adv-x="467" 
d="M112 -209v65q38 -7 72 -7q66 0 66 32q0 31 -99 36v11l37 72h75l-25 -43q100 -9 100 -82q0 -44 -39 -68t-103 -24q-38 0 -84 8z" />
    <glyph glyph-name="onesuperior" unicode="&#xb9;" horiz-adv-x="289" 
d="M218 721v-432h-97v330l-87 -33v90l108 45h76z" />
    <glyph glyph-name="ordmasculine" unicode="&#xba;" horiz-adv-x="462" 
d="M418 488q0 -92 -48 -142.5t-139 -50.5q-89 0 -137.5 51t-48.5 142q0 88 49.5 140.5t136.5 52.5q88 0 137.5 -52.5t49.5 -140.5zM331 488q0 115 -100 115q-99 0 -99 -115t99 -115q100 0 100 115z" />
    <glyph glyph-name="guillemotright" unicode="&#xbb;" horiz-adv-x="582" 
d="M545 272l-153 -258h-118l152 258l-152 259h117zM307 272l-154 -258h-117l152 258l-152 259h117z" />
    <glyph glyph-name="onequarter" unicode="&#xbc;" horiz-adv-x="884" 
d="M218 721v-432h-97v329l-87 -32v90l111 45h73zM481 170l94 261h97l-94 -258h115v49l17 84h79v-134h65v-83h-65v-89h-96v89h-212v81zM205 -93h-105l440 856h106z" />
    <glyph glyph-name="onehalf" unicode="&#xbd;" horiz-adv-x="860" 
d="M824 0h-307v71q104 76 150 126.5t46 91.5q0 61 -93 61q-44 0 -90 -12v85q38 7 62 10q42 5 61 5q158 0 158 -137q0 -105 -153 -216h166v-85zM215 721v-432h-97v329l-87 -32v90l111 45h73zM202 -93h-105l440 856h106z" />
    <glyph glyph-name="threequarters" unicode="&#xbe;" horiz-adv-x="955" 
d="M47 287v86q59 -8 97 -8q95 0 95 56q0 24 -21 37.5t-55 13.5h-66v66h60q31 0 52.5 14.5t21.5 39.5q0 48 -77 48q-46 0 -104 -15v86q62 16 125 16q72 0 115 -30t43 -85q0 -30 -19.5 -58.5t-52.5 -44.5q36 -10 57.5 -37.5t21.5 -61.5q0 -60 -47 -96t-138 -36q-54 0 -108 9z
M552 170l94 261h97l-94 -258h115v49l17 84h79v-134h65v-83h-65v-89h-96v89h-212v81zM276 -93h-105l440 856h106z" />
    <glyph glyph-name="questiondown" unicode="&#xbf;" horiz-adv-x="469" 
d="M345 261q0 -82 -39 -138q-15 -22 -33 -40q-6 -7 -62 -59q-47 -44 -47 -82q0 -39 34 -61t95 -22q64 0 142 23v-117q-90 -24 -182 -24q-101 0 -163 50t-62 129q0 47 22 84q25 41 68 83q44 42 59 61q47 52 47 110q0 20 -6 52h122q5 -30 5 -49zM217 515h123v-108h-123v108z
" />
    <glyph glyph-name="Agrave" unicode="&#xc0;" 
d="M138 0h-133l245 721h175l246 -721h-133l-50 151h-300zM342 613h-11l-116 -351h241zM399 775h-95l-96 154h129z" />
    <glyph glyph-name="Aacute" unicode="&#xc1;" 
d="M138 0h-133l245 721h175l246 -721h-133l-50 151h-300zM342 613h-11l-116 -351h241zM354 929h129l-96 -154h-95z" />
    <glyph glyph-name="Acircumflex" unicode="&#xc2;" 
d="M138 0h-133l245 721h175l246 -721h-133l-50 151h-300zM342 613h-11l-116 -351h241zM513 775h-106l-69 111l-69 -111h-107l100 158h151z" />
    <glyph glyph-name="Atilde" unicode="&#xc3;" 
d="M138 0h-133l245 721h175l246 -721h-133l-50 151h-300zM342 613h-11l-116 -351h241zM113 778v96q62 57 123 57q43 0 100 -33q65 -37 108 -37q63 0 123 57v-96q-62 -57 -123 -57q-43 0 -101 33q-64 37 -107 37q-63 0 -123 -57z" />
    <glyph glyph-name="Adieresis" unicode="&#xc4;" 
d="M138 0h-133l245 721h175l246 -721h-133l-50 151h-300zM342 613h-11l-116 -351h241zM406 900h109v-125h-109v125zM160 900h109v-125h-109v125z" />
    <glyph glyph-name="Aring" unicode="&#xc5;" 
d="M226 763q0 46 30 74t81 28t81.5 -28t30.5 -74q0 -33 -21 -51l243 -712h-133l-50 151h-300l-50 -151h-133l242 711q-21 18 -21 52zM456 262l-114 350h-11l-116 -350h241zM289 763q0 -49 48 -49q24 0 36.5 13.5t12.5 35.5t-12.5 35.5t-36.5 13.5q-48 0 -48 -49z" />
    <glyph glyph-name="AE" unicode="&#xc6;" horiz-adv-x="1001" 
d="M358 720h599v-113h-357v-188h307v-113h-307v-194h355v-112h-482v151h-258q-3 -4 -40 -77l-37 -74h-145q24 42 182 360q162 324 183 360zM473 607h-38l-170 -347h208v347z" />
    <glyph glyph-name="Ccedilla" unicode="&#xc7;" horiz-adv-x="613" 
d="M245 -209v65q38 -7 72 -7q66 0 66 32q0 31 -99 36v11l33 64q-134 18 -202.5 112.5t-68.5 256.5q0 173 86.5 272t245.5 99q99 0 192 -24v-115q-92 30 -169 30q-226 0 -226 -259q-2 -119 53 -194t166 -73q87 0 178 35v-113q-91 -29 -183 -31l-18 -31q100 -9 100 -82
q0 -44 -39 -68t-103 -24q-38 0 -84 8z" />
    <glyph glyph-name="Egrave" unicode="&#xc8;" horiz-adv-x="605" 
d="M79 0v720h483v-109h-357v-195h308v-108h-308v-199h355v-109h-481zM381 775h-95l-96 154h129z" />
    <glyph glyph-name="Eacute" unicode="&#xc9;" horiz-adv-x="605" 
d="M79 0v720h483v-109h-357v-195h308v-108h-308v-199h355v-109h-481zM304 929h129l-96 -154h-95z" />
    <glyph glyph-name="Ecircumflex" unicode="&#xca;" horiz-adv-x="605" 
d="M79 0v720h483v-109h-357v-195h308v-108h-308v-199h355v-109h-481zM493 775h-106l-69 111l-69 -111h-107l100 158h151z" />
    <glyph glyph-name="Edieresis" unicode="&#xcb;" horiz-adv-x="605" 
d="M79 0v720h483v-109h-357v-195h308v-108h-308v-199h355v-109h-481zM400 900h109v-125h-109v125zM154 900h109v-125h-109v125z" />
    <glyph glyph-name="Igrave" unicode="&#xcc;" horiz-adv-x="284" 
d="M205 0h-126v720h126v-720zM198 775h-95l-96 154h129z" />
    <glyph glyph-name="Iacute" unicode="&#xcd;" horiz-adv-x="284" 
d="M205 0h-126v720h126v-720zM156 929h129l-96 -154h-95z" />
    <glyph glyph-name="Icircumflex" unicode="&#xce;" horiz-adv-x="284" 
d="M205 0h-126v720h126v-720zM317 775h-106l-69 111l-69 -111h-107l100 158h151z" />
    <glyph glyph-name="Idieresis" unicode="&#xcf;" horiz-adv-x="284" 
d="M205 0h-126v720h126v-720zM220 900h109v-125h-109v125zM-26 900h109v-125h-109v125z" />
    <glyph glyph-name="Eth" unicode="&#xd0;" horiz-adv-x="756" 
d="M118 299h-117v112h117v309h256q152 0 244.5 -94.5t92.5 -266.5q0 -173 -92.5 -266t-244.5 -93h-256v299zM581 359q0 113 -59 180.5t-163 67.5h-114v-196h131v-112h-131v-187h114q104 0 163 67t59 180z" />
    <glyph glyph-name="Ntilde" unicode="&#xd1;" horiz-adv-x="760" 
d="M681 0h-136l-340 511v-511h-126v720h137l339 -523v523h126v-720zM143 777v96q62 57 123 57q43 0 100 -33q65 -37 108 -37q63 0 123 57v-96q-62 -57 -123 -57q-43 0 -101 33q-64 37 -107 37q-63 0 -123 -57z" />
    <glyph glyph-name="Ograve" unicode="&#xd2;" horiz-adv-x="744" 
d="M46 360q0 179 82 275.5t245 96.5t245 -96.5t82 -275.5t-82 -275.5t-245 -96.5t-245 96.5t-82 275.5zM571 360q0 263 -197 263q-199 0 -199 -263t197 -263q199 0 199 263zM425 775h-95l-96 154h129z" />
    <glyph glyph-name="Oacute" unicode="&#xd3;" horiz-adv-x="744" 
d="M46 360q0 179 82 275.5t245 96.5t245 -96.5t82 -275.5t-82 -275.5t-245 -96.5t-245 96.5t-82 275.5zM571 360q0 263 -197 263q-199 0 -199 -263t197 -263q199 0 199 263zM368 929h129l-96 -154h-95z" />
    <glyph glyph-name="Ocircumflex" unicode="&#xd4;" horiz-adv-x="744" 
d="M46 360q0 179 82 275.5t245 96.5t245 -96.5t82 -275.5t-82 -275.5t-245 -96.5t-245 96.5t-82 275.5zM571 360q0 263 -197 263q-199 0 -199 -263t197 -263q199 0 199 263zM546 775h-106l-69 111l-69 -111h-107l100 158h151z" />
    <glyph glyph-name="Otilde" unicode="&#xd5;" horiz-adv-x="744" 
d="M46 360q0 179 82 275.5t245 96.5t245 -96.5t82 -275.5t-82 -275.5t-245 -96.5t-245 96.5t-82 275.5zM571 360q0 263 -197 263q-199 0 -199 -263t197 -263q199 0 199 263zM142 778v96q62 57 123 57q43 0 100 -33q65 -37 108 -37q63 0 123 57v-96q-62 -57 -123 -57
q-43 0 -101 33q-64 37 -107 37q-63 0 -123 -57z" />
    <glyph glyph-name="Odieresis" unicode="&#xd6;" horiz-adv-x="744" 
d="M46 360q0 179 82 275.5t245 96.5t245 -96.5t82 -275.5t-82 -275.5t-245 -96.5t-245 96.5t-82 275.5zM571 360q0 263 -197 263q-199 0 -199 -263t197 -263q199 0 199 263zM441 900h109v-125h-109v125zM195 900h109v-125h-109v125z" />
    <glyph glyph-name="multiply" unicode="&#xd7;" horiz-adv-x="507" 
d="M253 206l-132 -131l-70 70l131 132l-129 130l70 70l130 -129l132 131l70 -70l-131 -132l129 -130l-70 -70z" />
    <glyph glyph-name="Oslash" unicode="&#xd8;" horiz-adv-x="745" 
d="M46 360q0 179 82 275.5t246 96.5q86 0 148 -30l36 61h114l-66 -113q93 -96 93 -290q0 -180 -81.5 -276t-243.5 -96q-78 0 -144 25l-34 -56h-116l65 108q-99 93 -99 295zM175 360q0 -116 40 -175l246 415q-37 19 -89 19q-197 0 -197 -259zM569 360q0 110 -36 168
l-243 -412q36 -17 82 -17q197 0 197 261z" />
    <glyph glyph-name="Ugrave" unicode="&#xd9;" horiz-adv-x="722" 
d="M649 720v-465q0 -129 -74.5 -198t-213.5 -69q-140 0 -214 68.5t-74 198.5v465h126v-476q-4 -65 47.5 -107.5t114.5 -39.5q48 0 85 19q77 41 77 128v476h126zM416 775h-95l-96 154h129z" />
    <glyph glyph-name="Uacute" unicode="&#xda;" horiz-adv-x="722" 
d="M649 720v-465q0 -129 -74.5 -198t-213.5 -69q-140 0 -214 68.5t-74 198.5v465h126v-476q-4 -65 47.5 -107.5t114.5 -39.5q48 0 85 19q77 41 77 128v476h126zM364 929h129l-96 -154h-95z" />
    <glyph glyph-name="Ucircumflex" unicode="&#xdb;" horiz-adv-x="722" 
d="M649 720v-465q0 -129 -74.5 -198t-213.5 -69q-140 0 -214 68.5t-74 198.5v465h126v-476q-4 -65 47.5 -107.5t114.5 -39.5q48 0 85 19q77 41 77 128v476h126zM536 775h-106l-69 111l-69 -111h-107l100 158h151z" />
    <glyph glyph-name="Udieresis" unicode="&#xdc;" horiz-adv-x="722" 
d="M649 720v-465q0 -129 -74.5 -198t-213.5 -69q-140 0 -214 68.5t-74 198.5v465h126v-476q-4 -65 47.5 -107.5t114.5 -39.5q48 0 85 19q77 41 77 128v476h126zM430 900h109v-125h-109v125zM184 900h109v-125h-109v125z" />
    <glyph glyph-name="Yacute" unicode="&#xdd;" horiz-adv-x="622" 
d="M374 246v-246h-126v246l-246 474h143l167 -343h6l161 343h141zM335 929h129l-96 -154h-95z" />
    <glyph glyph-name="Thorn" unicode="&#xde;" horiz-adv-x="622" 
d="M79 751h127v-128h149q108 0 171 -72.5t63 -180.5q0 -107 -62.5 -179.5t-167.5 -72.5h-153v-118h-127v751zM331 510h-125v-279h125q56 0 90 37q38 39 38 103q0 37 -18 73q-33 66 -110 66z" />
    <glyph glyph-name="germandbls" unicode="&#xdf;" horiz-adv-x="615" 
d="M261 341v105q52 2 98 34.5t46 92.5q3 30 -25 62t-75 31q-55 0 -84.5 -37t-29.5 -106v-523h-121v506q0 132 63.5 200.5t178.5 68.5q51 0 97 -18.5t79.5 -63t33.5 -107.5q3 -47 -32 -103.5t-94 -73.5q86 -16 136 -68t50 -131q0 -95 -63 -157t-164 -62q-50 0 -121 11v102
q52 -11 92 -11q23 0 43 5t40 17.5t32 38t12 61.5q0 60 -51 93t-141 33z" />
    <glyph glyph-name="agrave" unicode="&#xe0;" horiz-adv-x="563" 
d="M235 331h140v41q0 84 -119 84q-36 0 -92 -8q-59 -8 -87 -17v104q37 7 104 16q55 7 104 7q102 0 157.5 -49.5t55.5 -144.5v-364h-105l-9 61h-4q-94 -68 -179 -68q-80 0 -125 46.5t-45 122.5q0 79 54.5 124t149.5 45zM375 142v102h-122q-98 0 -98 -73q0 -35 23.5 -55.5
t62.5 -20.5q65 0 134 47zM330 615h-95l-96 154h129z" />
    <glyph glyph-name="aacute" unicode="&#xe1;" horiz-adv-x="563" 
d="M235 331h140v41q0 84 -119 84q-36 0 -92 -8q-59 -8 -87 -17v104q37 7 104 16q55 7 104 7q102 0 157.5 -49.5t55.5 -144.5v-364h-105l-9 61h-4q-94 -68 -179 -68q-80 0 -125 46.5t-45 122.5q0 79 54.5 124t149.5 45zM375 142v102h-122q-98 0 -98 -73q0 -35 23.5 -55.5
t62.5 -20.5q65 0 134 47zM274 769h129l-96 -154h-95z" />
    <glyph glyph-name="acircumflex" unicode="&#xe2;" horiz-adv-x="563" 
d="M235 331h140v41q0 84 -119 84q-36 0 -92 -8q-59 -8 -87 -17v104q37 7 104 16q55 7 104 7q102 0 157.5 -49.5t55.5 -144.5v-364h-105l-9 61h-4q-94 -68 -179 -68q-80 0 -125 46.5t-45 122.5q0 79 54.5 124t149.5 45zM375 142v102h-122q-98 0 -98 -73q0 -35 23.5 -55.5
t62.5 -20.5q65 0 134 47zM453 615h-106l-69 111l-69 -111h-107l100 158h151z" />
    <glyph glyph-name="atilde" unicode="&#xe3;" horiz-adv-x="563" 
d="M235 331h140v41q0 84 -119 84q-36 0 -92 -8q-59 -8 -87 -17v104q37 7 104 16q55 7 104 7q102 0 157.5 -49.5t55.5 -144.5v-364h-105l-9 61h-4q-94 -68 -179 -68q-80 0 -125 46.5t-45 122.5q0 79 54.5 124t149.5 45zM375 142v102h-122q-98 0 -98 -73q0 -35 23.5 -55.5
t62.5 -20.5q65 0 134 47zM60 624v96q62 57 123 57q43 0 100 -33q65 -37 108 -37q63 0 123 57v-96q-62 -57 -123 -57q-43 0 -101 33q-64 37 -107 37q-63 0 -123 -57z" />
    <glyph glyph-name="adieresis" unicode="&#xe4;" horiz-adv-x="563" 
d="M235 331h140v41q0 84 -119 84q-36 0 -92 -8q-59 -8 -87 -17v104q37 7 104 16q55 7 104 7q102 0 157.5 -49.5t55.5 -144.5v-364h-105l-9 61h-4q-94 -68 -179 -68q-80 0 -125 46.5t-45 122.5q0 79 54.5 124t149.5 45zM375 142v102h-122q-98 0 -98 -73q0 -35 23.5 -55.5
t62.5 -20.5q65 0 134 47zM360 740h109v-125h-109v125zM114 740h109v-125h-109v125z" />
    <glyph glyph-name="aring" unicode="&#xe5;" horiz-adv-x="563" 
d="M235 331h140v41q0 84 -119 84q-36 0 -92 -8q-59 -8 -87 -17v104q37 7 104 16q55 7 104 7q102 0 157.5 -49.5t55.5 -144.5v-364h-105l-9 61h-4q-94 -68 -179 -68q-80 0 -125 46.5t-45 122.5q0 79 54.5 124t149.5 45zM375 142v102h-122q-98 0 -98 -73q0 -35 23.5 -55.5
t62.5 -20.5q65 0 134 47zM229 701q0 -22 12.5 -35.5t36.5 -13.5t36.5 13.5t12.5 35.5t-12.5 35.5t-36.5 13.5t-36.5 -13.5t-12.5 -35.5zM166 701q0 46 30.5 74t81.5 28t81.5 -28t30.5 -74q2 -47 -35 -75.5t-77 -25.5q-40 -3 -77 25.5t-35 75.5z" />
    <glyph glyph-name="ae" unicode="&#xe6;" horiz-adv-x="906" 
d="M853 129v-106q-113 -35 -214 -35q-153 0 -218 87q-98 -82 -220 -82q-79 0 -124.5 46.5t-45.5 122.5q0 70 54 118.5t169 48.5h114v62q0 31 -29.5 48t-85.5 17q-33 0 -89 -8q-57 -8 -87 -16v103q108 22 207 22q116 0 164 -69q62 69 179 69q236 0 236 -261v-56h-367
q1 -145 172 -145q73 0 185 34zM380 146q-11 44 -13 94h-113q-100 0 -100 -69q0 -36 24 -56.5t64 -20.5q71 0 138 52zM494 329h244q0 132 -118 132q-48 4 -87.5 -33t-38.5 -99z" />
    <glyph glyph-name="ccedilla" unicode="&#xe7;" horiz-adv-x="527" 
d="M195 -209v65q38 -7 72 -7q66 0 66 32q0 31 -99 36v11l32 63q-111 13 -168 86t-57 196q0 78 22.5 135.5t62.5 89t86.5 46t100.5 14.5q90 0 172 -25v-108q-76 25 -153 25q-166 0 -166 -177q0 -84 42 -131t124 -47q72 0 153 25v-107q-73 -21 -145 -24l-19 -32
q100 -9 100 -82q0 -44 -39 -68t-103 -24q-38 0 -84 8z" />
    <glyph glyph-name="egrave" unicode="&#xe8;" horiz-adv-x="580" 
d="M527 129v-106q-117 -35 -214 -35q-272 0 -272 285q0 139 67.5 212t191.5 73q237 0 237 -262v-56h-367q1 -145 172 -145q76 0 185 34zM168 329h244q-2 132 -119 132q-48 4 -87 -33t-38 -99zM351 615h-95l-96 154h129z" />
    <glyph glyph-name="eacute" unicode="&#xe9;" horiz-adv-x="580" 
d="M527 129v-106q-117 -35 -214 -35q-272 0 -272 285q0 139 67.5 212t191.5 73q237 0 237 -262v-56h-367q1 -145 172 -145q76 0 185 34zM168 329h244q-2 132 -119 132q-48 4 -87 -33t-38 -99zM317 769h129l-96 -154h-95z" />
    <glyph glyph-name="ecircumflex" unicode="&#xea;" horiz-adv-x="580" 
d="M527 129v-106q-117 -35 -214 -35q-272 0 -272 285q0 139 67.5 212t191.5 73q237 0 237 -262v-56h-367q1 -145 172 -145q76 0 185 34zM168 329h244q-2 132 -119 132q-48 4 -87 -33t-38 -99zM476 615h-106l-69 111l-69 -111h-107l100 158h151z" />
    <glyph glyph-name="edieresis" unicode="&#xeb;" horiz-adv-x="580" 
d="M527 129v-106q-117 -35 -214 -35q-272 0 -272 285q0 139 67.5 212t191.5 73q237 0 237 -262v-56h-367q1 -145 172 -145q76 0 185 34zM168 329h244q-2 132 -119 132q-48 4 -87 -33t-38 -99zM370 740h109v-125h-109v125zM124 740h109v-125h-109v125z" />
    <glyph glyph-name="igrave" unicode="&#xec;" horiz-adv-x="261" 
d="M173 615h-95l-96 154h129zM69 546h123v-546h-123v546z" />
    <glyph glyph-name="iacute" unicode="&#xed;" horiz-adv-x="261" 
d="M149 769h129l-96 -154h-95zM69 546h123v-546h-123v546z" />
    <glyph glyph-name="icircumflex" unicode="&#xee;" horiz-adv-x="261" 
d="M69 546h123v-546h-123v546zM305 615h-106l-69 111l-69 -111h-107l100 158h151z" />
    <glyph glyph-name="idieresis" unicode="&#xef;" horiz-adv-x="261" 
d="M198 740h109v-125h-109v125zM-48 740h109v-125h-109v125zM69 546h123v-546h-123v546z" />
    <glyph glyph-name="eth" unicode="&#xf0;" horiz-adv-x="631" 
d="M321 625l-63 -36l-36 57l51 29q-51 50 -101 88h146q26 -19 42 -39l60 34l34 -57l-43 -25q59 -67 100 -139q79 -134 79 -265q0 -140 -77 -212t-198 -72q-122 0 -198.5 71.5t-76.5 212.5q-3 120 67 203t208 82q39 0 73 -19q-26 41 -67 87zM463 272q0 179 -148 179
t-148 -179q0 -178 148 -178t148 178z" />
    <glyph glyph-name="ntilde" unicode="&#xf1;" horiz-adv-x="611" 
d="M545 397v-397h-122v374q0 73 -73 73q-59 0 -159 -55v-392h-122v546h114v-61h4q121 73 200 73q77 0 117.5 -40.5t40.5 -120.5zM87 619v96q62 57 123 57q43 0 100 -33q65 -37 108 -37q63 0 123 57v-96q-62 -57 -123 -57q-43 0 -101 33q-64 37 -107 37q-63 0 -123 -57z" />
    <glyph glyph-name="ograve" unicode="&#xf2;" horiz-adv-x="628" 
d="M166 273q0 -180 149 -180q147 0 147 180q0 179 -147 179q-149 0 -149 -179zM40 273q0 141 76 213t198 72q121 0 198 -72.5t77 -212.5t-77 -212.5t-198 -72.5q-130 0 -202 75.5t-72 209.5zM358 615h-95l-96 154h129z" />
    <glyph glyph-name="oacute" unicode="&#xf3;" horiz-adv-x="628" 
d="M166 273q0 -180 149 -180q147 0 147 180q0 179 -147 179q-149 0 -149 -179zM40 273q0 141 76 213t198 72q121 0 198 -72.5t77 -212.5t-77 -212.5t-198 -72.5q-130 0 -202 75.5t-72 209.5zM322 769h129l-96 -154h-95z" />
    <glyph glyph-name="ocircumflex" unicode="&#xf4;" horiz-adv-x="628" 
d="M166 273q0 -180 149 -180q147 0 147 180q0 179 -147 179q-149 0 -149 -179zM40 273q0 141 76 213t198 72q121 0 198 -72.5t77 -212.5t-77 -212.5t-198 -72.5q-130 0 -202 75.5t-72 209.5zM490 615h-106l-69 111l-69 -111h-107l100 158h151z" />
    <glyph glyph-name="otilde" unicode="&#xf5;" horiz-adv-x="628" 
d="M166 273q0 -180 149 -180q147 0 147 180q0 179 -147 179q-149 0 -149 -179zM40 273q0 141 76 213t198 72q121 0 198 -72.5t77 -212.5t-77 -212.5t-198 -72.5q-130 0 -202 75.5t-72 209.5zM90 619v96q62 57 123 57q43 0 100 -33q65 -37 108 -37q63 0 123 57v-96
q-62 -57 -123 -57q-43 0 -101 33q-64 37 -107 37q-63 0 -123 -57z" />
    <glyph glyph-name="odieresis" unicode="&#xf6;" horiz-adv-x="628" 
d="M166 273q0 -180 149 -180q147 0 147 180q0 179 -147 179q-149 0 -149 -179zM40 273q0 141 76 213t198 72q121 0 198 -72.5t77 -212.5t-77 -212.5t-198 -72.5q-130 0 -202 75.5t-72 209.5zM384 740h109v-125h-109v125zM138 740h109v-125h-109v125z" />
    <glyph glyph-name="divide" unicode="&#xf7;" horiz-adv-x="580" 
d="M338 506v-114h-100v114h100zM54 223v100h472v-100h-472zM338 155v-116h-100v116h100z" />
    <glyph glyph-name="oslash" unicode="&#xf8;" horiz-adv-x="628" 
d="M159 -116h-115l88 160q-47 33 -70.5 99.5t-21.5 129.5q0 141 76 213t198 72q53 0 93 -13l60 109h114l-85 -154q93 -78 93 -227q0 -140 -77 -212.5t-198 -72.5q-52 0 -91 13zM462 273q0 68 -31 108l-153 -280q14 -6 37 -6q147 0 147 178zM166 273q0 -72 31 -112l155 283
q-18 7 -37 7q-149 0 -149 -178z" />
    <glyph glyph-name="ugrave" unicode="&#xf9;" horiz-adv-x="612" 
d="M66 148v398h123v-374q0 -73 72 -73q63 0 159 54v393h123v-546h-104l-10 60h-4q-119 -72 -200 -72q-77 0 -118 40.5t-41 119.5zM362 615h-95l-96 154h129z" />
    <glyph glyph-name="uacute" unicode="&#xfa;" horiz-adv-x="612" 
d="M66 148v398h123v-374q0 -73 72 -73q63 0 159 54v393h123v-546h-104l-10 60h-4q-119 -72 -200 -72q-77 0 -118 40.5t-41 119.5zM301 769h129l-96 -154h-95z" />
    <glyph glyph-name="ucircumflex" unicode="&#xfb;" horiz-adv-x="612" 
d="M66 148v398h123v-374q0 -73 72 -73q63 0 159 54v393h123v-546h-104l-10 60h-4q-119 -72 -200 -72q-77 0 -118 40.5t-41 119.5zM475 615h-106l-69 111l-69 -111h-107l100 158h151z" />
    <glyph glyph-name="udieresis" unicode="&#xfc;" horiz-adv-x="612" 
d="M66 148v398h123v-374q0 -73 72 -73q63 0 159 54v393h123v-546h-104l-10 60h-4q-119 -72 -200 -72q-77 0 -118 40.5t-41 119.5zM373 740h109v-125h-109v125zM127 740h109v-125h-109v125z" />
    <glyph glyph-name="yacute" unicode="&#xfd;" horiz-adv-x="560" 
d="M543 546l-239 -751h-128l68 205h-52l-176 546h134l125 -414h9l128 414h131zM286 769h129l-96 -154h-95z" />
    <glyph glyph-name="thorn" unicode="&#xfe;" horiz-adv-x="610" 
d="M191 6v-211h-122v925h122v-231q94 68 182 68q85 0 140.5 -69t55.5 -201q0 -144 -65 -220t-193 -76q-55 0 -120 15zM443 280q0 84 -28.5 126.5t-80.5 42.5q-63 0 -143 -56v-286q61 -15 105 -15q147 0 147 188z" />
    <glyph glyph-name="ydieresis" unicode="&#xff;" horiz-adv-x="560" 
d="M543 546l-239 -751h-128l68 205h-52l-176 546h134l125 -414h9l128 414h131zM357 738h109v-125h-109v125zM111 738h109v-125h-109v125z" />
    <glyph glyph-name="dotlessi" unicode="&#x131;" horiz-adv-x="261" 
d="M69 546h123v-546h-123v546z" />
    <glyph glyph-name="Lslash" unicode="&#x141;" horiz-adv-x="569" 
d="M101 272l-103 -52v112l103 52v336h127v-272l176 88v-114l-176 -88v-222h331v-112h-458v272z" />
    <glyph glyph-name="lslash" unicode="&#x142;" horiz-adv-x="330" 
d="M100 763h123v-270l100 55v-114l-100 -55v-379h-123v311l-89 -49v111l89 50v340z" />
    <glyph glyph-name="OE" unicode="&#x152;" horiz-adv-x="1022" 
d="M494 720h484v-113h-357v-188h307v-113h-307v-194h355v-112h-481q-60 -12 -121 -12q-164 0 -246 96.5t-82 275.5t82 275.5t246 96.5q62 0 120 -12zM175 360q0 -260 201 -260q65 0 118 13v489q-62 18 -118 18q-201 0 -201 -260z" />
    <glyph glyph-name="oe" unicode="&#x153;" horiz-adv-x="1003" 
d="M591 329h243q0 132 -118 132q-48 4 -87 -33t-38 -99zM523 464q64 94 200 94q237 0 237 -262v-56h-368q2 -72 43 -108.5t130 -36.5q71 0 185 34v-106q-117 -35 -214 -35q-152 0 -214 93q-33 -49 -94 -71.5t-114 -20.5q-122 0 -198 71t-76 213q0 141 76 213t198 72
q69 2 127.5 -27t81.5 -67zM463 273q0 179 -148 179t-148 -179q0 -178 148 -178t148 178z" />
    <glyph glyph-name="Scaron" unicode="&#x160;" horiz-adv-x="577" 
d="M256 97q155 0 155 114q0 37 -21 59q-10 12 -38 23q-29 12 -106 22q-102 14 -150.5 59.5t-51.5 145.5q0 212 277 212q8 0 50 -2q31 -2 135 -12v-112q-125 17 -183 17q-150 0 -150 -100q0 -39 26 -62q25 -23 117 -36q95 -15 128 -33q33 -16 53 -39q43 -46 43 -137
q0 -46 -14 -85t-44.5 -72t-85.5 -52t-130 -19q-104 0 -213 21v113q131 -25 203 -25zM116 933h107l69 -112l69 112h106l-97 -158h-155z" />
    <glyph glyph-name="scaron" unicode="&#x161;" horiz-adv-x="495" 
d="M228 92q106 0 106 70q0 29 -24.5 42t-96.5 25q-99 15 -134 55q-36 41 -36 103q0 57 28 97q50 74 199 74q74 0 161 -14l-4 -106q-89 15 -143 15q-115 0 -115 -60q0 -23 19 -38q20 -16 92 -26q47 -8 76 -17.5t54 -27t36.5 -46t13.5 -71.5q0 -179 -226 -179q-90 0 -187 12
l4 109q122 -17 177 -17zM76 773h107l69 -112l69 112h106l-97 -158h-155z" />
    <glyph glyph-name="Ydieresis" unicode="&#x178;" horiz-adv-x="622" 
d="M374 246v-246h-126v246l-246 474h143l167 -343h6l161 343h141zM383 900h109v-125h-109v125zM137 900h109v-125h-109v125z" />
    <glyph glyph-name="Zcaron" unicode="&#x17d;" horiz-adv-x="647" 
d="M39 720h556v-119l-392 -492h409v-109h-566v119l394 492h-401v109zM158 933h107l69 -112l69 112h106l-97 -158h-155z" />
    <glyph glyph-name="zcaron" unicode="&#x17e;" horiz-adv-x="549" 
d="M334 441h-295v105h457v-88l-285 -353h305v-105h-471v89zM101 773h107l69 -112l69 112h106l-97 -158h-155z" />
    <glyph glyph-name="florin" unicode="&#x192;" horiz-adv-x="598" 
d="M360 276v-246q0 -122 -56 -184.5t-165 -62.5q-58 0 -112 9l10 105q36 -10 79 -10q66 0 93 35.5t27 118.5v235h-136v103h136v127q0 131 56 193t171 62q57 0 106 -9l-11 -104q-32 9 -78 9q-66 0 -94 -36t-28 -118v-124h155v-103h-153z" />
    <glyph glyph-name="circumflex" unicode="&#x2c6;" horiz-adv-x="680" 
d="M514 615h-106l-69 111l-69 -111h-107l100 158h151z" />
    <glyph glyph-name="caron" unicode="&#x2c7;" horiz-adv-x="680" 
d="M163 773h107l69 -112l69 112h106l-97 -158h-155z" />
    <glyph glyph-name="breve" unicode="&#x2d8;" horiz-adv-x="638" 
d="M319 613q-55 0 -104.5 17t-79.5 47l24 73q78 -46 160 -46t160 46l23 -73q-19 -24 -72.5 -44.5t-110.5 -19.5z" />
    <glyph glyph-name="dotaccent" unicode="&#x2d9;" horiz-adv-x="347" 
d="M127 739h102v-123h-102v123z" />
    <glyph glyph-name="ring" unicode="&#x2da;" horiz-adv-x="447" 
d="M172 697q0 -22 12.5 -35.5t36.5 -13.5t36.5 13.5t12.5 35.5t-12.5 35.5t-36.5 13.5t-36.5 -13.5t-12.5 -35.5zM109 697q0 46 30.5 74t81.5 28t81.5 -28t30.5 -74q2 -47 -35 -75.5t-77 -25.5q-40 -3 -77 25.5t-35 75.5z" />
    <glyph glyph-name="ogonek" unicode="&#x2db;" horiz-adv-x="463" 
d="M219 0h79q-70 -58 -70 -114q0 -28 24.5 -44.5t66.5 -16.5q20 0 32 4v-72q-39 -10 -79 -10q-77 0 -114 39q-27 30 -27 71q0 37 23.5 76.5t64.5 66.5z" />
    <glyph glyph-name="tilde" unicode="&#x2dc;" horiz-adv-x="702" 
d="M124 619v96q62 57 123 57q43 0 100 -33q65 -37 108 -37q63 0 123 57v-96q-62 -57 -123 -57q-43 0 -101 33q-64 37 -107 37q-63 0 -123 -57z" />
    <glyph glyph-name="hungarumlaut" unicode="&#x2dd;" horiz-adv-x="808" 
d="M205 769h129l-99 -154h-96zM405 769h129l-99 -154h-96z" />
    <glyph glyph-name="uni03A9" unicode="&#x3a9;" horiz-adv-x="772" 
d="M386 602q-90 0 -148 -60q-58 -59 -58 -150q0 -77 48 -155q49 -79 118 -119v-118h-299v116h162q-68 46 -111 123t-43 167q0 129 94.5 220.5t236.5 91.5q143 0 237.5 -91.5t94.5 -220.5q0 -90 -43 -167t-111 -123h162v-116h-299v118q71 41 118 118q48 78 48 156
q4 85 -59 149.5t-148 60.5z" />
    <glyph glyph-name="uni03BC" unicode="&#x3bc;" horiz-adv-x="615" 
d="M69 -205v750h122v-376q0 -70 73 -70q63 0 159 54v392h123v-545h-105l-10 60h-4q-115 -72 -200 -72q-23 0 -36 12v-205h-122z" />
    <glyph glyph-name="pi" unicode="&#x3c0;" horiz-adv-x="742" 
d="M701 447h-148v-286q0 -59 65 -59q30 0 78 12v-109q-80 -15 -118 -15q-75 0 -111.5 38t-36.5 117v302h-159v-447h-123v447h-129v99h682v-99z" />
    <glyph glyph-name="endash" unicode="&#x2013;" horiz-adv-x="602" 
d="M539 216h-476v112h476v-112z" />
    <glyph glyph-name="emdash" unicode="&#x2014;" horiz-adv-x="823" 
d="M760 216h-697v112h697v-112z" />
    <glyph glyph-name="quoteleft" unicode="&#x2018;" horiz-adv-x="232" 
d="M114 748h54v-257h-108q-4 25 -4 60q0 99 58 197z" />
    <glyph glyph-name="quoteright" unicode="&#x2019;" horiz-adv-x="222" 
d="M118 486h-53v257h108q3 -18 3 -52q0 -107 -58 -205z" />
    <glyph glyph-name="quotesinglbase" unicode="&#x201a;" horiz-adv-x="241" 
d="M120 -120h-54v256h108q4 -21 4 -52q0 -99 -58 -204z" />
    <glyph glyph-name="quotedblleft" unicode="&#x201c;" horiz-adv-x="422" 
d="M305 747h53v-257h-108q-3 27 -3 52q0 107 58 205zM114 747h53v-257h-108q-3 31 -3 61q0 92 58 196z" />
    <glyph glyph-name="quotedblright" unicode="&#x201d;" horiz-adv-x="413" 
d="M118 486h-53v257h108q3 -27 3 -52q0 -107 -58 -205zM309 486h-53v257h108q3 -31 3 -61q0 -92 -58 -196z" />
    <glyph glyph-name="quotedblbase" unicode="&#x201e;" horiz-adv-x="411" 
d="M119 -120h-53v256h108q4 -21 4 -53q0 -98 -59 -203zM290 -120h-53v256h108q3 -27 3 -52q0 -106 -58 -204z" />
    <glyph glyph-name="dagger" unicode="&#x2020;" horiz-adv-x="476" 
d="M299 408v-374h-122v374h-144v113h144v181h122v-181h144v-113h-144z" />
    <glyph glyph-name="daggerdbl" unicode="&#x2021;" horiz-adv-x="514" 
d="M52 198v113h144v97h-144v113h144v181h122v-181h144v-113h-144v-97h144v-113h-144v-165h-122v165h-144z" />
    <glyph glyph-name="bullet" unicode="&#x2022;" horiz-adv-x="328" 
d="M241 276h-154v153h154v-153z" />
    <glyph glyph-name="ellipsis" unicode="&#x2026;" horiz-adv-x="763" 
d="M65 136h108v-136h-108v136zM333 136h108v-136h-108v136zM589 136h109v-136h-109v136z" />
    <glyph glyph-name="perthousand" unicode="&#x2030;" horiz-adv-x="1087" 
d="M161 0l339 720h90l-340 -720h-89zM32 560q0 80 36 126t107 46q70 3 108 -46.5t36 -125.5q2 -76 -36 -125.5t-108 -46.5q-71 0 -107 46t-36 126zM239 560q0 109 -64 109q-63 0 -63 -109t63 -109q64 0 64 109zM432 165q0 80 36 126t107 46q70 3 108 -46.5t36 -125.5
q2 -76 -36 -125.5t-108 -46.5q-71 0 -107 46t-36 126zM639 165q0 109 -64 109q-63 0 -63 -109t63 -109q64 0 64 109zM769 165q0 80 36 126t107 46q70 3 108 -46.5t36 -125.5q2 -76 -36 -125.5t-108 -46.5q-71 0 -107 46t-36 126zM976 165q0 109 -64 109q-63 0 -63 -109
t63 -109q64 0 64 109z" />
    <glyph glyph-name="guilsinglleft" unicode="&#x2039;" horiz-adv-x="344" 
d="M37 273l153 258h118l-152 -258l152 -259h-117z" />
    <glyph glyph-name="guilsinglright" unicode="&#x203a;" horiz-adv-x="344" 
d="M307 272l-154 -258h-117l152 258l-152 259h117z" />
    <glyph glyph-name="fraction" unicode="&#x2044;" horiz-adv-x="522" 
d="M95 -93h-105l440 856h106z" />
    <glyph glyph-name="Euro" unicode="&#x20ac;" horiz-adv-x="710" 
d="M132 400h-88v103h106q30 110 111 169.5t203 59.5q102 0 192 -23v-120q-109 23 -170 23q-154 0 -198 -109h227v-103h-253l-1 -36q0 -29 2 -47h252v-103h-219q42 -108 169 -108q90 0 192 30l1 -119q-81 -29 -193 -29q-111 0 -192 48q-90 57 -123 178h-106v103h89
q-2 24 -2 46z" />
    <glyph glyph-name="trademark" unicode="&#x2122;" horiz-adv-x="736" 
d="M294 720v-60h-86v-208h-65v208h-84v60h235zM497 523h4l59 197h104v-268h-64v199h-4l-63 -200h-70l-63 200h-4v-199h-64v268h104z" />
    <glyph glyph-name="minus" unicode="&#x2212;" horiz-adv-x="605" 
d="M538 224h-471v100h471v-100z" />
    <glyph glyph-name="radical" unicode="&#x221a;" horiz-adv-x="723" 
d="M14 523h230l115 -427l12 -42q6 -20 14 -47l194 818h142l-255 -1002h-162l-166 586h-124v114z" />
    <glyph glyph-name="infinity" unicode="&#x221e;" horiz-adv-x="1030" 
d="M973 277q0 -88 -58 -142.5t-149 -54.5q-48 0 -108 24q-58 24 -144 99q-135 -123 -250 -123q-80 0 -139 44q-68 54 -68 153q0 76 48 132q55 64 159 64q49 2 116 -29t135 -93q141 122 251 122q86 4 148.5 -55t58.5 -141zM168 277q0 -39 26 -62t73 -23q36 0 72 16
q40 17 107 69q-64 50 -107 68q-36 16 -72 16q-46 0 -72.5 -23t-26.5 -61zM862 277q0 38 -26.5 61t-72.5 23q-37 0 -76.5 -18.5t-101.5 -65.5q70 -53 106 -69q37 -15 72 -15q47 0 73 22.5t26 61.5z" />
    <glyph glyph-name="integral" unicode="&#x222b;" horiz-adv-x="411" 
d="M267 588v-634q0 -91 -42.5 -139t-125.5 -48q-47 0 -90 9l8 105q32 -7 62 -7q66 0 66 93v634q0 91 42.5 139t125.5 48q31 0 42 -1q23 -2 48 -8l-8 -105q-36 6 -62 6q-66 0 -66 -92z" />
    <glyph glyph-name="approxequal" unicode="&#x2248;" horiz-adv-x="578" 
d="M483 428l31 -88q-57 -48 -121 -48q-29 0 -96 24q-66 25 -104 25q-45 0 -95 -29l-36 86q68 46 122 46q24 0 46 -6q30 -8 77 -25q54 -19 79 -19q49 0 97 34zM484 227l30 -87q-55 -49 -120 -49q-28 0 -87 21q-57 22 -81 25q-20 4 -32 4q-46 0 -95 -29l-36 85q65 45 121 45
q39 0 107 -25q69 -24 96 -24q54 0 97 34z" />
    <glyph glyph-name="notequal" unicode="&#x2260;" horiz-adv-x="592" 
d="M282 334h-222v100h276l50 93h84l-50 -93h112v-100h-167l-64 -119h231v-101h-286l-47 -89h-83l48 89h-104v101h158z" />
    <glyph glyph-name="lessequal" unicode="&#x2264;" horiz-adv-x="595" 
d="M528 544l-378 -154l378 -153v-109l-472 198v129l472 198v-109zM528 0h-472v89h472v-89z" />
    <glyph glyph-name="greaterequal" unicode="&#x2265;" horiz-adv-x="595" 
d="M67 128v109l378 153l-378 154v109l472 -198v-129zM67 89h472v-89h-472v89z" />
    <glyph glyph-name="lozenge" unicode="&#x25ca;" horiz-adv-x="554" 
d="M156 335l120 -196l122 196l-122 195zM28 337l211 333h76l212 -337l-212 -333h-76z" />
    <glyph glyph-name="NULL" horiz-adv-x="0" 
 />
    </font>
</defs>
</svg>
