<?xml version="1.0" standalone="no"?>
<!DOCTYPE svg PUBLIC "-//W3C//DTD SVG 1.1//EN" "http://www.w3.org/Graphics/SVG/1.1/DTD/svg11.dtd" >
<svg xmlns="http://www.w3.org/2000/svg" xmlns:xlink="http://www.w3.org/1999/xlink" version="1.1">
<metadata>
Created by FontForge 20170731 at Sun Mar 24 19:57:08 2019
 By Aleksey,,,
Copyright (c) 2013 by PSTL. All rights reserved. |DCNT
</metadata>
<defs>
<font id="Quatro-RegularItalic" horiz-adv-x="263" >
  <font-face 
    font-family="Quatro"
    font-weight="400"
    font-style="italic"
    font-stretch="normal"
    units-per-em="1000"
    panose-1="2 11 5 3 0 0 0 9 0 4"
    ascent="742"
    descent="-258"
    x-height="540"
    cap-height="720"
    bbox="-121 -258 1054 928"
    underline-thickness="50"
    underline-position="-275"
    slope="-12.5"
    unicode-range="U+000D-FB02"
  />
<missing-glyph horiz-adv-x="570" 
d="M545 670l-111 -670h-410l111 670h410zM105 69h272l87 532h-272z" />
    <glyph glyph-name="fi" unicode="fi" horiz-adv-x="617" 
d="M516 730h86l-20 -100h-87zM388 114l90 426h85l-89 -415q-15 -67 52 -67l37 4l-12 -60q-29 -7 -70 -7q-55 0 -79.5 32t-13.5 87zM474 766l-12 -65q-59 10 -93 10q-48 0 -80 -23q-31 -22 -46 -96l-11 -52h166l-14 -68h-164l-141 -677h-85l143 677h-67l11 57l70 11l12 57
q22 98 65.5 137.5t135.5 42.5q52 0 110 -11z" />
    <glyph glyph-name="fl" unicode="fl" horiz-adv-x="618" 
d="M474 766l-12 -65q-59 10 -93 10q-48 0 -80 -23q-31 -22 -46 -96l-11 -52h166l-14 -68h-164l-141 -677h-85l143 677h-67l11 57l70 11l12 57q22 98 65.5 137.5t135.5 42.5q52 0 110 -11zM523 763h85l-136 -638q-15 -67 52 -67l37 4l-12 -60q-29 -7 -71 -7q-55 0 -79.5 32
t-13.5 87z" />
    <glyph glyph-name=".notdef" horiz-adv-x="570" 
d="M545 670l-111 -670h-410l111 670h410zM105 69h272l87 532h-272z" />
    <glyph glyph-name=".null" horiz-adv-x="0" 
 />
    <glyph glyph-name="nonmarkingreturn" horiz-adv-x="333" 
 />
    <glyph glyph-name="CR" unicode="&#xd;" horiz-adv-x="230" 
 />
    <glyph glyph-name="space" unicode=" " horiz-adv-x="262" 
 />
    <glyph glyph-name="exclam" unicode="!" horiz-adv-x="268" 
d="M180 720h83l-106 -497h-83zM113 0h-88l22 104h88z" />
    <glyph glyph-name="quotedbl" unicode="&#x22;" horiz-adv-x="340" 
d="M181 514h-62l24 206h62zM322 514h-61l25 206h61z" />
    <glyph glyph-name="numbersign" unicode="#" horiz-adv-x="698" 
d="M217 388h-119l30 75h119l71 174h81l-70 -174h168l70 174h82l-70 -174h114l-30 -75h-115l-61 -147h119l-29 -73h-119l-70 -168h-83l71 168h-169l-71 -168h-81l71 168h-118l30 73h118zM466 388h-168l-62 -147h169z" />
    <glyph glyph-name="dollar" unicode="$" horiz-adv-x="569" 
d="M203 64q88 -3 152.5 46.5t60.5 121.5q0 33 -21 54q-11 11 -35 22q-22 10 -90 27q-71 17 -95 28q-26 13 -43 27q-39 37 -39 97q0 107 67.5 167t182.5 73l20 93h75l-19 -89q79 -2 157 -11l-17 -79q-89 15 -168 15q-98 0 -152 -39.5t-54 -107.5q0 -33 23 -56q25 -23 108 -41
q84 -18 111 -30q82 -36 82 -122q0 -109 -66 -180t-182 -87l-16 -84h-75l15 79q-93 2 -187 18l16 80q116 -22 189 -22z" />
    <glyph glyph-name="percent" unicode="%" horiz-adv-x="746" 
d="M104 0l492 720h68l-493 -720h-67zM82 499q0 56 18.5 107.5t61 88.5t100.5 37q54 0 81 -29t27 -81q0 -107 -51 -170.5t-130 -63.5q-53 0 -80 29.5t-27 81.5zM199 435q29 0 57 20q26 19 43 66q16 45 16 92q0 72 -63 72q-53 3 -85.5 -57.5t-29.5 -119.5q0 -73 62 -73z
M399 104q0 56 18.5 107.5t61 88.5t100.5 37q54 0 81 -29t27 -81q0 -107 -51 -170.5t-130 -63.5q-53 0 -80 29.5t-27 81.5zM516 40q29 0 57 20q26 19 43 66q16 45 16 92q0 72 -63 72q-53 3 -85.5 -57.5t-29.5 -119.5q0 -73 62 -73z" />
    <glyph glyph-name="ampersand" unicode="&#x26;" horiz-adv-x="713" 
d="M639 705l-15 -71q-84 28 -175 28q-99 0 -167 -43.5t-68 -119.5q0 -45 37.5 -73t85.5 -28h355l-13 -66h-115l26 -332h-78l-7 80q-33 -22 -85 -45q-106 -47 -200 -47q-95 0 -147 41.5t-52 114.5q0 75 53 136q52 61 135 85q-38 17 -59 53t-21 80q0 102 91 168t229 66
q91 0 190 -27zM501 141l-14 192h-163q-92 0 -151 -49q-59 -50 -59 -121q-4 -42 35 -74.5t104 -31.5q53 0 122 22t126 62z" />
    <glyph glyph-name="quotesingle" unicode="'" horiz-adv-x="195" 
d="M170 513h-60l43 206h60z" />
    <glyph glyph-name="parenleft" unicode="(" horiz-adv-x="293" 
d="M23 107q0 341 270 656h82q-272 -332 -272 -641q0 -172 62 -326h-82q-60 147 -60 311z" />
    <glyph glyph-name="parenright" unicode=")" horiz-adv-x="293" 
d="M258 452q0 -341 -270 -656h-82q272 332 272 641q0 172 -62 326h82q60 -147 60 -311z" />
    <glyph glyph-name="asterisk" unicode="*" horiz-adv-x="459" 
d="M386 411l-55 -35l-64 120l-112 -121l-42 35l119 124l-133 45l28 53l129 -48l32 150h59l-32 -150l151 48l6 -52l-155 -46z" />
    <glyph glyph-name="plus" unicode="+" horiz-adv-x="559" 
d="M237 241h-200v72h200v197h72v-197h200v-72h-200v-197h-72v197z" />
    <glyph glyph-name="comma" unicode="," horiz-adv-x="211" 
d="M20 -99h-37l45 208h74q-12 -110 -82 -208z" />
    <glyph glyph-name="hyphen" unicode="-" horiz-adv-x="523" 
d="M435 232h-379l14 71h380z" />
    <glyph glyph-name="period" unicode="." horiz-adv-x="213" 
d="M28 111h76l-23 -111h-76z" />
    <glyph glyph-name="slash" unicode="/" horiz-adv-x="412" 
d="M5 -206h-75l463 969h77z" />
    <glyph glyph-name="zero" unicode="0" horiz-adv-x="659" 
d="M403 652q-64 1 -116 -42t-82.5 -109.5t-46 -138t-15.5 -134.5q0 -82 32.5 -121.5t103.5 -39.5q111 0 180 118q36 61 57.5 142.5t21.5 162.5q0 162 -135 162zM52 210q0 158 64 297q103 225 304 225q209 0 209 -224q0 -157 -64 -297q-103 -223 -304 -223q-209 0 -209 222z
" />
    <glyph glyph-name="one" unicode="1" horiz-adv-x="338" 
d="M336 720l-153 -720h-86l132 623l-148 -62l18 82l173 77h64z" />
    <glyph glyph-name="two" unicode="2" horiz-adv-x="536" 
d="M429 0h-448l15 73q195 147 232 178q59 52 91 85q103 105 103 203q0 55 -36.5 84.5t-102.5 29.5q-64 0 -158 -23l17 81q96 21 172 21q93 0 147.5 -43t54.5 -120q0 -58 -26 -124q-26 -64 -105 -146q-79 -84 -270 -221h330z" />
    <glyph glyph-name="three" unicode="3" horiz-adv-x="536" 
d="M130 629l16 78q31 8 93 17q50 7 94 7q89 0 138 -40t49 -101q0 -64 -46 -127q-20 -29 -56 -55.5t-68 -39.5q39 -6 75 -46.5t34 -90.5q0 -64 -39 -122q-31 -49 -105.5 -85.5t-159.5 -35.5q-37 0 -84 4q-43 3 -85 8l16 76q71 -11 162 -11q51 0 101 18q48 18 75.5 56t27.5 86
q0 49 -42 74q-41 26 -97 26h-92l16 74h88q69 0 128.5 50t59.5 118q0 85 -130 85q-32 0 -90 -8q-54 -8 -79 -15z" />
    <glyph glyph-name="four" unicode="4" horiz-adv-x="622" 
d="M23 257l263 463h87l-260 -455h272l21 98l48 141h67l-50 -238h114l-17 -79h-114l-40 -187h-85l40 187h-360z" />
    <glyph glyph-name="five" unicode="5" horiz-adv-x="544" 
d="M168 66q88 0 154 54t66 141q0 96 -130 96h-172l77 363h392l-16 -78h-309l-45 -210h100q196 0 196 -149q0 -129 -93 -211.5t-232 -82.5q-27 0 -79 5q-51 5 -75 10l16 79q83 -17 150 -17z" />
    <glyph glyph-name="six" unicode="6" horiz-adv-x="607" 
d="M603 721l-16 -78q-53 11 -107 11q-90 0 -164 -48q-120 -79 -155 -238q131 52 221 52q72 2 121 -36.5t46 -108.5q0 -126 -88.5 -206.5t-210.5 -80.5q-93 0 -148 58.5t-55 159.5q-1 94 29.5 187.5t85.5 170t140.5 123.5t184.5 45q50 0 116 -11zM269 65q67 0 122 45
q65 53 65 143q0 91 -112 91q-88 0 -196 -47q-9 -48 -9 -84q0 -74 34 -111t96 -37z" />
    <glyph glyph-name="seven" unicode="7" horiz-adv-x="494" 
d="M168 0h-87q40 181 137 350q99 170 229 292h-355l17 78h450l-17 -80q-151 -143 -238 -294q-90 -154 -136 -346z" />
    <glyph glyph-name="eight" unicode="8" horiz-adv-x="596" 
d="M232 -12q-103 0 -156.5 40t-53.5 110q-3 54 45 128.5t129 109.5q-77 47 -77 125q0 90 78 160.5t192 70.5q86 0 136.5 -40t50.5 -105q0 -125 -150 -229q93 -50 93 -130q0 -104 -83.5 -172t-203.5 -68zM249 64q78 0 128.5 43.5t50.5 101.5q0 51 -63 86q-37 19 -72 31
q-41 14 -42 15q-46 -23 -91.5 -76.5t-43.5 -101.5q0 -44 35 -71.5t98 -27.5zM372 658q-65 0 -115 -44q-48 -44 -48 -101q-6 -74 157 -123q53 33 85.5 80.5t32.5 91.5q3 34 -27.5 65.5t-84.5 30.5z" />
    <glyph glyph-name="nine" unicode="9" horiz-adv-x="607" 
d="M26 -1l16 78q53 -11 107 -11q90 0 163 48q121 78 156 238q-131 -52 -221 -52q-72 -2 -121 36.5t-46 108.5q0 126 88.5 206.5t210.5 80.5q93 0 148 -58.5t55 -159.5q1 -94 -29.5 -187.5t-85.5 -170t-140.5 -123.5t-184.5 -45q-50 0 -116 11zM360 655q-67 0 -122 -45
q-65 -53 -65 -143q0 -91 112 -91q88 0 196 47q9 48 9 84q0 74 -34 111t-96 37z" />
    <glyph glyph-name="colon" unicode=":" horiz-adv-x="221" 
d="M30 111h77l-23 -111h-77zM100 442h77l-23 -112h-77z" />
    <glyph glyph-name="semicolon" unicode=";" horiz-adv-x="222" 
d="M100 441h77l-23 -111h-77zM22 -101h-37l45 212h75q-2 -48 -24.5 -106.5t-58.5 -105.5z" />
    <glyph glyph-name="less" unicode="&#x3c;" horiz-adv-x="595" 
d="M503 497v-82l-403 -155l403 -155v-82l-470 191v92z" />
    <glyph glyph-name="equal" unicode="=" horiz-adv-x="680" 
d="M568 347h-472v72h472v-72zM568 126h-472v73h472v-73z" />
    <glyph glyph-name="greater" unicode="&#x3e;" horiz-adv-x="595" 
d="M72 23v82l403 155l-403 155v82l470 -191v-92z" />
    <glyph glyph-name="question" unicode="?" horiz-adv-x="451" 
d="M188 195h-80q0 148 125 239l43 30q42 30 65 53q47 46 47 94q3 31 -31.5 57.5t-99.5 25.5q-59 0 -144 -24l17 80q11 3 66 13q47 10 105 10q86 0 134 -37t48 -100q0 -86 -73 -152q-34 -31 -73 -60l-50 -37q-99 -75 -99 -192zM156 0h-85l17 80h85z" />
    <glyph glyph-name="at" unicode="@" horiz-adv-x="938" 
d="M631 40q-43 0 -76 20.5t-36 61.5q0 9 2 17q-70 -65 -136 -65q-47 -2 -75.5 32.5t-25.5 71.5q0 102 70 175.5t172 73.5q69 0 136 -39l-73 -225q-19 -61 56 -61q76 0 128 71q63 87 63 188q0 109 -75.5 167t-214.5 58q-118 0 -222 -59t-165 -165t-61 -229t76 -188.5
t228 -65.5q89 0 177 22l-6 -67q-98 -25 -202 -25q-157 0 -251.5 79t-94.5 228q0 195 108 336q80 102 193.5 152t236.5 50q154 0 250.5 -75t96.5 -202q0 -106 -57 -200q-38 -62 -95.5 -99.5t-126.5 -37.5zM527 188l57 167q-31 16 -69 16q-53 0 -106 -46.5t-53 -128.5
q0 -62 55 -62q51 0 116 54z" />
    <glyph glyph-name="A" unicode="A" horiz-adv-x="657" 
d="M44 0h-93l405 721h123l101 -721h-88l-23 166h-334zM409 646h-13l-225 -403h292z" />
    <glyph glyph-name="B" unicode="B" horiz-adv-x="638" 
d="M176 720h267q85 0 130 -39t45 -105q0 -61 -40 -119q-41 -60 -110 -89q51 -14 78.5 -47.5t27.5 -80.5q0 -100 -79 -170t-190 -70h-281zM126 75h190q74 0 120 46q48 46 48 110q0 48 -37 71.5t-86 23.5h-182zM246 644l-52 -244h168q71 0 119.5 48.5t48.5 110.5
q0 38 -30.5 61.5t-84.5 23.5h-169z" />
    <glyph glyph-name="C" unicode="C" horiz-adv-x="607" 
d="M52 238q0 99 28 188t79.5 157.5t131.5 108.5t178 40q91 0 180 -24l-18 -80q-84 28 -161 28q-146 2 -237.5 -114.5t-89.5 -280.5q0 -95 47 -146.5t139 -51.5q75 0 189 32l-15 -79q-103 -28 -190 -28q-121 0 -191 66.5t-70 183.5z" />
    <glyph glyph-name="D" unicode="D" horiz-adv-x="713" 
d="M256 0h-233l153 720h222q131 0 207.5 -67t76.5 -194q1 -87 -30 -170t-85.5 -148t-136 -103.5t-174.5 -37.5zM126 76h129q94 0 170 49q78 50 121 135q45 87 45 182t-53 148.5t-154 53.5h-138z" />
    <glyph glyph-name="E" unicode="E" horiz-adv-x="597" 
d="M23 0l153 720h460l-16 -76h-374l-52 -245h327l-15 -75h-328l-52 -248h372l-16 -76h-459z" />
    <glyph glyph-name="F" unicode="F" horiz-adv-x="582" 
d="M23 0l153 720h460l-17 -76h-373l-56 -264h331l-16 -76h-331l-65 -304h-86z" />
    <glyph glyph-name="G" unicode="G" horiz-adv-x="704" 
d="M501 656q-157 2 -259.5 -114t-100.5 -279q0 -201 210 -201q79 0 163 30l56 263h85l-68 -322q-144 -45 -260 -45q-129 0 -202.5 68t-73.5 189q-2 208 126 348.5t337 138.5q101 0 186 -24l-18 -79q-94 27 -181 27z" />
    <glyph glyph-name="H" unicode="H" horiz-adv-x="747" 
d="M23 0l153 720h86l-67 -317h398l67 317h86l-153 -720h-86l69 328h-398l-69 -328h-86z" />
    <glyph glyph-name="I" unicode="I" 
d="M109 0h-86l153 720h86z" />
    <glyph glyph-name="J" unicode="J" horiz-adv-x="262" 
d="M177 720h85l-134 -634q-13 -70 -66.5 -149.5t-144.5 -145.5l-38 67q136 103 163 230z" />
    <glyph glyph-name="K" unicode="K" horiz-adv-x="641" 
d="M342 213l-39 118l-134 -46l-59 -285h-87l153 720h86l-75 -354l70 22q127 41 187 86q113 86 113 246h86q-1 -101 -46 -180q-58 -112 -212 -179l65 -194q18 -54 45.5 -74.5t77.5 -20.5l-16 -74l-34 -2q-37 0 -68 15q-30 15 -56 56q-25 41 -57 146z" />
    <glyph glyph-name="L" unicode="L" horiz-adv-x="528" 
d="M23 0l153 720h86l-136 -644h346l-16 -76h-433z" />
    <glyph glyph-name="M" unicode="M" horiz-adv-x="906" 
d="M796 623l-362 -626h-108l-83 626h-5l-132 -623h-83l153 720h151l81 -617l47 69l310 548h140l-153 -720h-82l132 623h-6z" />
    <glyph glyph-name="N" unicode="N" horiz-adv-x="746" 
d="M592 0h-94l-265 581l-124 -581h-86l153 720h94l264 -588l125 588h86z" />
    <glyph glyph-name="O" unicode="O" horiz-adv-x="739" 
d="M317 63q103 0 180 75q121 119 124 327q0 98 -44 144.5t-134 46.5q-54 2 -118 -31t-105 -97q-41 -58 -61.5 -139t-18.5 -140q0 -186 177 -186zM50 230q0 73 16 145t49.5 137t81.5 114.5t116 78t147 27.5q120 0 185.5 -65.5t65.5 -178.5q0 -140 -56 -263
q-46 -101 -137.5 -170t-216.5 -67q-121 0 -186 63.5t-65 178.5z" />
    <glyph glyph-name="P" unicode="P" horiz-adv-x="600" 
d="M306 239h-146l-51 -239h-86l153 720h233q91 0 144 -48t53 -134q2 -118 -81 -209t-219 -90zM390 644h-144l-70 -330h136q77 -5 140.5 55.5t63.5 149.5q0 51 -27.5 88t-98.5 37z" />
    <glyph glyph-name="Q" unicode="Q" horiz-adv-x="739" 
d="M50 231q0 141 56 264q49 103 138.5 170t216.5 67q122 0 186.5 -65.5t64.5 -179.5q0 -158 -66 -282q-84 -154 -223 -198q37 -16 62 -54t28 -84h-105q-6 50 -34.5 82.5t-74.5 36.5q-50 0 -92 12t-78.5 38.5t-57.5 75.5t-21 117zM318 64q120 0 202 99q43 52 66 113
q36 94 36 191t-44 143t-134 46q-85 0 -155 -54q-38 -29 -73 -81q-34 -51 -55 -124.5t-21 -147.5q0 -185 178 -185z" />
    <glyph glyph-name="R" unicode="R" horiz-adv-x="624" 
d="M24 0l152 720h221q100 0 153 -43.5t53 -124.5q0 -83 -43.5 -155.5t-120.5 -111.5l87 -285h-92l-78 261l-63 -3h-128l-55 -258h-86zM388 644h-142l-66 -310h140q70 -5 131 52.5t61 143.5q0 50 -33 82t-91 32z" />
    <glyph glyph-name="S" unicode="S" horiz-adv-x="568" 
d="M203 64q88 -3 152.5 46.5t60.5 121.5q0 33 -21 54q-11 11 -35 22q-22 10 -90 27q-71 17 -95 28q-26 13 -43 27q-39 37 -39 97q0 122 87 183t228 61q49 0 168 -11l-17 -79q-115 15 -168 15q-98 0 -152 -39.5t-54 -107.5q0 -33 23 -56q25 -23 108 -41q84 -18 111 -30
q82 -36 82 -122q0 -125 -85 -198q-86 -74 -230 -74q-101 0 -196 18l16 80q116 -22 189 -22z" />
    <glyph glyph-name="T" unicode="T" horiz-adv-x="611" 
d="M97 720h591l-16 -76h-252l-137 -644h-86l137 644h-253z" />
    <glyph glyph-name="U" unicode="U" horiz-adv-x="712" 
d="M717 720l-103 -488q-21 -101 -103 -172.5t-223 -71.5q-116 0 -181.5 61.5t-40.5 181.5l103 489h86l-105 -494q-14 -63 18 -111q37 -52 132 -52q82 0 147 46.5t80 116.5l104 494h86z" />
    <glyph glyph-name="V" unicode="V" horiz-adv-x="640" 
d="M615 720h95l-398 -720h-116l-98 720h90l80 -628h9z" />
    <glyph glyph-name="W" unicode="W" horiz-adv-x="958" 
d="M686 -4h-117l-36 565h-6l-282 -565h-113l-21 724h87l19 -609h5l298 609h97l34 -609h5l276 609h87z" />
    <glyph glyph-name="X" unicode="X" horiz-adv-x="608" 
d="M561 720h104l-291 -355l165 -365h-96l-135 307l-259 -307h-105l322 379l-151 341h92l125 -286z" />
    <glyph glyph-name="Y" unicode="Y" horiz-adv-x="594" 
d="M327 258l-55 -258h-86l55 258l-146 462h93l113 -380l268 380h98z" />
    <glyph glyph-name="Z" unicode="Z" horiz-adv-x="630" 
d="M127 720h539l-17 -82l-549 -562h448l-17 -76h-551l17 83l548 561h-435z" />
    <glyph glyph-name="bracketleft" unicode="[" horiz-adv-x="297" 
d="M28 -205l126 968h134l-4 -75h-59l-118 -818h58l-4 -75h-133z" />
    <glyph glyph-name="backslash" unicode="\" horiz-adv-x="459" 
d="M326 -205h-76l-131 968h78z" />
    <glyph glyph-name="bracketright" unicode="]" horiz-adv-x="297" 
d="M257 763l-127 -968h-133l5 74h58l117 819h-59l5 75h134z" />
    <glyph glyph-name="asciicircum" unicode="^" horiz-adv-x="461" 
d="M65 386l196 317h65l113 -317h-80l-71 216l-45 -62l-93 -154h-85z" />
    <glyph glyph-name="underscore" unicode="_" horiz-adv-x="508" 
d="M386 -5h-377l5 67h376z" />
    <glyph glyph-name="grave" unicode="`" horiz-adv-x="500" 
d="M290 618h-62l-58 145h87z" />
    <glyph glyph-name="a" unicode="a" horiz-adv-x="593" 
d="M561 520l-108 -520h-67l2 66q-40 -34 -91.5 -54t-99.5 -20q-73 0 -121 47.5t-48 136.5q0 83 28.5 158.5t81.5 127.5q46 50 120.5 71.5t110.5 17.5q88 0 192 -31zM395 130l71 335q-63 17 -104 17q-73 0 -131 -42q-48 -31 -83.5 -102t-34.5 -139q-1 -75 35.5 -107t81.5 -30
q41 0 86 19t79 49z" />
    <glyph glyph-name="b" unicode="b" horiz-adv-x="610" 
d="M220 -12q-44 0 -106 8q-49 6 -100 19l157 748h85l-62 -288q122 77 216 77q70 0 114 -45t44 -131q0 -109 -43 -199t-122.5 -139.5t-182.5 -49.5zM181 406l-70 -332q57 -18 116 -18q111 0 181.5 87t70.5 213q0 59 -29 91.5t-78 32.5q-78 0 -191 -74z" />
    <glyph glyph-name="c" unicode="c" horiz-adv-x="526" 
d="M270 58q76 0 166 28l-15 -72q-93 -26 -176 -26q-99 0 -157.5 49.5t-58.5 145.5q0 129 66 230q53 78 125.5 108.5t141.5 30.5q82 0 166 -27l-15 -72q-87 29 -153 29q-104 0 -174 -82t-70 -201q0 -69 39.5 -105t114.5 -36z" />
    <glyph glyph-name="d" unicode="d" horiz-adv-x="609" 
d="M627 763l-160 -763h-64l1 66q-48 -35 -104.5 -55.5t-105.5 -20.5q-73 0 -119 48.5t-46 147.5q-1 68 21 132.5t64 117.5t109.5 85t150.5 31q61 0 124 -16l48 227h81zM412 130l70 336q-54 16 -103 16q-114 0 -184 -74q-81 -84 -81 -206q0 -70 30.5 -105t83.5 -35
q87 0 184 68z" />
    <glyph glyph-name="e" unicode="e" horiz-adv-x="558" 
d="M460 98l-8 -75q-111 -35 -203 -35q-103 0 -161.5 48.5t-58.5 145.5q0 126 60 224q40 66 106.5 106t150.5 40q88 0 136 -38.5t48 -103.5q0 -86 -63 -130t-181 -44q-69 0 -161 16q-7 -34 -7 -65q0 -61 38.5 -95t114.5 -34q97 0 189 40zM133 306q75 -11 136 -11
q181 0 181 109q0 39 -29.5 62.5t-83.5 23.5q-64 4 -124.5 -45.5t-79.5 -138.5z" />
    <glyph glyph-name="f" unicode="f" horiz-adv-x="364" 
d="M474 766l-12 -65q-59 10 -93 10q-48 0 -80 -23q-31 -22 -46 -96l-11 -52h166l-14 -68h-164l-141 -677h-85l143 677h-67l11 57l70 11l12 57q22 98 65.5 137.5t135.5 42.5q52 0 110 -11z" />
    <glyph glyph-name="g" unicode="g" horiz-adv-x="608" 
d="M576 520l-101 -488q-8 -38 -22 -83q-52 -166 -253 -166q-103 0 -205 32q4 29 13 72q1 0 8.5 -2.5t17 -5.5t25 -7t30.5 -7q56 -14 104 -14q86 0 133 35.5t63 108.5l16 71q-100 -74 -207 -74q-81 0 -125 50.5t-44 143.5q0 68 22.5 133.5t60.5 110.5q105 121 274 121
q87 0 190 -31zM412 130l71 335q-63 17 -104 17q-102 6 -184 -76.5t-81 -206.5q0 -69 30.5 -103t84.5 -34q89 0 183 68z" />
    <glyph glyph-name="h" unicode="h" horiz-adv-x="614" 
d="M560 399l-85 -399h-84l82 386q19 96 -81 96q-74 0 -208 -70l-87 -412h-84l160 763h84l-61 -285q153 74 239 74q72 0 105.5 -41.5t19.5 -111.5z" />
    <glyph glyph-name="i" unicode="i" 
d="M162 730h86l-20 -100h-87zM34 114l90 426h85l-89 -415q-15 -67 52 -67l37 4l-12 -60q-29 -7 -70 -7q-55 0 -79.5 32t-13.5 87z" />
    <glyph glyph-name="j" unicode="j" horiz-adv-x="239" 
d="M126 540h84l-87 -422q-18 -92 -40 -138q-21 -48 -53 -83.5t-88 -74.5l-34 54q54 45 80 84.5t38 95.5zM164 730h87l-20 -100h-87z" />
    <glyph glyph-name="k" unicode="k" horiz-adv-x="540" 
d="M257 763l-99 -473l111 25q63 15 102 55t39 97q0 33 -10 73h78q9 -36 9 -72q0 -144 -160 -199q8 -83 45 -138.5t98 -69.5l-18 -65q-82 6 -134 75.5t-61 173.5l-113 -26l-46 -219h-84l159 763h84z" />
    <glyph glyph-name="l" unicode="l" horiz-adv-x="268" 
d="M174 763h85l-137 -638q-15 -67 52 -67l37 4l-12 -60q-29 -7 -70 -7q-55 0 -79.5 32t-13.5 87z" />
    <glyph glyph-name="m" unicode="m" horiz-adv-x="967" 
d="M789 552q72 0 104.5 -42.5t17.5 -115.5l-83 -394h-84l82 386q9 43 -10.5 69t-68.5 26q-63 0 -198 -69l-86 -412h-84l79 375q9 40 -8.5 72.5t-66.5 32.5q-30 0 -72 -12q-41 -10 -127 -57l-86 -411h-84l112 540h71l-5 -67q136 79 233 79q109 0 123 -84q147 84 241 84z" />
    <glyph glyph-name="n" unicode="n" horiz-adv-x="614" 
d="M558 394l-83 -394h-83l81 386q20 96 -78 96q-68 0 -212 -70l-86 -412h-84l113 540h70l-5 -66q155 78 245 78q72 0 104.5 -43t17.5 -115z" />
    <glyph glyph-name="o" unicode="o" horiz-adv-x="626" 
d="M350 483q-99 0 -166 -88t-67 -200q0 -139 142 -139q94 0 164 83t70 201q0 143 -143 143zM29 184q0 130 68 230q54 77 126 107.5t140 30.5q104 0 160.5 -51.5t56.5 -146.5q0 -154 -92 -260t-242 -106q-105 0 -161 50.5t-56 145.5z" />
    <glyph glyph-name="p" unicode="p" horiz-adv-x="607" 
d="M97 5l-44 -210h-82l155 745h70l-7 -67q125 79 224 79q69 0 110 -44t41 -129q0 -138 -62 -241q-41 -69 -107.5 -109.5t-153.5 -40.5q-68 0 -144 17zM234 59q74 0 131 45t84 111.5t27 141.5q0 60 -26.5 91.5t-75.5 31.5q-77 0 -191 -67l-72 -339q60 -15 123 -15z" />
    <glyph glyph-name="q" unicode="q" horiz-adv-x="612" 
d="M581 524l-153 -729h-84l58 263q-116 -69 -224 -69q-65 0 -107.5 48.5t-42.5 127.5q0 174 98 280.5t264 106.5q88 0 191 -28zM415 130l70 336q-54 15 -103 15q-117 0 -191 -81.5t-74 -215.5q0 -63 28 -93t76 -30q82 0 194 69z" />
    <glyph glyph-name="r" unicode="r" horiz-adv-x="374" 
d="M409 543l-18 -86q-34 -4 -84 -25q-48 -20 -135 -79l-74 -353h-85l113 540h80l-25 -119q127 120 228 122z" />
    <glyph glyph-name="s" unicode="s" horiz-adv-x="486" 
d="M167 58q73 0 117 30.5t44 83.5q0 23 -19 38q-17 15 -79 29q-68 15 -89 23q-80 32 -80 113q0 83 66.5 129.5t178.5 46.5q85 0 157 -18l-15 -71q-65 20 -142 20q-26 0 -51 -3.5t-50.5 -13t-40 -29t-13.5 -46.5q0 -26 19 -44q20 -18 88 -33q70 -14 95 -27q64 -30 64 -102
q0 -89 -68 -143q-68 -53 -181 -53q-91 0 -176 17l16 72q88 -19 159 -19z" />
    <glyph glyph-name="t" unicode="t" horiz-adv-x="366" 
d="M390 472h-173l-74 -355q-5 -26 9 -41.5t46 -15.5q34 0 88 16l-14 -72q-75 -14 -109 -14q-130 0 -105 129l75 353h-77l14 61q57 3 87.5 33.5t45.5 91.5h52l-24 -118h173z" />
    <glyph glyph-name="u" unicode="u" horiz-adv-x="613" 
d="M39 146l83 394h84l-82 -387q-9 -45 11 -70t67 -25q75 0 212 71l87 411h83l-113 -540h-70l6 65h-1q-146 -77 -245 -77q-71 0 -104 43t-18 115z" />
    <glyph glyph-name="v" unicode="v" horiz-adv-x="511" 
d="M142 -1l-75 541h87l56 -455l181 321q38 70 38 134h82q0 -76 -50 -165l-213 -376h-106z" />
    <glyph glyph-name="w" unicode="w" horiz-adv-x="936" 
d="M43 161l79 379h84l-81 -387q-9 -42 10.5 -68.5t59.5 -26.5q91 0 201 74q0 32 6 57l74 351h79l-76 -365q-12 -56 17 -85.5t93 -29.5q61 0 106 30.5t56 84.5l76 365h85l-78 -369q-16 -81 -81.5 -132t-177.5 -51q-63 0 -109 24t-61 66q-124 -90 -229 -90q-83 0 -117 46.5
t-16 126.5z" />
    <glyph glyph-name="x" unicode="x" horiz-adv-x="514" 
d="M29 95l168 178l-140 267h95l109 -213l124 134q45 47 45 79h83q0 -46 -62 -113l-153 -158l144 -269h-97l-112 211l-116 -127q-54 -58 -54 -84h-82q0 43 48 95z" />
    <glyph glyph-name="y" unicode="y" horiz-adv-x="521" 
d="M212 82h11l159 298q56 106 56 160h86q0 -24 -8 -59q-7 -30 -44 -99l-210 -387q-81 -147 -81 -200h-87q0 66 86 205h-38l-74 540h88z" />
    <glyph glyph-name="z" unicode="z" horiz-adv-x="523" 
d="M395 472h-323l14 68h434l-12 -58l-404 -414h339l-14 -68h-451l12 59z" />
    <glyph glyph-name="braceleft" unicode="{" horiz-adv-x="452" 
d="M395 701q-79 0 -116 -44q-19 -24 -30 -57q-9 -28 -17 -110q-8 -76 -12 -105q-4 -26 -15 -52q-19 -49 -66 -69l-1 -6q36 -14 36 -69q0 -45 -31 -132q-31 -90 -35 -110q-4 -21 -4 -37q0 -86 96 -86q46 0 125 18l-15 -76q-65 -16 -128 -16q-163 0 -163 132q0 58 30 144
q31 83 37 107q6 23 6 40q0 50 -54 50l-22 -1l16 79l22 -1q49 0 72 48q15 29 23 121q9 90 17 128q18 72 56 115q56 63 178 63q59 0 122 -17l-18 -75q-63 18 -109 18z" />
    <glyph glyph-name="bar" unicode="|" horiz-adv-x="254" 
d="M-23 -205l204 968h84l-205 -968h-83z" />
    <glyph glyph-name="braceright" unicode="}" horiz-adv-x="451" 
d="M270 306q-6 20 -6 42q0 43 31 132q32 93 32 129q0 43 -27 67.5t-78 24.5q-42 0 -115 -18l14 75q70 17 128 17q163 0 163 -131q0 -63 -31 -149q-29 -80 -37 -108q-5 -23 -5 -37q0 -50 55 -50l22 1l-17 -79l-21 1q-55 0 -78 -58q-12 -31 -24 -134q-10 -101 -27 -142
q-29 -76 -85 -108q-50 -31 -132 -31q-60 0 -120 16l18 76q70 -18 107 -18q88 0 125 62q23 37 32 124l12 113q7 52 28 84q22 38 59 53q-23 11 -23 46z" />
    <glyph glyph-name="asciitilde" unicode="~" horiz-adv-x="609" 
d="M534 347l-1 -62q-55 -24 -109 -24q-46 0 -121 19q-77 20 -112 20q-58 0 -118 -29l4 65q69 31 132 31q47 0 124 -20q75 -19 108 -19q49 0 93 19z" />
    <glyph glyph-name="uni00A0" unicode="&#xa0;" horiz-adv-x="262" 
 />
    <glyph glyph-name="exclamdown" unicode="&#xa1;" horiz-adv-x="248" 
d="M53 -222h-82l105 498h83zM120 499h89l-23 -104h-88z" />
    <glyph glyph-name="cent" unicode="&#xa2;" horiz-adv-x="527" 
d="M260 58q76 0 166 28l-15 -72q-77 -22 -147 -25l-31 -158h-75l32 160q-85 12 -128 62t-43 130q0 138 76 243t208 123l32 160h75l-32 -158q62 -3 140 -26l-15 -72q-87 29 -153 29q-104 0 -174 -82t-70 -201q0 -69 39.5 -105t114.5 -36z" />
    <glyph glyph-name="sterling" unicode="&#xa3;" horiz-adv-x="532" 
d="M495 729l-5 -77q-94 -18 -141 -68.5t-69 -148.5l-6 -30h185l-16 -78h-185l-11 -48q-32 -161 -116 -209q69 8 181 8h134l-17 -78h-457l25 72q40 4 71 25q32 21 52 62t37 120l11 48h-85l16 78h85l12 54q22 106 103 181.5t196 88.5z" />
    <glyph glyph-name="yen" unicode="&#xa5;" horiz-adv-x="646" 
d="M267 253h-209l15 72h175l-126 395h93l113 -382l269 382h97l-293 -395h176l-15 -72h-209l-15 -71h209l-16 -73h-209l-23 -109h-86l23 109h-208l16 73h208z" />
    <glyph glyph-name="brokenbar" unicode="&#xa6;" horiz-adv-x="259" 
d="M-21 -205l94 450h85l-95 -450h-84zM268 763l-95 -450h-85l95 450h85z" />
    <glyph glyph-name="section" unicode="&#xa7;" horiz-adv-x="528" 
d="M67 334q0 94 93 169q-29 29 -29 80q0 86 71 129.5t174 43.5q85 0 157 -18l-15 -71q-65 20 -142 20q-26 0 -51 -3.5t-50.5 -13t-40 -29t-13.5 -46.5q0 -21 12 -37q12 -15 34 -23.5t77 -20.5q81 -17 111 -47q32 -30 32 -84q0 -88 -97 -169q33 -28 33 -79q0 -89 -68 -142
q-67 -54 -181 -54q-91 0 -176 17l16 72q88 -19 159 -19q73 0 117 30.5t44 83.5q-3 16 -5.5 22t-13 16.5t-34.5 18t-65 15.5q-93 21 -124 59q-25 33 -25 80zM152 341q0 -30 23 -48q23 -17 78 -29q42 -9 71 -17q79 68 79 130q0 32 -35 48q-24 12 -72 22q-55 13 -72 19
q-72 -58 -72 -125z" />
    <glyph glyph-name="dieresis" unicode="&#xa8;" horiz-adv-x="833" 
d="M577 721h77l-21 -103h-77zM316 721h77l-21 -103h-77z" />
    <glyph glyph-name="copyright" unicode="&#xa9;" horiz-adv-x="860" 
d="M372 36q105 0 200 58q97 59 149 150q54 92 54 187q0 113 -73.5 184t-191.5 71q-146 0 -268 -108q-64 -56 -99.5 -132t-35.5 -154q0 -113 74 -184.5t191 -71.5zM827 439q0 -155 -111 -287q-64 -75 -157.5 -119.5t-196.5 -44.5q-134 0 -220 84t-86 212q0 124 67 230
q68 107 173 163q106 57 224 57q134 0 220.5 -84t86.5 -211zM490 481q-62 0 -103.5 -39.5t-41.5 -115.5q0 -77 93 -77q30 0 82 11l-12 -54q-46 -11 -87 -11q-64 0 -100.5 32t-36.5 91q0 94 58 155q59 62 151 62q44 0 83 -11l-12 -54q-46 11 -74 11z" />
    <glyph glyph-name="ordfeminine" unicode="&#xaa;" horiz-adv-x="449" 
d="M445 659l-72 -350h-49l2 45q-57 -49 -129 -49q-50 0 -82 33t-32 91q0 105 61.5 178t167.5 73q64 0 133 -21zM330 396l47 224q-31 10 -69 10q-76 0 -120 -58.5t-44 -126.5q0 -89 74 -89q59 0 112 40z" />
    <glyph glyph-name="guillemotleft" unicode="&#xab;" horiz-adv-x="524" 
d="M206 30h-79l-90 241l192 241h85l-199 -241zM414 30h-79l-90 241l192 241h85l-199 -241z" />
    <glyph glyph-name="logicalnot" unicode="&#xac;" horiz-adv-x="620" 
d="M74 309h470l-51 -235l-63 6l32 154h-404z" />
    <glyph glyph-name="registered" unicode="&#xae;" horiz-adv-x="532" 
d="M221 420l45 212h76q29 0 47 -13.5t18 -38.5q0 -24 -14 -46.5t-36 -33.5l23 -80h-41l-20 71h-42l-15 -71h-41zM329 599h-29l-16 -75h29q24 0 37.5 14t13.5 34q0 27 -35 27zM270 339q50 0 104 30q54 29 86.5 81.5t32.5 105.5q0 61 -40.5 101t-105.5 40q-82 0 -151 -66
t-69 -150q0 -63 40 -102.5t103 -39.5zM530 564q0 -103 -79 -181t-186 -78q-77 0 -127 48q-49 48 -49 121q-2 101 80 180.5t185 77.5q76 0 126 -48q50 -47 50 -120z" />
    <glyph glyph-name="macron" unicode="&#xaf;" horiz-adv-x="601" 
d="M493 628h-401l15 71h401z" />
    <glyph glyph-name="degree" unicode="&#xb0;" horiz-adv-x="313" 
d="M205 545q31 0 54 23.5t23 58.5q0 47 -50 47q-30 0 -53.5 -24.5t-23.5 -57.5q0 -47 50 -47zM196 503q-39 0 -63 21.5t-24 57.5q-1 62 45 100t87 34q39 0 63.5 -22t24.5 -58q0 -52 -37.5 -92.5t-95.5 -40.5z" />
    <glyph glyph-name="plusminus" unicode="&#xb1;" horiz-adv-x="626" 
d="M530 0h-472v66h472v-66zM258 330h-200v72h200v197h71v-197h201v-72h-201v-197h-71v197z" />
    <glyph glyph-name="twosuperior" unicode="&#xb2;" horiz-adv-x="407" 
d="M342 289h-289l11 54q136 84 198 146.5t62 118.5q0 57 -86 57q-43 0 -97 -14l13 61q70 15 117 15q58 0 91.5 -23.5t33.5 -71.5q0 -140 -229 -282h190z" />
    <glyph glyph-name="threesuperior" unicode="&#xb3;" horiz-adv-x="400" 
d="M140 650l13 60q57 16 120 16q61 0 96 -22t35 -65q2 -36 -30 -77.5t-74 -51.5q30 -8 48 -30t18 -50q0 -64 -57 -107t-152 -43q-47 0 -100 9l13 61q54 -9 89 -9q135 0 135 88q0 22 -20.5 38t-58.5 16h-62l10 50h58q40 0 74 22.5t34 61.5q0 48 -83 48q-36 0 -106 -15z" />
    <glyph glyph-name="acute" unicode="&#xb4;" horiz-adv-x="424" 
d="M206 763h93l-120 -145h-69z" />
    <glyph glyph-name="paragraph" unicode="&#xb6;" horiz-adv-x="540" 
d="M348 720h68l-94 -438h-73q-82 0 -130.5 45.5t-48.5 120.5q0 114 82 193t196 79zM456 720h86l-148 -696q-26 -123 -92.5 -180t-191.5 -57q-39 0 -86 6l16 77q44 -6 81 -6q79 0 124 37t63 123z" />
    <glyph glyph-name="periodcentered" unicode="&#xb7;" horiz-adv-x="223" 
d="M75 325h79l-23 -112h-79z" />
    <glyph glyph-name="cedilla" unicode="&#xb8;" horiz-adv-x="467" 
d="M91 -209l11 51q43 -8 73 -8q89 0 89 48q0 33 -106 33l4 15l55 70h58l-44 -53q99 0 99 -57q0 -26 -15 -51t-54.5 -40.5t-87.5 -15.5q-39 0 -82 8z" />
    <glyph glyph-name="onesuperior" unicode="&#xb9;" horiz-adv-x="265" 
d="M275 721l-91 -432h-67l75 357l-94 -34l14 64l117 45h46z" />
    <glyph glyph-name="ordmasculine" unicode="&#xba;" horiz-adv-x="458" 
d="M296 630q-61 4 -108 -59t-44 -133q0 -87 93 -87q60 0 105.5 54t46.5 135q0 90 -93 90zM81 432q0 54 23 112q22 54 76 95.5t126 40.5q23 1 47 -5t47.5 -20t38 -42t13.5 -66q0 -99 -62.5 -173t-162.5 -74q-25 0 -48 5.5t-46.5 19t-37.5 41t-14 66.5z" />
    <glyph glyph-name="guillemotright" unicode="&#xbb;" horiz-adv-x="524" 
d="M302 512h79l90 -241l-192 -241h-85l199 241zM94 512h79l90 -241l-192 -241h-85l199 241z" />
    <glyph glyph-name="onequarter" unicode="&#xbc;" horiz-adv-x="818" 
d="M403 158l158 273h68l-157 -269h149l15 68l31 81h54l-32 -150h66l-12 -59h-67l-22 -102h-67l22 102h-218zM279 721l-92 -432h-67l76 357l-95 -34l14 64l118 45h46zM73 -93h-75l622 856h75z" />
    <glyph glyph-name="onehalf" unicode="&#xbd;" horiz-adv-x="801" 
d="M276 721l-92 -432h-67l76 357l-95 -34l14 64l118 45h46zM70 -93h-75l622 856h75zM696 0h-290l12 54q135 82 197.5 145.5t62.5 119.5q0 57 -86 57q-43 0 -97 -14l13 61q70 15 117 15q58 0 91.5 -23.5t33.5 -71.5q0 -140 -229 -282h190z" />
    <glyph glyph-name="threequarters" unicode="&#xbe;" horiz-adv-x="922" 
d="M127 650l12 60q57 16 120 16q61 0 96 -21.5t35 -64.5q2 -37 -29.5 -78.5t-74.5 -51.5q31 -8 49 -30t18 -50q0 -64 -57 -107t-153 -43q-46 0 -100 9l14 61q53 -9 89 -9q61 0 98 22t37 66q0 25 -23 39.5t-57 14.5h-62l11 50h58q38 -2 73.5 21.5t33.5 62.5q0 48 -83 48
q-38 0 -105 -15zM508 158l158 273h68l-157 -269h149l15 68l31 81h54l-32 -150h66l-12 -59h-67l-22 -102h-67l22 102h-218zM178 -93h-75l622 856h75z" />
    <glyph glyph-name="questiondown" unicode="&#xbf;" horiz-adv-x="448" 
d="M241 320h80q0 -148 -125 -239l-44 -31q-38 -27 -65 -52q-46 -46 -46 -94q-3 -31 31.5 -57.5t99.5 -25.5q58 0 144 24l-17 -80q-11 -3 -66 -13q-47 -10 -105 -10q-86 0 -134 37t-48 100q0 84 72 152q30 27 73 59l51 38q99 75 99 192zM273 515h85l-17 -80h-85z" />
    <glyph glyph-name="Agrave" unicode="&#xc0;" horiz-adv-x="657" 
d="M44 0h-93l405 721h123l101 -721h-88l-23 166h-334zM409 646h-13l-225 -403h292zM456 775h-62l-58 145h87z" />
    <glyph glyph-name="Aacute" unicode="&#xc1;" horiz-adv-x="657" 
d="M44 0h-93l405 721h123l101 -721h-88l-23 166h-334zM409 646h-13l-225 -403h292zM490 920h93l-120 -145h-69z" />
    <glyph glyph-name="Acircumflex" unicode="&#xc2;" horiz-adv-x="657" 
d="M44 0h-93l405 721h123l101 -721h-88l-23 166h-334zM409 646h-13l-225 -403h292zM501 775l-55 117l-108 -117h-78l140 153h100l73 -153h-72z" />
    <glyph glyph-name="Atilde" unicode="&#xc3;" horiz-adv-x="657" 
d="M44 0h-93l405 721h123l101 -721h-88l-23 166h-334zM409 646h-13l-225 -403h292zM216 777l17 79q61 45 113 45q34 0 84 -24q47 -23 70 -28q17 -4 33 -4q53 0 120 47l-17 -79q-62 -45 -113 -45q-35 0 -85 24q-48 23 -69 28q-17 4 -33 4q-53 0 -120 -47z" />
    <glyph glyph-name="Adieresis" unicode="&#xc4;" horiz-adv-x="657" 
d="M44 0h-93l405 721h123l101 -721h-88l-23 166h-334zM409 646h-13l-225 -403h292zM545 878h77l-21 -103h-77zM284 878h77l-21 -103h-77z" />
    <glyph glyph-name="Aring" unicode="&#xc5;" horiz-adv-x="658" 
d="M319 746q0 51 38 87q37 36 92 36q41 0 64.5 -20t23.5 -54q0 -29 -15 -54t-39 -38l98 -703h-92l-22 166h-334l-91 -166h-92l396 703q-27 12 -27 43zM408 646h-14l-224 -403h291zM440 828q-29 0 -50.5 -21.5t-21.5 -51.5q0 -41 48 -41q28 0 50 20t22 52q0 19 -12.5 30.5
t-35.5 11.5z" />
    <glyph glyph-name="AE" unicode="&#xc6;" horiz-adv-x="993" 
d="M-60 0l541 720h551l-16 -76h-374l-52 -245h328l-16 -75h-328l-52 -248h372l-16 -76h-459l35 166h-289l-126 -166h-99zM555 642h-40l-299 -401h255z" />
    <glyph glyph-name="Ccedilla" unicode="&#xc7;" horiz-adv-x="607" 
d="M52 238q0 99 28 188t79.5 157.5t131.5 108.5t178 40q91 0 180 -24l-18 -80q-84 28 -161 28q-146 2 -237.5 -114.5t-89.5 -280.5q0 -95 47 -146.5t139 -51.5q75 0 189 32l-15 -79q-103 -28 -190 -28q-121 0 -191 66.5t-70 183.5zM155 -209l11 51q43 -8 73 -8q89 0 89 48
q0 33 -106 33l4 15l55 70h58l-44 -53q99 0 99 -57q0 -26 -15 -51t-54.5 -40.5t-87.5 -15.5q-39 0 -82 8z" />
    <glyph glyph-name="Egrave" unicode="&#xc8;" horiz-adv-x="597" 
d="M23 0l153 720h460l-16 -76h-374l-52 -245h327l-15 -75h-328l-52 -248h372l-16 -76h-459zM457 775h-62l-58 145h87z" />
    <glyph glyph-name="Eacute" unicode="&#xc9;" horiz-adv-x="597" 
d="M23 0l153 720h460l-16 -76h-374l-52 -245h327l-15 -75h-328l-52 -248h372l-16 -76h-459zM480 920h93l-120 -145h-69z" />
    <glyph glyph-name="Ecircumflex" unicode="&#xca;" horiz-adv-x="597" 
d="M23 0l153 720h460l-16 -76h-374l-52 -245h327l-15 -75h-328l-52 -248h372l-16 -76h-459zM495 775l-55 117l-108 -117h-78l140 153h100l73 -153h-72z" />
    <glyph glyph-name="Edieresis" unicode="&#xcb;" horiz-adv-x="597" 
d="M23 0l153 720h460l-16 -76h-374l-52 -245h327l-15 -75h-328l-52 -248h372l-16 -76h-459zM524 878h77l-21 -103h-77zM263 878h77l-21 -103h-77z" />
    <glyph glyph-name="Igrave" unicode="&#xcc;" 
d="M109 0h-86l153 720h86zM258 775h-62l-58 145h87z" />
    <glyph glyph-name="Iacute" unicode="&#xcd;" 
d="M109 0h-86l153 720h86zM292 920h93l-120 -145h-69z" />
    <glyph glyph-name="Icircumflex" unicode="&#xce;" 
d="M109 0h-86l153 720h86zM310 775l-55 117l-108 -117h-78l140 153h100l73 -153h-72z" />
    <glyph glyph-name="Idieresis" unicode="&#xcf;" 
d="M109 0h-86l153 720h86zM343 878h77l-21 -103h-77zM82 878h77l-21 -103h-77z" />
    <glyph glyph-name="Eth" unicode="&#xd0;" horiz-adv-x="748" 
d="M292 0h-233l67 317h-124l16 77h124l70 326h233q126 0 199.5 -66.5t73.5 -192.5q1 -86 -30 -169.5t-85.5 -148.5t-136 -104.5t-174.5 -38.5zM161 76h130q94 0 170 49q78 50 121 135q45 87 45 182t-53 148.5t-154 53.5h-138l-54 -250h149l-16 -77h-149z" />
    <glyph glyph-name="Ntilde" unicode="&#xd1;" horiz-adv-x="746" 
d="M592 0h-94l-265 581l-124 -581h-86l153 720h94l264 -588l125 588h86zM251 774l17 79q62 45 113 45q35 0 84 -24q47 -23 70 -28q17 -4 33 -4q53 0 120 47l-17 -79q-61 -45 -113 -45q-36 0 -85 24q-48 23 -69 28q-17 4 -33 4q-53 0 -120 -47z" />
    <glyph glyph-name="Ograve" unicode="&#xd2;" horiz-adv-x="739" 
d="M317 63q103 0 180 75q121 119 124 327q0 98 -44 144.5t-134 46.5q-54 2 -118 -31t-105 -97q-41 -58 -61.5 -139t-18.5 -140q0 -186 177 -186zM50 230q0 73 16 145t49.5 137t81.5 114.5t116 78t147 27.5q120 0 185.5 -65.5t65.5 -178.5q0 -140 -56 -263
q-46 -101 -137.5 -170t-216.5 -67q-121 0 -186 63.5t-65 178.5zM509 775h-62l-58 145h87z" />
    <glyph glyph-name="Oacute" unicode="&#xd3;" horiz-adv-x="739" 
d="M317 63q103 0 180 75q121 119 124 327q0 98 -44 144.5t-134 46.5q-54 2 -118 -31t-105 -97q-41 -58 -61.5 -139t-18.5 -140q0 -186 177 -186zM50 230q0 73 16 145t49.5 137t81.5 114.5t116 78t147 27.5q120 0 185.5 -65.5t65.5 -178.5q0 -140 -56 -263
q-46 -101 -137.5 -170t-216.5 -67q-121 0 -186 63.5t-65 178.5zM530 920h93l-120 -145h-69z" />
    <glyph glyph-name="Ocircumflex" unicode="&#xd4;" horiz-adv-x="739" 
d="M317 63q103 0 180 75q121 119 124 327q0 98 -44 144.5t-134 46.5q-54 2 -118 -31t-105 -97q-41 -58 -61.5 -139t-18.5 -140q0 -186 177 -186zM50 230q0 73 16 145t49.5 137t81.5 114.5t116 78t147 27.5q120 0 185.5 -65.5t65.5 -178.5q0 -140 -56 -263
q-46 -101 -137.5 -170t-216.5 -67q-121 0 -186 63.5t-65 178.5zM559 775l-55 117l-108 -117h-78l140 153h100l73 -153h-72z" />
    <glyph glyph-name="Otilde" unicode="&#xd5;" horiz-adv-x="739" 
d="M317 63q103 0 180 75q121 119 124 327q0 98 -44 144.5t-134 46.5q-54 2 -118 -31t-105 -97q-41 -58 -61.5 -139t-18.5 -140q0 -186 177 -186zM50 230q0 73 16 145t49.5 137t81.5 114.5t116 78t147 27.5q120 0 185.5 -65.5t65.5 -178.5q0 -140 -56 -263
q-46 -101 -137.5 -170t-216.5 -67q-121 0 -186 63.5t-65 178.5zM266 777l17 79q61 45 113 45q34 0 84 -24q47 -23 70 -28q17 -4 33 -4q53 0 120 47l-17 -79q-62 -45 -113 -45q-35 0 -85 24q-48 23 -69 28q-17 4 -33 4q-53 0 -120 -47z" />
    <glyph glyph-name="Odieresis" unicode="&#xd6;" horiz-adv-x="739" 
d="M317 63q103 0 180 75q121 119 124 327q0 98 -44 144.5t-134 46.5q-54 2 -118 -31t-105 -97q-41 -58 -61.5 -139t-18.5 -140q0 -186 177 -186zM50 230q0 73 16 145t49.5 137t81.5 114.5t116 78t147 27.5q120 0 185.5 -65.5t65.5 -178.5q0 -140 -56 -263
q-46 -101 -137.5 -170t-216.5 -67q-121 0 -186 63.5t-65 178.5zM574 878h77l-21 -103h-77zM313 878h77l-21 -103h-77z" />
    <glyph glyph-name="multiply" unicode="&#xd7;" horiz-adv-x="520" 
d="M252 226l-142 -142l-51 52l142 140l-139 139l51 52l139 -138l141 141l52 -51l-142 -143l140 -139l-52 -51z" />
    <glyph glyph-name="Oslash" unicode="&#xd8;" horiz-adv-x="739" 
d="M50 230q0 73 16 145t49.5 137t81.5 114.5t116 78t147 27.5q91 0 152 -41l58 72h80l-90 -112q51 -61 51 -163q0 -140 -56 -263q-46 -101 -137.5 -170t-216.5 -67q-89 0 -145 35l-53 -66h-80l83 103q-56 59 -56 170zM140 249q0 -75 28 -112l390 487q-41 32 -115 32
q-54 2 -118 -31t-105 -97q-41 -58 -61.5 -139t-18.5 -140zM317 63q103 0 180 75q121 119 124 327q0 69 -25 107l-387 -482q43 -27 108 -27z" />
    <glyph glyph-name="Ugrave" unicode="&#xd9;" horiz-adv-x="712" 
d="M717 720l-103 -488q-21 -101 -103 -172.5t-223 -71.5q-116 0 -181.5 61.5t-40.5 181.5l103 489h86l-105 -494q-14 -63 18 -111q37 -52 132 -52q82 0 147 46.5t80 116.5l104 494h86zM485 775h-62l-58 145h87z" />
    <glyph glyph-name="Uacute" unicode="&#xda;" horiz-adv-x="712" 
d="M717 720l-103 -488q-21 -101 -103 -172.5t-223 -71.5q-116 0 -181.5 61.5t-40.5 181.5l103 489h86l-105 -494q-14 -63 18 -111q37 -52 132 -52q82 0 147 46.5t80 116.5l104 494h86zM509 920h93l-120 -145h-69z" />
    <glyph glyph-name="Ucircumflex" unicode="&#xdb;" horiz-adv-x="712" 
d="M717 720l-103 -488q-21 -101 -103 -172.5t-223 -71.5q-116 0 -181.5 61.5t-40.5 181.5l103 489h86l-105 -494q-14 -63 18 -111q37 -52 132 -52q82 0 147 46.5t80 116.5l104 494h86zM534 775l-55 117l-108 -117h-78l140 153h100l73 -153h-72z" />
    <glyph glyph-name="Udieresis" unicode="&#xdc;" horiz-adv-x="712" 
d="M717 720l-103 -488q-21 -101 -103 -172.5t-223 -71.5q-116 0 -181.5 61.5t-40.5 181.5l103 489h86l-105 -494q-14 -63 18 -111q37 -52 132 -52q82 0 147 46.5t80 116.5l104 494h86zM561 878h77l-21 -103h-77zM300 878h77l-21 -103h-77z" />
    <glyph glyph-name="Yacute" unicode="&#xdd;" horiz-adv-x="594" 
d="M327 258l-55 -258h-86l55 258l-146 462h93l113 -380l268 380h98zM455 920h93l-120 -145h-69z" />
    <glyph glyph-name="Thorn" unicode="&#xde;" horiz-adv-x="606" 
d="M298 116h-161l-25 -116h-89l153 720h89l-26 -121h158q77 0 131.5 -45t54.5 -137q1 -73 -35.5 -142.5t-103.5 -114.5t-146 -44zM372 521h-149l-70 -327h149q77 -3 132.5 60.5t56.5 146.5q0 56 -32 88t-87 32z" />
    <glyph glyph-name="germandbls" unicode="&#xdf;" horiz-adv-x="587" 
d="M252 351l16 77q86 8 145.5 60.5t59.5 126.5q3 33 -24.5 59t-74.5 25q-46 3 -96.5 -36t-65.5 -119l-161 -749h-82l159 749q24 111 92.5 171t176.5 60q74 0 117 -37.5t43 -101.5q3 -71 -53 -143.5t-151 -93.5q175 -28 175 -164q0 -93 -77.5 -169t-188.5 -76q-55 0 -122 14
l16 73q51 -16 106 -16q72 0 121 44q58 49 58 123q4 52 -46 88t-143 35z" />
    <glyph glyph-name="agrave" unicode="&#xe0;" horiz-adv-x="593" 
d="M561 520l-108 -520h-67l2 66q-40 -34 -91.5 -54t-99.5 -20q-73 0 -121 47.5t-48 136.5q0 83 28.5 158.5t81.5 127.5q46 50 120.5 71.5t110.5 17.5q88 0 192 -31zM395 130l71 335q-63 17 -104 17q-73 0 -131 -42q-48 -31 -83.5 -102t-34.5 -139q-1 -75 35.5 -107t81.5 -30
q41 0 86 19t79 49zM421 618h-62l-58 145h87z" />
    <glyph glyph-name="aacute" unicode="&#xe1;" horiz-adv-x="593" 
d="M561 520l-108 -520h-67l2 66q-40 -34 -91.5 -54t-99.5 -20q-73 0 -121 47.5t-48 136.5q0 83 28.5 158.5t81.5 127.5q46 50 120.5 71.5t110.5 17.5q88 0 192 -31zM395 130l71 335q-63 17 -104 17q-73 0 -131 -42q-48 -31 -83.5 -102t-34.5 -139q-1 -75 35.5 -107t81.5 -30
q41 0 86 19t79 49zM420 763h93l-120 -145h-69z" />
    <glyph glyph-name="acircumflex" unicode="&#xe2;" horiz-adv-x="593" 
d="M561 520l-108 -520h-67l2 66q-40 -34 -91.5 -54t-99.5 -20q-73 0 -121 47.5t-48 136.5q0 83 28.5 158.5t81.5 127.5q46 50 120.5 71.5t110.5 17.5q88 0 192 -31zM395 130l71 335q-63 17 -104 17q-73 0 -131 -42q-48 -31 -83.5 -102t-34.5 -139q-1 -75 35.5 -107t81.5 -30
q41 0 86 19t79 49zM467 618l-55 117l-108 -117h-78l140 153h100l73 -153h-72z" />
    <glyph glyph-name="atilde" unicode="&#xe3;" horiz-adv-x="593" 
d="M561 520l-108 -520h-67l2 66q-40 -34 -91.5 -54t-99.5 -20q-73 0 -121 47.5t-48 136.5q0 83 28.5 158.5t81.5 127.5q46 50 120.5 71.5t110.5 17.5q88 0 192 -31zM395 130l71 335q-63 17 -104 17q-73 0 -131 -42q-48 -31 -83.5 -102t-34.5 -139q-1 -75 35.5 -107t81.5 -30
q41 0 86 19t79 49zM162 615l17 79q62 45 113 45q34 0 84 -24q47 -23 70 -28q17 -4 33 -4q53 0 120 47l-17 -79q-62 -45 -113 -45q-35 0 -85 24q-48 23 -69 28q-17 4 -33 4q-53 0 -120 -47z" />
    <glyph glyph-name="adieresis" unicode="&#xe4;" horiz-adv-x="593" 
d="M561 520l-108 -520h-67l2 66q-40 -34 -91.5 -54t-99.5 -20q-73 0 -121 47.5t-48 136.5q0 83 28.5 158.5t81.5 127.5q46 50 120.5 71.5t110.5 17.5q88 0 192 -31zM395 130l71 335q-63 17 -104 17q-73 0 -131 -42q-48 -31 -83.5 -102t-34.5 -139q-1 -75 35.5 -107t81.5 -30
q41 0 86 19t79 49zM507 721h77l-21 -103h-77zM246 721h77l-21 -103h-77z" />
    <glyph glyph-name="aring" unicode="&#xe5;" horiz-adv-x="593" 
d="M561 520l-108 -520h-67l2 66q-40 -34 -91.5 -54t-99.5 -20q-73 0 -121 47.5t-48 136.5q0 83 28.5 158.5t81.5 127.5q46 50 120.5 71.5t110.5 17.5q88 0 192 -31zM395 130l71 335q-63 17 -104 17q-73 0 -131 -42q-48 -31 -83.5 -102t-34.5 -139q-1 -75 35.5 -107t81.5 -30
q41 0 86 19t79 49zM413 754q-29 0 -50 -21t-21 -52q0 -40 46 -40q27 0 49.5 20.5t22.5 51.5q0 41 -47 41zM292 673q0 51 37 87t92 36q41 0 64.5 -20.5t23.5 -54.5q4 -39 -33.5 -81t-95.5 -41q-41 0 -64.5 20t-23.5 54z" />
    <glyph glyph-name="ae" unicode="&#xe6;" horiz-adv-x="938" 
d="M839 97l-8 -75q-105 -34 -203 -34q-73 0 -125 25t-75 73q-61 -48 -114.5 -71t-116.5 -23q-79 0 -123.5 50t-44.5 134q0 83 28.5 158.5t81.5 127.5q45 50 119.5 71.5t110.5 17.5q95 0 185 -29l-8 -42q76 71 179 71q96 -4 137 -38.5t47 -102.5q0 -87 -63 -131t-181 -44
q-68 0 -161 17q-7 -35 -7 -66q0 -128 153 -128q96 0 189 39zM423 260l43 205q-63 17 -104 17q-73 0 -131 -42q-48 -31 -83.5 -102t-34.5 -139q-4 -58 29 -99.5t88 -37.5q41 0 92 21.5t91 54.5q-5 55 10 122zM512 302q75 -11 136 -11q180 0 180 113q0 39 -29 62t-83 23
q-74 2 -130 -53.5t-74 -133.5z" />
    <glyph glyph-name="ccedilla" unicode="&#xe7;" horiz-adv-x="526" 
d="M270 58q76 0 166 28l-15 -72q-93 -26 -176 -26q-99 0 -157.5 49.5t-58.5 145.5q0 129 66 230q53 78 125.5 108.5t141.5 30.5q82 0 166 -27l-15 -72q-87 29 -153 29q-104 0 -174 -82t-70 -201q0 -69 39.5 -105t114.5 -36zM101 -209l11 51q43 -8 73 -8q89 0 89 48
q0 33 -106 33l4 15l55 70h58l-44 -53q99 0 99 -57q0 -26 -15 -51t-54.5 -40.5t-87.5 -15.5q-39 0 -82 8z" />
    <glyph glyph-name="egrave" unicode="&#xe8;" horiz-adv-x="558" 
d="M460 98l-8 -75q-111 -35 -203 -35q-103 0 -161.5 48.5t-58.5 145.5q0 126 60 224q40 66 106.5 106t150.5 40q88 0 136 -38.5t48 -103.5q0 -86 -63 -130t-181 -44q-69 0 -161 16q-7 -34 -7 -65q0 -61 38.5 -95t114.5 -34q97 0 189 40zM133 306q75 -11 136 -11
q181 0 181 109q0 39 -29.5 62.5t-83.5 23.5q-64 4 -124.5 -45.5t-79.5 -138.5zM399 618h-62l-58 145h87z" />
    <glyph glyph-name="eacute" unicode="&#xe9;" horiz-adv-x="558" 
d="M460 98l-8 -75q-111 -35 -203 -35q-103 0 -161.5 48.5t-58.5 145.5q0 126 60 224q40 66 106.5 106t150.5 40q88 0 136 -38.5t48 -103.5q0 -86 -63 -130t-181 -44q-69 0 -161 16q-7 -34 -7 -65q0 -61 38.5 -95t114.5 -34q97 0 189 40zM133 306q75 -11 136 -11
q181 0 181 109q0 39 -29.5 62.5t-83.5 23.5q-64 4 -124.5 -45.5t-79.5 -138.5zM434 763h93l-120 -145h-69z" />
    <glyph glyph-name="ecircumflex" unicode="&#xea;" horiz-adv-x="558" 
d="M460 98l-8 -75q-111 -35 -203 -35q-103 0 -161.5 48.5t-58.5 145.5q0 126 60 224q40 66 106.5 106t150.5 40q88 0 136 -38.5t48 -103.5q0 -86 -63 -130t-181 -44q-69 0 -161 16q-7 -34 -7 -65q0 -61 38.5 -95t114.5 -34q97 0 189 40zM133 306q75 -11 136 -11
q181 0 181 109q0 39 -29.5 62.5t-83.5 23.5q-64 4 -124.5 -45.5t-79.5 -138.5zM440 618l-55 117l-108 -117h-78l140 153h100l73 -153h-72z" />
    <glyph glyph-name="edieresis" unicode="&#xeb;" horiz-adv-x="558" 
d="M460 98l-8 -75q-111 -35 -203 -35q-103 0 -161.5 48.5t-58.5 145.5q0 126 60 224q40 66 106.5 106t150.5 40q88 0 136 -38.5t48 -103.5q0 -86 -63 -130t-181 -44q-69 0 -161 16q-7 -34 -7 -65q0 -61 38.5 -95t114.5 -34q97 0 189 40zM133 306q75 -11 136 -11
q181 0 181 109q0 39 -29.5 62.5t-83.5 23.5q-64 4 -124.5 -45.5t-79.5 -138.5zM474 721h77l-21 -103h-77zM213 721h77l-21 -103h-77z" />
    <glyph glyph-name="igrave" unicode="&#xec;" 
d="M212 618h-62l-58 145h87zM34 114l90 426h85l-89 -415q-15 -67 52 -67l37 4l-12 -60q-29 -7 -70 -7q-55 0 -79.5 32t-13.5 87z" />
    <glyph glyph-name="iacute" unicode="&#xed;" 
d="M241 763h93l-120 -145h-69zM34 114l90 426h85l-89 -415q-15 -67 52 -67l37 4l-12 -60q-29 -7 -70 -7q-55 0 -79.5 32t-13.5 87z" />
    <glyph glyph-name="icircumflex" unicode="&#xee;" 
d="M34 114l90 426h85l-89 -415q-15 -67 52 -67l37 4l-12 -60q-29 -7 -70 -7q-55 0 -79.5 32t-13.5 87zM256 618l-55 117l-108 -117h-78l140 153h100l73 -153h-72z" />
    <glyph glyph-name="idieresis" unicode="&#xef;" 
d="M303 721h77l-21 -103h-77zM42 721h77l-21 -103h-77zM34 114l90 426h85l-89 -415q-15 -67 52 -67l37 4l-12 -60q-29 -7 -70 -7q-55 0 -79.5 32t-13.5 87z" />
    <glyph glyph-name="eth" unicode="&#xf0;" horiz-adv-x="627" 
d="M334 605l-21 43l64 33q-17 21 -37 42q-25 28 -38 40h103q20 -20 41 -48l69 35l21 -43l-60 -29q50 -69 78.5 -159.5t26.5 -154.5q0 -162 -94.5 -269t-241.5 -107q-103 0 -159.5 51t-56.5 146q0 125 66 226q51 77 120.5 107.5t134.5 30.5q70 0 121 -32q-21 63 -64 125z
M350 478q-93 0 -156 -67q-77 -84 -77 -213q0 -137 144 -137q101 0 166.5 84.5t65.5 196.5q0 136 -143 136z" />
    <glyph glyph-name="ntilde" unicode="&#xf1;" horiz-adv-x="614" 
d="M558 394l-83 -394h-83l81 386q20 96 -78 96q-68 0 -212 -70l-86 -412h-84l113 540h70l-5 -66q155 78 245 78q72 0 104.5 -43t17.5 -115zM164 614l17 79q62 45 113 45q34 0 84 -24q47 -23 70 -28q17 -4 33 -4q53 0 120 47l-17 -79q-62 -45 -113 -45q-35 0 -85 24
q-48 23 -69 28q-17 4 -33 4q-53 0 -120 -47z" />
    <glyph glyph-name="ograve" unicode="&#xf2;" horiz-adv-x="626" 
d="M350 483q-99 0 -166 -88t-67 -200q0 -139 142 -139q94 0 164 83t70 201q0 143 -143 143zM29 184q0 130 68 230q54 77 126 107.5t140 30.5q104 0 160.5 -51.5t56.5 -146.5q0 -154 -92 -260t-242 -106q-105 0 -161 50.5t-56 145.5zM409 618h-62l-58 145h87z" />
    <glyph glyph-name="oacute" unicode="&#xf3;" horiz-adv-x="626" 
d="M350 483q-99 0 -166 -88t-67 -200q0 -139 142 -139q94 0 164 83t70 201q0 143 -143 143zM29 184q0 130 68 230q54 77 126 107.5t140 30.5q104 0 160.5 -51.5t56.5 -146.5q0 -154 -92 -260t-242 -106q-105 0 -161 50.5t-56 145.5zM453 763h93l-120 -145h-69z" />
    <glyph glyph-name="ocircumflex" unicode="&#xf4;" horiz-adv-x="626" 
d="M350 483q-99 0 -166 -88t-67 -200q0 -139 142 -139q94 0 164 83t70 201q0 143 -143 143zM29 184q0 130 68 230q54 77 126 107.5t140 30.5q104 0 160.5 -51.5t56.5 -146.5q0 -154 -92 -260t-242 -106q-105 0 -161 50.5t-56 145.5zM471 618l-55 117l-108 -117h-78l140 153
h100l73 -153h-72z" />
    <glyph glyph-name="otilde" unicode="&#xf5;" horiz-adv-x="626" 
d="M350 483q-99 0 -166 -88t-67 -200q0 -139 142 -139q94 0 164 83t70 201q0 143 -143 143zM29 184q0 130 68 230q54 77 126 107.5t140 30.5q104 0 160.5 -51.5t56.5 -146.5q0 -154 -92 -260t-242 -106q-105 0 -161 50.5t-56 145.5zM186 614l17 79q61 45 113 45q34 0 84 -24
q47 -23 70 -28q17 -4 33 -4q53 0 120 47l-17 -79q-62 -45 -113 -45q-35 0 -85 24q-48 23 -69 28q-17 4 -33 4q-53 0 -120 -47z" />
    <glyph glyph-name="odieresis" unicode="&#xf6;" horiz-adv-x="626" 
d="M350 483q-99 0 -166 -88t-67 -200q0 -139 142 -139q94 0 164 83t70 201q0 143 -143 143zM29 184q0 130 68 230q54 77 126 107.5t140 30.5q104 0 160.5 -51.5t56.5 -146.5q0 -154 -92 -260t-242 -106q-105 0 -161 50.5t-56 145.5zM499 721h77l-21 -103h-77zM238 721h77
l-21 -103h-77z" />
    <glyph glyph-name="divide" unicode="&#xf7;" horiz-adv-x="602" 
d="M254 34v104h71v-104h-71zM325 502v-100h-71v100h71zM57 233v73h472v-73h-472z" />
    <glyph glyph-name="oslash" unicode="&#xf8;" horiz-adv-x="626" 
d="M29 184q0 130 68 230q54 77 126 107.5t140 30.5q56 0 99 -17l90 119h82l-115 -151q61 -49 61 -149q0 -154 -92 -260t-242 -106q-59 0 -103 19l-93 -123h-81l117 154q-57 49 -57 146zM350 483q-99 0 -166 -88t-67 -200q0 -53 28 -79l269 357q-27 10 -64 10zM259 56
q94 0 164 83t70 201q0 60 -33 85l-269 -355q26 -14 68 -14z" />
    <glyph glyph-name="ugrave" unicode="&#xf9;" horiz-adv-x="613" 
d="M39 146l83 394h84l-82 -387q-9 -45 11 -70t67 -25q75 0 212 71l87 411h83l-113 -540h-70l6 65h-1q-146 -77 -245 -77q-71 0 -104 43t-18 115zM388 618h-62l-58 145h87z" />
    <glyph glyph-name="uacute" unicode="&#xfa;" horiz-adv-x="613" 
d="M39 146l83 394h84l-82 -387q-9 -45 11 -70t67 -25q75 0 212 71l87 411h83l-113 -540h-70l6 65h-1q-146 -77 -245 -77q-71 0 -104 43t-18 115zM418 763h93l-120 -145h-69z" />
    <glyph glyph-name="ucircumflex" unicode="&#xfb;" horiz-adv-x="613" 
d="M39 146l83 394h84l-82 -387q-9 -45 11 -70t67 -25q75 0 212 71l87 411h83l-113 -540h-70l6 65h-1q-146 -77 -245 -77q-71 0 -104 43t-18 115zM449 618l-55 117l-108 -117h-78l140 153h100l73 -153h-72z" />
    <glyph glyph-name="udieresis" unicode="&#xfc;" horiz-adv-x="613" 
d="M39 146l83 394h84l-82 -387q-9 -45 11 -70t67 -25q75 0 212 71l87 411h83l-113 -540h-70l6 65h-1q-146 -77 -245 -77q-71 0 -104 43t-18 115zM480 721h77l-21 -103h-77zM219 721h77l-21 -103h-77z" />
    <glyph glyph-name="yacute" unicode="&#xfd;" horiz-adv-x="521" 
d="M212 82h11l159 298q56 106 56 160h86q0 -24 -8 -59q-7 -30 -44 -99l-210 -387q-81 -147 -81 -200h-87q0 66 86 205h-38l-74 540h88zM372 763h93l-120 -145h-69z" />
    <glyph glyph-name="thorn" unicode="&#xfe;" horiz-adv-x="609" 
d="M97 5l-44 -210h-82l192 925h81l-52 -245q125 76 223 76q68 0 109.5 -43.5t41.5 -130.5q0 -73 -20.5 -143t-55.5 -118q-93 -128 -249 -128q-68 0 -144 17zM234 59q74 0 131 45t84 111.5t27 141.5q0 59 -26.5 90.5t-74.5 31.5q-75 0 -191 -67l-73 -338q67 -15 123 -15z" />
    <glyph glyph-name="ydieresis" unicode="&#xff;" horiz-adv-x="521" 
d="M212 82h11l159 298q56 106 56 160h86q0 -24 -8 -59q-7 -30 -44 -99l-210 -387q-81 -147 -81 -200h-87q0 66 86 205h-38l-74 540h88zM415 721h77l-21 -103h-77zM154 721h77l-21 -103h-77z" />
    <glyph glyph-name="dotlessi" unicode="&#x131;" 
d="M34 114l90 426h85l-89 -415q-15 -67 52 -67l37 4l-12 -60q-29 -7 -70 -7q-55 0 -79.5 32t-13.5 87z" />
    <glyph glyph-name="Lslash" unicode="&#x141;" horiz-adv-x="548" 
d="M106 291l-123 -57l15 78l124 57l75 351h86l-65 -308l210 97l-17 -80l-210 -95l-55 -259h347l-17 -75h-432z" />
    <glyph glyph-name="lslash" unicode="&#x142;" horiz-adv-x="336" 
d="M137 401l76 362h85l-67 -317l135 65l-17 -80l-134 -63l-53 -253q-5 -26 9 -39.5t44 -13.5q20 0 38 3l-10 -65q-42 -5 -73 -5q-61 0 -83 34.5t-5 111.5l38 181l-114 -54l16 78z" />
    <glyph glyph-name="OE" unicode="&#x152;" horiz-adv-x="1015" 
d="M594 720h460l-17 -78h-373l-52 -242h328l-16 -78h-328l-52 -245h373l-17 -77h-457q-73 -12 -139 -12q-113 0 -180 51q-73 58 -73 188q0 137 47.5 250.5t142.5 184t222 70.5q61 0 131 -12zM452 655q-128 2 -220 -113t-91 -296q0 -181 187 -181q57 0 130 14l119 558
q-67 18 -125 18z" />
    <glyph glyph-name="oe" unicode="&#x153;" horiz-adv-x="1004" 
d="M28 184q0 130 68 230q54 77 126 107.5t140 30.5q73 0 126 -29.5t71 -89.5q39 58 107 90t126 29q88 0 136 -38.5t48 -103.5q0 -86 -63 -130t-181 -44q-69 0 -161 16q-7 -34 -7 -65q0 -61 38 -95t115 -34q97 0 189 40l-8 -75q-111 -35 -203 -35q-78 0 -130.5 30.5
t-70.5 89.5q-43 -59 -115.5 -91t-133.5 -29q-105 0 -161 50.5t-56 145.5zM349 483q-99 0 -166 -88t-67 -200q0 -139 142 -139q94 0 164 83t70 201q0 143 -143 143zM579 306q75 -11 136 -11q181 0 181 109q0 39 -29.5 62.5t-83.5 23.5q-64 4 -124.5 -45.5t-79.5 -138.5z" />
    <glyph glyph-name="Scaron" unicode="&#x160;" horiz-adv-x="568" 
d="M203 64q88 -3 152.5 46.5t60.5 121.5q0 33 -21 54q-11 11 -35 22q-22 10 -90 27q-71 17 -95 28q-26 13 -43 27q-39 37 -39 97q0 122 87 183t228 61q49 0 168 -11l-17 -79q-115 15 -168 15q-98 0 -152 -39.5t-54 -107.5q0 -33 23 -56q25 -23 108 -41q84 -18 111 -30
q82 -36 82 -122q0 -125 -85 -198q-86 -74 -230 -74q-101 0 -196 18l16 80q116 -22 189 -22zM361 928l57 -118l106 118h77l-137 -153h-104l-73 153h74z" />
    <glyph glyph-name="scaron" unicode="&#x161;" horiz-adv-x="486" 
d="M167 58q73 0 117 30.5t44 83.5q0 23 -19 38q-17 15 -79 29q-68 15 -89 23q-80 32 -80 113q0 83 66.5 129.5t178.5 46.5q85 0 157 -18l-15 -71q-65 20 -142 20q-26 0 -51 -3.5t-50.5 -13t-40 -29t-13.5 -46.5q0 -26 19 -44q20 -18 88 -33q70 -14 95 -27q64 -30 64 -102
q0 -89 -68 -143q-68 -53 -181 -53q-91 0 -176 17l16 72q88 -19 159 -19zM267 768l57 -118l106 118h77l-137 -153h-104l-73 153h74z" />
    <glyph glyph-name="Ydieresis" unicode="&#x178;" horiz-adv-x="594" 
d="M327 258l-55 -258h-86l55 258l-146 462h93l113 -380l268 380h98zM500 878h77l-21 -103h-77zM239 878h77l-21 -103h-77z" />
    <glyph glyph-name="Zcaron" unicode="&#x17d;" horiz-adv-x="630" 
d="M127 720h539l-17 -82l-549 -562h448l-17 -76h-551l17 83l548 561h-435zM370 928l57 -118l106 118h77l-137 -153h-104l-73 153h74z" />
    <glyph glyph-name="zcaron" unicode="&#x17e;" horiz-adv-x="523" 
d="M395 472h-323l14 68h434l-12 -58l-404 -414h339l-14 -68h-451l12 59zM271 771l57 -118l106 118h77l-137 -153h-104l-73 153h74z" />
    <glyph glyph-name="florin" unicode="&#x192;" horiz-adv-x="594" 
d="M338 315l-67 -313q-52 -247 -264 -247q-45 0 -91 8l23 74q38 -8 68 -8q78 0 121.5 42.5t63.5 138.5l65 305h-120l15 74h120l26 121q27 129 92 190.5t176 61.5q45 0 88 -8l-23 -74q-32 8 -69 8q-77 0 -121.5 -43.5t-64.5 -137.5l-25 -118h166l-15 -74h-164z" />
    <glyph glyph-name="circumflex" unicode="&#x2c6;" horiz-adv-x="680" 
d="M403 618l-55 117l-108 -117h-78l140 153h100l73 -153h-72z" />
    <glyph glyph-name="caron" unicode="&#x2c7;" horiz-adv-x="680" 
d="M273 768l57 -118l106 118h77l-137 -153h-104l-73 153h74z" />
    <glyph glyph-name="breve" unicode="&#x2d8;" horiz-adv-x="638" 
d="M307 612q-50 0 -93.5 15t-67.5 40l26 55q71 -45 149 -45q79 0 167 45l4 -55q-78 -55 -185 -55z" />
    <glyph glyph-name="dotaccent" unicode="&#x2d9;" horiz-adv-x="347" 
d="M148 717h74l-21 -100h-74z" />
    <glyph glyph-name="ring" unicode="&#x2da;" horiz-adv-x="447" 
d="M233 754q-29 0 -50 -21t-21 -52q0 -40 46 -40q27 0 49.5 20.5t22.5 51.5q0 41 -47 41zM112 673q0 51 37 87t92 36q41 0 64.5 -20.5t23.5 -54.5q4 -39 -33.5 -81t-95.5 -41q-41 0 -64.5 20t-23.5 54z" />
    <glyph glyph-name="ogonek" unicode="&#x2db;" horiz-adv-x="463" 
d="M253 0h67q-45 -28 -79 -67t-34 -73q0 -25 21 -39.5t57 -14.5q16 0 53 8l-12 -55q-52 -11 -82 -11q-51 -1 -83.5 26t-28.5 59q0 41 33.5 89t87.5 78z" />
    <glyph glyph-name="tilde" unicode="&#x2dc;" horiz-adv-x="702" 
d="M134 614l17 79q62 45 113 45q34 0 84 -24q47 -23 70 -28q17 -4 33 -4q53 0 120 47l-17 -79q-62 -45 -113 -45q-35 0 -85 24q-48 23 -69 28q-17 4 -33 4q-53 0 -120 -47z" />
    <glyph glyph-name="hungarumlaut" unicode="&#x2dd;" horiz-adv-x="808" 
d="M241 763h92l-126 -145h-70zM432 763h94l-128 -145h-69z" />
    <glyph glyph-name="uni0394" unicode="&#x394;" horiz-adv-x="831" 
d="M513 670l102 -670h-538l382 670h54zM464 559l-276 -488h346z" />
    <glyph glyph-name="uni03A9" unicode="&#x3a9;" horiz-adv-x="764" 
d="M449 623q-115 0 -204 -89t-89 -208q0 -57 22 -110q37 -92 112 -136l-17 -80h-283l16 79h181q-50 38 -83 102.5t-33 137.5q-1 98 53 188t146.5 144t195.5 52q120 0 191.5 -68.5t71.5 -174.5q0 -118 -77 -223t-172 -158h181l-16 -79h-284l16 80q60 28 126 89q64 60 100 133
q37 73 37 136q0 80 -53 133q-52 52 -138 52z" />
    <glyph glyph-name="uni03BC" unicode="&#x3bc;" horiz-adv-x="618" 
d="M-30 -205l156 745h84l-81 -390q-9 -43 11 -67t67 -24q77 0 211 69l87 412h83l-112 -540h-69l4 66q-151 -78 -245 -78q-50 0 -68 25l-46 -218h-82z" />
    <glyph glyph-name="pi" unicode="&#x3c0;" horiz-adv-x="730" 
d="M268 469l-100 -469h-84l100 469h-132l15 71h676l-15 -71h-164l-72 -339q-14 -62 56 -62q30 0 86 14l-17 -77q-75 -15 -114 -15q-126 0 -96 141l72 338h-211z" />
    <glyph glyph-name="endash" unicode="&#x2013;" horiz-adv-x="598" 
d="M508 229h-453l16 77h454z" />
    <glyph glyph-name="emdash" unicode="&#x2014;" horiz-adv-x="821" 
d="M732 229h-677l16 77h677z" />
    <glyph glyph-name="quoteleft" unicode="&#x2018;" horiz-adv-x="207" 
d="M193 741h38l-45 -212h-74q0 44 22 104t59 108z" />
    <glyph glyph-name="quoteright" unicode="&#x2019;" horiz-adv-x="202" 
d="M150 522h-38l45 212h74q0 -42 -23 -105q-22 -61 -58 -107z" />
    <glyph glyph-name="quotesinglbase" unicode="&#x201a;" horiz-adv-x="213" 
d="M20 -99h-37l45 208h75q-12 -115 -83 -208z" />
    <glyph glyph-name="quotedblleft" unicode="&#x201c;" horiz-adv-x="346" 
d="M332 741h38l-45 -212h-74q0 44 22 104t59 108zM192 741h38l-45 -212h-74q0 44 22 104t59 108z" />
    <glyph glyph-name="quotedblright" unicode="&#x201d;" horiz-adv-x="342" 
d="M150 522h-38l45 212h74q0 -42 -23 -105q-22 -61 -58 -107zM290 522h-38l45 212h74q0 -42 -23 -105q-22 -61 -58 -107z" />
    <glyph glyph-name="quotedblbase" unicode="&#x201e;" horiz-adv-x="343" 
d="M149 -100h-36l44 208h76q-11 -109 -84 -208zM19 -100h-36l45 208h75q-12 -116 -84 -208z" />
    <glyph glyph-name="dagger" unicode="&#x2020;" horiz-adv-x="457" 
d="M295 428l-83 -394h-83l83 394h-152l17 78h152l41 196h83l-41 -196h152l-16 -78h-153z" />
    <glyph glyph-name="daggerdbl" unicode="&#x2021;" horiz-adv-x="497" 
d="M273 224l-41 -193h-85l41 193h-152l17 80h152l26 122h-152l17 79h152l42 197h85l-42 -197h152l-17 -79h-152l-26 -122h152l-17 -80h-152z" />
    <glyph glyph-name="bullet" unicode="&#x2022;" horiz-adv-x="310" 
d="M209 280h-121l26 119h120z" />
    <glyph glyph-name="ellipsis" unicode="&#x2026;" horiz-adv-x="742" 
d="M29 109h74l-24 -109h-74zM305 109h75l-24 -109h-75zM558 109h75l-24 -109h-75z" />
    <glyph glyph-name="perthousand" unicode="&#x2030;" horiz-adv-x="1079" 
d="M105 0l492 720h68l-493 -720h-67zM83 499q0 56 18.5 107.5t61 88.5t100.5 37q54 0 81 -29t27 -81q0 -107 -51 -170.5t-130 -63.5q-53 0 -80 29.5t-27 81.5zM200 435q29 0 57 20q26 19 43 66q16 45 16 92q0 72 -63 72q-53 3 -85.5 -57.5t-29.5 -119.5q0 -73 62 -73z
M400 104q0 56 18.5 107.5t61 88.5t100.5 37q54 0 81 -29t27 -81q0 -107 -51 -170.5t-130 -63.5q-53 0 -80 29.5t-27 81.5zM517 40q29 0 57 20q26 19 43 66q16 45 16 92q0 72 -63 72q-53 3 -85.5 -57.5t-29.5 -119.5q0 -73 62 -73zM731 104q0 56 18.5 107.5t61 88.5t100.5 37
q54 0 81 -29t27 -81q0 -107 -51 -170.5t-130 -63.5q-53 0 -80 29.5t-27 81.5zM848 40q29 0 57 20q26 19 43 66q16 45 16 92q0 72 -63 72q-53 3 -85.5 -57.5t-29.5 -119.5q0 -73 62 -73z" />
    <glyph glyph-name="guilsinglleft" unicode="&#x2039;" horiz-adv-x="316" 
d="M206 30h-79l-90 241l192 241h85l-199 -241z" />
    <glyph glyph-name="guilsinglright" unicode="&#x203a;" horiz-adv-x="316" 
d="M94 512h79l90 -241l-192 -241h-85l199 241z" />
    <glyph glyph-name="fraction" unicode="&#x2044;" horiz-adv-x="513" 
d="M-9 -93h-75l622 856h75z" />
    <glyph glyph-name="Euro" unicode="&#x20ac;" horiz-adv-x="713" 
d="M556 487l-15 -72h-280q-18 -57 -22 -114h278l-16 -72h-262q8 -80 54 -123t131 -43q75 0 189 32l-15 -79q-103 -28 -190 -28q-119 0 -189 63.5t-72 177.5h-117l16 72h104q5 60 20 114h-100l15 72h112q38 87 102.5 144.5t129.5 79t135 21.5q92 0 180 -24l-18 -80
q-84 28 -161 28q-90 0 -160.5 -44.5t-113.5 -124.5h265z" />
    <glyph glyph-name="trademark" unicode="&#x2122;" horiz-adv-x="712" 
d="M520 505h1l125 215h75l-57 -268h-48l45 211h-2l-123 -212h-58l-31 212l-45 -211h-48l57 268h75zM369 720l-10 -46h-89l-47 -222h-49l48 222h-88l10 46h225z" />
    <glyph glyph-name="minus" unicode="&#x2212;" horiz-adv-x="634" 
d="M545 235h-472v72h472v-72z" />
    <glyph glyph-name="radical" unicode="&#x221a;" horiz-adv-x="665" 
d="M59 502h188q3 -38 13 -228q9 -166 15 -253q1 -23 6 -52l387 856h96l-464 -1002h-104l-38 600h-116z" />
    <glyph glyph-name="infinity" unicode="&#x221e;" horiz-adv-x="1017" 
d="M715 96q-48 0 -101 25q-54 26 -124 105q-84 -67 -156.5 -99.5t-121.5 -30.5q-73 0 -115.5 37.5t-42.5 100.5q0 95 69 160t165 65q49 0 100 -25q56 -27 125 -104q108 81 168 104q62 25 110 25q73 0 116 -38t43 -102q0 -56 -32 -111q-32 -54 -89 -83q-58 -29 -114 -29z
M774 382q-37 0 -85 -20q-49 -21 -139 -84q43 -43 64 -60q54 -44 115 -44q46 -4 95.5 32t47.5 96q0 37 -26 58.5t-72 21.5zM229 173q82 0 227 105q-48 46 -75 66q-51 38 -107 38q-59 0 -100 -37q-41 -38 -41 -93q0 -36 25.5 -57.5t70.5 -21.5z" />
    <glyph glyph-name="integral" unicode="&#x222b;" horiz-adv-x="386" 
d="M303 621l-148 -695q-18 -79 -65.5 -119t-112.5 -40q-47 0 -75 7l21 75q25 -7 59 -7q67 0 89 92l147 694q14 76 64.5 118.5t113.5 40.5q42 0 77 -6l-22 -75q-30 6 -60 6q-69 0 -88 -91z" />
    <glyph glyph-name="approxequal" unicode="&#x2248;" horiz-adv-x="585" 
d="M469 396l26 -62q-54 -45 -114 -45q-27 0 -83 24q-75 32 -109 32q-40 0 -90 -29l-28 61q61 42 112 42q37 0 102 -28q66 -28 94 -28q45 0 90 33zM471 210l25 -62q-55 -46 -114 -46q-28 0 -84 24q-52 24 -77 29q-20 4 -31 4q-43 0 -90 -29l-28 61q64 41 112 41q37 0 102 -28
q66 -28 94 -28q48 0 91 34z" />
    <glyph glyph-name="notequal" unicode="&#x2260;" horiz-adv-x="616" 
d="M311 357h-246v70h284l59 109h63l-59 -109h125v-70h-163l-86 -159h249v-71h-287l-55 -102h-62l54 102h-122v71h161z" />
    <glyph glyph-name="lessequal" unicode="&#x2264;" horiz-adv-x="618" 
d="M51 66h472v-66h-472v66zM523 490l-403 -155l403 -155v-82l-470 191v92l470 191v-82z" />
    <glyph glyph-name="greaterequal" unicode="&#x2265;" horiz-adv-x="651" 
d="M556 0h-472v66h472v-66zM84 98v82l403 155l-403 155v82l470 -191v-92z" />
    <glyph glyph-name="lozenge" unicode="&#x25ca;" horiz-adv-x="531" 
d="M232 101l189 237l-111 232l-187 -236zM36 336l256 333h48l167 -336l-257 -333h-46z" />
    <glyph glyph-name="NULL" horiz-adv-x="0" 
 />
    </font>
</defs>
</svg>
