<?xml version="1.0" standalone="no"?>
<!DOCTYPE svg PUBLIC "-//W3C//DTD SVG 1.1//EN" "http://www.w3.org/Graphics/SVG/1.1/DTD/svg11.dtd" >
<svg xmlns="http://www.w3.org/2000/svg" xmlns:xlink="http://www.w3.org/1999/xlink" version="1.1">
<metadata>
Created by FontForge 20170731 at Sun Mar 24 20:09:56 2019
 By Aleksey,,,
Copyright (c) 2013 by PSTL. All rights reserved. |DCNT
</metadata>
<defs>
<font id="Quatro-MediumItalic" horiz-adv-x="603" >
  <font-face 
    font-family="Quatro Medium"
    font-weight="500"
    font-style="italic"
    font-stretch="normal"
    units-per-em="1000"
    panose-1="2 11 6 3 0 0 0 9 0 4"
    ascent="742"
    descent="-258"
    x-height="546"
    cap-height="720"
    bbox="-119 -259 1063 933"
    underline-thickness="50"
    underline-position="-275"
    slope="-12.5"
    unicode-range="U+000D-FB02"
  />
<missing-glyph horiz-adv-x="570" 
d="M533 670l-87 -670h-410l87 670h410zM114 69h272l68 532h-272z" />
    <glyph glyph-name="fi" unicode="fi" horiz-adv-x="656" 
d="M488 765l-17 -87q-63 9 -88 9q-56 0 -80 -28t-34 -72l-9 -42h157l-19 -93h-153l-136 -657h-118l135 657h-66l15 81l70 11l12 59q18 89 68 131t143 42q56 0 120 -11zM527 738h122l-23 -115h-122zM405 135l85 410h120l-84 -392q-7 -37 5 -55t50 -18l29 3l-17 -80
q-38 -8 -83 -8q-65 0 -92 37t-13 103z" />
    <glyph glyph-name="fl" unicode="fl" horiz-adv-x="661" 
d="M488 765l-17 -87q-63 9 -88 9q-56 0 -80 -28t-34 -72l-9 -42h157l-19 -93h-153l-136 -657h-118l135 657h-66l15 81l70 11l12 59q18 89 68 131t143 42q56 0 120 -11zM535 763h120l-131 -621q-10 -58 51 -58l35 3l-14 -86q-42 -7 -87 -7q-135 0 -103 152z" />
    <glyph glyph-name=".notdef" horiz-adv-x="570" 
d="M533 670l-87 -670h-410l87 670h410zM114 69h272l68 532h-272z" />
    <glyph glyph-name=".null" horiz-adv-x="0" 
 />
    <glyph glyph-name="nonmarkingreturn" horiz-adv-x="333" 
 />
    <glyph glyph-name="CR" unicode="&#xd;" horiz-adv-x="230" 
 />
    <glyph glyph-name="space" unicode=" " horiz-adv-x="251" 
 />
    <glyph glyph-name="exclam" unicode="!" horiz-adv-x="289" 
d="M172 720h119l-106 -497h-119zM142 0h-126l26 123h126z" />
    <glyph glyph-name="quotedbl" unicode="&#x22;" horiz-adv-x="366" 
d="M200 497h-84l13 223h84zM355 497h-84l13 223h84z" />
    <glyph glyph-name="numbersign" unicode="#" horiz-adv-x="713" 
d="M198 363h-111l42 104h109l71 176h113l-71 -176h143l70 176h114l-70 -176h101l-42 -104h-101l-48 -119h107l-41 -101h-106l-68 -166h-115l69 166h-143l-69 -166h-113l69 166h-108l41 101h108zM452 363h-142l-49 -119h143z" />
    <glyph glyph-name="dollar" unicode="$" horiz-adv-x="563" 
d="M197 95q36 -2 75.5 9t72 44t30.5 82q0 46 -51 68l-18 8l-6 2q-6 1 -24 6.5t-36 10.5q-99 29 -130 73q-24 37 -24 86q0 99 65.5 162t174.5 78l20 96h104l-19 -89q78 -3 141 -13l-23 -106q-97 16 -156 16q-37 1 -75.5 -8.5t-70.5 -38t-30 -71.5q0 -16 8 -32q9 -16 31 -27.5
t81 -27.5q60 -16 86 -29q24 -12 41 -26q43 -36 43 -105q0 -100 -60 -170t-171 -92l-19 -92h-104l16 81q-83 1 -175 18l22 112q115 -25 181 -25z" />
    <glyph glyph-name="percent" unicode="%" horiz-adv-x="756" 
d="M97 0l492 720h90l-493 -720h-89zM81 502q0 88 50 159t136 71q56 0 84.5 -29.5t28.5 -82.5q0 -98 -50 -165t-136 -67q-56 0 -84.5 30t-28.5 84zM254 670q-40 0 -69.5 -45.5t-29.5 -112.5q0 -62 52 -62q43 0 71 46.5t28 112.5q0 61 -52 61zM397 106q0 96 53 163.5t134 67.5
q56 0 84.5 -30t28.5 -83q0 -73 -28 -128q-17 -44 -63.5 -74.5t-94.5 -28.5q-56 0 -85 30t-29 83zM570 275q-41 0 -69.5 -46t-28.5 -113q0 -61 52 -61q24 0 47 17q23 18 37 58.5t14 83.5q0 61 -52 61z" />
    <glyph glyph-name="ampersand" unicode="&#x26;" horiz-adv-x="717" 
d="M644 706l-20 -97q-86 27 -170 27q-57 0 -108 -16q-51 -15 -79 -48t-28 -76q0 -34 29 -59.5t79 -25.5h357l-18 -90h-110l25 -321h-110l-7 75q-32 -23 -80 -44q-102 -43 -192 -43q-94 0 -147.5 42t-53.5 117q0 83 63 146q45 46 116 72q-36 19 -53.5 56.5t-17.5 73.5
q0 48 22.5 91.5t59.5 71.5q97 74 253 74q88 0 190 -26zM479 155l-12 169h-139q-82 0 -132 -43q-51 -42 -51 -105q0 -44 33.5 -68.5t86.5 -24.5q48 0 106 19q60 19 108 53z" />
    <glyph glyph-name="quotesingle" unicode="'" horiz-adv-x="207" 
d="M183 497h-82l46 222h83z" />
    <glyph glyph-name="parenleft" unicode="(" horiz-adv-x="316" 
d="M15 100q0 168 68 339t204 324h119q-125 -144 -200.5 -310t-75.5 -330q0 -166 71 -328h-119q-67 153 -67 305z" />
    <glyph glyph-name="parenright" unicode=")" horiz-adv-x="316" 
d="M288 458q0 -168 -68 -339t-204 -324h-119q125 144 200.5 310t75.5 330q0 166 -71 328h119q67 -153 67 -305z" />
    <glyph glyph-name="asterisk" unicode="*" horiz-adv-x="452" 
d="M392 417l-76 -49l-56 108l-99 -109l-58 49l111 112l-124 40l38 72l117 -44l29 138h82l-29 -138l136 44l8 -71l-142 -41z" />
    <glyph glyph-name="plus" unicode="+" horiz-adv-x="558" 
d="M222 227h-186v100h186v183h100v-183h186v-100h-186v-183h-100v183z" />
    <glyph glyph-name="comma" unicode="," horiz-adv-x="232" 
d="M26 -118h-52l53 252h105q-6 -120 -106 -252z" />
    <glyph glyph-name="hyphen" unicode="-" horiz-adv-x="539" 
d="M455 223h-408l20 98h409z" />
    <glyph glyph-name="period" unicode="." horiz-adv-x="236" 
d="M28 136h108l-29 -136h-108z" />
    <glyph glyph-name="slash" unicode="/" horiz-adv-x="433" 
d="M30 -206h-105l462 969h108z" />
    <glyph glyph-name="zero" unicode="0" horiz-adv-x="672" 
d="M401 619q-56 1 -102 -37.5t-72.5 -98t-40 -123t-13.5 -120.5q0 -140 118 -140q98 0 163 111q35 63 50 135q15 75 15 131q0 142 -118 142zM44 218q0 81 23 173q21 87 64 158q59 96 129.5 138t165.5 45q101 0 161.5 -55t60.5 -178q0 -131 -50 -258q-40 -106 -125.5 -180.5
t-205.5 -72.5q-223 0 -223 230z" />
    <glyph glyph-name="one" unicode="1" horiz-adv-x="357" 
d="M362 720l-153 -720h-122l125 588l-142 -56l25 113l173 75h94z" />
    <glyph glyph-name="two" unicode="2" horiz-adv-x="542" 
d="M438 0h-462l19 90q165 118 249 194q152 139 152 240q0 48 -35 73.5t-96 25.5q-53 0 -153 -20l24 109q95 20 173 20q106 0 162 -43.5t56 -123.5q0 -102 -76 -205q-75 -104 -279 -252h288z" />
    <glyph glyph-name="three" unicode="3" horiz-adv-x="537" 
d="M114 597l23 108q96 26 196 26q88 0 141 -39.5t53 -107.5q0 -34 -15 -74q-15 -41 -53.5 -81t-84.5 -61q36 -8 66 -46.5t29 -84.5q0 -73 -47.5 -131t-119.5 -88t-152 -30q-38 0 -83 4q-72 6 -84 8l21 104q66 -10 161 -10q80 0 128.5 35.5t48.5 98.5q0 39 -33.5 60t-87.5 21
h-94l22 102h88q44 0 85 22q77 43 77 115q0 74 -117 74q-37 0 -91 -9q-48 -7 -77 -16z" />
    <glyph glyph-name="four" unicode="4" horiz-adv-x="635" 
d="M22 274l252 446h122l-249 -436h228l17 77l55 143h95l-46 -219h108l-23 -109h-108l-38 -176h-120l38 176h-350z" />
    <glyph glyph-name="five" unicode="5" horiz-adv-x="547" 
d="M167 95q75 -3 137.5 44.5t58.5 120.5q0 82 -116 82h-171l80 378h410l-23 -107h-292l-35 -166l70 1q206 0 206 -156q0 -135 -97.5 -219t-242.5 -84q-78 0 -155 15l22 108q88 -17 148 -17z" />
    <glyph glyph-name="six" unicode="6" horiz-adv-x="617" 
d="M618 719l-22 -107q-58 11 -115 11q-111 0 -188 -64q-78 -65 -102 -176q112 45 201 45q75 1 126 -36.5t49 -111.5q0 -126 -91.5 -209t-220.5 -83q-103 0 -159 58t-56 165q-1 96 30 189t86.5 168t142 120.5t188.5 43.5q59 0 131 -13zM279 95q56 0 102 36q57 43 57 116
q0 34 -25 55t-76 21q-33 0 -82 -11q-38 -9 -80 -25q-7 -32 -7 -66q0 -63 30 -94.5t81 -31.5z" />
    <glyph glyph-name="seven" unicode="7" horiz-adv-x="505" 
d="M193 0h-123q38 172 131 335q92 162 216 278h-334l23 107h468l-23 -107q-142 -139 -230 -286q-84 -140 -128 -327z" />
    <glyph glyph-name="eight" unicode="8" horiz-adv-x="608" 
d="M236 -12q-106 0 -163 41.5t-57 114.5q0 62 42 126q43 66 121 104q-69 46 -69 120q0 91 78 164.5t204 73.5q93 0 147 -42.5t54 -110.5q2 -48 -34.5 -109.5t-103.5 -106.5q85 -48 85 -129q0 -109 -89 -177.5t-215 -68.5zM259 94q72 0 115 37q39 34 39 78q0 61 -109 98
l-48 17q-48 -26 -78.5 -67t-30.5 -79q0 -41 33 -62.5t79 -21.5zM368 630q-57 0 -95 -35q-37 -34 -37 -81q0 -65 138 -107q40 25 65 64.5t25 76.5q0 36 -26 59t-70 23z" />
    <glyph glyph-name="nine" unicode="9" horiz-adv-x="618" 
d="M21 0l21 107q66 -11 115 -11q111 0 188 64q78 65 102 176q-105 -44 -200 -44q-77 -1 -127.5 36t-48.5 112q0 126 91.5 209t220.5 83q96 0 156 -55t60 -168q1 -96 -30 -189t-86.5 -168t-142 -120.5t-188.5 -43.5q-62 0 -131 12zM360 625q-69 0 -114.5 -46t-45.5 -107
q0 -42 30.5 -59t70.5 -17q78 0 162 37q7 32 7 66q0 61 -29.5 93.5t-80.5 32.5z" />
    <glyph glyph-name="colon" unicode=":" horiz-adv-x="238" 
d="M28 136h108l-29 -136h-108zM96 454h108l-30 -138h-108z" />
    <glyph glyph-name="semicolon" unicode=";" horiz-adv-x="240" 
d="M95 453h109l-29 -137h-109zM28 -120h-54l54 256h107q-3 -55 -31.5 -124.5t-75.5 -131.5z" />
    <glyph glyph-name="less" unicode="&#x3c;" horiz-adv-x="572" 
d="M479 143v-129l-440 181v141l440 182v-129l-345 -123z" />
    <glyph glyph-name="equal" unicode="=" horiz-adv-x="665" 
d="M561 334h-472v100h472v-100zM561 114h-472v101h472v-101z" />
    <glyph glyph-name="greater" unicode="&#x3e;" horiz-adv-x="568" 
d="M73 389v129l440 -181v-141l-440 -182v129l345 123z" />
    <glyph glyph-name="question" unicode="?" horiz-adv-x="477" 
d="M114 253q14 62 47 107q35 46 90 90l72 55q49 39 49 87q0 32 -30.5 50t-88.5 18q-62 0 -147 -23l24 113q5 1 14.5 3t27 5t30.5 6q51 10 115 10q89 0 140 -38t51 -104q3 -25 -12 -66t-42 -70q-18 -22 -30 -32q-37 -32 -94 -79q-80 -67 -94 -129q-5 -22 -5 -52h-122
q0 21 5 49zM191 0h-124l23 107h124z" />
    <glyph glyph-name="at" unicode="@" horiz-adv-x="936" 
d="M622 47q-54 0 -85.5 24.5t-31.5 64.5q-64 -58 -127 -58q-48 -2 -77.5 32.5t-26.5 72.5q0 102 69.5 176.5t174.5 74.5q78 0 150 -46l-64 -190q-22 -65 41 -65q53 0 99 53q29 34 48 85q18 51 18 91q0 98 -70.5 151t-198.5 53q-68 3 -154 -29.5t-144 -95.5
q-61 -59 -92.5 -144.5t-28.5 -149.5q0 -111 73.5 -169.5t209.5 -58.5q87 0 169 21l-7 -91q-90 -26 -204 -26q-130 0 -218 55q-124 78 -124 246q0 192 106 332q79 102 194.5 153t242.5 51q150 0 249 -76.5t99 -197.5q0 -92 -49 -183q-40 -74 -105 -115t-136 -41zM506 188
l54 156q-26 14 -59 14q-58 1 -95 -51.5t-33 -96.5q0 -24 13 -38t34 -14q35 0 86 30z" />
    <glyph glyph-name="A" unicode="A" horiz-adv-x="667" 
d="M70 0h-129l398 721h166l94 -721h-124l-19 153h-303zM406 616h-10l-194 -355h246z" />
    <glyph glyph-name="B" unicode="B" horiz-adv-x="647" 
d="M166 720h284q86 0 135 -38.5t49 -108.5q0 -55 -36 -113q-35 -57 -104 -89q97 -36 97 -125q0 -104 -82 -175t-200 -71h-295zM159 105h165q62 0 101 36.5t39 92.5q0 36 -27.5 55.5t-75.5 19.5h-159zM266 613l-42 -199h140q38 0 76 20q68 36 68 109q0 33 -26 51.5t-73 18.5
h-143z" />
    <glyph glyph-name="C" unicode="C" horiz-adv-x="608" 
d="M42 235q-1 97 27.5 186.5t80.5 159.5t134.5 111.5t181.5 39.5q99 0 186 -24l-24 -112q-86 30 -160 30q-131 0 -214 -101.5t-83 -255.5q0 -86 41.5 -131.5t123.5 -45.5q74 0 194 37l-22 -110q-102 -31 -196 -31q-121 0 -195.5 62t-74.5 185z" />
    <glyph glyph-name="D" unicode="D" horiz-adv-x="714" 
d="M266 0h-253l153 720h234q80 0 139 -22t91 -60.5t47 -82.5t15 -95q1 -88 -29.5 -172t-85.5 -148t-136.5 -102.5t-174.5 -37.5zM159 106h112q84 -1 152.5 48t104.5 124.5t35 157.5q0 83 -46 130.5t-134 47.5h-117z" />
    <glyph glyph-name="E" unicode="E" 
d="M13 0l153 720h481l-22 -106h-359l-42 -199h309l-22 -105h-309l-43 -204h356l-22 -106h-480z" />
    <glyph glyph-name="F" unicode="F" horiz-adv-x="587" 
d="M13 0l153 720h480l-24 -106h-356l-47 -221h313l-22 -106h-313l-61 -287h-123z" />
    <glyph glyph-name="G" unicode="G" horiz-adv-x="707" 
d="M492 626q-140 0 -231 -103t-91 -249q0 -183 182 -183q64 0 139 24l54 256h122l-71 -335q-146 -48 -275 -48q-127 0 -203 70t-76 190q0 135 54.5 243.5t163.5 174.5t255 66q112 0 197 -24l-25 -110q-49 13 -97 19q-56 9 -98 9z" />
    <glyph glyph-name="H" unicode="H" horiz-adv-x="756" 
d="M13 0l154 720h122l-64 -306h351l64 306h124l-153 -720h-124l66 309h-351l-66 -309h-123z" />
    <glyph glyph-name="I" unicode="I" horiz-adv-x="281" 
d="M136 0h-123l153 720h123z" />
    <glyph glyph-name="J" unicode="J" horiz-adv-x="281" 
d="M167 720h123l-132 -620q-35 -172 -225 -312l-52 95q130 94 153 212z" />
    <glyph glyph-name="K" unicode="K" horiz-adv-x="663" 
d="M341 200l-38 112q-71 -24 -109 -36l-58 -276h-123l153 720h123l-70 -332l56 17q100 32 144 60q24 16 42 32.5t39.5 45.5t33.5 74.5t12 102.5h123q-4 -116 -64 -212.5t-186 -154.5l56 -157q20 -54 47.5 -74.5t77.5 -20.5l-22 -103l-48 -2q-22 2 -34.5 4t-31.5 9t-32.5 20
t-29.5 34.5t-31 56t-30 80.5z" />
    <glyph glyph-name="L" unicode="L" horiz-adv-x="541" 
d="M13 0l153 720h123l-130 -614h332l-23 -106h-455z" />
    <glyph glyph-name="M" unicode="M" horiz-adv-x="924" 
d="M777 577l-313 -579h-160l-44 579h-7l-122 -577h-118l153 720h215l43 -575l30 37l282 538h196l-153 -720h-117l123 577h-8z" />
    <glyph glyph-name="N" unicode="N" horiz-adv-x="755" 
d="M610 0h-129l-234 518l-111 -518h-122l152 720h131l231 -528l112 528h123z" />
    <glyph glyph-name="O" unicode="O" horiz-adv-x="744" 
d="M325 93q109 0 182 91q40 50 64 120.5t24 147.5q0 174 -156 174q-79 0 -140 -51q-36 -29 -65 -75t-46.5 -112t-17.5 -131q0 -164 155 -164zM42 232q-1 93 26.5 182t78.5 161t133 115.5t182 41.5q119 0 190 -67.5t71 -180.5q1 -92 -26 -180t-78 -159.5t-133.5 -114.5
t-182.5 -42q-123 0 -192 64t-69 180z" />
    <glyph glyph-name="P" unicode="P" horiz-adv-x="614" 
d="M309 217h-127l-46 -217h-123l153 720h253q83 0 144.5 -47t61.5 -144q2 -124 -88.5 -219t-227.5 -93zM390 614h-124l-61 -291h111q80 0 130.5 52.5t50.5 130.5q0 50 -27 79t-80 29z" />
    <glyph glyph-name="Q" unicode="Q" horiz-adv-x="742" 
d="M42 234q-1 93 26.5 181.5t78.5 160t133 114.5t182 42q124 0 192 -67.5t68 -181.5q0 -171 -84 -308q-68 -112 -186 -160q40 -18 64 -56t25 -81h-156q-1 43 -30 75.5t-58 34.5q-125 1 -190 64.5t-65 181.5zM325 94q79 0 140 50q38 31 64 74q30 45 47.5 110.5t17.5 128.5
q0 169 -156 169q-49 2 -107.5 -29.5t-92.5 -89.5q-36 -54 -52.5 -124t-16.5 -126q0 -163 156 -163z" />
    <glyph glyph-name="R" unicode="R" horiz-adv-x="637" 
d="M14 0l152 720h234q110 0 168.5 -43.5t58.5 -129.5q0 -84 -43.5 -157t-117.5 -114l80 -276h-129l-68 242l-63 -1h-98l-52 -241h-122zM388 613h-122l-56 -266h120q72 0 120 50.5t48 117.5q0 7 -5 19q-3 38 -35.5 59.5t-69.5 19.5z" />
    <glyph glyph-name="S" unicode="S" horiz-adv-x="578" 
d="M212 94q81 0 131.5 36t50.5 96q3 25 -18.5 45t-48.5 27q-19 6 -87 23q-73 18 -102 41q-54 43 -54 115q0 109 80.5 181.5t247.5 72.5q18 0 35 -1q20 0 146 -11l-23 -110q-125 17 -178 17q-82 0 -129.5 -31t-47.5 -85q0 -30 22 -49q24 -20 92 -35q70 -15 100 -26
q98 -36 98 -134q0 -128 -89 -203t-239 -75q-98 0 -206 20l22 110q134 -24 197 -24z" />
    <glyph glyph-name="T" unicode="T" horiz-adv-x="623" 
d="M98 720h602l-23 -106h-239l-131 -614h-122l130 614h-240z" />
    <glyph glyph-name="U" unicode="U" horiz-adv-x="719" 
d="M610 720h123l-99 -468q-27 -128 -116 -196t-227 -68q-129 0 -192.5 68t-37.5 195l98 469h123l-101 -478q-7 -23 -2 -49t17 -48.5t42 -37t73 -14.5q66 0 125.5 40.5t72.5 108.5z" />
    <glyph glyph-name="V" unicode="V" horiz-adv-x="647" 
d="M591 720h134l-391 -720h-156l-88 720h126l64 -586h8z" />
    <glyph glyph-name="W" unicode="W" horiz-adv-x="968" 
d="M708 -2h-165l-19 489h-8l-239 -489h-158l-15 722h123l10 -561h5l267 561h133l18 -561h5l246 561h124z" />
    <glyph glyph-name="X" unicode="X" horiz-adv-x="631" 
d="M549 720h143l-284 -357l163 -363h-141l-121 281l-225 -281h-146l315 382l-150 338h136l109 -262z" />
    <glyph glyph-name="Y" unicode="Y" horiz-adv-x="611" 
d="M352 248l-52 -248h-123l53 248l-145 472h130l99 -363l242 363h137z" />
    <glyph glyph-name="Z" unicode="Z" horiz-adv-x="643" 
d="M125 720h554l-24 -116l-501 -497h413l-23 -107h-564l24 115l502 499h-404z" />
    <glyph glyph-name="bracketleft" unicode="[" horiz-adv-x="288" 
d="M-31 -205l204 968h168l-23 -108h-59l-159 -752h59l-23 -108h-167z" />
    <glyph glyph-name="backslash" unicode="\" horiz-adv-x="544" 
d="M413 -205h-107l-191 968h108z" />
    <glyph glyph-name="bracketright" unicode="]" horiz-adv-x="288" 
d="M306 763l-205 -968h-167l23 108h58l159 751h-59l23 109h168z" />
    <glyph glyph-name="asciicircum" unicode="^" horiz-adv-x="490" 
d="M61 376l177 317h97q13 -36 67 -159q56 -129 67 -158h-110l-73 190l-26 -33q-29 -52 -43 -79l-42 -78h-114z" />
    <glyph glyph-name="underscore" unicode="_" horiz-adv-x="523" 
d="M408 -8h-399l3 92h398z" />
    <glyph glyph-name="grave" unicode="`" horiz-adv-x="500" 
d="M313 615h-90l-79 154h123z" />
    <glyph glyph-name="a" unicode="a" 
d="M579 521l-106 -521h-96l-2 65q-83 -72 -183 -72q-73 0 -121.5 50t-48.5 141q0 159 93 266.5t253 107.5q96 0 211 -37zM381 144l64 306q-54 14 -86 14q-91 0 -152 -72q-31 -37 -47.5 -87.5t-16.5 -95.5q0 -59 26.5 -89t73.5 -30q34 0 72 15t66 39z" />
    <glyph glyph-name="b" unicode="b" horiz-adv-x="617" 
d="M228 -12q-120 0 -222 29l154 746h122l-59 -273q103 68 198 68q76 0 118.5 -47.5t42.5 -129.5q2 -165 -95.5 -279.5t-258.5 -113.5zM206 400l-64 -304q48 -15 97 -15q79 -6 148 68.5t70 201.5q0 52 -24.5 79t-67.5 27q-64 0 -159 -57z" />
    <glyph glyph-name="c" unicode="c" horiz-adv-x="523" 
d="M144 207q0 -125 137 -125q67 0 161 28l-19 -97q-93 -25 -178 -25q-94 0 -158.5 47.5t-64.5 150.5q-2 153 91.5 263t248.5 109q83 0 167 -26l-19 -96q-80 27 -148 27q-95 0 -156.5 -75t-61.5 -181z" />
    <glyph glyph-name="d" unicode="d" horiz-adv-x="614" 
d="M638 763l-157 -763h-92l-4 65q-102 -75 -199 -75q-77 0 -121 52t-44 143q0 126 59 220q96 151 280 151q49 0 116 -14l47 221h115zM394 144l62 305q-50 14 -90 14q-88 6 -156.5 -65.5t-67.5 -186.5q0 -121 97 -121q72 0 155 54z" />
    <glyph glyph-name="e" unicode="e" horiz-adv-x="562" 
d="M472 123l-11 -101q-108 -34 -205 -34q-109 0 -171.5 49.5t-62.5 151.5q0 69 21.5 134.5t61.5 118t104 84.5t141 32q81 0 135.5 -37.5t54.5 -109.5q0 -87 -61.5 -133t-175.5 -46q-66 0 -150 16q-6 -31 -6 -52q0 -53 34.5 -83t102.5 -30q89 0 188 40zM162 315
q67 -10 117 -10q148 0 151 95q0 33 -26.5 52t-67.5 19q-51 0 -92 -27q-61 -40 -82 -129z" />
    <glyph glyph-name="f" unicode="f" horiz-adv-x="377" 
d="M485 764l-17 -87q-64 11 -90 11q-46 0 -73 -23.5t-39 -78.5l-9 -40h157l-19 -93h-153l-136 -658h-118l135 658h-66l15 81l70 11l12 57q18 89 68 131t143 42q56 0 120 -11z" />
    <glyph glyph-name="g" unicode="g" horiz-adv-x="612" 
d="M587 521l-101 -498q-30 -139 -97.5 -188t-194.5 -52q-102 0 -206 31l18 97q115 -34 184 -34q154 0 183 129l13 59q-90 -72 -194 -72q-82 0 -126.5 50.5t-44.5 141.5q-2 154 95.5 264t263.5 109q89 0 207 -37zM392 143l65 306q-53 15 -90 15q-106 0 -166 -76.5t-60 -181.5
q0 -58 26.5 -87.5t72.5 -29.5q73 0 152 54z" />
    <glyph glyph-name="h" unicode="h" horiz-adv-x="621" 
d="M574 399l-83 -399h-120l79 379q14 81 -68 81q-64 0 -174 -58l-84 -402h-119l157 763h120l-58 -273q133 67 222 67q74 0 108 -43t20 -115z" />
    <glyph glyph-name="i" unicode="i" horiz-adv-x="282" 
d="M152 738h122l-23 -115h-122zM30 135l85 411h120l-84 -393q-7 -37 5 -55t50 -18l29 3l-17 -80q-38 -8 -83 -8q-65 0 -92 37t-13 103z" />
    <glyph glyph-name="j" unicode="j" horiz-adv-x="256" 
d="M116 546h119l-88 -441q-22 -112 -68.5 -179.5t-139.5 -117.5l-43 74q44 32 75 69q30 36 47 110zM154 738h123l-23 -115h-122z" />
    <glyph glyph-name="k" unicode="k" horiz-adv-x="561" 
d="M282 763l-95 -455l102 25q40 5 80 44t39 91q0 36 -11 78h109q10 -39 10 -77q0 -138 -154 -199q20 -160 136 -182l-25 -92q-91 2 -146.5 68.5t-61.5 171.5l-96 -22l-45 -214h-119l157 763h120z" />
    <glyph glyph-name="l" unicode="l" horiz-adv-x="289" 
d="M163 763h120l-131 -621q-10 -58 51 -58l35 3l-14 -86q-42 -7 -87 -7q-135 0 -103 152z" />
    <glyph glyph-name="m" unicode="m" horiz-adv-x="962" 
d="M789 557q74 0 107 -43.5t18 -118.5l-81 -395h-119l78 380q7 35 -9 57t-56 22q-68 0 -166 -56l-83 -403h-119l78 374q7 38 -9.5 61t-52.5 23q-28 0 -62 -10q-37 -9 -106 -46l-83 -402h-119l111 546h101l-2 -62q126 73 222 73q107 0 124 -78q135 78 228 78z" />
    <glyph glyph-name="n" unicode="n" horiz-adv-x="620" 
d="M572 396l-81 -396h-119l78 380q8 38 -8 59t-55 21q-61 0 -180 -57l-83 -403h-119l112 546h99v-61q142 73 231 73q72 0 105.5 -45.5t19.5 -116.5z" />
    <glyph glyph-name="o" unicode="o" horiz-adv-x="626" 
d="M346 464q-86 0 -143 -82t-57 -181q0 -57 29.5 -88.5t88.5 -31.5q51 0 98 34q49 34 76 96q26 60 28 125q0 128 -120 128zM22 188q0 154 95 262t246 108q108 0 166.5 -54t58.5 -150q0 -157 -94.5 -261.5t-246.5 -104.5q-111 0 -168 52t-57 148z" />
    <glyph glyph-name="p" unicode="p" horiz-adv-x="613" 
d="M122 4l-44 -209h-115l154 751h95l-1 -66q112 77 206 77q70 0 115 -45.5t45 -131.5q0 -106 -39 -198q-39 -93 -112.5 -143.5t-171.5 -50.5q-64 0 -132 16zM206 405l-66 -309q48 -13 99 -13q89 0 150 70q65 77 65 196q0 54 -23.5 81.5t-66.5 27.5q-64 0 -158 -53z" />
    <glyph glyph-name="q" unicode="q" horiz-adv-x="617" 
d="M381 557q106 0 213 -29l-150 -733h-120l54 257q-100 -63 -202 -63q-66 0 -111.5 45.5t-45.5 130.5q0 173 98 282.5t264 109.5zM395 144l63 305q-42 13 -89 13q-85 0 -152 -64q-36 -36 -55 -91t-19 -112q0 -53 24 -79.5t67 -26.5q70 0 161 55z" />
    <glyph glyph-name="r" unicode="r" horiz-adv-x="391" 
d="M426 548l-24 -121q-34 -5 -81 -21t-126 -66l-71 -340h-119l112 546h112l-23 -116q55 60 116 91.5t104 26.5z" />
    <glyph glyph-name="s" unicode="s" horiz-adv-x="494" 
d="M-9 8l18 96q94 -23 162 -23q62 0 99.5 23t37.5 67q0 12 -7 22q-7 11 -24 18q-19 8 -72 20q-58 14 -77 23q-20 9 -38 24q-37 30 -37 90q0 88 69.5 138.5t190.5 50.5q15 0 62 -3q49 -3 101 -15l-19 -94q-67 19 -146 19q-64 1 -99 -20.5t-33 -53.5q0 -21 17 -36
q18 -14 75 -27q56 -11 78 -20q44 -20 62.5 -43t21.5 -74q0 -85 -62 -141q-68 -61 -201 -61q-101 0 -179 20z" />
    <glyph glyph-name="t" unicode="t" horiz-adv-x="390" 
d="M408 453h-167l-64 -317q-5 -26 13.5 -37.5t40.5 -11.5q27 0 83 14l-19 -97q-81 -14 -115 -14q-75 0 -106 39.5t-17 112.5l65 311h-72l19 86q107 9 141 124h74l-24 -117h167z" />
    <glyph glyph-name="u" unicode="u" horiz-adv-x="620" 
d="M32 150l81 396h119l-78 -381q-7 -34 10.5 -57t52.5 -23q67 0 180 58l84 403h118l-112 -546h-99l1 60q-138 -73 -232 -72q-71 2 -105 47t-20 115z" />
    <glyph glyph-name="v" unicode="v" horiz-adv-x="527" 
d="M128 -1l-72 547h123l46 -430h5l154 290q33 59 33 140h117q0 -1 -1 -20q0 -76 -50 -162l-200 -365h-155z" />
    <glyph glyph-name="w" unicode="w" horiz-adv-x="941" 
d="M37 180l75 366h119l-78 -381q-7 -35 10 -58t51 -23q78 0 172 61q1 32 7 61l71 340h111l-75 -364q-9 -38 14 -69t78 -30q55 0 92.5 26.5t46.5 72.5l75 364h120l-76 -367q-18 -87 -86 -139t-188 -52q-65 -1 -115 26t-62 60q-115 -86 -223 -86q-89 0 -123.5 52.5
t-15.5 139.5z" />
    <glyph glyph-name="x" unicode="x" horiz-adv-x="534" 
d="M24 96l163 177l-139 273h134l94 -194l104 117q15 17 26 40.5t11 36.5h120q0 -55 -69 -129l-138 -146l140 -271h-136l-94 187l-90 -103q-53 -61 -53 -84h-118q0 43 45 96z" />
    <glyph glyph-name="y" unicode="y" horiz-adv-x="533" 
d="M226 115h9l144 274q14 27 29 78q14 48 14 79h119q-3 -89 -52 -180l-201 -372q-27 -50 -51 -109q-22 -54 -22 -90h-123q0 37 22 93t58 112h-44l-72 546h124z" />
    <glyph glyph-name="z" unicode="z" horiz-adv-x="538" 
d="M362 453h-297l18 93h456l-15 -77l-368 -376h308l-18 -93h-470l15 78z" />
    <glyph glyph-name="braceleft" unicode="{" horiz-adv-x="453" 
d="M247 380q-19 -88 -78 -117l-1 -6q33 -22 33 -72q0 -48 -31 -129q-29 -77 -35 -103q-4 -19 -4 -32q0 -70 87 -70q41 0 113 18l-22 -107q-68 -16 -134 -16q-76 0 -121 32q-45 34 -45 105q0 68 32 150q31 81 36 96q5 18 5 30q0 45 -49 45l-26 -1l25 114l25 -1q50 0 68 54
q10 30 21 122q11 98 23 131q25 76 75.5 112.5t149.5 39.5q66 0 126 -17l-22 -107q-66 18 -106 18q-82 0 -113 -65q-17 -33 -21 -115q-4 -77 -11 -109z" />
    <glyph glyph-name="bar" unicode="|" horiz-adv-x="275" 
d="M-31 -205l203 968h121l-205 -968h-119z" />
    <glyph glyph-name="braceright" unicode="}" horiz-adv-x="453" 
d="M185 141q19 89 78 117l1 6q-33 22 -33 72q0 47 31 128q29 76 35 104q4 19 4 32q0 70 -87 70q-41 0 -113 -18l22 107q68 16 134 16q78 0 120 -32q46 -32 46 -105q0 -68 -32 -150q-35 -91 -37 -97q-4 -13 -4 -29q0 -45 49 -45l26 1l-25 -114l-25 1q-48 0 -69 -55
q-9 -24 -20 -122q-11 -97 -23 -130q-25 -76 -75.5 -112.5t-149.5 -39.5q-64 0 -126 17l22 107q66 -18 106 -18q82 0 113 65q17 33 21 114q4 78 11 110z" />
    <glyph glyph-name="asciitilde" unicode="~" horiz-adv-x="595" 
d="M529 358l-6 -84q-57 -25 -110 -25q-46 0 -121 19q-77 20 -112 20q-57 0 -117 -29l9 88q69 31 133 31q51 0 124 -19q75 -19 108 -19q49 0 92 18z" />
    <glyph glyph-name="uni00A0" unicode="&#xa0;" horiz-adv-x="251" 
 />
    <glyph glyph-name="exclamdown" unicode="&#xa1;" horiz-adv-x="268" 
d="M80 -222h-117l105 498h118zM110 499h128l-27 -123h-127z" />
    <glyph glyph-name="cent" unicode="&#xa2;" horiz-adv-x="533" 
d="M280 85q70 0 160 26l-20 -98q-70 -19 -135 -23l-33 -159h-103l33 162v1q-69 8 -117 60t-46 133q6 158 79 249t200 117l33 161h104l-33 -158q63 -5 124 -24l-19 -98q-83 26 -148 26q-94 0 -155.5 -73.5t-61.5 -178.5q0 -123 138 -123z" />
    <glyph glyph-name="sterling" unicode="&#xa3;" horiz-adv-x="546" 
d="M519 730l-8 -110q-86 -8 -133.5 -48t-61.5 -120l-6 -35h167l-22 -107h-163l-9 -45q-10 -54 -32.5 -92t-74.5 -75q61 11 167 11h121l-23 -109h-470l35 102q55 4 94 46.5t56 117.5l10 44h-85l22 107h83l8 53q18 116 109 186q92 71 216 74z" />
    <glyph glyph-name="yen" unicode="&#xa5;" horiz-adv-x="682" 
d="M266 245h-203l21 100h154l-116 375h130l99 -364l242 364h137l-273 -375h155l-21 -100h-203l-11 -56h202l-22 -102h-203l-18 -87h-122l18 87h-203l23 102h202z" />
    <glyph glyph-name="brokenbar" unicode="&#xa6;" horiz-adv-x="278" 
d="M-30 -205l94 450h121l-95 -450h-120zM295 763l-95 -450h-121l95 450h121z" />
    <glyph glyph-name="section" unicode="&#xa7;" horiz-adv-x="531" 
d="M58 319q0 46 26 92t66 74q-33 33 -33 84q0 88 68.5 137.5t192.5 49.5q76 0 161 -18l-19 -94q-80 18 -145 18q-61 0 -96.5 -19.5t-35.5 -54.5q0 -24 21.5 -37t82.5 -27t90 -30q60 -32 60 -105q0 -93 -90 -174q29 -29 29 -75q0 -91 -72.5 -146t-192.5 -55q-38 0 -89 6
q-41 4 -88 13l17 95q95 -21 162 -21q64 0 100.5 24t36.5 66q0 7 -5 19q-8 20 -93 39q-80 19 -116 48q-38 32 -38 91zM173 344q0 -22 16 -38q15 -15 69 -29q57 -13 66 -16q56 53 56 100q0 23 -20 37q-19 15 -70 27q-61 15 -65 16q-52 -49 -52 -97z" />
    <glyph glyph-name="dieresis" unicode="&#xa8;" horiz-adv-x="833" 
d="M526 740h109l-27 -125h-109zM280 740h109l-27 -125h-109z" />
    <glyph glyph-name="copyright" unicode="&#xa9;" horiz-adv-x="846" 
d="M365 41q93 0 184 51q92 51 153 143t61 195q0 110 -72 180.5t-190 70.5q-132 0 -249 -94q-67 -53 -107.5 -131.5t-40.5 -162.5q0 -110 73 -181t188 -71zM820 439q0 -152 -112 -284q-63 -75 -156 -121t-198 -46q-134 0 -220 84t-86 212q0 160 111 288q61 73 155 117
q94 45 198 45q134 0 221 -84t87 -211zM481 466q-58 -4 -89.5 -32t-35.5 -106q0 -64 80 -64q23 0 81 11l-15 -69q-47 -11 -90 -11q-51 -3 -94 29t-40 94q0 81 49 145q59 72 157 72q44 0 86 -11l-15 -69q-50 11 -74 11z" />
    <glyph glyph-name="ordfeminine" unicode="&#xaa;" horiz-adv-x="449" 
d="M450 655l-70 -346h-67l-1 44q-51 -48 -122 -48q-50 0 -82 33.5t-32 91.5q0 108 62 179t169 71q65 0 143 -25zM315 405l42 199q-27 8 -57 8q-60 2 -100.5 -49t-39.5 -114q0 -77 64 -77q48 0 91 33z" />
    <glyph glyph-name="guillemotleft" unicode="&#xab;" horiz-adv-x="582" 
d="M242 14h-115l-97 259l206 258h118l-211 -258zM481 14h-115l-97 259l206 258h118l-211 -258z" />
    <glyph glyph-name="logicalnot" unicode="&#xac;" horiz-adv-x="615" 
d="M67 323h480l-54 -253l-88 9l29 139h-389z" />
    <glyph glyph-name="registered" unicode="&#xae;" horiz-adv-x="517" 
d="M210 420l45 212h76q32 0 51.5 -13.5t19.5 -39.5q0 -23 -13 -45.5t-36 -34.5l23 -79h-52l-19 68h-34l-14 -68h-47zM320 594h-26l-15 -69h27q22 0 34.5 13.5t12.5 30.5q0 25 -33 25zM264 342q50 0 103 29q52 29 83.5 81t31.5 104q0 60 -40 99t-105 39q-80 0 -147.5 -65
t-67.5 -148q0 -61 39.5 -100t102.5 -39zM522 564q2 -102 -79 -181.5t-186 -77.5q-77 0 -127 48q-49 48 -49 121q0 103 79.5 180.5t184.5 77.5q77 0 127 -48q50 -47 50 -120z" />
    <glyph glyph-name="macron" unicode="&#xaf;" horiz-adv-x="601" 
d="M490 622h-401l21 97h401z" />
    <glyph glyph-name="degree" unicode="&#xb0;" horiz-adv-x="316" 
d="M207 549q28 0 49.5 22t21.5 54q0 21 -12 33t-34 12q-30 0 -51 -23t-21 -55q0 -43 47 -43zM195 495q-41 0 -67 23.5t-26 62.5q0 31 15 63q15 33 51.5 56t74.5 23q44 1 71 -27.5t24 -59.5q0 -30 -15 -62q-14 -32 -51 -56q-38 -23 -77 -23z" />
    <glyph glyph-name="plusminus" unicode="&#xb1;" horiz-adv-x="635" 
d="M538 0h-472v89h472v-89zM252 342h-186v100h186v183h100v-183h186v-100h-186v-183h-100v183z" />
    <glyph glyph-name="twosuperior" unicode="&#xb2;" horiz-adv-x="416" 
d="M354 289h-305l15 70q148 93 196 144q50 55 50 96q0 48 -63 48q-30 0 -112 -17l18 81q66 16 126 16q62 0 97 -28t35 -78q0 -62 -48 -121t-158 -128h168z" />
    <glyph glyph-name="threesuperior" unicode="&#xb3;" horiz-adv-x="400" 
d="M130 627l18 83q60 16 125 16q61 0 98.5 -26t37.5 -70q0 -33 -26.5 -68t-70.5 -53q61 -19 61 -78q0 -65 -57.5 -109t-157.5 -44q-50 0 -106 9l19 82q62 -8 93 -8q112 0 112 69q0 20 -19 31.5t-49 11.5h-65l14 65h59q37 -1 64.5 20t24.5 46q0 40 -67 40q-52 0 -108 -17z
" />
    <glyph glyph-name="acute" unicode="&#xb4;" horiz-adv-x="424" 
d="M194 769h127l-129 -154h-94z" />
    <glyph glyph-name="paragraph" unicode="&#xb6;" horiz-adv-x="568" 
d="M346 720h68l-96 -450h-73q-81 0 -129.5 47.5t-48.5 123.5q0 114 83.5 196.5t195.5 82.5zM452 720h122l-148 -696q-25 -118 -96 -177.5t-204 -59.5q-38 0 -83 6l23 110q48 -5 70 -5q75 0 114.5 31.5t54.5 102.5z" />
    <glyph glyph-name="periodcentered" unicode="&#xb7;" horiz-adv-x="239" 
d="M71 336h108l-29 -136h-108z" />
    <glyph glyph-name="cedilla" unicode="&#xb8;" horiz-adv-x="467" 
d="M91 -209l13 64q35 -7 71 -7q73 0 73 37q0 28 -92 32l3 12l52 71h74l-35 -45q86 -4 86 -60q2 -15 -5.5 -33t-25 -36.5t-52.5 -30.5t-81 -12q-38 0 -81 8z" />
    <glyph glyph-name="onesuperior" unicode="&#xb9;" horiz-adv-x="282" 
d="M298 721l-91 -432h-94l70 332l-93 -33l18 88l117 45h73z" />
    <glyph glyph-name="ordmasculine" unicode="&#xba;" horiz-adv-x="453" 
d="M290 612q-50 0 -88 -47q-20 -23 -31.5 -59.5t-11.5 -66.5q0 -76 78 -76q49 -2 88.5 47.5t41.5 120.5q0 81 -77 81zM74 431q0 101 63 173.5t164 72.5q67 0 109 -34.5t42 -100.5q0 -102 -63.5 -173.5t-164.5 -71.5q-70 0 -110 33.5t-40 100.5z" />
    <glyph glyph-name="guillemotright" unicode="&#xbb;" horiz-adv-x="584" 
d="M325 531h115l97 -259l-206 -258h-118l211 258zM86 531h115l97 -259l-206 -258h-118l211 258z" />
    <glyph glyph-name="onequarter" unicode="&#xbc;" horiz-adv-x="884" 
d="M451 166l151 265h95l-150 -259h117l12 51l34 84h78l-29 -135h64l-17 -81h-64l-20 -91h-94l20 91h-213zM304 721l-92 -432h-94l71 332l-94 -33l18 88l118 45h73zM116 -93h-103l621 856h104z" />
    <glyph glyph-name="onehalf" unicode="&#xbd;" horiz-adv-x="848" 
d="M743 0h-305l15 70q148 93 196 144q50 55 50 96q0 48 -63 48q-30 0 -112 -17l18 81q66 16 126 16q62 0 97 -28t35 -78q0 -62 -48 -121t-158 -128h168zM301 721l-92 -432h-94l71 332l-94 -33l18 88l118 45h73zM113 -93h-103l621 856h104z" />
    <glyph glyph-name="threequarters" unicode="&#xbe;" horiz-adv-x="970" 
d="M117 627l18 83q60 16 125 16q61 0 98.5 -26t37.5 -70q0 -33 -26.5 -68t-70.5 -53q61 -19 61 -78q0 -65 -57.5 -109t-157.5 -44q-51 0 -106 9l19 82q62 -8 93 -8q112 0 112 69q0 20 -19 31.5t-49 11.5h-65l14 65h59q37 -1 64.5 20t24.5 46q0 40 -67 40q-52 0 -108 -17z
M202 -93h-103l621 856h104zM537 166l151 265h95l-150 -259h117l12 51l34 84h78l-29 -135h64l-17 -81h-64l-20 -91h-94l20 91h-213z" />
    <glyph glyph-name="questiondown" unicode="&#xbf;" horiz-adv-x="473" 
d="M339 262q-14 -63 -47 -108t-91 -89l-71 -55q-49 -39 -49 -87q0 -32 30.5 -50t88.5 -18q62 0 147 23l-24 -113q-5 -1 -14.5 -3t-27 -5t-30.5 -6q-51 -10 -115 -10q-89 0 -140 38t-51 104q-3 25 12 66t42 69q17 21 29 32l94 79q81 66 95 130q5 22 5 52h122q0 -21 -5 -49z
M262 515h124l-23 -107h-124z" />
    <glyph glyph-name="Agrave" unicode="&#xc0;" horiz-adv-x="667" 
d="M70 0h-129l398 721h166l94 -721h-124l-19 153h-303zM406 616h-10l-194 -355h246zM464 775h-90l-79 154h123z" />
    <glyph glyph-name="Aacute" unicode="&#xc1;" horiz-adv-x="667" 
d="M70 0h-129l398 721h166l94 -721h-124l-19 153h-303zM406 616h-10l-194 -355h246zM479 929h127l-129 -154h-94z" />
    <glyph glyph-name="Acircumflex" unicode="&#xc2;" horiz-adv-x="667" 
d="M70 0h-129l398 721h166l94 -721h-124l-19 153h-303zM406 616h-10l-194 -355h246zM500 775l-46 111l-94 -111h-105l134 158h146l66 -158h-101z" />
    <glyph glyph-name="Atilde" unicode="&#xc3;" horiz-adv-x="667" 
d="M70 0h-129l398 721h166l94 -721h-124l-19 153h-303zM406 616h-10l-194 -355h246zM209 777l21 99q64 50 124 50q36 0 86 -26q69 -34 107 -34q66 0 130 52l-22 -99q-62 -50 -123 -50q-38 0 -87 25t-71 30q-23 5 -35 5q-66 0 -130 -52z" />
    <glyph glyph-name="Adieresis" unicode="&#xc4;" horiz-adv-x="667" 
d="M70 0h-129l398 721h166l94 -721h-124l-19 153h-303zM406 616h-10l-194 -355h246zM520 900h109l-27 -125h-109zM274 900h109l-27 -125h-109z" />
    <glyph glyph-name="Aring" unicode="&#xc5;" horiz-adv-x="671" 
d="M319 739q0 53 40 90t96 37q42 0 67 -21.5t25 -56.5q0 -46 -36 -77l92 -711h-130l-18 153h-303l-82 -153h-129l393 711q-15 9 -15 28zM406 616h-11l-193 -355h245zM444 814q-26 0 -44 -18.5t-18 -45.5q0 -16 10.5 -26t30.5 -10q24 0 42.5 17.5t18.5 46.5q0 36 -40 36z" />
    <glyph glyph-name="AE" unicode="&#xc6;" horiz-adv-x="1001" 
d="M-69 0l519 720h595l-23 -106h-358l-42 -199h309l-23 -105h-309l-42 -204h356l-23 -106h-480l33 153h-261l-111 -153h-140zM540 610h-39l-248 -352h213z" />
    <glyph glyph-name="Ccedilla" unicode="&#xc7;" horiz-adv-x="608" 
d="M42 235q-1 97 27.5 186.5t80.5 159.5t134.5 111.5t181.5 39.5q99 0 186 -24l-24 -112q-86 30 -160 30q-131 0 -214 -101.5t-83 -255.5q0 -86 41.5 -131.5t123.5 -45.5q74 0 194 37l-22 -110q-102 -31 -196 -31q-121 0 -195.5 62t-74.5 185zM157 -209l13 64q35 -7 71 -7
q73 0 73 37q0 28 -92 32l3 12l52 71h74l-35 -45q86 -4 86 -60q2 -15 -5.5 -33t-25 -36.5t-52.5 -30.5t-81 -12q-38 0 -81 8z" />
    <glyph glyph-name="Egrave" unicode="&#xc8;" 
d="M13 0l153 720h481l-22 -106h-359l-42 -199h309l-22 -105h-309l-43 -204h356l-22 -106h-480zM471 775h-90l-79 154h123z" />
    <glyph glyph-name="Eacute" unicode="&#xc9;" 
d="M13 0l153 720h481l-22 -106h-359l-42 -199h309l-22 -105h-309l-43 -204h356l-22 -106h-480zM469 929h127l-129 -154h-94z" />
    <glyph glyph-name="Ecircumflex" unicode="&#xca;" 
d="M13 0l153 720h481l-22 -106h-359l-42 -199h309l-22 -105h-309l-43 -204h356l-22 -106h-480zM487 775l-46 111l-94 -111h-105l134 158h146l66 -158h-101z" />
    <glyph glyph-name="Edieresis" unicode="&#xcb;" 
d="M13 0l153 720h481l-22 -106h-359l-42 -199h309l-22 -105h-309l-43 -204h356l-22 -106h-480zM510 900h109l-27 -125h-109zM264 900h109l-27 -125h-109z" />
    <glyph glyph-name="Igrave" unicode="&#xcc;" horiz-adv-x="281" 
d="M136 0h-123l153 720h123zM279 775h-90l-79 154h123z" />
    <glyph glyph-name="Iacute" unicode="&#xcd;" horiz-adv-x="281" 
d="M136 0h-123l153 720h123zM287 929h127l-129 -154h-94z" />
    <glyph glyph-name="Icircumflex" unicode="&#xce;" horiz-adv-x="281" 
d="M136 0h-123l153 720h123zM309 775l-46 111l-94 -111h-105l134 158h146l66 -158h-101z" />
    <glyph glyph-name="Idieresis" unicode="&#xcf;" horiz-adv-x="281" 
d="M136 0h-123l153 720h123zM333 900h109l-27 -125h-109zM87 900h109l-27 -125h-109z" />
    <glyph glyph-name="Eth" unicode="&#xd0;" horiz-adv-x="748" 
d="M300 0h-253l64 301h-117l23 109h117l66 310h253q93 0 158 -36q51 -23 84.5 -86.5t30.5 -133.5q1 -87 -29.5 -171t-85 -149.5t-136.5 -105t-175 -38.5zM193 106h112q84 -1 152.5 48t104.5 124.5t35 157.5q0 83 -46 130.5t-134 47.5h-117l-44 -204h134l-23 -109h-133z" />
    <glyph glyph-name="Ntilde" unicode="&#xd1;" horiz-adv-x="755" 
d="M610 0h-129l-234 518l-111 -518h-122l152 720h131l231 -528l112 528h123zM243 772l21 99q64 50 124 50q36 0 86 -26q69 -34 107 -34q66 0 130 52l-22 -99q-62 -50 -123 -50q-38 0 -87 25t-71 30q-23 5 -35 5q-66 0 -130 -52z" />
    <glyph glyph-name="Ograve" unicode="&#xd2;" horiz-adv-x="744" 
d="M325 93q109 0 182 91q40 50 64 120.5t24 147.5q0 174 -156 174q-79 0 -140 -51q-36 -29 -65 -75t-46.5 -112t-17.5 -131q0 -164 155 -164zM42 232q-1 93 26.5 182t78.5 161t133 115.5t182 41.5q119 0 190 -67.5t71 -180.5q1 -92 -26 -180t-78 -159.5t-133.5 -114.5
t-182.5 -42q-123 0 -192 64t-69 180zM517 775h-90l-79 154h123z" />
    <glyph glyph-name="Oacute" unicode="&#xd3;" horiz-adv-x="744" 
d="M325 93q109 0 182 91q40 50 64 120.5t24 147.5q0 174 -156 174q-79 0 -140 -51q-36 -29 -65 -75t-46.5 -112t-17.5 -131q0 -164 155 -164zM42 232q-1 93 26.5 182t78.5 161t133 115.5t182 41.5q119 0 190 -67.5t71 -180.5q1 -92 -26 -180t-78 -159.5t-133.5 -114.5
t-182.5 -42q-123 0 -192 64t-69 180zM517 929h127l-129 -154h-94z" />
    <glyph glyph-name="Ocircumflex" unicode="&#xd4;" horiz-adv-x="744" 
d="M325 93q109 0 182 91q40 50 64 120.5t24 147.5q0 174 -156 174q-79 0 -140 -51q-36 -29 -65 -75t-46.5 -112t-17.5 -131q0 -164 155 -164zM42 232q-1 93 26.5 182t78.5 161t133 115.5t182 41.5q119 0 190 -67.5t71 -180.5q1 -92 -26 -180t-78 -159.5t-133.5 -114.5
t-182.5 -42q-123 0 -192 64t-69 180zM547 775l-46 111l-94 -111h-105l134 158h146l66 -158h-101z" />
    <glyph glyph-name="Otilde" unicode="&#xd5;" horiz-adv-x="744" 
d="M325 93q109 0 182 91q40 50 64 120.5t24 147.5q0 174 -156 174q-79 0 -140 -51q-36 -29 -65 -75t-46.5 -112t-17.5 -131q0 -164 155 -164zM42 232q-1 93 26.5 182t78.5 161t133 115.5t182 41.5q119 0 190 -67.5t71 -180.5q1 -92 -26 -180t-78 -159.5t-133.5 -114.5
t-182.5 -42q-123 0 -192 64t-69 180zM251 777l21 99q64 50 124 50q36 0 86 -26q69 -34 107 -34q66 0 130 52l-22 -99q-62 -50 -123 -50q-38 0 -87 25t-71 30q-23 5 -35 5q-66 0 -130 -52z" />
    <glyph glyph-name="Odieresis" unicode="&#xd6;" horiz-adv-x="744" 
d="M325 93q109 0 182 91q40 50 64 120.5t24 147.5q0 174 -156 174q-79 0 -140 -51q-36 -29 -65 -75t-46.5 -112t-17.5 -131q0 -164 155 -164zM42 232q-1 93 26.5 182t78.5 161t133 115.5t182 41.5q119 0 190 -67.5t71 -180.5q1 -92 -26 -180t-78 -159.5t-133.5 -114.5
t-182.5 -42q-123 0 -192 64t-69 180zM562 900h109l-27 -125h-109zM316 900h109l-27 -125h-109z" />
    <glyph glyph-name="multiply" unicode="&#xd7;" horiz-adv-x="520" 
d="M253 206l-132 -131l-70 70l131 132l-129 130l70 70l130 -129l132 131l70 -70l-131 -132l129 -130l-70 -70z" />
    <glyph glyph-name="Oslash" unicode="&#xd8;" horiz-adv-x="744" 
d="M42 232q-1 93 26.5 182t78.5 161t133 115.5t182 41.5q80 0 141 -33l52 64h111l-95 -119q52 -62 52 -160q1 -92 -26 -180t-78 -159.5t-133.5 -114.5t-182.5 -42q-79 0 -136 28l-48 -59h-112l89 111q-54 60 -54 164zM170 257q0 -50 16 -78l341 425q-34 22 -88 22
q-79 0 -140 -51q-36 -29 -65 -75t-46.5 -112t-17.5 -131zM325 93q109 0 182 91q40 50 64 120.5t24 147.5q0 48 -16 79l-337 -420q34 -18 83 -18z" />
    <glyph glyph-name="Ugrave" unicode="&#xd9;" horiz-adv-x="719" 
d="M610 720h123l-99 -468q-27 -128 -116 -196t-227 -68q-129 0 -192.5 68t-37.5 195l98 469h123l-101 -478q-7 -23 -2 -49t17 -48.5t42 -37t73 -14.5q66 0 125.5 40.5t72.5 108.5zM507 775h-90l-79 154h123z" />
    <glyph glyph-name="Uacute" unicode="&#xda;" horiz-adv-x="719" 
d="M610 720h123l-99 -468q-27 -128 -116 -196t-227 -68q-129 0 -192.5 68t-37.5 195l98 469h123l-101 -478q-7 -23 -2 -49t17 -48.5t42 -37t73 -14.5q66 0 125.5 40.5t72.5 108.5zM507 929h127l-129 -154h-94z" />
    <glyph glyph-name="Ucircumflex" unicode="&#xdb;" horiz-adv-x="719" 
d="M610 720h123l-99 -468q-27 -128 -116 -196t-227 -68q-129 0 -192.5 68t-37.5 195l98 469h123l-101 -478q-7 -23 -2 -49t17 -48.5t42 -37t73 -14.5q66 0 125.5 40.5t72.5 108.5zM527 775l-46 111l-94 -111h-105l134 158h146l66 -158h-101z" />
    <glyph glyph-name="Udieresis" unicode="&#xdc;" horiz-adv-x="719" 
d="M610 720h123l-99 -468q-27 -128 -116 -196t-227 -68q-129 0 -192.5 68t-37.5 195l98 469h123l-101 -478q-7 -23 -2 -49t17 -48.5t42 -37t73 -14.5q66 0 125.5 40.5t72.5 108.5zM539 900h109l-27 -125h-109zM293 900h109l-27 -125h-109z" />
    <glyph glyph-name="Yacute" unicode="&#xdd;" horiz-adv-x="611" 
d="M352 248l-52 -248h-123l53 248l-145 472h130l99 -363l242 363h137zM456 929h127l-129 -154h-94z" />
    <glyph glyph-name="Thorn" unicode="&#xde;" horiz-adv-x="621" 
d="M312 108h-151l-23 -108h-124l152 720h125l-23 -108h146q86 0 138.5 -49.5t52.5 -138.5q0 -123 -86 -219.5t-207 -96.5zM371 502h-126l-61 -284h127q67 -4 116 54.5t48 123.5q0 45 -28 75.5t-76 30.5z" />
    <glyph glyph-name="germandbls" unicode="&#xdf;" horiz-adv-x="613" 
d="M266 341l22 105q74 3 123.5 47.5t49.5 99.5q0 32 -22.5 52.5t-59.5 20.5q-57 3 -96 -42t-49 -101l-153 -727h-120l149 710q28 132 106 200.5t193 68.5q82 0 128 -40.5t46 -107.5q0 -73 -49 -135q-50 -63 -119 -83q57 -9 104.5 -49.5t44.5 -105.5q0 -94 -70 -173
q-38 -43 -95.5 -66.5t-113.5 -23.5q-50 0 -118 11l21 102q49 -11 90 -11q61 -3 110 41.5t46 106.5q0 48 -44.5 74t-123.5 26z" />
    <glyph glyph-name="agrave" unicode="&#xe0;" 
d="M579 521l-106 -521h-96l-2 65q-83 -72 -183 -72q-73 0 -121.5 50t-48.5 141q0 159 93 266.5t253 107.5q96 0 211 -37zM381 144l64 306q-54 14 -86 14q-91 0 -152 -72q-31 -37 -47.5 -87.5t-16.5 -95.5q0 -59 26.5 -89t73.5 -30q34 0 72 15t66 39zM442 615h-90l-79 154
h123z" />
    <glyph glyph-name="aacute" unicode="&#xe1;" 
d="M579 521l-106 -521h-96l-2 65q-83 -72 -183 -72q-73 0 -121.5 50t-48.5 141q0 159 93 266.5t253 107.5q96 0 211 -37zM381 144l64 306q-54 14 -86 14q-91 0 -152 -72q-31 -37 -47.5 -87.5t-16.5 -95.5q0 -59 26.5 -89t73.5 -30q34 0 72 15t66 39zM407 769h127l-129 -154
h-94z" />
    <glyph glyph-name="acircumflex" unicode="&#xe2;" 
d="M579 521l-106 -521h-96l-2 65q-83 -72 -183 -72q-73 0 -121.5 50t-48.5 141q0 159 93 266.5t253 107.5q96 0 211 -37zM381 144l64 306q-54 14 -86 14q-91 0 -152 -72q-31 -37 -47.5 -87.5t-16.5 -95.5q0 -59 26.5 -89t73.5 -30q34 0 72 15t66 39zM445 615l-46 111
l-94 -111h-105l134 158h146l66 -158h-101z" />
    <glyph glyph-name="atilde" unicode="&#xe3;" 
d="M579 521l-106 -521h-96l-2 65q-83 -72 -183 -72q-73 0 -121.5 50t-48.5 141q0 159 93 266.5t253 107.5q96 0 211 -37zM381 144l64 306q-54 14 -86 14q-91 0 -152 -72q-31 -37 -47.5 -87.5t-16.5 -95.5q0 -59 26.5 -89t73.5 -30q34 0 72 15t66 39zM155 613l21 99
q64 50 124 50q36 0 86 -26q69 -34 107 -34q66 0 130 52l-22 -99q-62 -50 -123 -50q-38 0 -87 25t-71 30q-23 5 -35 5q-66 0 -130 -52z" />
    <glyph glyph-name="adieresis" unicode="&#xe4;" 
d="M579 521l-106 -521h-96l-2 65q-83 -72 -183 -72q-73 0 -121.5 50t-48.5 141q0 159 93 266.5t253 107.5q96 0 211 -37zM381 144l64 306q-54 14 -86 14q-91 0 -152 -72q-31 -37 -47.5 -87.5t-16.5 -95.5q0 -59 26.5 -89t73.5 -30q34 0 72 15t66 39zM459 740h109l-27 -125
h-109zM213 740h109l-27 -125h-109z" />
    <glyph glyph-name="aring" unicode="&#xe5;" 
d="M579 521l-106 -521h-96l-2 65q-83 -72 -183 -72q-73 0 -121.5 50t-48.5 141q0 159 93 266.5t253 107.5q96 0 211 -37zM381 144l64 306q-54 14 -86 14q-91 0 -152 -72q-31 -37 -47.5 -87.5t-16.5 -95.5q0 -59 26.5 -89t73.5 -30q34 0 72 15t66 39zM410 746q-26 0 -44 -19
t-18 -45q0 -35 40 -35q28 0 45 19t17 44q0 36 -40 36zM285 672q-5 39 35 83t100 43q44 0 68.5 -21t24.5 -57q1 -55 -45.5 -92.5t-89.5 -32.5q-43 0 -68 21.5t-25 55.5z" />
    <glyph glyph-name="ae" unicode="&#xe6;" horiz-adv-x="940" 
d="M850 123l-11 -101q-108 -34 -205 -34q-165 0 -214 101q-126 -96 -228 -96q-73 0 -121.5 50t-48.5 141q0 159 93 266.5t253 107.5q91 0 193 -39q64 39 167 39q88 0 139 -40.5t51 -107.5q0 -87 -61.5 -132.5t-175.5 -45.5q-66 0 -150 16q-6 -31 -6 -52q0 -53 34.5 -83
t102.5 -30q89 0 188 40zM413 300l32 151q-48 13 -86 13q-91 0 -152 -72q-31 -37 -47.5 -87.5t-16.5 -95.5q0 -59 26.5 -89t73.5 -30q34 0 72 15t66 39l20 16q-8 53 12 140zM540 315q67 -10 117 -10q150 0 151 94q0 34 -26.5 53t-67.5 19q-51 0 -92 -27q-61 -40 -82 -129z
" />
    <glyph glyph-name="ccedilla" unicode="&#xe7;" horiz-adv-x="523" 
d="M144 207q0 -125 137 -125q67 0 161 28l-19 -97q-93 -25 -178 -25q-94 0 -158.5 47.5t-64.5 150.5q-2 153 91.5 263t248.5 109q83 0 167 -26l-19 -96q-80 27 -148 27q-95 0 -156.5 -75t-61.5 -181zM101 -209l13 64q35 -7 71 -7q73 0 73 37q0 28 -92 32l3 12l52 71h74
l-35 -45q86 -4 86 -60q2 -15 -5.5 -33t-25 -36.5t-52.5 -30.5t-81 -12q-38 0 -81 8z" />
    <glyph glyph-name="egrave" unicode="&#xe8;" horiz-adv-x="562" 
d="M472 123l-11 -101q-108 -34 -205 -34q-109 0 -171.5 49.5t-62.5 151.5q0 69 21.5 134.5t61.5 118t104 84.5t141 32q81 0 135.5 -37.5t54.5 -109.5q0 -87 -61.5 -133t-175.5 -46q-66 0 -150 16q-6 -31 -6 -52q0 -53 34.5 -83t102.5 -30q89 0 188 40zM162 315
q67 -10 117 -10q148 0 151 95q0 33 -26.5 52t-67.5 19q-51 0 -92 -27q-61 -40 -82 -129zM418 615h-90l-79 154h123z" />
    <glyph glyph-name="eacute" unicode="&#xe9;" horiz-adv-x="562" 
d="M472 123l-11 -101q-108 -34 -205 -34q-109 0 -171.5 49.5t-62.5 151.5q0 69 21.5 134.5t61.5 118t104 84.5t141 32q81 0 135.5 -37.5t54.5 -109.5q0 -87 -61.5 -133t-175.5 -46q-66 0 -150 16q-6 -31 -6 -52q0 -53 34.5 -83t102.5 -30q89 0 188 40zM162 315
q67 -10 117 -10q148 0 151 95q0 33 -26.5 52t-67.5 19q-51 0 -92 -27q-61 -40 -82 -129zM399 769h127l-129 -154h-94z" />
    <glyph glyph-name="ecircumflex" unicode="&#xea;" horiz-adv-x="562" 
d="M472 123l-11 -101q-108 -34 -205 -34q-109 0 -171.5 49.5t-62.5 151.5q0 69 21.5 134.5t61.5 118t104 84.5t141 32q81 0 135.5 -37.5t54.5 -109.5q0 -87 -61.5 -133t-175.5 -46q-66 0 -150 16q-6 -31 -6 -52q0 -53 34.5 -83t102.5 -30q89 0 188 40zM162 315
q67 -10 117 -10q148 0 151 95q0 33 -26.5 52t-67.5 19q-51 0 -92 -27q-61 -40 -82 -129zM421 615l-46 111l-94 -111h-105l134 158h146l66 -158h-101z" />
    <glyph glyph-name="edieresis" unicode="&#xeb;" horiz-adv-x="562" 
d="M472 123l-11 -101q-108 -34 -205 -34q-109 0 -171.5 49.5t-62.5 151.5q0 69 21.5 134.5t61.5 118t104 84.5t141 32q81 0 135.5 -37.5t54.5 -109.5q0 -87 -61.5 -133t-175.5 -46q-66 0 -150 16q-6 -31 -6 -52q0 -53 34.5 -83t102.5 -30q89 0 188 40zM162 315
q67 -10 117 -10q148 0 151 95q0 33 -26.5 52t-67.5 19q-51 0 -92 -27q-61 -40 -82 -129zM434 740h109l-27 -125h-109zM188 740h109l-27 -125h-109z" />
    <glyph glyph-name="igrave" unicode="&#xec;" horiz-adv-x="282" 
d="M229 615h-90l-79 154h123zM30 135l85 411h120l-84 -393q-7 -37 5 -55t50 -18l29 3l-17 -80q-38 -8 -83 -8q-65 0 -92 37t-13 103z" />
    <glyph glyph-name="iacute" unicode="&#xed;" horiz-adv-x="282" 
d="M233 769h127l-129 -154h-94zM30 135l85 411h120l-84 -393q-7 -37 5 -55t50 -18l29 3l-17 -80q-38 -8 -83 -8q-65 0 -92 37t-13 103z" />
    <glyph glyph-name="icircumflex" unicode="&#xee;" horiz-adv-x="282" 
d="M30 135l85 411h120l-84 -393q-7 -37 5 -55t50 -18l29 3l-17 -80q-38 -8 -83 -8q-65 0 -92 37t-13 103zM251 615l-46 111l-94 -111h-105l134 158h146l66 -158h-101z" />
    <glyph glyph-name="idieresis" unicode="&#xef;" horiz-adv-x="282" 
d="M285 740h109l-27 -125h-109zM39 740h109l-27 -125h-109zM30 135l85 411h120l-84 -393q-7 -37 5 -55t50 -18l29 3l-17 -80q-38 -8 -83 -8q-65 0 -92 37t-13 103z" />
    <glyph glyph-name="eth" unicode="&#xf0;" horiz-adv-x="627" 
d="M321 592l-27 54l56 29q-35 47 -81 88h142q18 -17 34 -41l65 34l27 -55l-52 -25q49 -70 77 -159t26 -152q1 -168 -99 -273.5t-245 -103.5q-101 0 -162 50t-61 150q-2 143 88 253.5t229 109.5q58 0 102 -22q-21 53 -52 97zM344 453q-75 5 -137 -64.5t-62 -183.5
q0 -55 30.5 -84.5t90.5 -29.5q74 -5 135 64t62 184q0 114 -119 114z" />
    <glyph glyph-name="ntilde" unicode="&#xf1;" horiz-adv-x="620" 
d="M572 396l-81 -396h-119l78 380q8 38 -8 59t-55 21q-61 0 -180 -57l-83 -403h-119l112 546h99v-61q142 73 231 73q72 0 105.5 -45.5t19.5 -116.5zM149 613l21 99q64 50 124 50q36 0 86 -26q69 -34 107 -34q66 0 130 52l-22 -99q-62 -50 -123 -50q-38 0 -87 25t-71 30
q-23 5 -35 5q-66 0 -130 -52z" />
    <glyph glyph-name="ograve" unicode="&#xf2;" horiz-adv-x="626" 
d="M346 464q-86 0 -143 -82t-57 -181q0 -57 29.5 -88.5t88.5 -31.5q51 0 98 34q49 34 76 96q26 60 28 125q0 128 -120 128zM22 188q0 154 95 262t246 108q108 0 166.5 -54t58.5 -150q0 -157 -94.5 -261.5t-246.5 -104.5q-111 0 -168 52t-57 148zM427 615h-90l-79 154h123z
" />
    <glyph glyph-name="oacute" unicode="&#xf3;" horiz-adv-x="626" 
d="M346 464q-86 0 -143 -82t-57 -181q0 -57 29.5 -88.5t88.5 -31.5q51 0 98 34q49 34 76 96q26 60 28 125q0 128 -120 128zM22 188q0 154 95 262t246 108q108 0 166.5 -54t58.5 -150q0 -157 -94.5 -261.5t-246.5 -104.5q-111 0 -168 52t-57 148zM432 769h127l-129 -154h-94z
" />
    <glyph glyph-name="ocircumflex" unicode="&#xf4;" horiz-adv-x="626" 
d="M346 464q-86 0 -143 -82t-57 -181q0 -57 29.5 -88.5t88.5 -31.5q51 0 98 34q49 34 76 96q26 60 28 125q0 128 -120 128zM22 188q0 154 95 262t246 108q108 0 166.5 -54t58.5 -150q0 -157 -94.5 -261.5t-246.5 -104.5q-111 0 -168 52t-57 148zM447 615l-46 111l-94 -111
h-105l134 158h146l66 -158h-101z" />
    <glyph glyph-name="otilde" unicode="&#xf5;" horiz-adv-x="626" 
d="M346 464q-86 0 -143 -82t-57 -181q0 -57 29.5 -88.5t88.5 -31.5q51 0 98 34q49 34 76 96q26 60 28 125q0 128 -120 128zM22 188q0 154 95 262t246 108q108 0 166.5 -54t58.5 -150q0 -157 -94.5 -261.5t-246.5 -104.5q-111 0 -168 52t-57 148zM160 613l21 99q64 50 124 50
q36 0 86 -26q69 -34 107 -34q66 0 130 52l-22 -99q-62 -50 -123 -50q-38 0 -87 25t-71 30q-23 5 -35 5q-66 0 -130 -52z" />
    <glyph glyph-name="odieresis" unicode="&#xf6;" horiz-adv-x="626" 
d="M346 464q-86 0 -143 -82t-57 -181q0 -57 29.5 -88.5t88.5 -31.5q51 0 98 34q49 34 76 96q26 60 28 125q0 128 -120 128zM22 188q0 154 95 262t246 108q108 0 166.5 -54t58.5 -150q0 -157 -94.5 -261.5t-246.5 -104.5q-111 0 -168 52t-57 148zM461 740h109l-27 -125h-109z
M215 740h109l-27 -125h-109z" />
    <glyph glyph-name="divide" unicode="&#xf7;" horiz-adv-x="578" 
d="M329 506v-114h-100v114h100zM45 223v100h472v-100h-472zM329 155v-116h-100v116h100z" />
    <glyph glyph-name="oslash" unicode="&#xf8;" horiz-adv-x="626" 
d="M22 188q0 154 95 261t246 107q53 0 92 -13l84 111h113l-119 -155q55 -52 55 -145q0 -157 -94.5 -261.5t-246.5 -104.5q-47 0 -91 14l-90 -118h-112l122 160q-54 51 -54 144zM346 461q-75 0 -131 -66q-68 -78 -68 -194q0 -31 15 -44l226 299q-22 5 -42 5zM265 82
q80 0 138.5 75.5t60.5 178.5q0 34 -17 49l-224 -295q24 -8 42 -8z" />
    <glyph glyph-name="ugrave" unicode="&#xf9;" horiz-adv-x="620" 
d="M32 150l81 396h119l-78 -381q-7 -34 10.5 -57t52.5 -23q67 0 180 58l84 403h118l-112 -546h-99l1 60q-138 -73 -232 -72q-71 2 -105 47t-20 115zM411 615h-90l-79 154h123z" />
    <glyph glyph-name="uacute" unicode="&#xfa;" horiz-adv-x="620" 
d="M32 150l81 396h119l-78 -381q-7 -34 10.5 -57t52.5 -23q67 0 180 58l84 403h118l-112 -546h-99l1 60q-138 -73 -232 -72q-71 2 -105 47t-20 115zM416 769h127l-129 -154h-94z" />
    <glyph glyph-name="ucircumflex" unicode="&#xfb;" horiz-adv-x="620" 
d="M32 150l81 396h119l-78 -381q-7 -34 10.5 -57t52.5 -23q67 0 180 58l84 403h118l-112 -546h-99l1 60q-138 -73 -232 -72q-71 2 -105 47t-20 115zM436 615l-46 111l-94 -111h-105l134 158h146l66 -158h-101z" />
    <glyph glyph-name="udieresis" unicode="&#xfc;" horiz-adv-x="620" 
d="M32 150l81 396h119l-78 -381q-7 -34 10.5 -57t52.5 -23q67 0 180 58l84 403h118l-112 -546h-99l1 60q-138 -73 -232 -72q-71 2 -105 47t-20 115zM462 740h109l-27 -125h-109zM216 740h109l-27 -125h-109z" />
    <glyph glyph-name="yacute" unicode="&#xfd;" horiz-adv-x="533" 
d="M226 115h9l144 274q14 27 29 78q14 48 14 79h119q-3 -89 -52 -180l-201 -372q-27 -50 -51 -109q-22 -54 -22 -90h-123q0 37 22 93t58 112h-44l-72 546h124zM362 769h127l-129 -154h-94z" />
    <glyph glyph-name="thorn" unicode="&#xfe;" horiz-adv-x="619" 
d="M126 3l-44 -208h-118l189 925h117l-50 -237q115 72 208 72q73 0 113.5 -48t40.5 -131q0 -137 -63 -240q-40 -68 -108 -108t-154 -40q-56 0 -131 15zM245 87q86 0 142 66q67 79 67 194q0 107 -87 107q-59 0 -157 -53l-65 -302q53 -12 100 -12z" />
    <glyph glyph-name="ydieresis" unicode="&#xff;" horiz-adv-x="533" 
d="M226 115h9l144 274q14 27 29 78q14 48 14 79h119q-3 -89 -52 -180l-201 -372q-27 -50 -51 -109q-22 -54 -22 -90h-123q0 37 22 93t58 112h-44l-72 546h124zM405 740h109l-27 -125h-109zM159 740h109l-27 -125h-109z" />
    <glyph glyph-name="dotlessi" unicode="&#x131;" horiz-adv-x="282" 
d="M30 135l85 411h120l-84 -393q-7 -37 5 -55t50 -18l29 3l-17 -80q-38 -8 -83 -8q-65 0 -92 37t-13 103z" />
    <glyph glyph-name="Lslash" unicode="&#x141;" horiz-adv-x="560" 
d="M91 274l-115 -53l22 108l116 54l72 337h123l-59 -276l195 89l-24 -111l-194 -88l-49 -229h332l-23 -105h-454z" />
    <glyph glyph-name="lslash" unicode="&#x142;" horiz-adv-x="331" 
d="M192 763h122l-58 -275l113 56l-24 -111l-112 -55l-49 -235q-13 -58 50 -58l36 3l-15 -87q-42 -7 -87 -7q-136 0 -104 153l34 164l-100 -49l22 109l101 50z" />
    <glyph glyph-name="OE" unicode="&#x152;" horiz-adv-x="1019" 
d="M581 720h482l-24 -110h-358l-41 -194h309l-23 -109h-309l-42 -199h356l-23 -108h-479q-63 -12 -126 -12q-262 0 -262 242q0 48 11 111q31 179 138.5 285t271.5 106q53 0 119 -12zM441 623q-69 0 -128 -39q-58 -32 -101.5 -120.5t-42.5 -208.5q0 -159 161 -159
q55 0 122 14l105 494q-56 19 -116 19z" />
    <glyph glyph-name="oe" unicode="&#x153;" horiz-adv-x="990" 
d="M22 188q0 154 95 262t246 108q141 0 195 -89q89 89 220 89q81 0 135.5 -37.5t54.5 -109.5q0 -87 -61.5 -133t-175.5 -46q-66 0 -150 16q-6 -32 -6 -52q0 -53 34.5 -83t102.5 -30q89 0 188 40l-11 -101q-108 -34 -205 -34q-153 0 -207 86q-92 -86 -230 -86q-111 0 -168 52
t-57 148zM346 464q-86 0 -143 -82t-57 -181q0 -57 29.5 -88.5t88.5 -31.5q51 0 98 34q49 34 76 96q26 60 28 125q0 128 -120 128zM590 315q67 -10 117 -10q148 0 151 95q0 33 -26.5 52t-67.5 19q-51 0 -92 -27q-61 -40 -82 -129z" />
    <glyph glyph-name="Scaron" unicode="&#x160;" horiz-adv-x="578" 
d="M212 94q81 0 131.5 36t50.5 96q3 25 -18.5 45t-48.5 27q-19 6 -87 23q-73 18 -102 41q-54 43 -54 115q0 109 80.5 181.5t247.5 72.5q18 0 35 -1q20 0 146 -11l-23 -110q-125 17 -178 17q-82 0 -129.5 -31t-47.5 -85q0 -30 22 -49q24 -20 92 -35q70 -15 100 -26
q98 -36 98 -134q0 -128 -89 -203t-239 -75q-98 0 -206 20l22 110q134 -24 197 -24zM383 932l47 -112l93 112h104l-131 -157h-150l-65 157h102z" />
    <glyph glyph-name="scaron" unicode="&#x161;" horiz-adv-x="494" 
d="M-9 8l18 96q94 -23 162 -23q62 0 99.5 23t37.5 67q0 12 -7 22q-7 11 -24 18q-19 8 -72 20q-58 14 -77 23q-20 9 -38 24q-37 30 -37 90q0 88 69.5 138.5t190.5 50.5q15 0 62 -3q49 -3 101 -15l-19 -94q-67 19 -146 19q-64 1 -99 -20.5t-33 -53.5q0 -21 17 -36
q18 -14 75 -27q56 -11 78 -20q44 -20 62.5 -43t21.5 -74q0 -85 -62 -141q-68 -61 -201 -61q-101 0 -179 20zM281 772l47 -112l93 112h104l-131 -157h-150l-65 157h102z" />
    <glyph glyph-name="Ydieresis" unicode="&#x178;" horiz-adv-x="611" 
d="M352 248l-52 -248h-123l53 248l-145 472h130l99 -363l242 363h137zM493 900h109l-27 -125h-109zM247 900h109l-27 -125h-109z" />
    <glyph glyph-name="Zcaron" unicode="&#x17d;" horiz-adv-x="643" 
d="M125 720h554l-24 -116l-501 -497h413l-23 -107h-564l24 115l502 499h-404zM386 932l47 -112l93 112h104l-131 -157h-150l-65 157h102z" />
    <glyph glyph-name="zcaron" unicode="&#x17e;" horiz-adv-x="538" 
d="M362 453h-297l18 93h456l-15 -77l-368 -376h308l-18 -93h-470l15 78zM291 772l47 -112l93 112h104l-131 -157h-150l-65 157h102z" />
    <glyph glyph-name="florin" unicode="&#x192;" horiz-adv-x="610" 
d="M359 276l-52 -246q-53 -247 -273 -247q-58 0 -110 9l33 105q33 -10 76 -10q26 2 39 4t33.5 11t32.5 24t25 44t22 71l50 235h-136l22 103h136l27 127q28 131 96.5 193t184.5 62q55 0 105 -9l-34 -104q-30 9 -76 9q-64 0 -100 -33.5t-54 -120.5l-27 -124h155l-22 -103h-153
z" />
    <glyph glyph-name="circumflex" unicode="&#x2c6;" horiz-adv-x="680" 
d="M391 615l-46 111l-94 -111h-105l134 158h146l66 -158h-101z" />
    <glyph glyph-name="caron" unicode="&#x2c7;" horiz-adv-x="680" 
d="M285 772l47 -112l93 112h104l-131 -157h-150l-65 157h102z" />
    <glyph glyph-name="breve" unicode="&#x2d8;" horiz-adv-x="638" 
d="M304 613q-58 -1 -106 19t-63 44l38 72q70 -46 150 -46q81 0 170 46l8 -72q-36 -29 -89.5 -46t-107.5 -17z" />
    <glyph glyph-name="dotaccent" unicode="&#x2d9;" horiz-adv-x="347" 
d="M140 738h100l-26 -122h-100z" />
    <glyph glyph-name="ring" unicode="&#x2da;" horiz-adv-x="447" 
d="M231 746q-26 0 -44 -19t-18 -45q0 -35 40 -35q28 0 45 19t17 44q0 36 -40 36zM106 672q-5 39 35 83t100 43q44 0 68.5 -21t24.5 -57q1 -55 -45.5 -92.5t-89.5 -32.5q-43 0 -68 21.5t-25 55.5z" />
    <glyph glyph-name="ogonek" unicode="&#x2db;" horiz-adv-x="463" 
d="M245 0h78q-96 -70 -96 -127q0 -22 19.5 -35t53.5 -13q25 0 40 4l-15 -71q-40 -10 -80 -10q-55 -1 -89.5 24.5t-31.5 60.5q0 39 32 88q34 48 89 79z" />
    <glyph glyph-name="tilde" unicode="&#x2dc;" horiz-adv-x="702" 
d="M117 613l21 99q64 50 124 50q36 0 86 -26q69 -34 107 -34q66 0 130 52l-22 -99q-62 -50 -123 -50q-38 0 -87 25t-71 30q-23 5 -35 5q-66 0 -130 -52z" />
    <glyph glyph-name="hungarumlaut" unicode="&#x2dd;" horiz-adv-x="808" 
d="M223 770h126l-132 -153h-94zM422 770h127l-133 -153h-94z" />
    <glyph glyph-name="uni0394" unicode="&#x394;" horiz-adv-x="815" 
d="M520 670l108 -670h-575l384 670h83zM452 530l-247 -433h311z" />
    <glyph glyph-name="uni03A9" unicode="&#x3a9;" horiz-adv-x="770" 
d="M447 604q-105 0 -182.5 -80t-77.5 -188q-3 -52 28.5 -120t87.5 -102l-24 -114h-297l24 112h162q-46 33 -75 99t-26 119q0 71 30.5 142t79.5 120q63 67 143 96t151 29q109 0 186 -59q42 -32 64 -82.5t22 -105.5q5 -92 -61 -197.5t-164 -160.5h163l-23 -112h-298l24 114
q94 47 163.5 143.5t69.5 182.5q0 73 -46.5 118.5t-123.5 45.5z" />
    <glyph glyph-name="uni03BC" unicode="&#x3bc;" horiz-adv-x="626" 
d="M-38 -205l156 751h121l-79 -381q-7 -34 10.5 -56.5t52.5 -22.5q64 0 179 58l83 402h120l-112 -546h-100v59q-140 -71 -231 -71q-16 0 -41 5l-41 -198h-118z" />
    <glyph glyph-name="pi" unicode="&#x3c0;" horiz-adv-x="737" 
d="M727 447h-148l-61 -286q-14 -59 52 -59q28 0 81 12l-23 -109q-84 -15 -122 -15q-148 0 -115 155l65 302h-159l-95 -447h-123l95 447h-129l21 99h682z" />
    <glyph glyph-name="endash" unicode="&#x2013;" horiz-adv-x="598" 
d="M515 217h-473l23 109h474z" />
    <glyph glyph-name="emdash" unicode="&#x2014;" horiz-adv-x="817" 
d="M736 217h-695l23 109h695z" />
    <glyph glyph-name="quoteleft" unicode="&#x2018;" horiz-adv-x="229" 
d="M204 747h53l-55 -257h-108q21 144 110 257z" />
    <glyph glyph-name="quoteright" unicode="&#x2019;" horiz-adv-x="221" 
d="M153 486h-53l55 257h108q-21 -144 -110 -257z" />
    <glyph glyph-name="quotesinglbase" unicode="&#x201a;" horiz-adv-x="237" 
d="M27 -120h-53l55 256h108q-17 -137 -110 -256z" />
    <glyph glyph-name="quotedblleft" unicode="&#x201c;" horiz-adv-x="420" 
d="M395 747h53l-55 -257h-108q14 137 110 257zM204 747h53l-55 -257h-108q21 144 110 257z" />
    <glyph glyph-name="quotedblright" unicode="&#x201d;" horiz-adv-x="412" 
d="M153 486h-53l55 257h108q-14 -137 -110 -257zM344 486h-53l55 257h108q-21 -144 -110 -257z" />
    <glyph glyph-name="quotedblbase" unicode="&#x201e;" horiz-adv-x="408" 
d="M27 -120h-53l55 256h108q-8 -126 -110 -256zM198 -120h-53l55 256h108q-17 -137 -110 -256z" />
    <glyph glyph-name="dagger" unicode="&#x2020;" horiz-adv-x="477" 
d="M319 410l-79 -376h-120l80 376h-144l23 110h144l38 182h120l-39 -182h144l-23 -110h-144z" />
    <glyph glyph-name="daggerdbl" unicode="&#x2021;" horiz-adv-x="507" 
d="M290 200l-35 -168h-120l35 168h-144l24 110h144l21 99h-144l23 110h144l39 183h120l-39 -183h144l-23 -110h-144l-21 -99h144l-24 -110h-144z" />
    <glyph glyph-name="bullet" unicode="&#x2022;" horiz-adv-x="327" 
d="M231 276h-151l32 150h151z" />
    <glyph glyph-name="ellipsis" unicode="&#x2026;" horiz-adv-x="757" 
d="M27 134h105l-29 -134h-105zM295 134h106l-29 -134h-106zM552 134h106l-30 -134h-106z" />
    <glyph glyph-name="perthousand" unicode="&#x2030;" horiz-adv-x="1093" 
d="M98 0l492 720h89l-493 -720h-88zM81 502q0 89 49.5 159.5t137.5 70.5q55 0 84 -29.5t29 -82.5q0 -70 -30 -133q-24 -48 -66 -73.5t-90 -25.5q-55 0 -84.5 30.5t-29.5 83.5zM254 670q-23 0 -46 -17q-22 -16 -37 -57t-15 -84q0 -62 52 -62q42 0 70 46.5t28 112.5
q0 61 -52 61zM398 107q0 56 19 107t63 87t104 36q56 0 84.5 -29.5t28.5 -82.5q0 -98 -50 -165t-136 -67q-55 0 -84 30.5t-29 83.5zM571 275q-40 0 -69.5 -45.5t-29.5 -112.5q0 -62 52 -62q43 0 71 46.5t28 112.5q0 61 -52 61zM735 107q0 56 19 107t63 87t104 36
q56 0 84.5 -29.5t28.5 -82.5q0 -98 -50 -165t-136 -67q-55 0 -84 30.5t-29 83.5zM907 275q-40 0 -69 -45.5t-29 -112.5q0 -62 52 -62q43 0 71 46.5t28 112.5q0 61 -53 61z" />
    <glyph glyph-name="guilsinglleft" unicode="&#x2039;" horiz-adv-x="343" 
d="M242 14h-115l-97 259l206 258h118l-211 -258z" />
    <glyph glyph-name="guilsinglright" unicode="&#x203a;" horiz-adv-x="345" 
d="M86 531h115l97 -259l-206 -258h-118l211 258z" />
    <glyph glyph-name="fraction" unicode="&#x2044;" horiz-adv-x="522" 
d="M7 -93h-101l620 856h103z" />
    <glyph glyph-name="Euro" unicode="&#x20ac;" horiz-adv-x="707" 
d="M553 501l-21 -100h-255q-13 -43 -16 -86h253l-22 -100h-229q24 -123 161 -123q74 0 194 37l-22 -110q-102 -31 -196 -31q-124 0 -194 60t-76 167h-109l22 100h91q9 58 17 86h-90l21 100h105q53 108 147.5 169.5t219.5 61.5q99 0 186 -24l-24 -112q-86 30 -160 30
q-58 3 -125.5 -29.5t-107.5 -95.5h230z" />
    <glyph glyph-name="trademark" unicode="&#x2122;" horiz-adv-x="731" 
d="M376 719l-13 -60h-86l-44 -208h-65l44 208h-84l13 60h235zM537 522h4l101 197h104l-57 -268h-64l42 199h-4l-105 -200h-70l-21 200h-4l-42 -199h-64l57 268h104z" />
    <glyph glyph-name="minus" unicode="&#x2212;" horiz-adv-x="627" 
d="M541 224h-471v100h471v-100z" />
    <glyph glyph-name="radical" unicode="&#x221a;" horiz-adv-x="716" 
d="M58 520h226l31 -516l370 821h138l-468 -1002h-156l-41 587h-123z" />
    <glyph glyph-name="infinity" unicode="&#x221e;" horiz-adv-x="1024" 
d="M715 81q-113 0 -226 124q-161 -124 -276 -124q-78 0 -123.5 40t-45.5 108q0 104 74.5 173.5t176.5 69.5q51 2 110.5 -29t115.5 -94q101 75 165 99t111 24q77 0 123 -40.5t46 -109.5q0 -63 -32 -118q-26 -49 -87.5 -86.5t-131.5 -36.5zM772 363q-35 0 -76 -16
q-44 -18 -122 -70q41 -37 58 -50q50 -36 103 -36q51 0 86.5 30.5t35.5 75.5q0 31 -22 48.5t-63 17.5zM238 190q25 0 61 10q37 10 140 77q-1 1 -10.5 9t-15 13t-18 14.5t-22 16t-23.5 14t-25.5 11.5t-24.5 6.5t-25 1.5q-40 3 -81 -27.5t-40 -80.5q0 -30 22 -47.5t62 -17.5z
" />
    <glyph glyph-name="integral" unicode="&#x222b;" horiz-adv-x="412" 
d="M325 588l-134 -634q-41 -187 -207 -187q-48 0 -88 9l30 105q29 -7 61 -7q64 0 85 93l134 634q41 187 208 187q49 0 88 -9l-30 -105q-34 6 -61 6q-66 0 -86 -92z" />
    <glyph glyph-name="approxequal" unicode="&#x2248;" horiz-adv-x="588" 
d="M480 428l31 -88q-57 -48 -121 -48q-28 0 -96 24q-66 25 -104 25q-45 0 -95 -29l-36 86q68 46 122 46q23 0 46 -6q30 -8 77 -25q54 -19 79 -19q49 0 97 34zM481 227l30 -87q-55 -49 -120 -49q-29 0 -87 21q-57 22 -81 25q-20 4 -32 4q-46 0 -95 -29l-36 85q65 45 121 45
q39 0 107 -25q69 -24 96 -24q54 0 97 34z" />
    <glyph glyph-name="notequal" unicode="&#x2260;" horiz-adv-x="604" 
d="M280 334h-222v100h276l50 93h84l-50 -93h112v-100h-167l-64 -119h231v-101h-286l-47 -89h-83l48 89h-104v101h158z" />
    <glyph glyph-name="lessequal" unicode="&#x2264;" horiz-adv-x="636" 
d="M540 544l-378 -154l378 -153v-109l-472 198v129l472 198v-109zM540 0h-472v89h472v-89z" />
    <glyph glyph-name="greaterequal" unicode="&#x2265;" horiz-adv-x="673" 
d="M106 128v109l378 153l-378 154v109l472 -198v-129zM106 89h472v-89h-472v89z" />
    <glyph glyph-name="lozenge" unicode="&#x25ca;" horiz-adv-x="550" 
d="M260 135l147 202l-105 198l-145 -201zM34 337l234 332h74l188 -336l-236 -333h-73z" />
    <glyph glyph-name="NULL" horiz-adv-x="0" 
 />
    </font>
</defs>
</svg>
